<svg width="0" height="0" class="hidden">
  <symbol xmlns="http://www.w3.org/2000/svg" viewBox="0 0 60 60" id="field-1">
    <g xmlns="http://www.w3.org/2000/svg" id="线上活动" stroke="none" stroke-width="1" fill-rule="evenodd">
      <g id="镇江网上展厅" transform="translate(-401.000000, -1063.000000)" fill-rule="nonzero">
        <g id="电力" transform="translate(401.000000, 1063.000000)">
          <rect id="矩形"   opacity="0" x="0" y="0" width="60" height="60"/>
          <path d="M50.2575493,28.5010661 L40.6851587,28.5010661 L38.8808,19.493689 L44.2457327,19.493689 C44.6403726,19.4964181 45.0200948,19.3401774 45.2994619,19.0597629 C45.579507,18.7793484 45.7361425,18.3986397 45.7347863,18.0008742 C45.7361425,17.6037909 45.578829,17.2223999 45.2994619,16.9419854 C45.0200948,16.6615709 44.6403726,16.5053303 44.2457327,16.5080594 L38.2793471,16.5080594 L36.956422,9.90910835 C36.6675618,8.50908277 35.4429576,7.50409364 34.0217116,7.5 L27.4538731,7.5 C26.0333051,7.5 24.782934,8.51249414 24.5191627,9.90910835 L23.1962375,16.5080594 L17.2549407,16.5080594 C16.8595295,16.5045903 16.4791525,16.6603362 16.1984992,16.9406209 C15.9178092,17.2210104 15.7605218,17.6029017 15.7618187,18.0008742 C15.7618187,18.8441644 16.4358256,19.493689 17.2549407,19.493689 L22.6198734,19.493689 L20.8134805,28.5037951 L11.2410899,28.5037951 C10.8462803,28.5003407 10.4665405,28.6561257 10.1866826,28.9363567 C9.9065782,29.2163032 9.74934771,29.5973193 9.75,29.9945631 C9.75,30.8146561 10.4219748,31.4894248 11.2390556,31.4894248 L20.2127057,31.4894248 L15.7869075,53.742463 L15.7869075,54.1995864 C15.7869075,54.295787 15.8119963,54.3687902 15.8343727,54.4643086 C15.8594615,54.5605091 15.9069268,54.6335124 15.9550702,54.729713 C15.9971108,54.8190909 16.0540692,54.9002814 16.1232329,54.9698734 C16.1483217,55.0176325 16.1727324,55.0660739 16.2188415,55.0906358 C16.2439303,55.1138331 16.2934298,55.1390772 16.3158063,55.1615923 C16.3883604,55.2100337 16.4609144,55.2577928 16.5565231,55.3075988 C16.6521317,55.355358 16.7497746,55.4037994 16.8447051,55.4269967 C16.8942046,55.4269967 16.9172592,55.4747559 16.9654025,55.4747559 L17.1105107,55.4747559 C17.158654,55.4747559 17.2061193,55.5 17.2556188,55.5 C17.3030841,55.5 17.3512275,55.4747559 17.4237815,55.4747559 C17.5193902,55.4747559 17.6149988,55.4515586 17.7119636,55.4269967 C17.8075722,55.4037994 17.9025028,55.3560403 17.9770911,55.3075988 C18.0659189,55.2652979 18.147288,55.2079869 18.2171298,55.138395 C18.2652731,55.0899535 18.3127384,55.0899535 18.3602037,55.0421944 L30.7737303,41.9404929 L43.1859008,55.0421944 C43.2109896,55.0653917 43.2333661,55.0653917 43.2584549,55.0899535 C43.3540635,55.1861541 43.4740829,55.2571106 43.5947803,55.3069165 C43.6422456,55.3301139 43.6903889,55.377873 43.7398884,55.377873 C43.9148319,55.4549699 44.1026588,55.4959064 44.293876,55.4993177 C44.3894847,55.4993177 44.4850933,55.4993177 44.5576474,55.4740736 C44.6051127,55.4740736 44.6302015,55.4263144 44.6776667,55.4263144 C44.7732754,55.4031171 44.868884,55.355358 44.9658488,55.3069165 L45.183511,55.16091 C45.2309763,55.1377127 45.2560651,55.1131508 45.3042084,55.0899535 C45.3516737,55.0421944 45.3516737,54.9937529 45.3998171,54.9691911 C45.4689976,54.8993093 45.5258626,54.818098 45.5679798,54.7290307 C45.6174793,54.6328302 45.6635884,54.5598269 45.6886772,54.4636263 C45.713766,54.3674257 45.7381767,54.2944224 45.7381767,54.1989041 L45.7381767,53.7417807 L41.2879677,31.5112575 L50.2609397,31.5112575 C50.6557195,31.5138996 51.035169,31.3576458 51.3148356,31.0772728 C51.5945022,30.7968998 51.7511784,30.4156738 51.75,30.0184427 C51.75,29.2003966 51.1003971,28.5010661 50.2609397,28.5010661 L50.2575493,28.5010661 L50.2575493,28.5010661 Z M25.7775278,19.5 L35.7238072,19.5 L37.5,28.5 L24,28.5 L25.7761928,19.5 L25.7775278,19.5 L25.7775278,19.5 Z M36,32.25 L30.3740131,38.25 L24.75,32.25 L36,32.25 Z M19.5,49.5 L22.6445455,33.75 L28.5,39.9581399 L19.5,49.5 Z M38.1047397,33.75 L41.25,49.5 L32.25,39.9581399 L38.1047397,33.75 Z" id="形状"  />
          <polygon id="路径" fill="#12A958" points="27.4646275 10.5 34.0374231 10.5 35.25 16.5 26.25 16.5 27.4625769 10.5"/>
        </g>
      </g>
    </g>
  </symbol>
  <symbol xmlns="http://www.w3.org/2000/svg" viewBox="0 0 60 60" id="field-2">
    <g xmlns="http://www.w3.org/2000/svg" id="线上活动" stroke="none" stroke-width="1"   fill-rule="evenodd">
      <g id="镇江网上展厅" transform="translate(-541.000000, -1063.000000)" fill-rule="nonzero">
        <g id="汽车备份" transform="translate(541.000000, 1063.000000)">
          <rect id="矩形"   opacity="0" x="0" y="0" width="60" height="60"/>
          <path d="M55.6249163,33.3560446 C55.4106216,30.4879492 53.5599763,27.9546667 50.9086939,26.7734676 L48.5269887,15.5756997 C47.6552397,11.4807161 43.5421484,8.15027414 39.3556668,8.15027414 L20.5904297,8.15027414 C16.4038881,8.15027414 12.2896576,11.4806561 11.4191078,15.5756997 L9.03626338,26.7734676 C6.38492098,27.955806 4.53547494,30.4879492 4.32112025,33.3560446 L3.78172594,40.5394743 C3.55052268,43.6255219 5.30601246,46.4081153 8.06090467,47.5338521 C8.69425523,50.0141904 10.9313985,51.8239434 13.5803425,51.8239434 C16.0414338,51.8239434 18.1364734,50.2875451 18.933573,48.070848 L41.0124035,48.070848 C41.809563,50.2875451 43.9045426,51.8239434 46.3644948,51.8239434 C49.0134388,51.8239434 51.2529204,50.0141904 51.886271,47.5338521 C54.6412232,46.4081153 56.3954538,43.6267211 56.1631113,40.5394743 L55.6249163,33.3560446 Z M50.0946858,44.7500595 C49.3975984,44.9126092 48.8930405,45.5169995 48.856885,46.2322545 C48.7906899,47.5700075 47.696192,48.6186965 46.3645548,48.6186965 C45.0666148,48.6186965 43.9997582,47.6338042 43.8841565,46.3273501 C43.8119055,45.5001509 43.1184157,44.8668603 42.287559,44.8668603 L17.6573383,44.8668603 C16.8265416,44.8668603 16.134191,45.5001509 16.0607408,46.3273501 C15.9451392,47.6338043 14.8795417,48.6186965 13.5804025,48.6186965 C12.2499045,48.6186965 11.1554665,47.5712067 11.0892115,46.2322545 C11.0542552,45.5169994 10.548558,44.9126092 9.8526099,44.7500595 C8.01521566,44.3238084 6.83401652,42.6911154 6.97731937,40.7790718 L7.51671369,33.5968413 C7.65641895,31.7305467 9.06396463,30.0364553 10.941052,29.4789533 C11.5527572,29.2959573 11.9981953,28.7686148 12.0753029,28.132806 C12.0849564,28.041308 12.0921515,27.9485509 12.0993466,27.8582521 C12.1030042,27.8113039 12.1030042,27.7631566 12.1113985,27.7197461 L14.5532429,16.2426875 C15.1167409,13.5925443 17.8812265,11.3554011 20.5904297,11.3554011 L39.3556669,11.3554011 C42.063611,11.3554011 44.8281566,13.5925443 45.3928538,16.2426875 L47.833439,27.7186068 C47.8431524,27.7667542 47.8431524,27.8137024 47.84675,27.8606505 C47.8527459,27.9497501 47.860001,28.0389096 47.8707937,28.1292084 C47.9454431,28.7649574 48.3922002,29.2958974 49.0063038,29.4789533 C50.882192,30.0364553 52.2897377,31.7305467 52.429383,33.5968413 L52.967698,40.7790718 C53.11208,42.6899162 51.9296817,44.3238084 50.0946858,44.7500595 Z M17.6284379,28.2857623 L42.3164595,28.2857623 C42.9112562,28.2857623 43.4230092,28.0654716 43.7372562,27.6861688 C44.076806,27.2948141 44.2140529,26.7590174 44.1249533,26.1774117 C44.1177582,26.1389178 44.1105631,26.100364 44.1020488,26.0618701 L42.1623639,17.6333846 C41.9190489,16.3041458 40.6042603,15.1939985 39.2508579,15.1939985 L20.6963779,15.1939985 C19.3430354,15.1939985 18.0257885,16.3041458 17.7825934,17.6333845 L15.8440477,26.06187 C15.8343943,26.1003639 15.8271991,26.1389177 15.8212032,26.1774117 C15.7309044,26.7589574 15.8681514,27.2947541 16.1884542,27.6632643 C16.5230873,28.0654117 17.0336412,28.2857623 17.6284379,28.2857623 Z M15.6982866,33.7751005 C13.6984025,33.7751005 12.0765021,35.3969409 12.0765021,37.396885 C12.0765021,39.3979682 13.6984025,41.0186694 15.6982866,41.0186694 C17.6982306,41.0186694 19.3189318,39.3979682 19.3189318,37.396885 C19.3189318,35.3969409 17.6982306,33.7751005 15.6982866,33.7751005 Z M44.24781,33.7751005 C42.247866,33.7751005 40.6260255,35.3969409 40.6260255,37.396885 C40.6260255,39.3979682 42.2478659,41.0186694 44.24781,41.0186694 C46.2488933,41.0186694 47.8695345,39.3979682 47.8695345,37.396885 C47.8695345,35.3969409 46.2488933,33.7751005 44.24781,33.7751005 Z" id="形状" />
          <polygon id="路径" fill="#12A958" points="20.8950232 18.3992453 39.0510734 18.3992453 40.5874118 25.0805754 19.3574856 25.0805754"/>
        </g>
      </g>
    </g>
  </symbol>
  <symbol xmlns="http://www.w3.org/2000/svg" viewBox="0 0 60 60" id="field-3">
    <g xmlns="http://www.w3.org/2000/svg" id="线上活动" stroke="none" stroke-width="1"  fill-rule="evenodd">
      <g id="镇江网上展厅" transform="translate(-401.000000, -1234.000000)" fill-rule="nonzero">
        <g id="工具材料1备份" transform="translate(401.000000, 1234.000000)">
          <rect id="矩形"  opacity="0" x="0" y="0" width="60" height="60"/>
          <polygon id="路径" fill="#12A958" points="19.4610352 24.7787109 19.4610352 37.9003951 29.9610352 44.2787109 29.7379293 31.0479151"/>
          <polygon id="路径" fill="#12A958" points="29.9610352 6.02871094 29.9610352 19.1506154 40.4610352 25.5287109 40.2373054 12.2983721 29.9610352 6.02871094"/>
          <polygon id="路径" fill="#12A958" points="41.2110352 24.7787109 41.2110352 37.9003951 51.7110352 44.2787109 51.4879428 31.0479151"/>
          <path d="M19.1205033,52.5287109 C18.2128773,52.5275766 17.477687,51.7726374 17.4776877,50.8417652 L17.4776877,39.0660245 L7.53331058,33.175757 C7.02452599,32.8745356 6.71103516,32.3178104 6.71103516,31.7152945 C6.71103516,31.1127785 7.02436741,30.5560082 7.53311079,30.2547136 C8.04185417,29.953419 8.66867725,29.9533739 9.17746184,30.2545953 L19.121839,36.1448628 L29.0668839,30.2545953 L30.7110352,33.175757 L20.766658,39.0660245 L20.766658,50.8417652 C20.7666582,51.2894083 20.5931819,51.7186971 20.2844296,52.0351001 C19.9756772,52.3515031 19.5569678,52.5290739 19.1205033,52.5287109 L19.1205033,52.5287109 Z" id="路径"  />
          <path d="M18.7486488,52.5 L6,45.375327 L6,31.128597 L18.7486488,24 L31.5,31.128597 L31.5,45.375327 L18.7486488,52.5 Z M9,43.4995109 L18.375,48.75 L27.75,43.4995109 L27.75,33.0011411 L18.375,27.75 L9,32.999837 L9,43.4995109 Z" id="形状" />
          <path d="M29.6353695,33.7787109 C28.7282821,33.778333 27.9931378,33.0236842 27.9931378,32.0929083 L27.9931378,20.3265126 L18.0597039,14.4402347 C17.539338,14.1453564 17.214796,13.5850433 17.2110352,12.9750871 C17.2073393,12.3651309 17.5250063,11.8006845 18.0417264,11.4991317 C18.5584466,11.1975788 19.1936118,11.2059616 19.7026026,11.5210515 L29.6353695,17.4073294 L39.5681364,11.5210515 L41.2110352,14.4402347 L31.2776012,20.3265126 L31.2776012,32.0929083 C31.2776013,33.0236842 30.5424569,33.778333 29.6353695,33.7787109 L29.6353695,33.7787109 Z" id="路径"  />
          <path d="M30.0006757,33 L17.25,25.8745094 L17.25,11.6222202 L30.0006757,4.5 L42.75,11.6222202 L42.75,25.8745094 L30.0006757,33 Z M20.25,24.0006521 L29.6246639,29.25 L39,24.0006521 L39,13.5019563 L29.6246639,8.25 L20.25,13.5 L20.25,24.0006521 Z" id="形状" />
          <path d="M40.8719716,52.5287109 C39.9638343,52.5283328 39.2278391,51.7731819 39.2278392,50.8417868 L39.2278392,39.0661933 L29.2835758,33.1759994 C28.497072,32.7103573 28.2275363,31.6789636 28.6815509,30.8723172 C29.1355655,30.0656707 30.1412045,29.7892321 30.9277083,30.2548742 L40.8719716,36.1450681 L50.8169027,30.2548742 L52.4610352,33.1759994 L42.5167718,39.0661933 L42.5167718,50.8417868 C42.5167718,51.7734493 41.7803697,52.5287109 40.8719716,52.5287109 L40.8719716,52.5287109 Z" id="路径"  />
          <path d="M41.25,52.5 L28.5,45.375327 L28.5,31.128597 L41.25,24 L54,31.128597 L54,45.375327 L41.25,52.5 Z M31.5,43.4995109 L40.8763448,48.75 L50.25,43.4995109 L50.25,33.0011411 L40.8736552,27.75 L31.5,32.999837 L31.5,43.4995109 Z" id="形状" />
        </g>
      </g>
    </g>
  </symbol>
  <symbol xmlns="http://www.w3.org/2000/svg" viewBox="0 0 60 60" id="field-4">
    <g xmlns="http://www.w3.org/2000/svg" id="线上活动" stroke="none" stroke-width="1"  fill-rule="evenodd">
      <g id="镇江网上展厅" transform="translate(-541.000000, -1234.000000)" fill-rule="nonzero">
        <g id="医疗器械备份" transform="translate(541.000000, 1234.000000)">
          <rect id="矩形"  opacity="0" x="0" y="0" width="60" height="60"/>
          <path d="M51.2118246,38.7720795 C51.0968372,35.6929641 49.3815339,32.9103716 46.712053,31.4724777 C44.0425721,30.0345839 40.8244711,30.1598388 38.2699775,31.8010604 C35.715484,33.4422819 34.2126863,36.3501294 34.3276737,39.4292448 L34.3276737,45.3545057 C34.3276737,48.5168642 31.8165714,51.0804623 28.7189698,51.0804623 C25.6213682,51.0804623 23.1102659,48.5168642 23.1102659,45.3545057 L23.1102659,36.0356862 C31.6099675,35.2793697 38.1361974,28.0205726 38.1477128,19.3102907 L38.1477128,7.45976883 C38.1477128,6.65951064 37.5122598,6.0107732 36.7283889,6.0107732 L29.9536233,6.0107732 C29.1697524,6.0107732 28.5342994,6.65951064 28.5342994,7.45976883 C28.5342994,8.26002701 29.1697524,8.90876445 29.9536233,8.90876445 L35.2985123,8.90876445 L35.2985123,19.3102907 C35.3955322,24.3415516 32.8218636,29.0336009 28.5693238,31.578259 C24.316784,34.1229171 19.049271,34.1229171 14.7967312,31.578259 C10.5441914,29.0336009 7.97052288,24.3415516 8.06754269,19.3102907 L8.06754269,8.89799125 L13.4599184,8.89799125 C14.2437894,8.89799125 14.8792423,8.24925381 14.8792423,7.44899562 C14.8792423,6.64873744 14.2437894,6 13.4599184,6 L6.66932394,6 C5.88545297,6 5.25,6.64873744 5.25,7.44899562 L5.25,19.2995175 C5.25605036,28.0139348 11.783716,35.2790054 20.2874469,36.0356862 L20.2874469,45.3814387 C20.2874469,50.1413387 24.0670928,54 28.7295224,54 C33.3919519,54 37.1715978,50.1413387 37.1715978,45.3814387 L37.1715978,39.4561778 C37.179308,36.424297 39.5006679,33.9240934 42.4658016,33.7540946 C45.4309352,33.5840958 48.0118996,35.8032365 48.3520715,38.8151723 C45.9847238,39.5359423 44.4938938,41.9208222 44.8506384,44.416413 C45.207383,46.9120038 47.3036518,48.7624443 49.7740336,48.7624443 C52.2444154,48.7624443 54.3406842,46.9120038 54.6974288,44.416413 C55.0541734,41.9208222 53.5633434,39.5359423 51.1959957,38.8151723 L51.2118246,38.7720795 Z" id="形状" />
          <path d="M49.5,45.75 C48.2573593,45.75 47.25,44.7426407 47.25,43.5 C47.25,42.2573593 48.2573593,41.25 49.5,41.25 C50.7426407,41.25 51.75,42.2573593 51.75,43.5 C51.75,44.7426407 50.7426407,45.75 49.5,45.75 L49.5,45.75 Z" id="路径" fill="#12A958"/>
        </g>
      </g>
    </g>
  </symbol>
  <symbol xmlns="http://www.w3.org/2000/svg" viewBox="0 0 60 60" id="field-5">
    <g xmlns="http://www.w3.org/2000/svg" id="线上活动" stroke="none" stroke-width="1"  fill-rule="evenodd">
      <g id="镇江网上展厅" transform="translate(-401.000000, -1405.000000)" fill-rule="nonzero">
        <g id="信息技术备份" transform="translate(401.000000, 1405.000000)">
          <rect id="矩形"  opacity="0" x="0" y="0" width="60" height="60"/>
          <path d="M25.4299308,19.377428 L25.5110228,19.377428 C26.0610799,21.2110182 26.9108904,22.9375379 28.024875,24.4847019 C28.0782415,24.5948873 28.1323039,24.7047234 28.187059,24.8142034 C29.025947,25.9529154 29.9475642,27.0262446 30.9441872,28.025196 C31.9573236,29.0620263 33.041244,30.0249162 34.1878674,30.906687 C34.3085671,30.9704876 34.4181451,31.0539717 34.5122354,31.1538131 C34.601311,31.1954666 34.6834013,31.2510595 34.7555114,31.3185639 L34.7555114,31.227951 C36.2889504,32.2301006 37.9543504,33.0066448 39.7021237,33.5344618 C41.0845524,34.0103122 42.5629237,34.1236532 44,33.8639633 C43.6215706,33.3147941 43.0809573,32.6008741 42.3781599,31.7222033 L42.2970679,31.6398279 C40.1405949,28.8563844 37.7823594,26.2405458 35.2420635,23.8141663 L35.2420635,23.7317909 C32.7606105,21.2141004 30.1340019,18.8484994 27.376139,16.6475077 C26.4030349,15.9335877 25.6732069,15.3844185 25.1866548,15 C24.8721466,16.4504297 24.9563063,17.960783 25.4299308,19.3658954 L25.4299308,19.377428 Z M9,20.8877492 C9.10844878,21.1217979 9.2764549,21.3218505 9.48648649,21.4670311 L14.4324324,26.5034727 L14.3513514,26.5034727 C14.548042,26.7310602 14.7995983,26.9022257 15.0810811,27 C15.2979569,26.9066742 15.4918146,26.7653465 15.6486486,26.5862273 C15.720699,26.5183472 15.8027888,26.4624911 15.8918919,26.4207182 L16.7027027,25.6759273 C16.7747362,25.6080254 16.8568296,25.5521669 16.9459459,25.5104182 L17.5945946,24.6828727 C17.7700109,24.5227278 17.9084668,24.3248889 18,24.1035909 C17.9124474,23.8349184 17.7417086,23.602568 17.5135135,23.4415545 L12.5675676,18.3107727 C12.420696,18.1292795 12.2070558,18.0175553 11.9769321,18.0018971 C11.7468083,17.9862389 11.520528,18.0680297 11.3513514,18.2280181 L9.40540541,20.2141272 C9.21388727,20.3931481 9.0737399,20.622012 9,20.8761636 L9,20.8877492 Z M7.37351291,24.0549829 C6.52827014,23.3979234 6.02574701,22.3949357 6.00616629,21.3258908 C5.93931162,20.2112488 6.41922007,19.1336664 7.29308075,18.4362638 L9.14302029,16.4199463 C10.9661491,14.5481102 12.8965208,14.574866 14.9341354,16.5002138 L19.9209289,21.4767935 C20.7577739,22.175443 21.2553743,23.1978163 21.2882755,24.286153 C21.2855702,25.2839061 20.879572,26.238363 20.1622254,26.9333724 L22.1730292,28.8597903 L25.1490189,26.0520362 C24.0837873,24.426763 23.2956139,22.6366631 22.8164864,20.7543868 L22.8164864,20.8346542 C21.8513006,17.4099111 22.092597,14.708645 23.5403758,12.7308559 C23.6602181,12.5050024 23.8614176,12.332899 24.1034009,12.2492514 C24.3112259,12.0910254 24.5658998,12.006308 24.8272903,12.0084492 C25.5779904,11.901426 27.2134442,12.8111234 29.7336516,14.7375413 L29.8140838,14.814598 C32.63139,17.037997 35.3169797,19.4227403 37.8572992,21.9567926 C40.4731328,24.4670516 42.9183317,27.14858 45.1766252,29.9835342 C47.1606183,32.4996501 48.0989934,34.1322893 47.9917505,34.8814518 C47.9906279,35.1568718 47.9359981,35.4294613 47.8308862,35.684126 C47.6710003,35.8972349 47.4814075,36.0864394 47.2678612,36.2459979 C45.283868,37.6372997 42.5759855,37.8240553 39.1442136,36.8062644 L39.1442136,36.8865319 C37.3371981,36.3653165 35.6065363,35.6097028 33.9965558,34.6390442 L31.0205661,37.6105439 L33.03137,39.6172293 C33.7461528,38.8870277 34.7454491,38.5057264 35.7660632,38.5737529 C36.8631204,38.5795403 37.8983968,39.0813589 38.5811886,39.938299 L43.5679821,44.8314006 C45.5519752,46.8102599 45.5787859,48.7628986 43.6484142,50.6893166 L41.7180426,52.6157345 C41.0144535,53.5039685 39.9371221,54.0153718 38.802666,54 C37.6682099,53.9839237 36.6055261,53.4428588 35.9269275,52.5354671 L30.940134,47.5637034 C29.0097623,45.5848441 28.9561408,43.6862522 30.7792696,41.8679276 L28.7684658,39.8580316 L23.8621044,44.588993 L23.7012401,44.7495278 L21.7708684,46.6759458 L21.7708684,46.7610293 C19.5723896,48.7944705 17.4811536,48.7944705 15.4971604,46.7610293 L13.0037637,44.2695287 C11.937935,43.3896239 11.3926754,42.0298715 11.5559849,40.6591004 C11.6909527,39.6494126 12.2092013,38.7299688 13.0037637,38.0905431 L15.0145675,36.0838577 C15.0136728,35.978662 15.077541,35.8836933 15.1754318,35.8446608 L19.8404967,31.1891507 L17.8296929,29.1840707 C17.1410171,29.968724 16.1400005,30.4094444 15.0949997,30.3880819 C13.9742638,30.3151396 12.9303573,29.7942554 12.1994421,28.9432685 L7.37351291,24.0549829 Z M16.6056338,39 L15.5070423,40.1023971 C15.2746405,40.3074284 15.099823,40.5699783 15,40.8638991 L15,40.9503949 C15.0259121,41.3441743 15.2086535,41.7109231 15.5070423,41.9679922 L18.1267606,44.5967853 C18.3667955,44.8675313 18.7157095,45.0152124 19.076467,44.9987576 C19.4372246,44.9823027 19.7713481,44.8034668 19.9859155,44.5119855 L21,43.4095884 L16.6056338,39 Z M35.2202198,42.4038566 L35.3844506,42.3227609 L34.4811815,43.2148135 L34.3990661,43.2148135 C34.4024378,43.2371778 34.3948784,43.2597969 34.3786891,43.2757852 C34.3624998,43.2917734 34.3395963,43.299239 34.3169508,43.2959092 L33.249451,44.3501532 C33.0640948,44.5297946 32.974225,44.7845597 33.0064369,45.0390552 C33.0386488,45.2935508 33.1892534,45.5186299 33.4136817,45.6476843 L33.3315663,45.6476843 L38.4227192,50.6756172 C38.5777977,50.8798209 38.821178,51 39.0796421,51 C39.3381063,51 39.5814866,50.8798209 39.7365651,50.6756172 L41.7894493,48.8104163 C42.1249167,48.3842115 42.051778,47.7709749 41.6252186,47.4334114 L41.6252186,47.5145071 L36.5340657,42.4865742 C36.3514221,42.2813669 36.127759,42.1157026 35.8771428,42 C35.6253404,42.0737441 35.3983763,42.2132748 35.2202198,42.4038566 L35.2202198,42.4038566 Z M31,32.2516352 C30.2320675,31.5847121 29.464135,30.862212 28.6962025,30.0841349 C27.9831224,29.3627464 27.3248945,28.6680347 26.721519,28 L23.0189873,31.5797101 L22.8544304,31.7464409 L18,36.7483648 L22.1962025,41 L31,32.2516352 Z" id="形状" />
          <path d="M38.6179887,21.4631506 C37.9235172,20.8022302 37.7958975,19.7415181 38.3137879,18.9347834 C38.8316783,18.1280487 39.8493452,17.8023053 40.7395504,18.1583249 C41.6297556,18.5143445 42.1419968,19.4519438 41.9605545,20.393234 C41.7791122,21.3345243 40.9550439,22.014628 39.9962635,22.0143638 C39.4804289,22.0287504 38.9816005,21.8292541 38.6179887,21.4631506 Z" id="路径" fill="#12A958"/>
          <path d="M38.4494063,12.470546 C38.7469922,12.1685844 39.1550339,12.0039839 39.5770258,12.0156742 C41.8188832,12.038855 43.9579839,12.9672858 45.5158216,14.5932811 C47.1192562,16.1603548 48.0158417,18.3216355 47.9965844,20.5733292 C48.0024334,20.9612745 47.8689281,21.3382585 47.6207112,21.6346968 C47.3265592,21.884657 46.9528828,22.0192443 46.5682664,22.0137566 C46.1708139,22.0283668 45.778112,21.9227584 45.4406469,21.7105087 C45.1514739,21.4346716 44.9882344,21.0505502 44.9895992,20.6491412 C44.9795836,19.1804335 44.4150738,17.7707487 43.4109319,16.7069188 C42.3769491,15.6529028 40.9719756,15.0534514 39.5018512,15.0390555 C39.1000393,15.0604127 38.7111824,14.8923468 38.4494063,14.5841837 C38.1602333,14.3083465 37.9969938,13.9242251 37.9983586,13.5228161 C37.9793296,13.1206029 38.145846,12.7321292 38.4494063,12.470546 L38.4494063,12.470546 Z" id="路径" fill="#12A958"/>
          <path d="M38.4763625,8.73618532 C38.1702116,8.44506101 37.9973881,8.03965128 37.998833,7.61599579 C37.9761656,7.18827575 38.1526477,6.77428356 38.4763625,6.49580627 C38.791313,6.17694703 39.2233844,6.00319491 39.6701861,6.01572504 C43.4823943,6.02049121 47.129653,7.57958109 49.7778931,10.3364561 C52.5119612,12.9958885 54.0373942,16.6689679 53.99607,20.4933745 C54.0024068,20.9028441 53.8610457,21.3007704 53.5981288,21.6135641 C53.2869247,21.8777584 52.8911627,22.0198573 52.4838934,22.0136317 C52.0630729,22.0293469 51.6472303,21.917863 51.2900697,21.6935776 C50.9839189,21.4024533 50.8110954,20.9970436 50.8125403,20.5733881 C50.822154,17.5769894 49.6485446,14.6992312 47.5494223,12.5720343 C45.4553616,10.4193288 42.5856076,9.20759147 39.5905979,9.21146573 C39.1659934,9.23519116 38.7544447,9.05964381 38.4763625,8.73618532 L38.4763625,8.73618532 Z" id="路径" fill="#12A958"/>
        </g>
      </g>
    </g>
  </symbol>
  <symbol xmlns="http://www.w3.org/2000/svg" viewBox="0 0 60 60" id="field-6">
    <g xmlns="http://www.w3.org/2000/svg" id="线上活动" stroke="none" stroke-width="1"  fill-rule="evenodd">
      <g id="镇江网上展厅" transform="translate(-541.000000, -1405.000000)" fill-rule="nonzero">
        <g id="航空航天备份" transform="translate(541.000000, 1405.000000)">
          <rect id="矩形"  opacity="0" x="0" y="0.75" width="60" height="60"/>
          <path d="M50,21.9023035 L49.6462413,5 L33.6639292,10.0833996 L28.5470625,17.2509929 L19.5009476,19.7926926 L11.4782059,31.0524226 L19.6651927,29.7053217 L17.3404928,32.9586974 L10,36.8474981 L32.3752369,53 L33.6386608,44.7648928 L35.9633607,41.4988086 L37.30259,49.7339158 L45.3253317,38.4996029 L44.8325964,29.0698968 L50,21.9023035 Z M20.9125,22.4509091 L26,21 L21.6125,27.2236364 L17,28 L20.9125,22.4509091 Z M22.2926045,29.6591928 L31.7073955,16.7122571 L34.5369775,12.8116592 L46.7299035,9 L47,21.6165919 L31.4630225,43 L25.2250804,38.5530643 L19,34.1315396 L22.2926045,29.6591928 Z M29.4179566,49 L14,37.6692607 L17.2321981,36 L23.622291,40.6789884 L30,45.3579767 L29.4179566,49 Z M42,37.4165694 L37.8042895,43 L37,38.2765461 L40.4048257,33.7199533 L41.7453083,32 L42,37.4165694 Z M15.3558052,51.8314066 L14.6217229,42 L12,42.1878613 L12.9700375,55 L26,51.7813102 L25.3314607,49.3641618 L15.3558052,51.8314066 Z" id="形状" />
          <path d="M34.1524299,28.2561665 C36.477254,29.9243045 39.6565587,29.7185598 41.7469867,27.7646942 C43.8374148,25.8108286 44.2571395,22.6526597 42.749603,20.2206253 C41.2420666,17.788591 38.2268602,16.759597 35.5470357,17.7626183 C32.8672112,18.7656395 31.2686414,21.5215062 31.7284559,24.3456884 C31.9875008,25.9184488 32.8590823,27.3245284 34.1524299,28.2561665 L34.1524299,28.2561665 Z" id="路径" fill="#12A958"/>
          <path d="M29.65,35.38125 C31.3068543,35.38125 32.65,34.0381042 32.65,32.38125 C32.65,30.7243957 31.3068542,29.38125 29.65,29.38125 C27.9931458,29.38125 26.65,30.7243957 26.65,32.38125 C26.65,33.1768994 26.9660705,33.9399612 27.5286796,34.5025703 C28.0912888,35.0651795 28.8543506,35.38125 29.65,35.38125 L29.65,35.38125 Z" id="路径" fill="#12A958"/>
        </g>
      </g>
    </g>
  </symbol>
  <symbol xmlns="http://www.w3.org/2000/svg" viewBox="0 0 60 60" id="field-7">
    <g xmlns="http://www.w3.org/2000/svg" id="线上活动" stroke="none" stroke-width="1"  fill-rule="evenodd">
      <g id="镇江网上展厅" transform="translate(-401.000000, -1576.000000)" fill-rule="nonzero">
        <g id="船舶备份" transform="translate(401.000000, 1576.000000)">
          <rect id="矩形"  opacity="0" x="0" y="0" width="60" height="60"/>
          <path d="M43,48 L43,51 L7,51 L7,48 L43,48 Z M53,48 L53,51 L47,51 L47,48 L53,48 Z M29.097227,10 L29.097227,17 L43.4758644,17 L43.4758644,30 L54,30 L42.7764464,47 L10.9893872,47 L6,30 L11.6374529,30 L11.63848,17 L16.7737076,17 L16.7737076,10 L29.098254,10 L29.097227,10 Z M49,33 L11,33 L14.2040575,44 L41.7883212,44 L49,33 Z M41,19 L15,19 L15,29 L41,29 L41,25.5 L32.16,25.5 L32.16,22.5 L41,22.5 L41,19 L41,19 Z M29,23 L29,26 L20,26 L20,23 L29,23 Z" id="形状" />
          <path d="M40.4734438,35.3125 C41.1880479,35.3123906 41.8484161,35.6935645 42.2057498,36.3124116 C42.5630834,36.9312587 42.5630834,37.6937413 42.2057498,38.3125884 C41.8484161,38.9314355 41.1880479,39.3126094 40.4734438,39.3125 C39.3689939,39.3123309 38.47375,38.4169499 38.47375,37.3125 C38.47375,36.2080501 39.3689939,35.3126691 40.4734438,35.3125 L40.4734438,35.3125 Z" id="路径" fill="#12A958"/>
          <polygon id="路径" fill="#12A958" points="26.47375 12.3125 20.47375 12.3125 20.47375 16.3125 26.47375 16.3125 26.47375 12.3125"/>
        </g>
      </g>
    </g>
  </symbol>
  <symbol xmlns="http://www.w3.org/2000/svg" viewBox="0 0 60 60" id="field-8">
    <g xmlns="http://www.w3.org/2000/svg" id="线上活动" stroke="none" stroke-width="1"  fill-rule="evenodd">
      <g id="镇江网上展厅" transform="translate(-541.000000, -1576.000000)" fill-rule="nonzero">
        <g id="农机农具备份" transform="translate(541.000000, 1576.000000)">
          <rect id="矩形"  opacity="0" x="0" y="0" width="60" height="60"/>
          <path d="M14.5000232,50 C9.81443302,50 6,46.1855101 6,41.499907 C6,36.814304 9.8144795,33 14.5000697,33 C19.18566,33 23,36.8143505 23,41.4999535 C23,46.1855566 19.1856135,50 14.5000232,50 L14.5000232,50 Z M14.5000474,35 C10.914151,35 8,37.9141404 8,41.4999763 C8,45.0858122 10.914151,48 14.5000474,48 C18.0859438,48 21,45.085907 21,41.4999763 C21,37.9140456 18.0858964,35 14.5000948,35 L14.5000474,35 Z M43,50 C36.9327331,50 32,45.0672881 32,39 C32,32.9327119 36.9327331,28 42.9999527,28 C49.0671724,28 54,32.9327119 54,39 C54,45.0672881 49.0672669,50 42.9999527,50 L43,50 Z M42.9999759,31 C38.0379095,31 34,34.8136165 34,39.5000455 C34,44.1864744 38.0379095,48 42.9999759,48 C47.9620423,48 52,44.1864744 52,39.5000455 C52,34.8136165 47.9620905,31 42.9999278,31 L42.9999759,31 Z M10.2872332,33 C9.78689211,33 9.3315133,32.6831297 9.20218513,32.199765 L7.03769688,24.3479793 C6.94777223,24.0257519 7.02082371,23.6820489 7.23446854,23.418891 C7.44811337,23.1557331 7.7742132,23 8.122745,23 L15.8755484,23 C16.4940017,23 17,23.4833177 17,24.0741071 C17,24.6648966 16.4940017,25.1482143 15.8754992,25.1482143 L9.57880608,25.1482143 L11.3722814,31.6519737 C11.5296987,32.2266447 11.1698525,32.8120301 10.5739296,32.962406 C10.4783477,32.9892387 10.3827659,33 10.2871841,33 L10.2872332,33 Z M28.9704054,39 L26.5765766,39 C26.0103153,39 25.546982,38.5408036 25.546982,37.9795982 L25.546982,36.0408036 L23.0295946,36.0408036 C22.4633333,36.0408036 22,35.5816071 22,35.0204018 C22,34.4591964 22.4633333,34 23.0295946,34 L26.5765766,34 C27.1428829,34 27.6061712,34.4591964 27.6061712,35.0204018 L27.6061712,36.9591964 L28.9704054,36.9591964 C29.5366667,36.9591964 30,37.4183482 30,37.9795982 C30,38.5408482 29.5366667,39 28.9704054,39 Z M49.9782135,22.5644665 L47.5482823,10.8414634 C47.444737,10.3501677 46.997995,10 46.4804112,10 L25.9075406,10 C25.3082456,10 24.817883,10.4703506 24.817883,11.0452896 C24.817883,11.6202287 25.3082456,12.0905793 25.9075406,12.0905793 L28.2884641,12.0905793 L24.6544129,22.7682927 L20.3339208,22.7682927 L20.3339208,18.9634146 C20.3339208,18.3884756 19.8435582,17.918125 19.2442633,17.918125 L16.0896576,17.918125 C15.4903626,17.918125 15,18.3884756 15,18.9634146 C15,19.5383537 15.4903626,20.0087043 16.0896576,20.0087043 L18.154558,20.0087043 L18.154558,26.9547104 C18.154558,27.5296037 18.6449206,28 19.2442633,28 C19.8436059,28 20.3339208,27.5296037 20.3339208,26.9547104 L20.3339208,24.858872 L25.4444469,24.858872 C25.9184577,24.858872 26.3324961,24.566189 26.4796144,24.1376372 L30.5821941,12.0905793 L45.5868796,12.0905793 L47.8206848,22.8727896 L47.8206848,26.2752287 C47.8206848,26.8501677 48.3110474,27.320564 48.9103424,27.320564 C49.5096374,27.320564 50,26.8501677 50,26.2752287 L50,22.7682927 C50,22.7003354 49.9945653,22.632378 49.9782135,22.5644665 L49.9782135,22.5644665 Z M32,23 L42,23 L40.7185053,15 L33.7086436,15 L32,23 L32,23 Z" id="形状" />
          <path d="M42.9265199,24.9565234 L31.09584,24.9565234 C30.7668128,24.9562718 30.4553257,24.8010479 30.2475098,24.5337735 C30.0405646,24.2627373 29.9629829,23.915868 30.0302446,23.5744052 L32.0787388,13.8508715 C32.1873714,13.3359266 32.6322219,12.9565234 33.1391741,12.9565234 L41.3849326,12.9565234 C41.9177303,12.9565234 42.3677861,13.3576474 42.4557333,13.9104852 L43.9921153,23.6340189 C44.0438516,23.9646687 43.9559044,24.3006777 43.7489593,24.5554469 C43.5472195,24.8101687 43.2472124,24.9565234 42.9264746,24.9565234 L42.9265199,24.9565234 Z" id="路径" fill="#12A958"/>
        </g>
      </g>
    </g>
  </symbol>

  <symbol xmlns="http://www.w3.org/2000/svg" viewBox="0 0 60 60" id="field-9">
    <g xmlns="http://www.w3.org/2000/svg" id="线上活动" stroke="none" stroke-width="1"  fill-rule="evenodd">
      <g id="镇江网上展厅" transform="translate(-79.000000, -1315.000000)">
        <g id="二氧化碳" transform="translate(79.000000, 1315.000000)">
          <rect id="矩形"   fill-rule="nonzero" opacity="0" x="0" y="0" width="60" height="60"/>
          <path d="M34.6875,31.875 C34.6875,30.28125 33.46875,29.0625 31.875,29.0625 C30.28125,29.0625 29.0625,30.28125 29.0625,31.875 L29.0625,37.5 C29.0625,39.09375 30.28125,40.3125 31.875,40.3125 C33.46875,40.3125 34.6875,39.09375 34.6875,37.5 L34.6875,31.875 Z" id="路径" fill="#12A958"/>
          <path d="M43.125,49.59375 L16.875,49.6875 L16.875,49.59375 C9.5625,49.125 3.75,43.03125 3.75,35.625 C3.75,28.96875 8.4375,23.34375 14.71875,21.9375 C16.59375,15.1875 22.6875,10.3125 30,10.3125 C37.3125,10.3125 43.40625,15.1875 45.28125,21.9375 C51.5625,23.34375 56.25,28.96875 56.25,35.625 C56.25,43.03125 50.4375,49.125 43.125,49.59375 Z M42.1875,25.3125 C41.625,19.03125 36.375,14.0625 30,14.0625 C23.625,14.0625 18.375,19.03125 17.90625,25.3125 L17.8125,25.3125 C12.09375,25.3125 7.5,29.90625 7.5,35.625 C7.5,41.34375 12.09375,45.9375 17.8125,45.9375 L42.1875,45.9375 C47.90625,45.9375 52.5,41.34375 52.5,35.625 C52.5,29.90625 47.90625,25.3125 42.1875,25.3125 Z M43.125,40.3125 L45.9375,40.3125 C46.5,40.3125 46.96875,40.875 46.96875,41.71875 C46.96875,42.65625 46.5,43.125 45.9375,43.125 L39.375,43.125 C38.90625,43.125 38.15625,42.84375 38.15625,41.71875 C38.15625,40.875 38.71875,40.3125 39.375,40.3125 C40.3125,40.3125 43.125,36.5625 43.125,36.5625 C43.3125,36.28125 43.96875,35.15625 44.0625,34.6875 C44.15625,34.21875 44.15625,33.5625 43.21875,33.5625 C42.1875,33.5625 42.1875,34.5 42.1875,34.6875 C42.1875,36.375 39.375,36.1875 39.375,34.6875 C39.375,31.21875 42,30.9375 43.125,30.9375 C46.125,30.9375 47.0625,33 46.875,34.6875 C46.6875,36.09375 45.5625,37.6875 45,38.4375 C44.4375,39.1875 43.125,40.3125 43.125,40.3125 Z M31.875,43.125 C28.78125,43.125 26.25,40.59375 26.25,37.5 L26.25,31.875 C26.25,28.78125 28.78125,26.25 31.875,26.25 C34.96875,26.25 37.5,28.78125 37.5,31.875 L37.5,37.5 C37.5,40.59375 34.96875,43.125 31.875,43.125 Z M34.6875,31.875 C34.6875,30.28125 33.46875,29.0625 31.875,29.0625 C30.28125,29.0625 29.0625,30.28125 29.0625,31.875 L29.0625,37.5 C29.0625,39.09375 30.28125,40.3125 31.875,40.3125 C33.46875,40.3125 34.6875,39.09375 34.6875,37.5 L34.6875,31.875 Z M13.125,34.6875 C13.125,30 16.875,26.25 21.5625,26.25 L22.5,26.25 L22.5,29.0625 L21.5625,29.0625 C18.46875,29.0625 15.9375,31.59375 15.9375,34.6875 C15.9375,37.78125 18.46875,40.3125 21.5625,40.3125 L22.5,40.3125 L22.5,43.125 L21.5625,43.125 C16.875,43.125 13.125,39.375 13.125,34.6875 Z M21.09375,27.65625 C21.09375,28.4329004 21.7233496,29.0625 22.5,29.0625 C23.2766504,29.0625 23.90625,28.4329004 23.90625,27.65625 C23.90625,26.8795996 23.2766504,26.25 22.5,26.25 C21.7233496,26.25 21.09375,26.8795996 21.09375,27.65625 L21.09375,27.65625 Z M21.09375,41.71875 C21.09375,42.4954004 21.7233496,43.125 22.5,43.125 C23.2766504,43.125 23.90625,42.4954004 23.90625,41.71875 C23.90625,40.9420996 23.2766504,40.3125 22.5,40.3125 C21.7233496,40.3125 21.09375,40.9420996 21.09375,41.71875 Z" id="形状"  fill-rule="nonzero"/>
        </g>
      </g>
    </g>
  </symbol>
  <symbol xmlns="http://www.w3.org/2000/svg" viewBox="0 0 60 60" id="field-10">
    <g xmlns="http://www.w3.org/2000/svg" id="线上活动" stroke="none" stroke-width="1"   fill-rule="evenodd">
      <g id="镇江网上展厅" transform="translate(-220.000000, -1313.000000)">
        <g id="其他" transform="translate(220.000000, 1313.000000)">
          <rect id="矩形"   fill-rule="nonzero" opacity="0" x="0" y="0" width="60" height="60"/>
          <rect id="矩形" fill="#12A958" x="37" y="37" width="16" height="16" rx="3"/>
          <path d="M23.2857143,28 L10.7142857,28 C8.11514286,28 6,25.8848571 6,23.2857143 L6,10.7142857 C6,8.11514286 8.11514286,6 10.7142857,6 L23.2857143,6 C25.8848571,6 28,8.11514286 28,10.7142857 L28,23.2857143 C28,25.8848571 25.8848571,28 23.2857143,28 Z M10.6,9 C9.7168,9 9,9.7168 9,10.6 L9,23.4 C9,24.2832 9.7168,25 10.6,25 L23.4,25 C24.2832,25 25,24.2832 25,23.4 L25,10.6 C25,9.7168 24.2832,9 23.4,9 L10.6,9 Z M23.2857143,54 L10.7142857,54 C8.11514286,54 6,51.8848571 6,49.2857143 L6,36.7142857 C6,34.1151429 8.11514286,32 10.7142857,32 L23.2857143,32 C25.8848571,32 28,34.1151429 28,36.7142857 L28,49.2857143 C28,51.8848571 25.8848571,54 23.2857143,54 Z M10.6,35 C9.7168,35 9,35.72 9,36.6 L9,49.4 C9,50.28 9.7168,51 10.6,51 L23.4,51 C24.2832,51 25,50.28 25,49.4 L25,36.6 C25,35.72 24.2832,35 23.4,35 L10.6,35 Z M49.2857143,54 L36.7142857,54 C34.1151429,54 32,51.8848571 32,49.2857143 L32,36.7142857 C32,34.1151429 34.1151429,32 36.7142857,32 L49.2857143,32 C51.8848571,32 54,34.1151429 54,36.7142857 L54,49.2857143 C54,51.8848571 51.8848571,54 49.2857143,54 Z M36.6,35 C35.72,35 35,35.72 35,36.6 L35,49.4 C35,50.28 35.72,51 36.6,51 L49.4,51 C50.28,51 51,50.28 51,49.4 L51,36.6 C51,35.72 50.28,35 49.4,35 L36.6,35 Z M49.2857143,28 L36.7142857,28 C34.1151429,28 32,25.8848571 32,23.2857143 L32,10.7142857 C32,8.11514286 34.1151429,6 36.7142857,6 L49.2857143,6 C51.8848571,6 54,8.11514286 54,10.7142857 L54,23.2857143 C54,25.8848571 51.8848571,28 49.2857143,28 Z M36.6,9 C35.72,9 35,9.7168 35,10.6 L35,23.4 C35,24.2832 35.72,25 36.6,25 L49.4,25 C50.28,25 51,24.2832 51,23.4 L51,10.6 C51,9.7168 50.28,9 49.4,9 L36.6,9 Z" id="形状"  fill-rule="nonzero"/>
        </g>
      </g>
    </g>
  </symbol>


</svg>
