<svg width="0" height="0" class="hidden">
  <symbol xmlns="http://www.w3.org/2000/svg" viewBox="0 0 1024 1024" id="sound">
    <path fill="#D9D9D9" d="M275.4 424H146v176h129.4l18 11.7L586 803V221L293.3 412.3z"></path>
    <path d="M892.1 737.8l-110.3-63.7a15.9 15.9 0 0 0-21.7 5.9l-19.9 34.5c-4.4 7.6-1.8 17.4 5.8 21.8L856.3 800a15.9 15.9 0 0 0 21.7-5.9l19.9-34.5c4.4-7.6 1.7-17.4-5.8-21.8zM934 476H806c-8.8 0-16 7.2-16 16v40c0 8.8 7.2 16 16 16h128c8.8 0 16-7.2 16-16v-40c0-8.8-7.2-16-16-16zM760 344a15.9 15.9 0 0 0 21.7 5.9L892 286.2c7.6-4.4 10.2-14.2 5.8-21.8L878 230a15.9 15.9 0 0 0-21.7-5.9L746 287.8a15.99 15.99 0 0 0-5.8 21.8L760 344zM625.9 115c-5.9 0-11.9 1.6-17.4 5.3L254 352H90c-8.8 0-16 7.2-16 16v288c0 8.8 7.2 16 16 16h164l354.5 231.7c5.5 3.6 11.6 5.3 17.4 5.3 16.7 0 32.1-13.3 32.1-32.1V147.1c0-18.8-15.4-32.1-32.1-32.1zM586 803L293.4 611.7l-18-11.7H146V424h129.4l17.9-11.7L586 221v582z"></path>
  </symbol>
  <symbol xmlns="http://www.w3.org/2000/svg" viewBox="0 0 1024 1024" id="star">
    <path fill="#D9D9D9" d="M512.5 190.4l-94.4 191.3-211.2 30.7 152.8 149-36.1 210.3 188.9-99.3 188.9 99.2-36.1-210.3 152.8-148.9-211.2-30.7z"></path>
    <path d="M908.6 352.8l-253.9-36.9L541.2 85.8c-3.1-6.3-8.2-11.4-14.5-14.5-15.8-7.8-35-1.3-42.9 14.5L370.3 315.9l-253.9 36.9c-7 1-13.4 4.3-18.3 9.3a32.05 32.05 0 0 0 .6 45.3l183.7 179.1L239 839.4a31.95 31.95 0 0 0 46.4 33.7l227.1-119.4 227.1 119.4c6.2 3.3 13.4 4.4 20.3 3.2 17.4-3 29.1-19.5 26.1-36.9l-43.4-252.9 183.7-179.1c5-4.9 8.3-11.3 9.3-18.3 2.7-17.5-9.5-33.7-27-36.3zM665.3 561.3l36.1 210.3-188.9-99.2-188.9 99.3 36.1-210.3-152.8-149 211.2-30.7 94.4-191.3 94.4 191.3 211.2 30.7-152.8 148.9z"></path>
  </symbol>
  <symbol xmlns="http://www.w3.org/2000/svg" viewBox="0 0 1024 1024" id="stop">
    <path fill="#333" d="M512 64C264.6 64 64 264.6 64 512s200.6 448 448 448 448-200.6 448-448S759.4 64 512 64zm288.5 682.8L277.7 224C258 240 240 258 224 277.7l522.8 522.8C682.8 852.7 601 884 512 884c-205.4 0-372-166.6-372-372s166.6-372 372-372 372 166.6 372 372c0 89-31.3 170.8-83.5 234.8z"></path>
    <path fill="#E6E6E6" d="M512 140c-205.4 0-372 166.6-372 372s166.6 372 372 372c89 0 170.8-31.3 234.8-83.5L224 277.7c16-19.7 34-37.7 53.7-53.7l522.8 522.8C852.7 682.8 884 601 884 512c0-205.4-166.6-372-372-372z"></path>
  </symbol>
</svg>