<?xml version="1.0" encoding="UTF-8"?>
<svg width="28px" height="29px" viewBox="0 0 28 29" version="1.1" xmlns="http://www.w3.org/2000/svg" xmlns:xlink="http://www.w3.org/1999/xlink">
    <title>矩形</title>
    <g id="技联在线3" stroke="none" stroke-width="1" fill="none" fill-rule="evenodd">
        <g id="画板备份-2" transform="translate(-1140.000000, -495.000000)" fill-rule="nonzero">
            <g id="用户名备份-3" transform="translate(1140.000000, 495.421222)">
                <rect id="矩形" fill="#000000" opacity="0" x="0" y="0" width="28" height="28"></rect>
                <path d="M13.9872546,16.0323461 C17.9304532,16.0323461 21.1275375,12.8357654 21.1275375,8.89209117 C21.1275375,4.94855689 17.9304532,1.75200416 13.9872546,1.75200416 C10.044252,1.75200416 6.84716763,4.94858487 6.84716763,8.89209117 C6.84716763,12.8357654 10.044224,16.0323461 13.9872546,16.0323461 L13.9872546,16.0323461 Z M19.709431,15.408509 C18.1827021,16.7494718 16.1812751,17.5627684 13.9896051,17.5627684 C11.7980749,17.5627684 9.79670385,16.7494718 8.26994697,15.408509 C4.39043328,17.4623725 1.74700952,21.5395162 1.74700952,26.2347049 L26.2323405,26.2347049 C26.2323405,21.5395162 23.5888048,17.4623725 19.709431,15.408509 L19.709431,15.408509 Z" id="形状" fill="#999999"></path>
            </g>
        </g>
    </g>
</svg>