<?xml version="1.0" encoding="UTF-8"?>
<svg width="48px" height="48px" viewBox="0 0 48 48" version="1.1" xmlns="http://www.w3.org/2000/svg" xmlns:xlink="http://www.w3.org/1999/xlink">
    <!-- Generator: Sketch 63.1 (92452) - https://sketch.com -->
    <title>矩形</title>
    <desc>Created with Sketch.</desc>
    <g id="技联在线3" stroke="none" stroke-width="1" fill="none" fill-rule="evenodd">
        <g id="1首页" transform="translate(-434.000000, -844.000000)" fill-rule="nonzero">
            <g id="科研成果获奖备份" transform="translate(434.000000, 844.000000)">
                <rect id="矩形" fill="#000000" opacity="0" x="0" y="0" width="48" height="48"></rect>
                <path d="M30.8109375,19.8779514 C30.8109375,24.7653514 26.75943,30.9890625 21.8109375,30.9890625 C16.862445,30.9890625 12.8109375,24.7653514 12.8109375,19.8779514 L12.8109375,13.2112847 C12.8109375,12.0983125 13.9378219,10.9890625 15.0609375,10.9890625 L28.5609375,10.9890625 C29.6840531,10.9890625 30.8109375,12.1020348 30.8109375,13.2112847 L30.8109375,19.8779514 L30.8109375,19.8779514 Z" id="路径" fill="#13BE74"></path>
                <path d="M37.996875,8.6015625 C37.996875,5.521875 35.4796875,3.0046875 32.4,3.0046875 L15.609375,3.0046875 C12.5296875,3.0046875 10.0125,5.521875 10.0125,8.6015625 C0.496875,8.6015625 1.6171875,8.6015625 1.6171875,14.1984375 C1.6171875,18.815625 5.3953125,22.59375 10.0125,22.59375 C10.29375,22.59375 10.7109375,22.59375 10.9921875,22.453125 C12.8109375,27.909375 17.2875,32.9484375 22.6078125,33.646875 L22.6078125,42.1875 L18.4078125,42.1875 C17.56875,42.1875 17.00625,42.7453125 17.00625,43.5890625 C17.00625,44.428125 17.5640625,44.9859375 18.4078125,44.9859375 L29.6015625,44.9859375 C30.440625,44.9859375 31.003125,44.428125 31.003125,43.5890625 C31.003125,42.75 30.4453125,42.1875 29.6015625,42.1875 L25.4015625,42.1875 L25.4015625,33.6515625 C30.7171875,32.953125 35.0578125,27.9140625 37.0171875,22.4578125 C37.2984375,22.4578125 37.715625,22.5984375 37.996875,22.5984375 C42.6140625,22.5984375 46.3921875,18.8203125 46.3921875,14.203125 C46.3921875,8.6015625 47.5125,8.6015625 37.996875,8.6015625 Z M10.0125,19.7953125 C6.9328125,19.7953125 4.415625,17.278125 4.415625,14.1984375 C4.415625,11.11875 4.415625,11.4 10.0125,11.4 L10.0125,19.7953125 L10.0125,19.7953125 Z M35.1984375,16.996875 C35.1984375,23.1515625 30.159375,30.9890625 24.0046875,30.9890625 C17.85,30.9890625 12.8109375,23.1515625 12.8109375,16.996875 L12.8109375,8.6015625 C12.8109375,7.2 14.2125,5.803125 15.609375,5.803125 L32.4,5.803125 C33.796875,5.803125 35.1984375,7.2046875 35.1984375,8.6015625 L35.1984375,16.996875 L35.1984375,16.996875 Z M37.996875,19.7953125 L37.996875,11.4 C43.59375,11.4 43.59375,11.11875 43.59375,14.1984375 C43.59375,17.278125 41.0765625,19.7953125 37.996875,19.7953125 L37.996875,19.7953125 Z" id="形状" fill="#FFFFFF"></path>
            </g>
        </g>
    </g>
</svg>