<?xml version="1.0" encoding="UTF-8"?>
<svg width="48px" height="48px" viewBox="0 0 48 48" version="1.1" xmlns="http://www.w3.org/2000/svg" xmlns:xlink="http://www.w3.org/1999/xlink">
    <title>矩形</title>
    <g id="技联在线3" stroke="none" stroke-width="1" fill="none" fill-rule="evenodd">
        <g id="8-转移联盟" transform="translate(-404.000000, -719.000000)" fill-rule="nonzero">
            <g id="星途学堂-加入/加好友" transform="translate(404.000000, 719.000000)">
                <rect id="矩形" fill="#000000" opacity="0" x="0" y="0" width="48" height="48"></rect>
                <path d="M33.21,25.005 C36.7125,23.4459375 39.1640625,19.9382812 39.1640625,15.8639062 C39.1640625,10.3467188 34.6753125,5.8575 29.1576562,5.8575 C23.64,5.8575 19.15125,10.34625 19.15125,15.8639062 C19.15125,19.9439062 21.609375,23.45625 25.1198438,25.0120312 C18.7401563,26.784375 14.0390625,32.6296875 14.0390625,39.56625 C14.0390625,39.9595312 14.3573438,40.2778125 14.750625,40.2778125 C15.1439063,40.2778125 15.4621875,39.9595312 15.4621875,39.56625 C15.4621875,32.0146875 21.6060937,25.8707812 29.1576562,25.8707812 C32.235,25.8707812 35.146875,26.8720312 37.5782813,28.7657812 C37.888125,29.00625 38.3348437,28.9504687 38.5767187,28.6415625 C38.8176562,28.3317187 38.7623437,27.885 38.4525,27.643125 C36.8676562,26.4084375 35.0939063,25.5276562 33.21,25.005 L33.21,25.005 Z M20.5748437,15.8639062 C20.5748437,11.1309375 24.4251563,7.280625 29.158125,7.280625 C33.8910937,7.280625 37.7414062,11.1309375 37.7414062,15.8639062 C37.7414062,20.596875 33.8910937,24.4471875 29.158125,24.4471875 C24.4251562,24.4471875 20.5748437,20.596875 20.5748437,15.8639062 Z" id="形状" fill="#FFFFFF"></path>
                <path d="M20.085,27.51 C20.506875,27.1926563 20.9451563,26.8964062 21.399375,26.6235938 C20.6053125,26.1375 19.7634375,25.7484375 18.885,25.4671875 C20.1,24.84 21.1401563,23.8935938 21.8859375,22.7151563 C21.5353125,22.3434375 21.211875,21.946875 20.9207813,21.5254688 C19.8323437,23.5889063 17.6910938,24.91125 15.3417188,24.91125 C11.8546875,24.91125 9.01734375,22.0739063 9.01734375,18.5859375 C9.01734375,15.0989063 11.8546875,12.2615625 15.3417188,12.2615625 C16.8332813,12.2615625 18.2526563,12.7846875 19.3860938,13.7325 C19.4953125,13.231875 19.6467188,12.748125 19.8276563,12.2789063 C18.5245313,11.3489063 16.96875,10.8389063 15.3417188,10.8389063 C11.0695313,10.8389063 7.59421875,14.3142188 7.59421875,18.5864063 C7.59421875,21.58125 9.30515625,24.18 11.7984375,25.4690625 C7.1203125,26.9709375 3.72328125,31.3621875 3.72328125,36.5357812 C3.72328125,36.9290625 4.0415625,37.2473437 4.43484375,37.2473437 C4.828125,37.2473437 5.14640625,36.9290625 5.14640625,36.5357812 C5.14640625,30.9103125 9.72,26.3334375 15.3417188,26.3334375 C17.0109375,26.3339063 18.6295313,26.7417188 20.085,27.51 L20.085,27.51 Z" id="路径" fill="#FFFFFF"></path>
                <path d="M43.5651562,35.7389062 L39.29625,35.7389062 L39.29625,31.47 C39.29625,31.0767187 38.9779687,30.7584375 38.5846875,30.7584375 C38.1914062,30.7584375 37.873125,31.0767187 37.873125,31.47 L37.873125,35.7389062 L33.6046875,35.7389062 C33.2114062,35.7389062 32.893125,36.0571875 32.893125,36.4504687 C32.893125,36.84375 33.2114062,37.1620312 33.6046875,37.1620312 L37.8735937,37.1620312 L37.8735937,41.4309375 C37.8735937,41.8242187 38.191875,42.1425 38.5851562,42.1425 C38.9784375,42.1425 39.2967187,41.8242187 39.2967187,41.4309375 L39.2967187,37.1620312 L43.565625,37.1620312 C43.9589062,37.1620312 44.2771875,36.84375 44.2771875,36.4504687 C44.2767187,36.0571875 43.9584375,35.7389062 43.5651562,35.7389062 L43.5651562,35.7389062 Z" id="路径" fill="#FFFFFF"></path>
            </g>
        </g>
    </g>
</svg>