<?xml version="1.0" encoding="UTF-8"?>
<svg width="28px" height="28px" viewBox="0 0 28 28" version="1.1" xmlns="http://www.w3.org/2000/svg" xmlns:xlink="http://www.w3.org/1999/xlink">
    <title>矩形</title>
    <g id="技联在线3" stroke="none" stroke-width="1" fill="none" fill-rule="evenodd">
        <g id="画板备份" transform="translate(-775.000000, -794.000000)" fill-rule="nonzero">
            <g id="安卓" transform="translate(775.000000, 794.000000)">
                <rect id="矩形" fill="#000000" opacity="0" x="0" y="0" width="28" height="28"></rect>
                <path d="M17.4965035,5.87412588 L17.4965035,4.67249418 L16.3496504,4.67249418 L16.3496504,5.87412588 L17.4965035,5.87412588 Z M11.6503496,5.87412588 L11.6503496,4.67249418 L10.5034965,4.67249418 L10.5034965,5.87412588 L11.6503496,5.87412588 Z M18.0979021,2.54079254 C20.027972,3.92463093 20.993007,5.80031081 20.993007,8.16783218 L7.00699303,8.16783218 C7.00699303,5.76379177 7.95415698,3.88811189 9.84848487,2.54079254 L8.31818184,1.01048951 C8.02680655,0.71911422 8.02680655,0.445998447 8.31818184,0.191142191 C8.60955713,-0.0637140638 8.8826729,-0.0637140638 9.13752916,0.191142191 L10.8857809,1.93939394 C11.8329449,1.42968143 12.8710179,1.17482518 14,1.17482518 C15.0924631,1.17482518 16.1122766,1.42968143 17.0594406,1.93939394 L18.8076923,0.191142191 C19.0990676,-0.0637140638 19.3721834,-0.0637140638 19.6270397,0.191142191 C19.8818959,0.445998447 19.8818959,0.71911422 19.6270397,1.01048951 L18.0979021,2.54079254 Z M23.8881119,9.37062677 C24.3613054,9.37062677 24.7711733,9.54351205 25.1177156,9.8892774 C25.464258,10.2350427 25.6371406,10.6449107 25.6363663,11.1188811 L25.6363663,19.2587413 C25.6363663,19.7684538 25.463481,20.1872572 25.1177156,20.5151515 C24.7719503,20.8430459 24.3620824,21.006993 23.8881119,21.006993 C23.4141414,21.006993 23.0042735,20.8430459 22.6585082,20.5151515 C22.3127428,20.1872572 22.1398601,19.7684538 22.1398601,19.2587413 L22.1398601,11.1188811 C22.1398601,10.6456877 22.3127428,10.2358197 22.6585082,9.8892774 C23.0042735,9.54273505 23.4141414,9.36985238 23.8881119,9.37062677 Z M4.1118881,9.37062677 C4.58508158,9.37062677 4.99494949,9.54351205 5.34149183,9.8892774 C5.68803418,10.2350427 5.86091685,10.6449107 5.86014246,11.1188811 L5.86014246,19.2587413 C5.86014246,19.7684538 5.68725718,20.1872572 5.34149183,20.5151515 C4.99572649,20.8430459 4.58585858,21.006993 4.1118881,21.006993 C3.63791763,21.006993 3.22804972,20.8430459 2.88228437,20.5151515 C2.53651902,20.1872572 2.36363635,19.7684538 2.36363635,19.2587413 L2.36363635,11.1188811 C2.36363635,10.6456877 2.53651902,10.2358197 2.88228437,9.8892774 C3.22804972,9.54273505 3.63791763,9.36985238 4.1118881,9.37062677 Z M7.006993,21.006993 L7.006993,9.37062935 L20.993007,9.37062935 L20.993007,21.006993 C20.993007,21.3348873 20.8838384,21.6080031 20.6655011,21.8263403 C20.4471639,22.0446775 20.1740482,22.1538461 19.8461538,22.1538461 L18.6445221,22.1538461 L18.6445221,26.2517483 C18.6445221,26.7614608 18.4716394,27.1802642 18.1258741,27.5081585 C17.7801088,27.8360528 17.3702408,28 16.8962704,28 C16.4222999,28 16.012432,27.8360528 15.6666666,27.5081585 C15.3209013,27.1802642 15.1480186,26.7614608 15.1480186,26.2517483 L15.1480186,22.1538461 L12.8531468,22.1538461 L12.8531468,26.2517483 C12.8531468,26.7614608 12.6802642,27.1802642 12.3344988,27.5081585 C11.9887335,27.8360528 11.5788655,28 11.1048951,28 C10.6309246,28 10.2210567,27.8360528 9.87529134,27.5081585 C9.529526,27.1802642 9.35664332,26.7614608 9.35664332,26.2517483 L9.35664332,22.1538461 L8.15501162,22.1538461 C7.82711729,22.1538461 7.55400152,22.0446775 7.3356643,21.8263403 C7.11732708,21.6080031 7.00815847,21.3348873 7.00815847,21.006993 L7.006993,21.006993 Z" id="形状" fill="#FFFFFF"></path>
            </g>
        </g>
    </g>
</svg>