<?xml version="1.0" encoding="UTF-8"?>
<svg width="16px" height="16px" viewBox="0 0 16 16" version="1.1" xmlns="http://www.w3.org/2000/svg" xmlns:xlink="http://www.w3.org/1999/xlink">
    <!-- Generator: Sketch 63.1 (92452) - https://sketch.com -->
    <title>矩形</title>
    <desc>Created with Sketch.</desc>
    <g id="技联在线3" stroke="none" stroke-width="1" fill="none" fill-rule="evenodd">
        <g id="1首页" transform="translate(-992.000000, -2482.000000)" fill-rule="nonzero">
            <g id="右" transform="translate(992.000000, 2482.000000)">
                <rect id="矩形" fill="#000000" opacity="0" x="0" y="0" width="16" height="16"></rect>
                <path d="M8.18453125,1.84171875 C7.9359375,2.0903125 7.9359375,2.49203125 8.18453125,2.740625 L12.8210938,7.37734375 L1.64078125,7.37734375 C1.28984375,7.37734375 1.005,7.6621875 1.005,8.01296875 C1.005,8.36390625 1.28984375,8.64875 1.64078125,8.64875 L12.82125,8.64875 L8.18453125,13.2853125 C7.9359375,13.5339062 7.9359375,13.9357812 8.18453125,14.1842187 C8.433125,14.4328125 8.83484375,14.4328125 9.0834375,14.1842187 L14.8046875,8.4625 C14.8639063,8.4040625 14.9101563,8.3334375 14.9426563,8.25515625 C14.9748958,8.17848083 14.9915625,8.09614632 14.9915625,8.01296875 C14.9915625,7.9303125 14.975,7.84765625 14.9426563,7.77015625 C14.9101563,7.691875 14.86375,7.62203125 14.8046875,7.5628125 L9.08359375,1.84109375 C8.83484375,1.593125 8.433125,1.593125 8.18453125,1.84171875 Z" id="路径" fill="#5264CE"></path>
            </g>
        </g>
    </g>
</svg>