<?xml version="1.0" encoding="UTF-8"?>
<svg width="16px" height="16px" viewBox="0 0 16 16" version="1.1" xmlns="http://www.w3.org/2000/svg" xmlns:xlink="http://www.w3.org/1999/xlink">
    <!-- Generator: Sketch 63.1 (92452) - https://sketch.com -->
    <title>矩形</title>
    <desc>Created with Sketch.</desc>
    <g id="技联在线3" stroke="none" stroke-width="1" fill="none" fill-rule="evenodd">
        <g id="1首页" transform="translate(-651.000000, -2024.000000)" fill-rule="nonzero">
            <g id="youyouy备份-16" transform="translate(651.000000, 2024.000000)">
                <rect id="矩形" fill="#000000" opacity="0" x="0" y="0" width="16" height="16"></rect>
                <path d="M8,1 C8.94448429,1 9.86178077,1.18345952 10.7240395,1.54834013 C11.5555369,1.90039468 12.3111571,2.40983329 12.9493328,3.04863133 C13.5921198,3.69141915 14.0976521,4.44088526 14.4496221,5.27460687 C14.8158612,6.13822558 15,7.05484372 15,7.99932051 C15,8.94515628 14.8158612,9.86109493 14.4516605,10.7240342 C14.0996064,11.5555327 13.5901685,12.3111538 12.9513712,12.9493302 C12.3136985,13.5890539 11.5576647,14.0986158 10.7253984,14.4496214 C9.86178077,14.815861 8.94516376,15 8,15 C7.05553301,15 6.13823653,14.815861 5.27597784,14.4509804 C4.44448039,14.0989258 3.6888602,13.5894872 3.05068454,12.9506892 C2.41103459,12.3132163 1.90147734,11.5574182 1.55039518,10.7253931 C1.18513694,9.86330457 0.997928009,8.93627252 1,8 C1,7.05484372 1.18415608,6.13822558 1.54835675,5.27596583 C1.90033442,4.44422526 2.40977639,3.68836748 3.0486461,3.04999029 C3.68657941,2.4104375 4.44284603,1.90110504 5.27529837,1.55037857 C6.13891601,1.18481848 7.05553303,1 8.00068813,1 L8,1 Z M8,-1.70530257e-13 C3.58091424,-1.70530257e-13 -3.46944695e-18,3.5814322 -3.46944695e-18,8.00033366 C-3.46944695e-18,12.4185678 3.58091424,16 8,16 C12.4190858,16 16,12.4185678 16,8.00033366 C16,3.5814322 12.4190858,-1.70530257e-13 8,-1.70530257e-13 Z M10.8162041,7.59144314 L6.98704075,4.15174687 C6.75146839,3.93993583 6.38132987,3.95124407 6.16031321,4.17700454 C5.93929655,4.40276501 5.95109626,4.75748681 6.1866686,4.96929786 L9.55946729,7.99888929 L6.18458791,11.0304747 C5.94901556,11.2424693 5.93737111,11.5973399 6.15857929,11.8231004 C6.37978747,12.0488609 6.75008126,12.0600203 6.98565361,11.8480257 L10.8141234,8.40832947 C10.9328091,8.30256681 11.0001613,8.15420513 11,7.99888929 C11.0003728,7.84451853 10.9338014,7.69693891 10.8162041,7.59144314 L10.8162041,7.59144314 Z" id="形状" fill="#333333"></path>
            </g>
        </g>
    </g>
</svg>