<?xml version="1.0" encoding="UTF-8"?>
<svg width="16px" height="16px" viewBox="0 0 16 16" version="1.1" xmlns="http://www.w3.org/2000/svg" xmlns:xlink="http://www.w3.org/1999/xlink">
    <!-- Generator: Sketch 63.1 (92452) - https://sketch.com -->
    <title>矩形</title>
    <desc>Created with Sketch.</desc>
    <g id="技联在线3" stroke="none" stroke-width="1" fill="none" fill-rule="evenodd">
        <g id="1首页" transform="translate(-651.000000, -1854.000000)" fill-rule="nonzero">
            <g id="youyouy备份-11" transform="translate(651.000000, 1854.000000)">
                <rect id="矩形" fill="#000000" opacity="0" x="0" y="0" width="16" height="16"></rect>
                <path d="M8,1.14 C8.92666667,1.14 9.82666667,1.32 10.6726667,1.678 C11.4884855,2.02341581 12.2298577,2.52324786 12.856,3.15 C13.4866667,3.78066667 13.9826667,4.516 14.328,5.334 C14.6873333,6.18133333 14.868,7.08066667 14.868,8.00733333 C14.868,8.93533333 14.6873333,9.834 14.33,10.6806667 C13.9845842,11.4964855 13.4847521,12.2378577 12.858,12.864 C12.2323512,13.4916603 11.4905731,13.9916133 10.674,14.336 C9.82666667,14.6953333 8.92733333,14.876 8,14.876 C7.07333333,14.876 6.17333333,14.6953333 5.32733333,14.3373333 C4.51151454,13.9919175 3.77014227,13.4920855 3.144,12.8653333 C2.51641124,12.2398813 2.01646218,11.4983355 1.672,10.682 C1.31362904,9.83616797 1.12995011,8.9266171 1.13198303,8.008 C1.13198303,7.08066667 1.31266667,6.18133333 1.67,5.33533333 C2.0153408,4.51927701 2.51517677,3.77767255 3.142,3.15133333 C3.76790449,2.52384068 4.50991099,2.02411278 5.32666667,1.68 C6.174,1.32133333 7.07333334,1.14 8.00066667,1.14 L8,1.14 Z M8,0.0153333281 C3.58533333,0.0153333281 0.008,3.59333333 0.008,8.008 C0.008,12.422 3.58533333,16 8,16 C12.4146667,16 15.992,12.422 15.992,8.008 C15.992,3.59333333 12.4146667,0.0153333281 8,0.0153333281 Z M10.6473333,7.58333333 L6.96666667,4.13333333 C6.74022992,3.9208878 6.38444554,3.93222992 6.17200001,4.15866666 C5.95955448,4.38510341 5.97089659,4.74088779 6.19733333,4.95333333 L9.43933333,7.992 L6.19533333,11.0326667 C5.96889659,11.2452963 5.95770371,11.6012299 6.17033333,11.8276667 C6.38296296,12.0541034 6.73889658,12.0652963 6.96533333,11.8526667 L10.6453333,8.40266667 C10.7594163,8.29658719 10.8241566,8.14778109 10.8240015,7.992 C10.8243599,7.83716681 10.7603701,7.68914512 10.6473333,7.58333333 L10.6473333,7.58333333 Z" id="形状" fill="#FFFFFF"></path>
            </g>
        </g>
    </g>
</svg>