<?xml version="1.0" encoding="UTF-8"?>
<svg width="24px" height="24px" viewBox="0 0 24 24" version="1.1" xmlns="http://www.w3.org/2000/svg" xmlns:xlink="http://www.w3.org/1999/xlink">
    <title>矩形</title>
    <g id="技联在线3" stroke="none" stroke-width="1" fill="none" fill-rule="evenodd">
        <g id="5-1产学研社区备份-3" transform="translate(-1090.000000, -1091.000000)" fill-rule="nonzero">
            <g id="分组" transform="translate(1090.000000, 1091.000000)">
                <rect id="矩形" fill="#000000" opacity="0" x="0" y="0" width="24" height="24"></rect>
                <path d="M11.784,1.764 C6.024,1.764 1.38,6.408 1.38,12.168 C1.38,17.928 6.084,22.56 11.784,22.56 C17.544,22.56 22.188,17.916 22.188,12.156 C22.188,6.396 17.496,1.764 11.784,1.764 Z M18.564,15.312 C18.408,15.636 18.132,15.792 17.82,15.792 C17.712,15.792 17.604,15.792 17.496,15.744 L11.364,12.96 C11.1,12.852 10.884,12.528 10.884,12.216 L10.884,6.456 C10.884,6.024 11.256,5.652 11.688,5.652 C12.12,5.652 12.492,6.024 12.492,6.456 L12.492,11.736 L18.144,14.292 C18.564,14.448 18.72,14.88 18.564,15.312 Z" id="形状" fill="#D7D7D7"></path>
            </g>
        </g>
    </g>
</svg>