<?xml version="1.0" encoding="UTF-8"?>
<svg width="24px" height="24px" viewBox="0 0 24 24" version="1.1" xmlns="http://www.w3.org/2000/svg" xmlns:xlink="http://www.w3.org/1999/xlink">
    <title>矩形</title>
    <g id="技联在线3" stroke="none" stroke-width="1" fill="none" fill-rule="evenodd">
        <g id="5-1产学研社区备份-3" transform="translate(-960.000000, -1091.000000)" fill-rule="nonzero">
            <g id="分组" transform="translate(960.000000, 1091.000000)">
                <rect id="矩形" fill="#000000" opacity="0" x="0" y="0" width="24" height="24"></rect>
                <path d="M16.82025,14.3483203 C15.5842969,15.4606875 13.9775391,16.2022734 12.1235859,16.2022734 C10.2696328,16.2022734 8.66289844,15.4606875 7.30333594,14.3483203 C4.21342969,15.9550781 2.11230469,18.0562031 2.11230469,21.8876953 L21.8876953,21.8876953 C21.8876953,18.0562031 19.7865703,16.0786641 16.82025,14.3483203 L16.82025,14.3483203 Z M12,14.719125 C15.0899062,14.719125 17.5618359,12.1236094 17.5618359,9.03370313 C17.5618359,5.94379688 15.0899062,3.34828125 12,3.34828125 C8.91009375,3.34828125 6.43816406,5.94379688 6.43816406,9.03370313 C6.43816406,12.2471953 9.03367969,14.719125 12,14.719125 Z" id="形状" fill="#D7D7D7"></path>
            </g>
        </g>
    </g>
</svg>