<?xml version="1.0" encoding="UTF-8"?>
<svg width="48px" height="49px" viewBox="0 0 48 49" version="1.1" xmlns="http://www.w3.org/2000/svg" xmlns:xlink="http://www.w3.org/1999/xlink">
    <title>矩形</title>
    <g id="技联在线3" stroke="none" stroke-width="1" fill="none" fill-rule="evenodd">
        <g id="8-转移联盟" transform="translate(-404.000000, -575.000000)" fill-rule="nonzero">
            <g id="过程性考核" transform="translate(404.000000, 575.500000)">
                <rect id="矩形" fill="#000000" opacity="0" x="0" y="0" width="48" height="48"></rect>
                <path d="M18.9984375,15 L9.9984375,15 C9.45,15 9,15.45 9,15.9984375 C9,16.546875 9.45,16.996875 9.9984375,16.996875 L18.9984375,16.996875 C19.546875,16.996875 19.9969113,16.546875 19.9969113,15.9984375 C20.0015625,15.45 19.5515625,15 18.9984375,15 Z M44.0015625,15 C44.5546875,15 45,14.55 45,14.0015625 L45,8.165625 C45,7.8 44.803125,7.453125 44.475,7.284375 C44.0015625,7.0359375 43.509375,6.8109375 42.9984375,6.609375 C40.5,5.578125 37.5984375,5.0015625 34.5,5.0015625 C30.5296875,5.0015625 26.8921875,5.971875 24,7.5703125 C21.1078125,5.971875 17.4703125,5.0015625 13.5,5.0015625 C10.4015625,5.0015625 7.5,5.5828125 5.0015625,6.609375 C4.490625,6.8109375 3.9984375,7.0359375 3.525,7.284375 C3.196875,7.453125 3,7.8 3,8.165625 L3,41.56875 C3,42.3234375 3.7921875,42.7875 4.4671875,42.45 C5.34375,42.009375 6.2953125,41.6296875 7.2984375,41.3296875 C9.1875,40.7484375 11.2875,40.4296875 13.5,40.4296875 C15.6609375,40.4296875 17.7421875,40.7390625 19.659375,41.3296875 C20.85,41.690625 21.9796875,42.16875 23.0296875,42.75 C23.3296875,42.91875 23.671875,42.9984375 24,42.9984375 C24.328125,42.9984375 24.6703125,42.91875 24.9703125,42.75 C26.0203125,42.16875 27.15,41.690625 28.340625,41.3296875 C30.2625,40.7390625 32.3390625,40.4296875 34.5,40.4296875 C36.7078125,40.4296875 38.8078125,40.7484375 40.7015625,41.3296875 C41.709375,41.6296875 42.6609375,42.009375 43.5328125,42.45 C44.2078125,42.7921875 45,42.3234375 45,41.56875 L45,21.9984375 C45,21.4453125 44.55,21 44.0015625,21 C43.4484375,21 43.003125,21.45 43.003125,21.9984375 L43.003125,40.040625 C40.5046875,39.009375 37.603125,38.4328125 34.5046875,38.4328125 C30.534375,38.4328125 26.896875,39.403125 24.0046875,41.0015625 C21.1125,39.403125 17.475,38.4328125 13.5046875,38.4328125 C10.40625,38.4328125 7.5046875,39.0140625 5.00625,40.040625 L5.00625,8.7703125 C7.425,7.65 10.3453125,6.9984375 13.5046875,6.9984375 C17.00625,6.9984375 20.296875,7.8 23.034375,9.31875 C23.334375,9.4875 23.6765625,9.5671875 24.0046875,9.5671875 C24.3328125,9.5671875 24.675,9.4875 24.975,9.31875 C27.7171875,7.8 31.003125,6.9984375 34.5046875,6.9984375 C37.6640625,6.9984375 40.584375,7.65 43.003125,8.7703125 L43.003125,14.0015625 C42.9984375,14.55 43.4484375,15 44.0015625,15 L44.0015625,15 Z M27.9984375,14.0015625 C27.4453125,14.0015625 27,14.4515625 27,15 L27,30.9984375 C27,31.74375 27.7828125,32.2265625 28.4484375,31.89375 L33,29.615625 L37.5515625,31.89375 C38.2171875,32.2265625 39,31.74375 39,30.9984375 L39,15 C39,14.446875 38.55,14.0015625 38.0015625,14.0015625 L27.9984375,14.0015625 L27.9984375,14.0015625 Z M36.9984375,29.615625 L33.4453125,27.8390625 C33.1640625,27.6984375 32.83125,27.6984375 32.55,27.8390625 L28.996875,29.615625 L28.996875,15.9984375 L36.9984375,15.9984375 L36.9984375,29.615625 L36.9984375,29.615625 Z M18.9984375,29.0015625 L9.9984375,29.0015625 C9.45,29.0015625 9,29.4515625 9,30 C9,30.5484375 9.45,30.9984375 9.9984375,30.9984375 L18.9984375,30.9984375 C19.546875,30.9984375 19.996875,30.5484375 19.996875,30 C19.996875,29.4515625 19.5515625,29.0015625 18.9984375,29.0015625 Z M18.9984375,21.9984375 L9.9984375,21.9984375 C9.45,21.9984375 9,22.4484375 9,22.996875 C9,23.5453125 9.45,23.9953125 9.9984375,23.9953125 L18.9984375,23.9953125 C19.546875,23.9953125 19.9969113,23.5453125 19.9969113,22.996875 C20.0015625,22.4484375 19.5515625,21.9984375 18.9984375,21.9984375 Z" id="形状" fill="#FFFFFF"></path>
            </g>
        </g>
    </g>
</svg>