<?xml version="1.0" encoding="UTF-8"?>
<svg width="32px" height="32px" viewBox="0 0 32 32" version="1.1" xmlns="http://www.w3.org/2000/svg" xmlns:xlink="http://www.w3.org/1999/xlink">
    <!-- Generator: Sketch 63.1 (92452) - https://sketch.com -->
    <title>矩形</title>
    <desc>Created with Sketch.</desc>
    <g id="技联在线新" stroke="none" stroke-width="1" fill="none" fill-rule="evenodd">
        <g id="3-1-产学研活动" transform="translate(-381.000000, -600.000000)" fill-rule="nonzero">
            <g id="活动" transform="translate(381.000000, 600.000000)">
                <rect id="矩形" fill="#000000" opacity="0" x="0" y="0" width="32" height="32"></rect>
                <path d="M17.181375,27.591625 L22.25125,27.591625 C22.7437154,27.591625 23.1429375,27.9908471 23.1429375,28.4833125 C23.1429375,28.9757779 22.7437154,29.375 22.25125,29.375 L9.74875,29.375 C9.25628459,29.375 8.8570625,28.9757779 8.8570625,28.4833125 C8.8570625,27.9908471 9.25628459,27.591625 9.74875,27.591625 L15.146625,27.591625 L4.31375,8.82825 C7.5725,3.933625 11.48825,2.32125 16.06075,3.991125 C19.670125,5.30925 22.862,5.101125 25.636125,3.366625 C26.472375,2.843875 27.574,3.097875 28.096875,3.934125 C28.2433517,4.16840798 28.3334651,4.43348508 28.360125,4.7085 C28.835125,9.60975 26.60825,13.042625 21.679625,15.006875 C17.3235,16.743 15.00225,19.495 14.715875,23.263125 L17.0915,27.37475 C17.1308637,27.4427755 17.1610827,27.5156961 17.181375,27.591625 Z" id="路径" fill="#F85757"></path>
                <path d="M9.502375,8.5375 C9.16151175,8.89386172 8.59629925,8.90642571 8.23993752,8.56556248 C7.88357579,8.22469924 7.87101178,7.65948674 8.211875,7.303125 C9.5015,5.955 11.415625,5.29875 13.900125,5.29875 C14.3932462,5.29875 14.793,5.69850375 14.793,6.191625 C14.793,6.68474625 14.3932462,7.0845 13.900125,7.0845 C11.86525,7.0845 10.417375,7.58075 9.502375,8.5375 L9.502375,8.5375 Z" id="路径" fill="#FBABAB"></path>
            </g>
        </g>
    </g>
</svg>