<?xml version="1.0" encoding="UTF-8"?>
<svg width="16px" height="16px" viewBox="0 0 16 16" version="1.1" xmlns="http://www.w3.org/2000/svg" xmlns:xlink="http://www.w3.org/1999/xlink">
    <title>矩形</title>
    <g id="技联在线3" stroke="none" stroke-width="1" fill="none" fill-rule="evenodd">
        <g id="1首页" transform="translate(-1901.000000, -423.000000)" fill-rule="nonzero">
            <g id="左" transform="translate(1901.000000, 423.000000)">
                <rect id="矩形" fill="#000000" opacity="0" x="0" y="0" width="16" height="16"></rect>
                <path d="M8.000008,1.22902272 C4.19043089,1.22902272 1.1022207,4.26047139 1.1022207,8 C1.1022207,11.7395286 4.19044689,14.7709773 8.000008,14.7709773 C11.8095371,14.7709773 14.8977633,11.7395286 14.8977633,8 C14.8977633,4.26047139 11.8095371,1.22902272 8.000008,1.22902272 Z M11.017738,8.42320106 L6.45404816,8.42320106 L8.23084348,10.1671866 C8.39922533,10.3324986 8.39922533,10.6004129 8.23084348,10.7657248 C8.06246164,10.9310208 7.78947873,10.9310208 7.62120881,10.7657248 L5.18247827,8.37182789 C5.07904439,8.27026475 5.04703409,8.13143088 5.07061811,7.99999998 C5.04703409,7.86856909 5.07904439,7.72971923 5.18247827,7.62818808 L7.62120881,5.23429114 C7.78946273,5.06897922 8.06246164,5.06897922 8.23084348,5.23429114 C8.39922533,5.39945916 8.39922533,5.66750142 8.23084348,5.83270142 L6.45404816,7.57681492 L11.017738,7.57681492 C11.2559285,7.57681492 11.4488857,7.7662385 11.4488857,8 C11.4488857,8.23363359 11.2559445,8.42320106 11.017738,8.42320106 Z" id="形状" fill="#FFFFFF"></path>
            </g>
        </g>
    </g>
</svg>