<?xml version="1.0" encoding="UTF-8"?>
<svg width="18px" height="18px" viewBox="0 0 18 18" version="1.1" xmlns="http://www.w3.org/2000/svg" xmlns:xlink="http://www.w3.org/1999/xlink">
    <title>矩形</title>
    <g id="技联在线3" stroke="none" stroke-width="1" fill="none" fill-rule="evenodd">
        <g id="画板备份-2" transform="translate(-784.000000, -371.000000)" fill-rule="nonzero">
            <g id="右" transform="translate(784.000000, 371.000000)">
                <rect id="矩形" fill="#000000" opacity="0" x="0" y="0" width="18" height="18"></rect>
                <path d="M1.125,9 C1.125,13.3492424 4.6507576,16.875 9,16.875 C13.3492424,16.875 16.875,13.3492424 16.875,9 C16.875,4.6507576 13.3492424,1.125 9,1.125 C4.6507576,1.125 1.125,4.6507576 1.125,9 Z" id="路径" fill="#007AFF"></path>
                <path d="M12.9375,9.4921875 L5.0625,9.4921875 C4.79074219,9.4921875 4.5703125,9.27175781 4.5703125,9 C4.5703125,8.72824219 4.79074219,8.5078125 5.0625,8.5078125 L12.9375,8.5078125 C13.2092578,8.5078125 13.4296875,8.72824219 13.4296875,9 C13.4296875,9.27175781 13.2094336,9.4921875 12.9375,9.4921875 Z" id="路径" fill="#FFFFFF"></path>
                <path d="M10.153125,12.2763867 C10.0272656,12.2763867 9.90123047,12.2283984 9.80507812,12.1322461 C9.61277344,11.9399414 9.61277344,11.628457 9.80507812,11.4363281 L12.241582,9 L9.80525391,6.56367187 C9.61294922,6.37136719 9.61294922,6.05988281 9.80525391,5.86775391 C9.99755859,5.675625 10.309043,5.67544922 10.5011719,5.86775391 L13.2855469,8.65212891 C13.377832,8.74441406 13.4296875,8.86957031 13.4296875,9.00017578 C13.4296875,9.13078125 13.377832,9.2559375 13.2855469,9.34822266 L10.5011719,12.1322461 C10.4050195,12.2283984 10.2791602,12.2763867 10.153125,12.2763867 L10.153125,12.2763867 Z" id="路径" fill="#FFFFFF"></path>
            </g>
        </g>
    </g>
</svg>