<?xml version="1.0" encoding="UTF-8"?>
<svg width="48px" height="48px" viewBox="0 0 48 48" version="1.1" xmlns="http://www.w3.org/2000/svg" xmlns:xlink="http://www.w3.org/1999/xlink">
    <!-- Generator: Sketch 63.1 (92452) - https://sketch.com -->
    <title>矩形</title>
    <desc>Created with Sketch.</desc>
    <g id="技联在线3" stroke="none" stroke-width="1" fill="none" fill-rule="evenodd">
        <g id="1首页" transform="translate(-1742.000000, -1990.000000)" fill-rule="nonzero">
            <g id="企业备份-3" transform="translate(1742.000000, 1990.000000)">
                <rect id="矩形" fill="#000000" opacity="0" x="0" y="0" width="48" height="48"></rect>
                <path d="M43.95,42.9 L42.9,42.9 L42.9,17.175 C42.9,16.5975 42.4275,16.125 41.85,16.125 L29.775,16.125 L29.775,4.05 C29.775,3.735 29.6175,3.42 29.355,3.21 C29.0925,3 28.7775,2.9475 28.4625,3.0525 L5.8875,9.3525 C5.415,9.4575 5.1,9.8775 5.1,10.35 L5.1,42.9 L4.05,42.9 C3.4725,42.9 3,43.3725 3,43.95 C3,44.5275 3.4725,45 4.05,45 L43.95,45 C44.5275,45 45,44.5275 45,43.95 C45,43.3725 44.5275,42.9 43.95,42.9 Z M7,11.6484594 L27.71875,6 L27.71875,36.7815126 C27.71875,37.3515406 28.196875,37.8179272 28.78125,37.8179272 C29.365625,37.8179272 29.84375,37.3515406 29.84375,36.7815126 L29.84375,18.6442577 L41,18.6442577 L41,43 L7,43 L7,11.6484594 Z" id="形状" fill="#FFFFFF"></path>
                <path d="M20.9473684,17 L13.0526316,17 C12.4736842,17 12,17.45 12,18 C12,18.55 12.4736842,19 13.0526316,19 L20.9473684,19 C21.5263158,19 22,18.55 22,18 C22,17.45 21.5263158,17 20.9473684,17 Z M20.9473684,24 L13.0526316,24 C12.4736842,24 12,24.45 12,25 C12,25.55 12.4736842,26 13.0526316,26 L20.9473684,26 C21.5263158,26 22,25.55 22,25 C22,24.45 21.5263158,24 20.9473684,24 L20.9473684,24 Z M20.9473684,31 L13.0526316,31 C12.4736842,31 12,31.45 12,32 C12,32.55 12.4736842,33 13.0526316,33 L20.9473684,33 C21.5263158,33 22,32.55 22,32 C22,31.45 21.5263158,31 20.9473684,31 Z M34.1111111,26 L36.8888889,26 C37.5,26 38,25.55 38,25 C38,24.45 37.5,24 36.8888889,24 L34.1111111,24 C33.5,24 33,24.45 33,25 C33,25.55 33.5,26 34.1111111,26 Z M36.8888889,31 L34.1111111,31 C33.5,31 33,31.45 33,32 C33,32.55 33.5,33 34.1111111,33 L36.8888889,33 C37.5,33 38,32.55 38,32 C38,31.45 37.5,31 36.8888889,31 Z" id="形状" fill="#FFFFFF"></path>
            </g>
        </g>
    </g>
</svg>