<?xml version="1.0" encoding="UTF-8"?>
<svg width="36px" height="36px" viewBox="0 0 36 36" version="1.1" xmlns="http://www.w3.org/2000/svg" xmlns:xlink="http://www.w3.org/1999/xlink">
    <title>矩形</title>
    <g id="修改" stroke="none" stroke-width="1" fill="none" fill-rule="evenodd">
        <g id="管理员后台" transform="translate(-1070.000000, -233.000000)" fill-rule="nonzero">
            <g id="找成果" transform="translate(1070.000000, 233.000000)">
                <rect id="矩形" fill="#000000" opacity="0" x="0" y="0" width="36" height="36"></rect>
                <path d="M6.64101562,3.77578125 C7.30195312,2.97070313 8.32148437,2.47148438 9.365625,2.45390625 L26.5464844,2.45390625 C27.4992187,2.43984375 28.4449219,2.83007813 29.1234375,3.49804688 C29.728125,4.08867188 30.1183594,4.89726563 30.2027344,5.7375 C30.2273437,5.9484375 30.2167969,6.16289063 30.2203125,6.37734375 L30.2203125,9.48164062 C30.5578125,9.73125 30.8953125,9.98085937 31.2046875,10.265625 C31.8164062,10.8210938 32.3507812,11.4644531 32.7480469,12.1851563 C33.2367187,13.0640625 33.5144531,14.0660156 33.496875,15.0714844 C33.496875,16.1507812 33.1558594,17.2160156 32.5898437,18.1335937 C31.8269531,19.3710938 30.684375,20.3414063 29.4257812,21.0515625 C28.6066406,21.515625 27.73125,21.8707031 26.8277344,22.134375 C26.7292969,22.1730469 26.5992187,22.1695312 26.5324219,22.2609375 C25.6042969,23.4667969 24.4898437,24.5355469 23.1960937,25.340625 C21.88125,26.1667969 20.3765625,26.7011719 18.8261719,26.8382813 C18.8226562,28.5292969 18.8226562,30.2203125 18.8261719,31.9113281 C19.8070312,31.9078125 20.7914063,31.9113281 21.7722656,31.9113281 C21.99375,31.9148438 22.2257812,31.8902344 22.4296875,31.9921875 C22.725,32.1257812 22.9148437,32.4492187 22.8902344,32.7726562 C22.8796875,33.1804688 22.5175781,33.5390625 22.10625,33.5390625 L14.0484375,33.5390625 C13.8234375,33.553125 13.584375,33.5003906 13.4121094,33.3457031 C13.1203125,33.103125 13.0429687,32.6460937 13.2363281,32.3191406 C13.3804688,32.0625 13.66875,31.9007812 13.9605469,31.9078125 L17.1914062,31.9078125 C17.2089844,31.4859375 17.1949219,31.0605469 17.1984375,30.6386719 C17.1949219,29.3695312 17.2019531,28.1039062 17.1949219,26.8347656 C15.9328125,26.7222656 14.6988281,26.3496094 13.5738281,25.7660156 C12.0339844,24.9679687 10.7085937,23.79375 9.6328125,22.4402344 C9.56601563,22.3628906 9.51679687,22.2574219 9.4078125,22.2363281 C8.31445312,21.9515625 7.25625,21.5296875 6.27890625,20.9601562 C5.4140625,20.4503906 4.6125,19.8210937 3.9515625,19.0582031 C3.48046875,18.5097656 3.08320313,17.8910156 2.80546875,17.2230469 C2.42929688,16.3265625 2.28515625,15.3316406 2.40117188,14.3648437 C2.52421875,13.2855469 2.97421875,12.2554687 3.62460938,11.390625 C4.21875,10.5925781 4.97460938,9.92460937 5.80078125,9.37265625 C5.8078125,8.25117187 5.80078125,7.1296875 5.80429687,6.00820312 C5.81835938,5.19960937 6.12070312,4.4015625 6.64101562,3.77578125 M16.7308594,7.02421875 C16.5515625,7.24570312 16.4566406,7.5234375 16.3300781,7.7765625 C16.0277344,8.41992187 15.7253906,9.05976562 15.4265625,9.703125 C15.4089844,9.73476562 15.3984375,9.78046875 15.3527344,9.78046875 C14.5335937,9.90703125 13.7144531,10.0300781 12.8917969,10.1566406 C12.5578125,10.2058594 12.2378906,10.3570312 11.9953125,10.5925781 C11.6789062,10.8914062 11.4890625,11.3238281 11.4925781,11.7632812 C11.4855469,12.1886719 11.6542969,12.6140625 11.9566406,12.9128906 C12.5789062,13.5527344 13.2011719,14.1890625 13.8234375,14.8289062 C13.6792969,15.6902344 13.5421875,16.5550781 13.4015625,17.4164062 C13.3664062,17.60625 13.3417969,17.803125 13.3699219,17.9964844 C13.4226562,18.4921875 13.7179687,18.9527344 14.146875,19.209375 C14.5335938,19.4484375 15.0222656,19.5082031 15.4546875,19.378125 C15.7113281,19.3042969 15.9363281,19.1496094 16.171875,19.0265625 C16.7835937,18.6855469 17.3953125,18.3515625 18.0070313,18.0105469 C18.7628906,18.421875 19.5152344,18.8472656 20.2710937,19.2585937 C20.7808594,19.5328125 21.4382813,19.5011719 21.9234375,19.18125 C22.3417969,18.9105469 22.6230469,18.4394531 22.6582031,17.9402344 C22.6792969,17.7328125 22.6371094,17.5289062 22.6054687,17.3285156 C22.4753906,16.5339844 22.3488281,15.7394531 22.2152344,14.9449219 C22.2117187,14.9027344 22.1941406,14.8605469 22.2082031,14.821875 C22.8339844,14.1785156 23.4632812,13.5386719 24.0890625,12.8953125 C24.4757812,12.4945312 24.6199219,11.8863281 24.4722656,11.3519531 C24.3386719,10.8386719 23.934375,10.40625 23.4316406,10.2375 C23.2699219,10.1777344 23.0976562,10.1601562 22.9289062,10.1320312 C22.1625,10.0160156 21.3960937,9.89648437 20.6261719,9.78046875 C20.2429687,8.9578125 19.85625,8.13867187 19.4730469,7.31953125 C19.2128906,6.78164062 18.6328125,6.41601562 18.0351562,6.41601562 C17.5359375,6.39492187 17.0402344,6.63046875 16.7308594,7.02421875 M4.39101562,13.2609375 C4.02539062,14.0308594 3.8953125,14.9167969 4.05703125,15.7570312 C4.20117187,16.5375 4.58085937,17.2617187 5.08007812,17.8734375 C5.49492187,18.3796875 5.990625,18.8191406 6.52851562,19.1917969 C6.91523437,19.4554687 7.31601562,19.7050781 7.74492187,19.8949219 C7.66054687,19.6910156 7.54101562,19.5046875 7.453125,19.3007812 C6.3,16.93125 5.68125,14.3226562 5.5265625,11.6964844 C5.05546875,12.1429687 4.66875,12.6773437 4.39101562,13.2609375 M30.3328125,11.6964844 C30.1886719,14.1328125 29.64375,16.5550781 28.6453125,18.7875 C28.4835937,19.1636719 28.2902344,19.5257812 28.1144531,19.8949219 C28.4167969,19.7683594 28.6980469,19.5960937 28.9792969,19.4273437 C29.953125,18.8191406 30.8320312,18.0070313 31.3699219,16.9839844 C31.8234375,16.1367187 31.9886719,15.13125 31.7777344,14.1890625 C31.5773437,13.2328125 31.0324219,12.3679687 30.3328125,11.6964844 L30.3328125,11.6964844 Z M18.0105469,8.0578125 C18.5167969,9.12304688 19.0160156,10.1882813 19.5117187,11.2570313 C20.6332031,11.4328125 21.7582031,11.5980469 22.8796875,11.7738281 C22.1308594,12.5542969 21.3679687,13.3242188 20.615625,14.1011719 C20.5628906,14.1609375 20.4855469,14.2101563 20.4503906,14.2839844 C20.6367187,15.4546875 20.8335937,16.621875 21.0199219,17.7925781 C20.0109375,17.2476563 19.0160156,16.6816406 18.0070312,16.1367188 C17.0050781,16.6921875 16.003125,17.2476563 15.0011719,17.7960938 C15.1839844,16.6183594 15.3878906,15.4441406 15.5707031,14.2664062 C14.990625,13.6863281 14.4246094,13.0921875 13.8480469,12.5085937 C13.6160156,12.2589844 13.3664062,12.0269531 13.1378906,11.7738281 C14.259375,11.6050781 15.3808594,11.4292969 16.4988281,11.2605469 C17.0085937,10.1953125 17.5042969,9.12304687 18.0105469,8.0578125 Z" id="形状" fill="#B6B5CA"></path>
            </g>
        </g>
    </g>
</svg>