<?xml version="1.0" encoding="UTF-8"?>
<svg width="36px" height="36px" viewBox="0 0 36 36" version="1.1" xmlns="http://www.w3.org/2000/svg" xmlns:xlink="http://www.w3.org/1999/xlink">
    <title>矩形</title>
    <g id="修改" stroke="none" stroke-width="1" fill="none" fill-rule="evenodd">
        <g id="管理员后台" transform="translate(-1491.000000, -342.000000)" fill-rule="nonzero">
            <g id="对接_fill" transform="translate(1491.000000, 342.000000)">
                <rect id="矩形" fill="#000000" opacity="0" x="0" y="0" width="36" height="36"></rect>
                <path d="M32.6074219,28.1074219 L22.3534688,28.1074219 C21.9417891,26.5344961 20.7004219,25.2972773 19.125,24.8917852 L19.125,22.5 L28.125,22.5 C30.6,22.5 32.625,20.475 32.625,18 L3.375,18 C3.375,20.475 5.4,22.5 7.875,22.5 L16.875,22.5 L16.875,24.8917852 C15.2995781,25.2972773 14.0582109,26.5345313 13.6465312,28.1074219 L3.35742188,28.1074219 C2.73867188,28.1074219 2.23242188,28.6136719 2.23242188,29.2324219 C2.23242188,29.8511719 2.73867188,30.3574219 3.35742188,30.3574219 L13.6374609,30.3574219 C14.1309141,32.3071875 15.8968828,33.75 18,33.75 C20.1031172,33.75 21.8690859,32.3071875 22.3625391,30.3574219 L32.6074219,30.3574219 C33.2261719,30.3574219 33.7324219,29.8511719 33.7324219,29.2324219 C33.7324219,28.6136719 33.2261719,28.1074219 32.6074219,28.1074219 Z M18,31.5 C16.7573672,31.5 15.75,30.4926328 15.75,29.25 C15.75,28.0073672 16.7573672,27 18,27 C19.2426328,27 20.25,28.0073672 20.25,29.25 C20.25,30.4926328 19.2426328,31.5 18,31.5 Z M32.625,6.75 C32.625,4.275 30.6,2.25 28.125,2.25 L7.875,2.25 C5.4,2.25 3.375,4.275 3.375,6.75 L3.375,15.75 L32.625,15.75 L32.625,6.75 Z" id="形状" fill="#B6B5CA"></path>
            </g>
        </g>
    </g>
</svg>