<?xml version="1.0" encoding="UTF-8"?>
<svg width="28px" height="28px" viewBox="0 0 28 28" version="1.1" xmlns="http://www.w3.org/2000/svg" xmlns:xlink="http://www.w3.org/1999/xlink">
    <title>矩形</title>
    <defs>
        <filter x="-12.2%" y="-12.2%" width="124.5%" height="124.5%" filterUnits="objectBoundingBox" id="filter-1">
            <feGaussianBlur stdDeviation="1" in="SourceGraphic"></feGaussianBlur>
        </filter>
    </defs>
    <g id="修改" stroke="none" stroke-width="1" fill="none" fill-rule="evenodd">
        <g id="蓝色图标" transform="translate(-1024.000000, -310.000000)" fill-rule="nonzero">
            <g id="对接_fill备份" transform="translate(1024.000000, 310.000000)">
                <rect id="矩形" fill="#000000" opacity="0" x="0" y="0" width="28" height="28"></rect>
                <path d="M25.3613281,21.8613281 L17.3860313,21.8613281 C17.0658359,20.6379414 16.1003281,19.6756602 14.875,19.3602773 L14.875,17.5 L21.875,17.5 C23.8,17.5 25.375,15.925 25.375,14 L2.625,14 C2.625,15.925 4.2,17.5 6.125,17.5 L13.125,17.5 L13.125,19.3602773 C11.8996719,19.6756602 10.9341641,20.6379687 10.6139687,21.8613281 L2.61132812,21.8613281 C2.13007813,21.8613281 1.73632812,22.2550781 1.73632812,22.7363281 C1.73632812,23.2175781 2.13007813,23.6113281 2.61132812,23.6113281 L10.6069141,23.6113281 C10.9907109,25.1278125 12.3642422,26.25 14,26.25 C15.6357578,26.25 17.0092891,25.1278125 17.3930859,23.6113281 L25.3613281,23.6113281 C25.8425781,23.6113281 26.2363281,23.2175781 26.2363281,22.7363281 C26.2363281,22.2550781 25.8425781,21.8613281 25.3613281,21.8613281 Z M14,24.5 C13.0335078,24.5 12.25,23.7164922 12.25,22.75 C12.25,21.7835078 13.0335078,21 14,21 C14.9664922,21 15.75,21.7835078 15.75,22.75 C15.75,23.7164922 14.9664922,24.5 14,24.5 Z M25.375,5.25 C25.375,3.325 23.8,1.75 21.875,1.75 L6.125,1.75 C4.2,1.75 2.625,3.325 2.625,5.25 L2.625,12.25 L25.375,12.25 L25.375,5.25 Z" id="形状" fill="#B6B5CA" filter="url(#filter-1)"></path>
                <path d="M26.1391059,22.6391059 L18.163809,22.6391059 C17.8436137,21.4157192 16.8781059,20.4534379 15.6527778,20.1380551 L15.6527778,18.2777778 L22.6527778,18.2777778 C24.5777778,18.2777778 26.1527778,16.7027778 26.1527778,14.7777778 L3.40277778,14.7777778 C3.40277778,16.7027778 4.97777778,18.2777778 6.90277778,18.2777778 L13.9027778,18.2777778 L13.9027778,20.1380551 C12.6774497,20.4534379 11.7119418,21.4157465 11.3917465,22.6391059 L3.3891059,22.6391059 C2.9078559,22.6391059 2.5141059,23.0328559 2.5141059,23.5141059 C2.5141059,23.9953559 2.9078559,24.3891059 3.3891059,24.3891059 L11.3846918,24.3891059 C11.7684887,25.9055903 13.14202,27.0277778 14.7777778,27.0277778 C16.4135356,27.0277778 17.7870668,25.9055903 18.1708637,24.3891059 L26.1391059,24.3891059 C26.6203559,24.3891059 27.0141059,23.9953559 27.0141059,23.5141059 C27.0141059,23.0328559 26.6203559,22.6391059 26.1391059,22.6391059 Z M14.7777778,25.2777778 C13.8112856,25.2777778 13.0277778,24.49427 13.0277778,23.5277778 C13.0277778,22.5612856 13.8112856,21.7777778 14.7777778,21.7777778 C15.74427,21.7777778 16.5277778,22.5612856 16.5277778,23.5277778 C16.5277778,24.49427 15.74427,25.2777778 14.7777778,25.2777778 Z M26.1527778,6.02777778 C26.1527778,4.10277778 24.5777778,2.52777778 22.6527778,2.52777778 L6.90277778,2.52777778 C4.97777778,2.52777778 3.40277778,4.10277778 3.40277778,6.02777778 L3.40277778,13.0277778 L26.1527778,13.0277778 L26.1527778,6.02777778 Z" id="形状" fill="#416DFD"></path>
            </g>
        </g>
    </g>
</svg>