<?xml version="1.0" encoding="UTF-8"?>
<svg width="36px" height="36px" viewBox="0 0 36 36" version="1.1" xmlns="http://www.w3.org/2000/svg" xmlns:xlink="http://www.w3.org/1999/xlink">
    <title>矩形</title>
    <g id="修改" stroke="none" stroke-width="1" fill="none" fill-rule="evenodd">
        <g id="管理员后台" transform="translate(-486.000000, -342.000000)">
            <g id="其他备份" transform="translate(486.000000, 342.000000)">
                <rect id="矩形" fill="#000000" fill-rule="nonzero" opacity="0" x="0" y="0" width="36" height="36"></rect>
                <path d="M26.9789063,13.7496094 C26.9964844,12.5402344 26.409375,11.8195312 25.3828125,11.3800781 C24.8203125,11.1375 24.2226563,10.9792969 23.6003906,10.9335937 C19.9757813,10.6839844 16.3441406,10.8351562 12.7195313,10.8457031 C11.9003906,10.8492187 11.0847656,11.0003906 10.3253906,11.3519531 C9.309375,11.8230469 8.71523438,12.5507812 8.7328125,13.7425781 C8.7609375,15.9117187 8.75742188,18.0808594 8.7328125,20.2464844 C8.72578125,20.8863281 9.02109375,21.2203125 9.58359375,21.3925781 C10.490625,21.6703125 11.3203125,21.5226563 12.0726563,20.8792969 C12.5507813,24.5355469 13.0605469,28.125 13.4648438,31.7214844 C13.5632813,32.6109375 14.0097656,32.9378906 14.7375,33.1382812 L16.2457031,33.1382812 C16.6253906,33.0257812 17.0050781,32.9484375 17.3285156,32.6601562 C17.634375,32.3859375 18.0949219,32.3789062 18.3972656,32.6285156 C18.7839844,32.9519531 19.2164063,33.0503906 19.6734375,33.1382812 L21.1816406,33.1382812 C21.6808594,32.9238281 22.1800781,32.7445312 22.2609375,32.0695312 C22.5703125,29.5804687 22.9078125,27.0949219 23.2382813,24.609375 C23.4,23.3964844 23.56875,22.1871094 23.7375,20.9355469 C24.496875,21.4839844 24.9503906,21.6 25.7835938,21.4839844 C26.6871094,21.3609375 27.0421875,20.953125 27.0352585,20.0425781 C27.0070313,17.9472656 26.9472656,15.8484375 26.9789063,13.7496094 L26.9789063,13.7496094 Z M14.1820313,5.9484375 C14.1820313,7.24589775 14.874218,8.44480047 15.9978515,9.0935306 C17.1214851,9.74226073 18.5058587,9.74226073 19.6294922,9.0935306 C20.7531257,8.44480047 21.4453125,7.24589775 21.4453125,5.9484375 C21.4453125,4.65097725 20.7531257,3.45207453 19.6294922,2.8033444 C18.5058587,2.15461427 17.1214851,2.15461427 15.9978515,2.8033444 C14.874218,3.45207453 14.1820313,4.65097725 14.1820313,5.9484375 L14.1820313,5.9484375 Z" id="形状" fill="#B6B5CA" fill-rule="nonzero"></path>
                <polyline id="路径-3" stroke="#FFFFFF" stroke-width="2" stroke-linecap="round" stroke-linejoin="round" points="14 18.4028858 17.0174973 21.8057716 22.812575 15"></polyline>
            </g>
        </g>
    </g>
</svg>