<?xml version="1.0" encoding="UTF-8"?>
<svg width="36px" height="36px" viewBox="0 0 36 36" version="1.1" xmlns="http://www.w3.org/2000/svg" xmlns:xlink="http://www.w3.org/1999/xlink">
    <title>矩形</title>
    <g id="修改" stroke="none" stroke-width="1" fill="none" fill-rule="evenodd">
        <g id="管理员后台" transform="translate(-632.000000, -233.000000)" fill-rule="nonzero">
            <g id="其他" transform="translate(632.000000, 233.000000)">
                <rect id="矩形" fill="#000000" opacity="0" x="0" y="0" width="36" height="36"></rect>
                <path d="M26.9789062,13.7496094 C26.9964844,12.5402344 26.409375,11.8195313 25.3828125,11.3800781 C24.8203125,11.1375 24.2226562,10.9792969 23.6003906,10.9335938 C19.9757812,10.6839844 16.3441406,10.8351563 12.7195312,10.8457031 C11.9003906,10.8492188 11.0847656,11.0003906 10.3253906,11.3519531 C9.309375,11.8230469 8.71523437,12.5507813 8.7328125,13.7425781 C8.7609375,15.9117188 8.75742187,18.0808594 8.7328125,20.2464844 C8.72578125,20.8863281 9.02109375,21.2203125 9.58359375,21.3925781 C10.490625,21.6703125 11.3203125,21.5226563 12.0726562,20.8792969 C12.5507812,24.5355469 13.0605469,28.125 13.4648437,31.7214844 C13.5632812,32.6109375 14.0097656,32.9378906 14.7375,33.1382813 L16.2457031,33.1382813 C16.6253906,33.0257813 17.0050781,32.9484375 17.3285156,32.6601562 C17.634375,32.3859375 18.0949219,32.3789063 18.3972656,32.6285156 C18.7839844,32.9519531 19.2164062,33.0503906 19.6734375,33.1382813 L21.1816406,33.1382813 C21.6808594,32.9238281 22.1800781,32.7445313 22.2609375,32.0695313 C22.5703125,29.5804688 22.9078125,27.0949219 23.2382812,24.609375 C23.4,23.3964844 23.56875,22.1871094 23.7375,20.9355469 C24.496875,21.4839844 24.9503906,21.6 25.7835937,21.4839844 C26.6871094,21.3609375 27.0421875,20.953125 27.0352585,20.0425781 C27.0070312,17.9472656 26.9472656,15.8484375 26.9789062,13.7496094 L26.9789062,13.7496094 Z M17.8804687,27.2953125 C16.9171875,27.1863281 16.3546875,26.6800781 16.1929687,25.7695313 C16.2984375,24.6972656 16.8609375,24.1101563 17.8804687,24.0011719 C18.9527344,24.1101563 19.5398437,24.6972656 19.6488281,25.7695313 C19.4871094,26.6800781 18.9,27.1863281 17.8804687,27.2953125 Z M20.4539062,19.4238281 C19.1671875,20.3871094 18.5273438,21.3503906 18.5273438,22.3171875 L18.5273438,23.1996094 L17.4832031,23.1996094 L17.4832031,21.9128906 C17.4832031,21.1640625 17.7785156,20.4152344 18.365625,19.6628906 C19.0089844,18.8085938 19.3289062,17.9226563 19.3289062,17.0121094 C19.3289062,15.0328125 18.6855469,14.0414063 17.4023438,14.0414063 C16.4390625,14.0941406 15.7429687,14.4703125 15.3140625,15.1664063 L15.6339844,15.1664063 C16.70625,15.1664063 17.240625,15.6234375 17.240625,16.5304688 C17.1316406,17.3882813 16.5972656,17.8699219 15.6339844,17.9753906 C14.6707031,17.8699219 14.1328125,17.3074219 14.0273438,16.2878906 C14.2417969,14.3613281 15.6058594,13.3171875 18.1230469,13.1554688 C20.9074219,13.2644531 22.3804688,14.2804688 22.5421875,16.2070313 C22.5421875,17.2792969 21.8460938,18.3515625 20.4539063,19.4238281 L20.4539062,19.4238281 Z M14.1820312,5.9484375 C14.1820312,7.24589775 14.874218,8.44480047 15.9978515,9.0935306 C17.1214851,9.74226073 18.5058587,9.74226073 19.6294922,9.0935306 C20.7531257,8.44480047 21.4453125,7.24589775 21.4453125,5.9484375 C21.4453125,4.65097725 20.7531257,3.45207453 19.6294922,2.8033444 C18.5058587,2.15461427 17.1214851,2.15461427 15.9978515,2.8033444 C14.874218,3.45207453 14.1820312,4.65097725 14.1820312,5.9484375 L14.1820312,5.9484375 Z" id="形状" fill="#B6B5CA"></path>
            </g>
        </g>
    </g>
</svg>