<?xml version="1.0" encoding="UTF-8"?>
<svg width="28px" height="28px" viewBox="0 0 28 28" version="1.1" xmlns="http://www.w3.org/2000/svg" xmlns:xlink="http://www.w3.org/1999/xlink">
    <title>矩形</title>
    <defs>
        <filter x="-21.1%" y="-12.5%" width="142.1%" height="125.0%" filterUnits="objectBoundingBox" id="filter-1">
            <feGaussianBlur stdDeviation="1" in="SourceGraphic"></feGaussianBlur>
        </filter>
    </defs>
    <g id="修改" stroke="none" stroke-width="1" fill="none" fill-rule="evenodd">
        <g id="蓝色图标" transform="translate(-616.000000, -163.000000)" fill-rule="nonzero">
            <g id="其他备份-3" transform="translate(616.000000, 163.000000)">
                <rect id="矩形" fill="#000000" opacity="0" x="0" y="0" width="28" height="28"></rect>
                <path d="M20.205816,10.6941406 C20.2194878,9.75351562 19.7628472,9.19296875 18.9644097,8.85117187 C18.5269097,8.6625 18.062066,8.53945312 17.5780816,8.50390625 C14.758941,8.30976562 11.9343316,8.42734375 9.11519097,8.43554687 C8.4780816,8.43828125 7.8437066,8.55585937 7.2530816,8.82929687 C6.46284722,9.19570312 6.00073785,9.76171875 6.01440972,10.6886719 C6.03628472,12.3757812 6.03355035,14.0628906 6.01440972,15.7472656 C6.00894097,16.2449219 6.23862847,16.5046875 6.67612847,16.6386719 C7.38159722,16.8546875 8.02690972,16.7398437 8.61206597,16.2394531 C8.98394097,19.0832031 9.38042535,21.875 9.69487847,24.6722656 C9.77144097,25.3640625 10.1187066,25.6183594 10.6847222,25.7742187 L11.8577691,25.7742187 C12.1530816,25.6867187 12.4483941,25.6265625 12.6999566,25.4023437 C12.9378472,25.1890625 13.2960503,25.1835937 13.5312066,25.3777344 C13.8319878,25.6292969 14.168316,25.7058594 14.5237847,25.7742187 L15.6968316,25.7742187 C16.0851128,25.6074219 16.4733941,25.4679687 16.5362847,24.9429687 C16.7769097,23.0070312 17.0394097,21.0738281 17.296441,19.140625 C17.4222222,18.1972656 17.5534722,17.2566406 17.6847222,16.2832031 C18.2753472,16.7097656 18.6280816,16.8 19.2761285,16.7097656 C19.9788628,16.6140625 20.2550347,16.296875 20.2496455,15.5886719 C20.227691,13.9589844 20.1812066,12.3265625 20.205816,10.6941406 L20.205816,10.6941406 Z M13.1292535,21.2296875 C12.3800347,21.1449219 11.9425347,20.7511719 11.8167535,20.0429687 C11.8987847,19.2089844 12.3362847,18.7523437 13.1292535,18.6675781 C13.9632378,18.7523437 14.4198785,19.2089844 14.5046441,20.0429687 C14.3788628,20.7511719 13.9222222,21.1449219 13.1292535,21.2296875 Z M15.130816,15.1074219 C14.1300347,15.8566406 13.6323785,16.6058594 13.6323785,17.3578125 L13.6323785,18.0441406 L12.8202691,18.0441406 L12.8202691,17.0433594 C12.8202691,16.4609375 13.0499566,15.8785156 13.5065972,15.2933594 C14.0069878,14.6289062 14.255816,13.9398437 14.255816,13.2316406 C14.255816,11.6921875 13.7554253,10.9210937 12.7573785,10.9210937 C12.0081597,10.9621094 11.4667535,11.2546875 11.1331597,11.7960937 L11.3819878,11.7960937 C12.2159722,11.7960937 12.6315972,12.1515625 12.6315972,12.8570312 C12.5468316,13.5242187 12.1312066,13.8988281 11.3819878,13.9808594 C10.6327691,13.8988281 10.2144097,13.4613281 10.1323785,12.6683594 C10.2991753,11.1699219 11.3601128,10.3578125 13.3179253,10.2320312 C15.4835503,10.3167969 16.6292535,11.1070312 16.7550347,12.6054687 C16.7550347,13.4394531 16.2136285,14.2734375 15.130816,15.1074219 L15.130816,15.1074219 Z M10.252691,4.6265625 C10.252691,5.63569825 10.7910585,6.56817814 11.6649956,7.07274602 C12.5389328,7.5773139 13.6156679,7.5773139 14.4896051,7.07274602 C15.3635422,6.56817814 15.9019097,5.63569825 15.9019097,4.6265625 C15.9019097,3.61742675 15.3635422,2.68494686 14.4896051,2.18037898 C13.6156679,1.6758111 12.5389328,1.6758111 11.6649956,2.18037898 C10.7910585,2.68494686 10.252691,3.61742675 10.252691,4.6265625 L10.252691,4.6265625 Z" id="形状" fill="#B6B5CA" filter="url(#filter-1)"></path>
                <path d="M20.9835937,11.4719184 C20.9972656,10.5312934 20.540625,9.97074653 19.7421875,9.62894965 C19.3046875,9.44027778 18.8398437,9.3172309 18.3558594,9.28168403 C15.5367187,9.0875434 12.7121094,9.20512153 9.89296875,9.21332465 C9.25585937,9.21605903 8.62148437,9.33363715 8.03085937,9.60707465 C7.240625,9.9734809 6.77851562,10.5394965 6.7921875,11.4664497 C6.8140625,13.153559 6.81132812,14.8406684 6.7921875,16.5250434 C6.78671875,17.0226997 7.01640625,17.2824653 7.45390625,17.4164497 C8.159375,17.6324653 8.8046875,17.5176215 9.38984375,17.0172309 C9.76171875,19.8609809 10.1582031,22.6527778 10.4726562,25.4500434 C10.5492187,26.1418403 10.8964844,26.3961372 11.4625,26.5519965 L12.6355469,26.5519965 C12.9308594,26.4644965 13.2261719,26.4043403 13.4777344,26.1801215 C13.715625,25.9668403 14.0738281,25.9613715 14.3089844,26.1555122 C14.6097656,26.4070747 14.9460937,26.4836372 15.3015625,26.5519965 L16.4746094,26.5519965 C16.8628906,26.3851997 17.2511719,26.2457465 17.3140625,25.7207465 C17.5546875,23.784809 17.8171875,21.8516059 18.0742187,19.9184028 C18.2,18.9750434 18.33125,18.0344184 18.4625,17.0609809 C19.053125,17.4875434 19.4058594,17.5777778 20.0539062,17.4875434 C20.7566406,17.3918403 21.0328125,17.0746528 21.0274233,16.3664497 C21.0054687,14.7367622 20.9589844,13.1043403 20.9835937,11.4719184 L20.9835937,11.4719184 Z M13.9070312,22.0074653 C13.1578125,21.9226997 12.7203125,21.5289497 12.5945312,20.8207465 C12.6765625,19.9867622 13.1140625,19.5301215 13.9070312,19.4453559 C14.7410156,19.5301215 15.1976562,19.9867622 15.2824219,20.8207465 C15.1566406,21.5289497 14.7,21.9226997 13.9070312,22.0074653 Z M15.9085937,15.8851997 C14.9078125,16.6344184 14.4101562,17.3836372 14.4101562,18.1355903 L14.4101562,18.8219184 L13.5980469,18.8219184 L13.5980469,17.8211372 C13.5980469,17.2387153 13.8277344,16.6562934 14.284375,16.0711372 C14.7847656,15.406684 15.0335937,14.7176215 15.0335937,14.0094184 C15.0335937,12.4699653 14.5332031,11.6988715 13.5351562,11.6988715 C12.7859375,11.7398872 12.2445312,12.0324653 11.9109375,12.5738715 L12.1597656,12.5738715 C12.99375,12.5738715 13.409375,12.9293403 13.409375,13.634809 C13.3246094,14.3019965 12.9089844,14.6766059 12.1597656,14.7586372 C11.4105469,14.6766059 10.9921875,14.2391059 10.9101562,13.4461372 C11.0769531,11.9476997 12.1378906,11.1355903 14.0957031,11.009809 C16.2613281,11.0945747 17.4070312,11.884809 17.5328125,13.3832465 C17.5328125,14.2172309 16.9914062,15.0512153 15.9085937,15.8851997 L15.9085937,15.8851997 Z M11.0304687,5.40434028 C11.0304687,6.41347603 11.5688362,7.34595592 12.4427734,7.8505238 C13.3167106,8.35509168 14.3934456,8.35509168 15.2673828,7.8505238 C16.14132,7.34595592 16.6796875,6.41347603 16.6796875,5.40434028 C16.6796875,4.39520453 16.14132,3.46272463 15.2673828,2.95815675 C14.3934456,2.45358887 13.3167106,2.45358887 12.4427734,2.95815675 C11.5688362,3.46272463 11.0304687,4.39520453 11.0304687,5.40434028 L11.0304687,5.40434028 Z" id="形状" fill="#416DFD"></path>
            </g>
        </g>
    </g>
</svg>