<?xml version="1.0" encoding="UTF-8"?>
<svg width="28px" height="28px" viewBox="0 0 28 28" version="1.1" xmlns="http://www.w3.org/2000/svg" xmlns:xlink="http://www.w3.org/1999/xlink">
    <title>矩形</title>
    <defs>
        <filter x="-21.1%" y="-12.5%" width="142.1%" height="125.0%" filterUnits="objectBoundingBox" id="filter-1">
            <feGaussianBlur stdDeviation="1" in="SourceGraphic"></feGaussianBlur>
        </filter>
    </defs>
    <g id="修改" stroke="none" stroke-width="1" fill="none" fill-rule="evenodd">
        <g id="蓝色图标" transform="translate(-1024.000000, -236.000000)">
            <g id="其他备份-2" transform="translate(1024.000000, 236.000000)">
                <rect id="矩形" fill="#000000" fill-rule="nonzero" opacity="0" x="0" y="0" width="28" height="28"></rect>
                <path d="M20.205816,9.91636285 C20.2194878,8.97573785 19.7628472,8.41519097 18.9644097,8.0733941 C18.5269097,7.88472222 18.062066,7.76167535 17.5780816,7.72612847 C14.758941,7.53198785 11.9343316,7.64956597 9.11519097,7.6577691 C8.4780816,7.66050347 7.8437066,7.7780816 7.2530816,8.0515191 C6.46284722,8.41792535 6.00073785,8.98394097 6.01440972,9.9108941 C6.03628472,11.5980035 6.03355035,13.2851128 6.01440972,14.9694878 C6.00894097,15.4671441 6.23862847,15.7269097 6.67612847,15.8608941 C7.38159722,16.0769097 8.02690972,15.962066 8.61206597,15.4616753 C8.98394097,18.3054253 9.38042535,21.0972222 9.69487847,23.8944878 C9.77144097,24.5862847 10.1187066,24.8405816 10.6847222,24.996441 L11.8577691,24.996441 C12.1530816,24.908941 12.4483941,24.8487847 12.6999566,24.624566 C12.9378472,24.4112847 13.2960503,24.405816 13.5312066,24.5999566 C13.8319878,24.8515191 14.168316,24.9280816 14.5237847,24.996441 L15.6968316,24.996441 C16.0851128,24.8296441 16.4733941,24.690191 16.5362847,24.165191 C16.7769097,22.2292535 17.0394097,20.2960503 17.296441,18.3628472 C17.4222222,17.4194878 17.5534722,16.4788628 17.6847222,15.5054253 C18.2753472,15.9319878 18.6280816,16.0222222 19.2761285,15.9319878 C19.9788628,15.8362847 20.2550347,15.5190972 20.2496455,14.8108941 C20.227691,13.1812066 20.1812066,11.5487847 20.205816,9.91636285 L20.205816,9.91636285 Z M10.252691,3.84878472 C10.252691,4.85792047 10.7910585,5.79040037 11.6649956,6.29496825 C12.5389328,6.79953613 13.6156679,6.79953613 14.4896051,6.29496825 C15.3635422,5.79040037 15.9019097,4.85792047 15.9019097,3.84878472 C15.9019097,2.83964897 15.3635422,1.90716908 14.4896051,1.4026012 C13.6156679,0.898033318 12.5389328,0.898033318 11.6649956,1.4026012 C10.7910585,1.90716908 10.252691,2.83964897 10.252691,3.84878472 L10.252691,3.84878472 Z" id="形状" fill="#B6B5CA" fill-rule="nonzero" filter="url(#filter-1)"></path>
                <path d="M20.9835937,10.6941406 C20.9972656,9.75351562 20.540625,9.19296875 19.7421875,8.85117187 C19.3046875,8.6625 18.8398437,8.53945312 18.3558594,8.50390625 C15.5367187,8.30976562 12.7121094,8.42734375 9.89296875,8.43554687 C9.25585937,8.43828125 8.62148437,8.55585937 8.03085937,8.82929687 C7.240625,9.19570312 6.77851562,9.76171875 6.7921875,10.6886719 C6.8140625,12.3757812 6.81132812,14.0628906 6.7921875,15.7472656 C6.78671875,16.2449219 7.01640625,16.5046875 7.45390625,16.6386719 C8.159375,16.8546875 8.8046875,16.7398437 9.38984375,16.2394531 C9.76171875,19.0832031 10.1582031,21.875 10.4726562,24.6722656 C10.5492187,25.3640625 10.8964844,25.6183594 11.4625,25.7742187 L12.6355469,25.7742187 C12.9308594,25.6867187 13.2261719,25.6265625 13.4777344,25.4023437 C13.715625,25.1890625 14.0738281,25.1835937 14.3089844,25.3777344 C14.6097656,25.6292969 14.9460937,25.7058594 15.3015625,25.7742187 L16.4746094,25.7742187 C16.8628906,25.6074219 17.2511719,25.4679687 17.3140625,24.9429687 C17.5546875,23.0070312 17.8171875,21.0738281 18.0742187,19.140625 C18.2,18.1972656 18.33125,17.2566406 18.4625,16.2832031 C19.053125,16.7097656 19.4058594,16.8 20.0539062,16.7097656 C20.7566406,16.6140625 21.0328125,16.296875 21.0274233,15.5886719 C21.0054687,13.9589844 20.9589844,12.3265625 20.9835937,10.6941406 L20.9835937,10.6941406 Z M11.0304687,4.6265625 C11.0304687,5.63569825 11.5688362,6.56817814 12.4427734,7.07274602 C13.3167106,7.5773139 14.3934456,7.5773139 15.2673828,7.07274602 C16.14132,6.56817814 16.6796875,5.63569825 16.6796875,4.6265625 C16.6796875,3.61742675 16.14132,2.68494686 15.2673828,2.18037898 C14.3934456,1.6758111 13.3167106,1.6758111 12.4427734,2.18037898 C11.5688362,2.68494686 11.0304687,3.61742675 11.0304687,4.6265625 L11.0304687,4.6265625 Z" id="形状" fill="#416DFD" fill-rule="nonzero"></path>
                <polyline id="路径-3" stroke="#FFFFFF" stroke-width="2" stroke-linecap="round" stroke-linejoin="round" points="10.8888889 14.3133556 13.2358312 16.9600446 17.7431139 11.6666667"></polyline>
            </g>
        </g>
    </g>
</svg>