<?xml version="1.0" encoding="UTF-8"?>
<svg width="28px" height="28px" viewBox="0 0 28 28" version="1.1" xmlns="http://www.w3.org/2000/svg" xmlns:xlink="http://www.w3.org/1999/xlink">
    <title>矩形</title>
    <defs>
        <filter x="-12.2%" y="-15.5%" width="124.5%" height="131.0%" filterUnits="objectBoundingBox" id="filter-1">
            <feGaussianBlur stdDeviation="1" in="SourceGraphic"></feGaussianBlur>
        </filter>
    </defs>
    <g id="修改" stroke="none" stroke-width="1" fill="none" fill-rule="evenodd">
        <g id="蓝色图标" transform="translate(-890.000000, -236.000000)" fill-rule="nonzero">
            <g id="服务管理备份" transform="translate(890.000000, 236.000000)">
                <rect id="矩形" fill="#000000" opacity="0" x="0" y="0" width="28" height="28"></rect>
                <path d="M23.5347656,9.56757813 C23.8984375,9.60859375 24.2484375,9.7015625 24.6121094,9.84921875 C24.9757812,9.996875 25.2847656,10.2128906 25.5390625,10.4808594 C25.8070312,10.7488281 25.9957031,11.0988281 26.1296875,11.5171875 C26.2636719,11.9355469 26.2773438,12.4195313 26.184375,12.9964844 L26.184375,13.0238281 C26.1433594,13.1851563 26.0777344,13.5488281 25.9546875,14.1257813 C25.8480469,14.7164063 25.7113281,15.4027344 25.5636719,16.1710938 C25.4160156,16.9367188 25.2410156,17.7324219 25.0523437,18.5527344 C24.8636719,19.3730469 24.6886719,20.0730469 24.5136719,20.6527344 C24.4207031,20.9890625 24.2839844,21.3390625 24.1089844,21.7027344 C23.9339844,22.0664062 23.7042969,22.3890625 23.4226562,22.6707031 C23.1410156,22.9660156 22.8046875,23.209375 22.4,23.3980469 C22.0089844,23.5867187 21.5386719,23.6796875 20.9863281,23.6796875 L5.359375,23.6796875 C4.96835938,23.6796875 4.55273438,23.5976562 4.134375,23.4253906 C3.71601563,23.2503906 3.3140625,23.0207031 2.9640625,22.6980469 C2.6140625,22.3753906 2.31875,22.0117188 2.0890625,21.56875 C1.859375,21.1257812 1.75273438,20.628125 1.75273438,20.0894531 L1.75273438,7.97890625 C1.75273438,6.8359375 2.06171875,5.93359375 2.6796875,5.28828125 C3.29765625,4.64296875 4.17539063,4.3203125 5.3046875,4.3203125 L19.1871094,4.3203125 C19.6054688,4.3203125 20.0347656,4.40234375 20.4640625,4.56367187 C20.9070313,4.725 21.3117188,4.94101563 21.6617187,5.22265625 C22.0253906,5.50429688 22.3070313,5.82695313 22.5367187,6.20429688 C22.7664062,6.58164063 22.8730469,6.98359375 22.8730469,7.415625 C22.8730469,7.590625 22.7390625,7.72460938 22.5640625,7.72460938 L21.4101562,7.72460938 C20.6554687,7.72460938 19.7832031,7.72460938 18.7742187,7.7109375 C17.7652344,7.69726562 16.6878906,7.69726562 15.5585937,7.69726562 C14.4292969,7.69726562 13.3519531,7.69726562 12.3703125,7.68359375 C11.3886719,7.66992188 10.5273438,7.66992188 9.81367187,7.66992188 L8.509375,7.66992188 C8.02539062,7.66992188 7.634375,7.83125 7.36640625,8.14023438 C7.0984375,8.44921875 6.88242188,8.86757813 6.73476563,9.36523438 C6.58710938,9.91757813 6.41210938,10.4945313 6.2234375,11.1015625 C6.03476563,11.7085938 5.85976563,12.2855469 5.71210938,12.8105469 C5.5234375,13.4285156 5.33476563,14.021875 5.14609375,14.5988281 C5.14609375,14.6125 5.14609375,14.6125 5.13242188,14.6261719 C5.09140625,14.7738281 5.07773438,14.8941406 5.07773438,14.9761719 C5.07773438,15.2988281 5.184375,15.5667969 5.40039063,15.7828125 C5.61640625,15.9988281 5.884375,16.1054688 6.20703125,16.1054688 C6.78671875,16.1054688 7.18867188,15.7417969 7.39101563,15.0035156 L8.82929688,9.75625 C8.8703125,9.62226563 8.990625,9.5265625 9.13828125,9.5265625 C11.4925781,9.54023438 13.6445313,9.55390625 15.6214844,9.55390625 L23.5347656,9.56757813 Z" id="路径" fill="#B6B5CA" filter="url(#filter-1)"></path>
                <path d="M24.3125434,10.3453559 C24.6762153,10.3863715 25.0262153,10.4793403 25.3898872,10.6269965 C25.753559,10.7746528 26.0625434,10.9906684 26.3168403,11.2586372 C26.584809,11.5266059 26.7734809,11.8766059 26.9074653,12.2949653 C27.0414497,12.7133247 27.0551215,13.197309 26.9621528,13.7742622 L26.9621528,13.8016059 C26.9211372,13.962934 26.8555122,14.3266059 26.7324653,14.903559 C26.6258247,15.494184 26.4891059,16.1805122 26.3414497,16.9488715 C26.1937934,17.7144965 26.0187934,18.5101997 25.8301215,19.3305122 C25.6414497,20.1508247 25.4664497,20.8508247 25.2914497,21.4305122 C25.1984809,21.7668403 25.0617622,22.1168403 24.8867622,22.4805122 C24.7117622,22.844184 24.4820747,23.1668403 24.200434,23.4484809 C23.9187934,23.7437934 23.5824653,23.9871528 23.1777778,24.1758247 C22.7867622,24.3644965 22.3164497,24.4574653 21.7641059,24.4574653 L6.13715278,24.4574653 C5.74613715,24.4574653 5.33051215,24.375434 4.91215278,24.2031684 C4.4937934,24.0281684 4.09184028,23.7984809 3.74184028,23.4758247 C3.39184028,23.1531684 3.09652778,22.7894965 2.86684028,22.3465278 C2.63715278,21.903559 2.53051215,21.4059028 2.53051215,20.8672309 L2.53051215,8.75668403 C2.53051215,7.61371528 2.83949653,6.71137153 3.45746528,6.06605903 C4.07543403,5.42074653 4.9531684,5.09809028 6.08246528,5.09809028 L19.9648872,5.09809028 C20.3832465,5.09809028 20.8125434,5.18012153 21.2418403,5.34144965 C21.684809,5.50277778 22.0894965,5.7187934 22.4394965,6.00043403 C22.8031684,6.28207465 23.084809,6.6047309 23.3144965,6.98207465 C23.544184,7.3594184 23.6508247,7.76137153 23.6508247,8.19340278 C23.6508247,8.36840278 23.5168403,8.50238715 23.3418403,8.50238715 L22.187934,8.50238715 C21.4332465,8.50238715 20.5609809,8.50238715 19.5519965,8.48871528 C18.5430122,8.4750434 17.4656684,8.4750434 16.3363715,8.4750434 C15.2070747,8.4750434 14.1297309,8.4750434 13.1480903,8.46137153 C12.1664497,8.44769965 11.3051215,8.44769965 10.5914497,8.44769965 L9.28715278,8.44769965 C8.8031684,8.44769965 8.41215278,8.60902778 8.14418403,8.91801215 C7.87621528,9.22699653 7.66019965,9.6453559 7.5125434,10.1430122 C7.36488715,10.6953559 7.18988715,11.272309 7.00121528,11.8793403 C6.8125434,12.4863715 6.6375434,13.0633247 6.48988715,13.5883247 C6.30121528,14.2062934 6.1125434,14.7996528 5.92387153,15.3766059 C5.92387153,15.3902778 5.92387153,15.3902778 5.91019965,15.4039497 C5.86918403,15.5516059 5.85551215,15.6719184 5.85551215,15.7539497 C5.85551215,16.0766059 5.96215278,16.3445747 6.1781684,16.5605903 C6.39418403,16.7766059 6.66215278,16.8832465 6.98480903,16.8832465 C7.56449653,16.8832465 7.96644965,16.5195747 8.1687934,15.7812934 L9.60707465,10.5340278 C9.64809028,10.4000434 9.76840278,10.3043403 9.91605903,10.3043403 C12.2703559,10.3180122 14.422309,10.331684 16.3992622,10.331684 L24.3125434,10.3453559 Z" id="路径" fill="#416DFD"></path>
            </g>
        </g>
    </g>
</svg>