<?xml version="1.0" encoding="UTF-8"?>
<svg width="36px" height="36px" viewBox="0 0 36 36" version="1.1" xmlns="http://www.w3.org/2000/svg" xmlns:xlink="http://www.w3.org/1999/xlink">
    <title>矩形</title>
    <g id="修改" stroke="none" stroke-width="1" fill="none" fill-rule="evenodd">
        <g id="管理员后台" transform="translate(-340.000000, -342.000000)" fill-rule="nonzero">
            <g id="服务管理" transform="translate(340.000000, 342.000000)">
                <rect id="矩形" fill="#000000" opacity="0" x="0" y="0" width="36" height="36"></rect>
                <path d="M30.2589844,12.3011719 C30.7265625,12.3539062 31.1765625,12.4734375 31.6441406,12.6632813 C32.1117187,12.853125 32.5089844,13.1308594 32.8359375,13.4753906 C33.1804687,13.8199219 33.4230469,14.2699219 33.5953125,14.8078125 C33.7675781,15.3457031 33.7851562,15.9679688 33.665625,16.7097656 L33.665625,16.7449219 C33.6128906,16.9523438 33.5285156,17.4199219 33.3703125,18.1617188 C33.2332031,18.9210938 33.0574219,19.8035156 32.8675781,20.7914063 C32.6777344,21.7757813 32.4527344,22.7988281 32.2101562,23.8535156 C31.9675781,24.9082031 31.7425781,25.8082031 31.5175781,26.5535156 C31.3980469,26.9859375 31.2222656,27.4359375 30.9972656,27.9035156 C30.7722656,28.3710938 30.4769531,28.7859375 30.1148437,29.1480469 C29.7527344,29.5277344 29.3203125,29.840625 28.8,30.0832031 C28.2972656,30.3257812 27.6925781,30.4453125 26.9824219,30.4453125 L6.890625,30.4453125 C6.38789063,30.4453125 5.85351563,30.3398438 5.315625,30.1183594 C4.77773437,29.8933594 4.2609375,29.5980469 3.8109375,29.1832031 C3.3609375,28.7683594 2.98125,28.3007812 2.6859375,27.73125 C2.390625,27.1617187 2.25351563,26.521875 2.25351563,25.8292969 L2.25351563,10.2585938 C2.25351563,8.7890625 2.65078125,7.62890625 3.4453125,6.79921875 C4.23984375,5.96953125 5.36835938,5.5546875 6.8203125,5.5546875 L24.6691406,5.5546875 C25.2070312,5.5546875 25.7589844,5.66015625 26.3109375,5.86757813 C26.8804688,6.075 27.4007813,6.35273438 27.8507813,6.71484375 C28.3183594,7.07695313 28.6804688,7.49179688 28.9757813,7.97695313 C29.2710937,8.46210938 29.4082031,8.97890625 29.4082031,9.534375 C29.4082031,9.759375 29.2359375,9.93164062 29.0109375,9.93164062 L27.5273438,9.93164062 C26.5570312,9.93164062 25.4355469,9.93164062 24.1382812,9.9140625 C22.8410156,9.89648438 21.4558594,9.89648438 20.0039062,9.89648438 C18.5519531,9.89648438 17.1667969,9.89648438 15.9046875,9.87890625 C14.6425781,9.86132812 13.5351562,9.86132812 12.6175781,9.86132812 L10.940625,9.86132812 C10.3183594,9.86132812 9.815625,10.06875 9.47109375,10.4660156 C9.1265625,10.8632812 8.84882813,11.4011719 8.65898437,12.0410156 C8.46914062,12.7511719 8.24414062,13.4929688 8.0015625,14.2734375 C7.75898438,15.0539063 7.53398438,15.7957031 7.34414063,16.4707031 C7.1015625,17.2652344 6.85898438,18.028125 6.61640625,18.7699219 C6.61640625,18.7875 6.61640625,18.7875 6.59882813,18.8050781 C6.54609375,18.9949219 6.52851563,19.1496094 6.52851563,19.2550781 C6.52851563,19.6699219 6.665625,20.0144531 6.94335938,20.2921875 C7.22109375,20.5699219 7.565625,20.7070312 7.98046875,20.7070312 C8.72578125,20.7070312 9.24257813,20.2394531 9.50273438,19.2902344 L11.3519531,12.54375 C11.4046875,12.3714844 11.559375,12.2484375 11.7492188,12.2484375 C14.7761719,12.2660156 17.5429688,12.2835938 20.0847656,12.2835938 L30.2589844,12.3011719 Z" id="路径" fill="#B6B5CA"></path>
            </g>
        </g>
    </g>
</svg>