<?xml version="1.0" encoding="UTF-8"?>
<svg width="28px" height="28px" viewBox="0 0 28 28" version="1.1" xmlns="http://www.w3.org/2000/svg" xmlns:xlink="http://www.w3.org/1999/xlink">
    <title>矩形</title>
    <defs>
        <filter x="-14.8%" y="-12.1%" width="129.7%" height="124.1%" filterUnits="objectBoundingBox" id="filter-1">
            <feGaussianBlur stdDeviation="1" in="SourceGraphic"></feGaussianBlur>
        </filter>
    </defs>
    <g id="修改" stroke="none" stroke-width="1" fill="none" fill-rule="evenodd">
        <g id="蓝色图标" transform="translate(-346.000000, -310.000000)" fill-rule="nonzero">
            <g id="活动备份-2" transform="translate(346.000000, 310.000000)">
                <rect id="矩形" fill="#000000" opacity="0" x="0" y="0" width="28" height="28"></rect>
                <path d="M24.0993084,10.4168339 L21.2574906,1.71395881 C21.2326856,1.63907111 21.1711344,1.58204156 21.0943669,1.56281834 C21.0175994,1.54359511 20.9362972,1.56485299 20.8788988,1.61915625 C16.1108167,6.0870655 10.5005885,3.18272135 5.87252418,6.31323734 L4.35883651,6.80282484 C4.00185915,6.9184046 3.80649969,7.30038928 3.92247035,7.65604788 L9.90381361,25.9773199 C10.020113,26.3326935 10.40344,26.5269756 10.7602332,26.4113802 L11.6920993,26.1093663 C12.0490767,25.9937866 12.2444361,25.6118019 12.1284655,25.2561433 L8.91757166,15.417669 C13.4661113,11.5625905 22.2722799,13.4153034 24.0748393,10.6145649 C24.1124894,10.5556966 24.1214794,10.4830499 24.0993084,10.4168339 Z" id="路径" fill="#B6B5CA" filter="url(#filter-1)"></path>
                <path d="M24.8770862,11.1946117 L22.0352684,2.49173659 C22.0104634,2.41684889 21.9489122,2.35981934 21.8721447,2.34059612 C21.7953772,2.32137289 21.714075,2.34263077 21.6566766,2.39693403 C16.8885944,6.86484328 11.2783663,3.96049913 6.65030195,7.09101512 L5.13661429,7.58060261 C4.77963693,7.69618238 4.58427747,8.07816706 4.70024812,8.43382565 L10.6815914,26.7550977 C10.7978908,27.1104713 11.1812178,27.3047534 11.538011,27.189158 L12.4698771,26.8871441 C12.8268544,26.7715643 13.0222139,26.3895797 12.9062432,26.0339211 L9.69534944,16.1954467 C14.2438891,12.3403683 23.0500577,14.1930812 24.852617,11.3923427 C24.8902672,11.3334743 24.8992572,11.2608277 24.8770862,11.1946117 Z" id="路径" fill="#416DFD"></path>
            </g>
        </g>
    </g>
</svg>