<?xml version="1.0" encoding="UTF-8"?>
<svg width="36px" height="36px" viewBox="0 0 36 36" version="1.1" xmlns="http://www.w3.org/2000/svg" xmlns:xlink="http://www.w3.org/1999/xlink">
    <title>矩形</title>
    <g id="修改" stroke="none" stroke-width="1" fill="none" fill-rule="evenodd">
        <g id="管理员后台" transform="translate(-764.000000, -342.000000)" fill-rule="nonzero">
            <g id="活动" transform="translate(764.000000, 342.000000)">
                <rect id="矩形" fill="#000000" opacity="0" x="0" y="0" width="36" height="36"></rect>
                <path d="M32.4121245,12.867466 L28.3567291,0.401562703 C28.3213312,0.294294384 28.233495,0.212605883 28.1239445,0.185070743 C28.014394,0.157535603 27.8983723,0.187985157 27.8164624,0.265768559 C21.0122053,6.665553 13.00617,2.50540214 6.40172436,6.98951907 L4.24162737,7.69079886 C3.73220542,7.85635406 3.45341912,8.40350475 3.6189142,8.91294623 L12.1545467,35.1561363 C12.320511,35.6651696 12.8675349,35.9434572 13.3766941,35.7778796 L14.7065068,35.3452782 C15.2159288,35.179723 15.4947151,34.6325723 15.32922,34.1231308 L10.7471373,20.0306076 C17.2380978,14.5086353 29.8048767,17.1624411 32.377206,13.1506938 C32.4309344,13.0663714 32.4437635,12.9623132 32.4121245,12.867466 Z" id="路径" fill="#B6B5CA"></path>
            </g>
        </g>
    </g>
</svg>