<?xml version="1.0" encoding="UTF-8"?>
<svg width="28px" height="28px" viewBox="0 0 28 28" version="1.1" xmlns="http://www.w3.org/2000/svg" xmlns:xlink="http://www.w3.org/1999/xlink">
    <title>矩形</title>
    <defs>
        <filter x="-12.9%" y="-12.9%" width="125.7%" height="125.7%" filterUnits="objectBoundingBox" id="filter-1">
            <feGaussianBlur stdDeviation="1" in="SourceGraphic"></feGaussianBlur>
        </filter>
    </defs>
    <g id="修改" stroke="none" stroke-width="1" fill="none" fill-rule="evenodd">
        <g id="蓝色图标" transform="translate(-890.000000, -310.000000)" fill-rule="nonzero">
            <g id="21解答备份" transform="translate(890.000000, 310.000000)">
                <rect id="矩形" fill="#000000" opacity="0" x="0" y="0" width="28" height="28"></rect>
                <path d="M14.21875,2.33333333 C7.87500001,2.33333333 2.33333333,6.84008306 2.33333333,12.4371755 C2.33333333,16.3624091 4.8125,19.2699896 8.16666666,21.1599169 L7,24.6490135 C6.85416668,25.0124611 7.07291667,25.3759086 7.43750001,25.5212876 C7.51041667,25.5212876 7.72916668,25.6666667 8.45833334,25.6666667 C9.47916667,25.6666667 11.0833333,25.3759086 12.8333333,24.1401869 L13.0520833,23.9948079 L14.5104167,22.6863967 L14.65625,22.6863967 C20.8541667,22.3956386 25.6666667,17.9615784 25.6666667,12.509865 C25.6666667,6.91277257 20.5625,2.33333333 14.21875,2.33333333 Z M14.2069317,17.1111111 L7.49949031,17.1111111 C7.21406727,17.1111111 7,16.9444445 7,16.7222222 C7,16.5 7.21406727,16.3333333 7.49949031,16.3333333 L14.2782875,16.3333333 C14.5637105,16.3333333 14.7777778,16.5 14.7777778,16.7222222 C14.706422,17 14.5637105,17.1111111 14.2069317,17.1111111 L14.2069317,17.1111111 Z M14.2069317,13.2222222 L7.49949031,13.2222222 C7.21406727,13.2222222 7,13.0555556 7,12.8333333 C7,12.6111111 7.21406727,12.4444444 7.49949031,12.4444444 L14.2782875,12.4444444 C14.5637105,12.4444444 14.7777778,12.6111111 14.7777778,12.8333333 C14.706422,13.0555556 14.5637105,13.2222222 14.2069317,13.2222222 L14.2069317,13.2222222 Z M14.2079334,10.1111111 L7.51226174,10.1111111 C7.22733953,10.1111111 7.01364789,9.94444445 7.01364789,9.72222222 C6.94241735,9.49999999 7.15610899,9.33333333 7.51226174,9.33333333 L14.2791639,9.33333333 C14.5640861,9.33333333 14.7777778,9.49999999 14.7777778,9.72222222 C14.7065472,10 14.5640861,10.1111111 14.2079334,10.1111111 L14.2079334,10.1111111 Z M18.8292326,15.4008704 C18.7537916,15.478213 18.6029096,15.5555556 18.4520276,15.5555556 C18.3011456,15.5555556 18.2257047,15.5555556 18.0748227,15.478213 L15.736152,13.4673057 C15.509829,13.3126206 15.509829,13.0032502 15.660711,12.7712225 C15.811593,12.5391947 16.1887979,12.5391947 16.3396799,12.6938799 L18.3011457,14.3954168 L21.6959902,10.2962597 C21.8468722,10.064232 22.2240771,10.064232 22.3749591,10.2189171 C22.6012821,10.3736023 22.6012821,10.6829726 22.4504001,10.9150004 L18.8292326,15.4008704 Z" id="形状" fill="#B6B5CA" filter="url(#filter-1)"></path>
                <path d="M14.9965278,3.11111111 C8.65277779,3.11111111 3.11111111,7.61786084 3.11111111,13.2149533 C3.11111111,17.1401869 5.59027777,20.0477674 8.94444444,21.9376947 L7.77777778,25.4267913 C7.63194446,25.7902388 7.85069445,26.1536864 8.21527778,26.2990654 C8.28819445,26.2990654 8.50694446,26.4444444 9.23611111,26.4444444 C10.2569444,26.4444444 11.8611111,26.1536864 13.6111111,24.9179647 L13.8298611,24.7725857 L15.2881944,23.4641745 L15.4340278,23.4641745 C21.6319444,23.1734164 26.4444444,18.7393562 26.4444444,13.2876428 C26.4444444,7.69055035 21.3402778,3.11111111 14.9965278,3.11111111 Z M14.9847095,17.8888889 L8.27726809,17.8888889 C7.99184505,17.8888889 7.77777778,17.7222222 7.77777778,17.5 C7.77777778,17.2777778 7.99184505,17.1111111 8.27726809,17.1111111 L15.0560652,17.1111111 C15.3414883,17.1111111 15.5555556,17.2777778 15.5555556,17.5 C15.4841998,17.7777778 15.3414883,17.8888889 14.9847095,17.8888889 L14.9847095,17.8888889 Z M14.9847095,14 L8.27726809,14 C7.99184505,14 7.77777778,13.8333333 7.77777778,13.6111111 C7.77777778,13.3888889 7.99184505,13.2222222 8.27726809,13.2222222 L15.0560652,13.2222222 C15.3414883,13.2222222 15.5555556,13.3888889 15.5555556,13.6111111 C15.4841998,13.8333333 15.3414883,14 14.9847095,14 L14.9847095,14 Z M14.9857111,10.8888889 L8.29003952,10.8888889 C8.00511731,10.8888889 7.79142567,10.7222222 7.79142567,10.5 C7.72019513,10.2777778 7.93388676,10.1111111 8.29003952,10.1111111 L15.0569417,10.1111111 C15.3418639,10.1111111 15.5555556,10.2777778 15.5555556,10.5 C15.484325,10.7777778 15.3418639,10.8888889 14.9857111,10.8888889 L14.9857111,10.8888889 Z M19.6070104,16.1786482 C19.5315694,16.2559908 19.3806874,16.3333333 19.2298054,16.3333333 C19.0789234,16.3333333 19.0034824,16.3333333 18.8526005,16.2559908 L16.5139298,14.2450835 C16.2876068,14.0903984 16.2876068,13.781028 16.4384888,13.5490002 C16.5893708,13.3169725 16.9665757,13.3169725 17.1174577,13.4716577 L19.0789234,15.1731946 L22.473768,11.0740375 C22.62465,10.8420098 23.0018549,10.8420098 23.1527369,10.9966949 C23.3790599,11.1513801 23.3790599,11.4607504 23.2281779,11.6927782 L19.6070104,16.1786482 Z" id="形状" fill="#416DFD"></path>
            </g>
        </g>
    </g>
</svg>