<?xml version="1.0" encoding="UTF-8"?>
<svg width="36px" height="36px" viewBox="0 0 36 36" version="1.1" xmlns="http://www.w3.org/2000/svg" xmlns:xlink="http://www.w3.org/1999/xlink">
    <title>矩形</title>
    <g id="修改" stroke="none" stroke-width="1" fill="none" fill-rule="evenodd">
        <g id="管理员后台" transform="translate(-1347.000000, -342.000000)" fill-rule="nonzero">
            <g id="21解答" transform="translate(1347.000000, 342.000000)">
                <rect id="矩形" fill="#000000" opacity="0" x="0" y="0" width="36" height="36"></rect>
                <path d="M18.2803738,0 C8.5233645,0 0,6.95327101 0,15.588785 C0,21.6448598 3.81308411,26.1308411 8.97196261,29.046729 L7.1775701,34.4299065 C6.95327105,34.9906542 7.28971963,35.5514019 7.8504673,35.7757009 C7.96261683,35.7757009 8.29906545,36 9.42056075,36 C10.9906542,36 13.4579439,35.5514019 16.1495327,33.6448598 L16.4859813,33.4205607 L18.7289719,31.4018692 L18.953271,31.4018692 C28.4859813,30.953271 35.8878505,24.1121495 35.8878505,15.7009346 C35.8878505,7.06542054 28.0373832,0 18.2803738,0 Z M18.7289719,22.5420561 L8.18691588,22.5420561 C7.73831774,22.5420561 7.40186916,22.2056075 7.40186916,21.7570094 C7.40186916,21.3084112 7.73831774,20.9719626 8.18691588,20.9719626 L18.8411215,20.9719626 C19.2897197,20.9719626 19.6261682,21.3084112 19.6261682,21.7570094 C19.5140187,22.317757 19.2897197,22.5420561 18.7289719,22.5420561 L18.7289719,22.5420561 Z M18.7289719,17.1588785 L8.18691588,17.1588785 C7.73831774,17.1588785 7.40186916,16.8224299 7.40186916,16.3738318 C7.40186916,15.9252336 7.73831774,15.588785 8.18691588,15.588785 L18.8411215,15.588785 C19.2897197,15.588785 19.6261682,15.9252336 19.6261682,16.3738318 C19.5140187,16.8224299 19.2897197,17.1588785 18.7289719,17.1588785 L18.7289719,17.1588785 Z M18.7289719,11.6635514 L8.18691588,11.6635514 C7.73831774,11.6635514 7.40186916,11.3271028 7.40186916,10.8785047 C7.28971963,10.4299065 7.62616821,10.093458 8.18691588,10.093458 L18.8411215,10.093458 C19.2897197,10.093458 19.6261682,10.4299065 19.6261682,10.8785047 C19.5140187,11.4392524 19.2897197,11.6635514 18.7289719,11.6635514 L18.7289719,11.6635514 Z M25.906542,20.2990654 C25.7943925,20.411215 25.5700935,20.5233645 25.3457944,20.5233645 C25.1214953,20.5233645 25.0093458,20.5233645 24.7850467,20.411215 L21.3084112,17.4953271 C20.9719626,17.2710281 20.9719626,16.8224299 21.1962617,16.4859813 C21.4205607,16.1495327 21.9813084,16.1495327 22.2056075,16.3738318 L25.1214953,18.8411215 L30.1682243,12.8971963 C30.3925234,12.5607477 30.953271,12.5607477 31.1775701,12.7850467 C31.5140187,13.0093458 31.5140187,13.4579439 31.2897196,13.7943925 L25.906542,20.2990654 Z" id="形状" fill="#B6B5CA"></path>
            </g>
        </g>
    </g>
</svg>