<?xml version="1.0" encoding="UTF-8"?>
<svg width="28px" height="28px" viewBox="0 0 28 28" version="1.1" xmlns="http://www.w3.org/2000/svg" xmlns:xlink="http://www.w3.org/1999/xlink">
    <title>矩形</title>
    <defs>
        <filter x="-14.7%" y="-14.7%" width="129.5%" height="129.5%" filterUnits="objectBoundingBox" id="filter-1">
            <feGaussianBlur stdDeviation="1" in="SourceGraphic"></feGaussianBlur>
        </filter>
    </defs>
    <g id="修改" stroke="none" stroke-width="1" fill="none" fill-rule="evenodd">
        <g id="蓝色图标" transform="translate(-1157.000000, -310.000000)" fill-rule="nonzero">
            <g id="评价-空数据备份" transform="translate(1157.000000, 310.000000)">
                <rect id="矩形" fill="#000000" opacity="0" x="0" y="0" width="28" height="28"></rect>
                <path d="M22.7122908,19.2550905 C23.6743034,17.6647837 24.1820345,15.853818 24.1820345,14.000014 C24.1820345,8.38571218 19.6142738,3.81797946 14,3.81797946 C8.38572618,3.81797946 3.81796546,8.38571218 3.81796546,14.000014 C3.81796546,19.6143158 8.38569818,24.1820485 14,24.1820485 C15.8873746,24.1820485 17.7238193,23.66001 19.3302815,22.6700265 L23.3362452,24.001204 C23.5394609,24.0689612 23.7631717,24.0155114 23.9141975,23.8644856 C24.0658393,23.7128438 24.1186731,23.489133 24.0515319,23.2859173 L22.7122908,19.2550905 Z M18.1495139,14.7880137 L14.3995996,18.536696 C14.2895921,18.6473195 14.1447821,18.7026172 14,18.7026172 C13.8552179,18.7026172 13.7104079,18.6473195 13.6004284,18.536696 L9.85051413,14.7880137 C8.59700554,13.5345051 8.59700554,11.4930248 9.85051413,10.2389002 C10.4582852,9.63236105 11.2662201,9.2973828 12.1256729,9.2973828 C12.8074449,9.2973828 13.4574663,9.50804616 14,9.89896614 C14.5425338,9.50804616 15.1926111,9.2973828 15.8743272,9.2973828 C16.7338079,9.2973828 17.5417148,9.63236107 18.1495139,10.2389002 C19.4030225,11.4930528 19.4030225,13.5345331 18.1495139,14.7880137 Z" id="形状" fill="#B6B5CA" filter="url(#filter-1)"></path>
                <path d="M23.4900686,20.0328683 C24.4520812,18.4425615 24.9598123,16.6315958 24.9598123,14.7777918 C24.9598123,9.16348996 20.3920516,4.59575723 14.7777778,4.59575723 C9.16350396,4.59575723 4.59574323,9.16348996 4.59574323,14.7777918 C4.59574323,20.3920936 9.16347596,24.9598263 14.7777778,24.9598263 C16.6651524,24.9598263 18.5015971,24.4377877 20.1080592,23.4478043 L24.114023,24.7789817 C24.3172387,24.8467389 24.5409495,24.7932892 24.6919753,24.6422633 C24.8436171,24.4906215 24.8964509,24.2669107 24.8293097,24.0636951 L23.4900686,20.0328683 Z M18.9272916,15.5657915 L15.1773774,19.3144738 C15.0673699,19.4250972 14.9225598,19.480395 14.7777778,19.480395 C14.6329957,19.480395 14.4881856,19.4250972 14.3782062,19.3144738 L10.6282919,15.5657915 C9.37478332,14.3122829 9.37478332,12.2708026 10.6282919,11.016678 C11.236063,10.4101388 12.0439979,10.0751606 12.9034506,10.0751606 C13.5852227,10.0751606 14.235244,10.2858239 14.7777778,10.6767439 C15.3203116,10.2858239 15.9703889,10.0751606 16.652105,10.0751606 C17.5115857,10.0751606 18.3194926,10.4101389 18.9272917,11.016678 C20.1808003,12.2708306 20.1808003,14.3123109 18.9272916,15.5657915 Z" id="形状" fill="#416DFD"></path>
            </g>
        </g>
    </g>
</svg>