<?xml version="1.0" encoding="UTF-8"?>
<svg width="36px" height="36px" viewBox="0 0 36 36" version="1.1" xmlns="http://www.w3.org/2000/svg" xmlns:xlink="http://www.w3.org/1999/xlink">
    <title>矩形</title>
    <g id="修改" stroke="none" stroke-width="1" fill="none" fill-rule="evenodd">
        <g id="管理员后台" transform="translate(-1653.000000, -342.000000)" fill-rule="nonzero">
            <g id="评价-空数据" transform="translate(1653.000000, 342.000000)">
                <rect id="矩形" fill="#000000" opacity="0" x="0" y="0" width="36" height="36"></rect>
                <path d="M29.2015168,24.756545 C30.4383901,22.7118648 31.0911873,20.3834803 31.0911873,18.000018 C31.0911873,10.7816299 25.2183521,4.90883073 18,4.90883073 C10.7816479,4.90883073 4.90881273,10.7816299 4.90881273,18.000018 C4.90881273,25.2184061 10.7816119,31.0912053 18,31.0912053 C20.4266245,31.0912053 22.7877677,30.4200128 24.853219,29.147177 L30.0037438,30.8586908 C30.2650211,30.9458072 30.5526493,30.8770861 30.7468254,30.68291 C30.9417934,30.487942 31.0097226,30.2003138 30.9233981,29.9390365 L29.2015168,24.756545 Z M23.3350893,19.0131604 L18.5137709,23.8328949 C18.3723327,23.975125 18.1861484,24.0462221 18,24.0462221 C17.8138516,24.0462221 17.6276673,23.975125 17.4862651,23.8328949 L12.6649467,19.0131604 C11.0532928,17.4015065 11.0532928,14.7767462 12.6649467,13.1643002 C13.4463667,12.3844642 14.4851401,11.9537779 15.5901508,11.9537779 C16.4667149,11.9537779 17.3024566,12.2246308 18,12.7272422 C18.6975435,12.2246308 19.5333572,11.9537779 20.4098492,11.9537779 C21.5148959,11.9537779 22.5536334,12.3844642 23.3350893,13.1643002 C24.9467432,14.7767822 24.9467432,17.4015425 23.3350893,19.0131604 Z" id="形状" fill="#B6B5CA"></path>
            </g>
        </g>
    </g>
</svg>