<?xml version="1.0" encoding="UTF-8"?>
<svg width="28px" height="28px" viewBox="0 0 28 28" version="1.1" xmlns="http://www.w3.org/2000/svg" xmlns:xlink="http://www.w3.org/1999/xlink">
    <title>矩形</title>
    <defs>
        <filter x="-13.8%" y="-14.8%" width="127.6%" height="129.7%" filterUnits="objectBoundingBox" id="filter-1">
            <feGaussianBlur stdDeviation="1" in="SourceGraphic"></feGaussianBlur>
        </filter>
    </defs>
    <g id="修改" stroke="none" stroke-width="1" fill="none" fill-rule="evenodd">
        <g id="蓝色图标" transform="translate(-482.000000, -310.000000)" fill-rule="nonzero">
            <g id="会议备份" transform="translate(482.000000, 310.000000)">
                <rect id="矩形" fill="#000000" opacity="0" x="0" y="0" width="28" height="28"></rect>
                <path d="M15.2487258,15.5555556 L12.8511723,15.5555556 C11.9520897,15.5555556 11.0530071,15.8505747 10.2538226,16.440613 C9.35474006,17.1289911 8.75535168,17.9157088 8.65545362,19.0957854 C8.55555556,20.3742018 8.65545362,21.8492976 8.55555556,23.2260536 C8.65545362,23.2260536 8.95514781,23.3243934 9.05504587,23.3243934 L9.95412844,23.5210728 C11.2528033,23.816092 12.45158,24.1111111 13.8501529,24.1111111 C14.7492355,24.1111111 15.8481142,24.1111111 16.8470948,24.0127714 C17.6462793,23.9144317 18.4454638,23.6194125 19.2446483,23.3243934 C19.3445464,23.3243934 19.3445464,23.2260536 19.3445464,23.0293742 C19.4444444,21.8492976 19.4444444,20.7675607 19.4444444,19.7841635 C19.4444444,18.8007663 19.1447503,18.0140485 18.6452599,17.3256705 C17.7461774,16.2439336 16.7471967,15.6538953 15.54842,15.6538953 L15.2487258,15.5555556 L15.2487258,15.5555556 Z M10.4444444,11.6666667 L7.49074074,11.6666667 C6.87962963,11.6666667 6.37037037,11.7650064 5.96296296,11.9616858 C4.33333333,12.5517241 3.11111111,14.1251596 3.11111111,15.7969349 L3.11111111,19.1404853 C3.11111111,19.238825 3.11111111,19.238825 3.21296296,19.4355045 C4.33333333,19.7305236 5.4537037,20.0255428 6.57407407,20.1238825 C6.98148148,20.1238825 7.59259259,20.2222222 8,20.2222222 L8,19.3371648 C8,18.9438059 8,18.6487867 8.10185185,18.2554278 L8.10185185,18.1570881 C8.50925926,16.4853129 9.42592593,15.6002554 10.75,14.9118774 L10.9537037,14.8135377 C11.2592593,14.715198 11.3611111,14.715198 11.6666667,14.5185185 C10.8518519,13.7318008 10.4444444,12.8467433 10.4444444,11.6666667 L10.4444444,11.6666667 Z M20.8055556,11.6666667 L18.2777778,11.6666667 C18.2777778,12.8604651 17.8888889,13.8552972 17.1111111,14.5516796 C17.2083333,14.5516796 17.4027778,14.6511628 17.4027778,14.6511628 C18.0833333,14.9496124 18.7638889,15.3475452 19.25,15.9444444 C20.0277778,16.9392765 20.4166667,17.8346253 20.4166667,19.2273902 L20.4166667,20.2222222 C20.9027778,20.122739 21.3888889,20.122739 21.875,20.0232558 L22.2638889,19.9237726 C23.1388889,19.7248062 24.0138889,19.4263566 24.7916667,19.0284238 C24.8888889,19.0284238 24.8888889,18.9289406 24.8888889,18.8294574 L24.8888889,17.8346253 L24.8888889,16.0439276 C24.8888889,15.4470284 24.7916667,14.750646 24.5,14.1537468 C23.8194444,12.5620155 22.5555556,11.6666667 20.8055556,11.6666667 Z M14.0478632,7.77777778 C12.3247863,7.77777778 10.8888889,9.32189542 10.8888889,11.1748366 C10.9846154,13.0277778 12.2290598,14.6748366 13.8564103,14.7777778 L14.2393162,14.7777778 C15.7709402,14.6748366 17.1111111,13.130719 17.1111111,11.380719 L17.1111111,11.1748366 C17.0153846,9.32189542 15.5794872,7.77777778 14.0478632,7.77777778 L14.0478632,7.77777778 Z M19.4923077,3.88888889 C17.7692308,3.88888889 16.3333333,5.43300654 16.3333333,7.28594771 C17.3863248,7.90359477 18.0564103,9.03594771 18.1521368,10.5800654 C18.5350427,10.6830065 18.9179487,10.8888889 19.4923077,10.8888889 C21.1196581,10.8888889 22.5555556,9.34477124 22.5555556,7.49183007 L22.5555556,7.28594771 C22.5555556,5.33006536 21.1196581,3.88888889 19.4923077,3.88888889 L19.4923077,3.88888889 Z M8.6034188,3.88888889 C6.88034188,3.88888889 5.44444444,5.47979798 5.44444444,7.38888889 C5.44444444,9.2979798 6.88034188,10.8888889 8.6034188,10.8888889 C9.17777778,10.8888889 9.75213675,10.7828283 10.2307692,10.4646465 C10.3264957,9.19191919 10.9008547,8.13131313 11.6666667,7.49494949 C11.6666667,5.47979798 10.2307692,3.88888889 8.6034188,3.88888889 Z" id="形状" fill="#B6B5CA" filter="url(#filter-1)"></path>
                <path d="M16.0265036,16.3333333 L13.6289501,16.3333333 C12.7298675,16.3333333 11.8307849,16.6283525 11.0316004,17.2183908 C10.1325178,17.9067688 9.53312946,18.6934866 9.4332314,19.8735632 C9.33333333,21.1519796 9.4332314,22.6270754 9.33333333,24.0038314 C9.4332314,24.0038314 9.73292559,24.1021711 9.83282365,24.1021711 L10.7319062,24.2988506 C12.030581,24.5938697 13.2293578,24.8888889 14.6279307,24.8888889 C15.5270133,24.8888889 16.6258919,24.8888889 17.6248726,24.7905492 C18.4240571,24.6922095 19.2232416,24.3971903 20.0224261,24.1021711 C20.1223242,24.1021711 20.1223242,24.0038314 20.1223242,23.807152 C20.2222222,22.6270754 20.2222222,21.5453384 20.2222222,20.5619413 C20.2222222,19.5785441 19.922528,18.7918263 19.4230377,18.1034483 C18.5239551,17.0217114 17.5249745,16.4316731 16.3261978,16.4316731 L16.0265036,16.3333333 L16.0265036,16.3333333 Z M11.2222222,12.4444444 L8.26851852,12.4444444 C7.65740741,12.4444444 7.14814815,12.5427842 6.74074074,12.7394636 C5.11111111,13.3295019 3.88888889,14.9029374 3.88888889,16.5747126 L3.88888889,19.9182631 C3.88888889,20.0166028 3.88888889,20.0166028 3.99074074,20.2132822 C5.11111111,20.5083014 6.23148148,20.8033206 7.35185185,20.9016603 C7.75925926,20.9016603 8.37037037,21 8.77777778,21 L8.77777778,20.1149425 C8.77777778,19.7215837 8.77777778,19.4265645 8.87962963,19.0332056 L8.87962963,18.9348659 C9.28703704,17.2630907 10.2037037,16.3780332 11.5277778,15.6896552 L11.7314815,15.5913155 C12.037037,15.4929757 12.1388889,15.4929757 12.4444444,15.2962963 C11.6296296,14.5095785 11.2222222,13.6245211 11.2222222,12.4444444 L11.2222222,12.4444444 Z M21.5833333,12.4444444 L19.0555556,12.4444444 C19.0555556,13.6382429 18.6666667,14.6330749 17.8888889,15.3294574 C17.9861111,15.3294574 18.1805556,15.4289406 18.1805556,15.4289406 C18.8611111,15.7273902 19.5416667,16.125323 20.0277778,16.7222222 C20.8055556,17.7170543 21.1944444,18.6124031 21.1944444,20.005168 L21.1944444,21 C21.6805556,20.9005168 22.1666667,20.9005168 22.6527778,20.8010336 L23.0416667,20.7015504 C23.9166667,20.502584 24.7916667,20.2041344 25.5694444,19.8062016 C25.6666667,19.8062016 25.6666667,19.7067183 25.6666667,19.6072351 L25.6666667,18.6124031 L25.6666667,16.8217054 C25.6666667,16.2248062 25.5694444,15.5284238 25.2777778,14.9315245 C24.5972222,13.3397933 23.3333333,12.4444444 21.5833333,12.4444444 Z M14.825641,8.55555556 C13.1025641,8.55555556 11.6666667,10.0996732 11.6666667,11.9526144 C11.7623932,13.8055556 13.0068376,15.4526144 14.634188,15.5555556 L15.017094,15.5555556 C16.5487179,15.4526144 17.8888889,13.9084967 17.8888889,12.1584967 L17.8888889,11.9526144 C17.7931624,10.0996732 16.357265,8.55555556 14.825641,8.55555556 L14.825641,8.55555556 Z M20.2700855,4.66666667 C18.5470085,4.66666667 17.1111111,6.21078431 17.1111111,8.06372549 C18.1641026,8.68137255 18.834188,9.81372549 18.9299145,11.3578431 C19.3128205,11.4607843 19.6957265,11.6666667 20.2700855,11.6666667 C21.8974359,11.6666667 23.3333333,10.122549 23.3333333,8.26960784 L23.3333333,8.06372549 C23.3333333,6.10784314 21.8974359,4.66666667 20.2700855,4.66666667 L20.2700855,4.66666667 Z M9.38119658,4.66666667 C7.65811966,4.66666667 6.22222222,6.25757576 6.22222222,8.16666667 C6.22222222,10.0757576 7.65811966,11.6666667 9.38119658,11.6666667 C9.95555556,11.6666667 10.5299145,11.5606061 11.008547,11.2424242 C11.1042735,9.96969697 11.6786325,8.90909091 12.4444444,8.27272727 C12.4444444,6.25757576 11.008547,4.66666667 9.38119658,4.66666667 Z" id="形状" fill="#416DFD"></path>
            </g>
        </g>
    </g>
</svg>