<?xml version="1.0" encoding="UTF-8"?>
<svg width="36px" height="36px" viewBox="0 0 36 36" version="1.1" xmlns="http://www.w3.org/2000/svg" xmlns:xlink="http://www.w3.org/1999/xlink">
    <title>矩形</title>
    <g id="修改" stroke="none" stroke-width="1" fill="none" fill-rule="evenodd">
        <g id="管理员后台" transform="translate(-919.000000, -342.000000)" fill-rule="nonzero">
            <g id="会议" transform="translate(919.000000, 342.000000)">
                <rect id="矩形" fill="#000000" opacity="0" x="0" y="0" width="36" height="36"></rect>
                <path d="M19.6055046,20 L16.5229358,20 C15.3669725,20 14.2110092,20.3793103 13.1834862,21.137931 C12.0275229,22.0229885 11.2568807,23.0344828 11.1284404,24.5517241 C11,26.1954023 11.1284404,28.091954 11,29.862069 C11.1284404,29.862069 11.5137615,29.9885057 11.6422018,29.9885057 L12.7981651,30.2413793 C14.4678899,30.6206897 16.0091743,31 17.8073394,31 C18.9633028,31 20.3761468,31 21.6605505,30.8735632 C22.6880734,30.7471264 23.7155963,30.3678161 24.7431193,29.9885057 C24.8715596,29.9885057 24.8715596,29.862069 24.8715596,29.6091954 C25,28.091954 25,26.7011494 25,25.4367816 C25,24.1724138 24.6146789,23.1609195 23.9724771,22.2758621 C22.8165138,20.8850575 21.5321101,20.1264368 19.9908257,20.1264368 L19.6055046,20 L19.6055046,20 Z M13.4285714,15 L9.63095238,15 C8.8452381,15 8.19047619,15.1264368 7.66666667,15.3793103 C5.57142857,16.137931 4,18.1609195 4,20.3103448 L4,24.6091954 C4,24.7356322 4,24.7356322 4.13095238,24.9885057 C5.57142857,25.3678161 7.01190476,25.7471264 8.45238095,25.8735632 C8.97619048,25.8735632 9.76190476,26 10.2857143,26 L10.2857143,24.862069 C10.2857143,24.3563218 10.2857143,23.9770115 10.4166667,23.4712644 L10.4166667,23.3448276 C10.9404762,21.1954023 12.1190476,20.0574713 13.8214286,19.1724138 L14.0833333,19.045977 C14.4761905,18.9195402 14.6071429,18.9195402 15,18.6666667 C13.952381,17.6551724 13.4285714,16.5172414 13.4285714,15 L13.4285714,15 Z M26.75,15 L23.5,15 C23.5,16.5348837 23,17.8139535 22,18.7093023 C22.125,18.7093023 22.375,18.8372093 22.375,18.8372093 C23.25,19.2209302 24.125,19.7325581 24.75,20.5 C25.75,21.7790698 26.25,22.9302326 26.25,24.7209302 L26.25,26 C26.875,25.872093 27.5,25.872093 28.125,25.744186 L28.625,25.6162791 C29.75,25.3604651 30.875,24.9767442 31.875,24.4651163 C32,24.4651163 32,24.3372093 32,24.2093023 L32,22.9302326 L32,20.627907 C32,19.8604651 31.875,18.9651163 31.5,18.1976744 C30.625,16.1511628 29,15 26.75,15 Z M18.0615385,10 C15.8461538,10 14,11.9852941 14,14.3676471 C14.1230769,16.75 15.7230769,18.8676471 17.8153846,19 L18.3076923,19 C20.2769231,18.8676471 22,16.8823529 22,14.6323529 L22,14.3676471 C21.8769231,11.9852941 20.0307692,10 18.0615385,10 L18.0615385,10 Z M25.0615385,5 C22.8461538,5 21,6.98529412 21,9.36764706 C22.3538462,10.1617647 23.2153846,11.6176471 23.3384615,13.6029412 C23.8307692,13.7352941 24.3230769,14 25.0615385,14 C27.1538462,14 29,12.0147059 29,9.63235294 L29,9.36764706 C29,6.85294118 27.1538462,5 25.0615385,5 L25.0615385,5 Z M11.0615385,5 C8.84615385,5 7,7.04545455 7,9.5 C7,11.9545455 8.84615385,14 11.0615385,14 C11.8,14 12.5384615,13.8636364 13.1538462,13.4545455 C13.2769231,11.8181818 14.0153846,10.4545455 15,9.63636364 C15,7.04545455 13.1538462,5 11.0615385,5 Z" id="形状" fill="#B6B5CA"></path>
            </g>
        </g>
    </g>
</svg>