<?xml version="1.0" encoding="UTF-8"?>
<svg width="36px" height="36px" viewBox="0 0 36 36" version="1.1" xmlns="http://www.w3.org/2000/svg" xmlns:xlink="http://www.w3.org/1999/xlink">
    <title>矩形</title>
    <g id="修改" stroke="none" stroke-width="1" fill="none" fill-rule="evenodd">
        <g id="管理员后台" transform="translate(-486.000000, -233.000000)" fill-rule="nonzero">
            <g id="企业信息" transform="translate(486.000000, 233.000000)">
                <rect id="矩形" fill="#000000" opacity="0" x="0" y="0" width="36" height="36"></rect>
                <path d="M22.5,27 L25.5,27 L25.5,15.75 C25.5,15.3357864 25.8357864,15 26.25,15 L29.25,15 C29.6642136,15 30,15.3357864 30,15.75 L30,27 L33,27 L33,33 L3,33 L3,27 L6,27 L6,4.5 C6,3.67157288 6.67157288,3 7.5,3 L21,3 C21.3978247,3 21.7793556,3.15803526 22.0606602,3.43933983 C22.3419647,3.7206444 22.5,4.10217527 22.5,4.5 L22.5,27 L22.5,27 Z M8.76923077,8.76923077 L8.76923077,23.7692308 L13.3846154,23.7692308 L13.3846154,8.76923077 L8.76923077,8.76923077 Z M16.8461538,14.5384615 L16.8461538,23.7692308 L20.3076923,23.7692308 L20.3076923,14.5384615 L16.8461538,14.5384615 Z" id="形状" fill="#B6B5CA"></path>
            </g>
        </g>
    </g>
</svg>