<?xml version="1.0" encoding="UTF-8"?>
<svg width="28px" height="28px" viewBox="0 0 28 28" version="1.1" xmlns="http://www.w3.org/2000/svg" xmlns:xlink="http://www.w3.org/1999/xlink">
    <title>矩形</title>
    <defs>
        <filter x="-14.9%" y="-32.4%" width="129.8%" height="164.7%" filterUnits="objectBoundingBox" id="filter-1">
            <feGaussianBlur stdDeviation="1" in="SourceGraphic"></feGaussianBlur>
        </filter>
        <filter x="-12.1%" y="-19.7%" width="124.2%" height="139.4%" filterUnits="objectBoundingBox" id="filter-2">
            <feGaussianBlur stdDeviation="1" in="SourceGraphic"></feGaussianBlur>
        </filter>
    </defs>
    <g id="修改" stroke="none" stroke-width="1" fill="none" fill-rule="evenodd">
        <g id="蓝色图标" transform="translate(-754.000000, -237.000000)" fill-rule="nonzero">
            <g id="企业建站备份-2" transform="translate(754.000000, 237.000000)">
                <rect id="矩形" fill="#000000" opacity="0" x="0" y="0" width="28" height="28"></rect>
                <path d="M23.044,14.406 C22.932,14.406 22.806,14.406 22.694,14.35 L22.638,14.35 C22.582,14.35 22.526,14.35 22.456,14.294 C22.218,14.238 22.05,14.182 21.812,14.112 L21.812,21.406 L6.412,21.406 L6.412,14.112 C6.244,14.168 6.006,14.224 5.768,14.28 C5.712,14.28 5.656,14.28 5.6,14.336 L5.544,14.336 C5.432,14.336 5.306,14.392 5.194,14.392 L4.788,14.392 C4.494,14.392 4.256,14.392 4.032,14.336 L4.032,22.218 C4.032,22.862 4.55,23.38 5.194,23.38 L22.988,23.38 C23.632,23.38 24.15,22.848 24.15,22.218 L24.15,14.336 C23.912,14.392 23.618,14.392 23.394,14.392 L23.044,14.392 L23.044,14.406 Z" id="路径" fill="#B6B5CA" filter="url(#filter-1)"></path>
                <path d="M15.232,15.932 L14.882,15.932 C14.826,16.17 14.826,16.338 14.826,16.338 C14.77,16.044 14.532,15.876 14.182,15.876 C13.426,15.932 13.02,16.408 12.95,17.276 C12.95,17.976 13.244,18.326 13.762,18.326 C14.224,18.326 14.518,18.088 14.7,17.682 C14.644,18.088 14.812,18.326 15.232,18.326 C15.988,18.27 16.394,17.794 16.45,16.814 C16.394,15.526 15.638,14.882 14.238,14.826 C12.782,14.938 11.97,15.694 11.9,17.164 C11.956,18.564 12.712,19.264 14.238,19.32 C14.994,19.32 15.638,19.082 16.1,18.62 L15.988,18.452 C15.582,18.858 14.994,19.04 14.294,19.04 C13.006,18.984 12.362,18.34 12.306,17.178 C12.362,15.89 13.062,15.19 14.294,15.134 C15.456,15.19 16.1,15.778 16.1,16.828 C16.044,17.584 15.806,17.99 15.344,18.046 C15.106,18.102 14.994,17.878 15.05,17.458 C15.05,17.332 15.106,16.8 15.232,15.932 L15.232,15.932 Z M14.756,16.982 C14.756,17.094 14.756,17.164 14.7,17.22 C14.644,17.458 14.588,17.682 14.406,17.808 C14.294,17.99 14.112,18.046 13.874,18.046 C13.468,18.046 13.286,17.808 13.286,17.29 C13.286,16.94 13.398,16.646 13.524,16.478 C13.692,16.296 13.874,16.184 14.168,16.184 C14.574,16.24 14.756,16.422 14.756,16.828 L14.756,16.982 L14.756,16.982 Z M24.388,5.95 C24.038,4.844 23.1,4.088 21.938,4.088 L6.356,4.088 C5.194,4.088 4.256,4.844 3.962,5.95 L3.906,5.95 L1.75,10.15 C1.75,11.9 3.15,13.244 4.844,13.244 C6.538,13.244 7.938,11.844 7.938,10.15 C7.938,11.9 9.338,13.244 11.032,13.244 C12.726,13.244 14.126,11.844 14.126,10.15 C14.126,11.9 15.526,13.244 17.22,13.244 C18.914,13.244 20.314,11.844 20.314,10.15 C20.314,11.9 21.714,13.244 23.408,13.244 C25.102,13.244 26.502,11.844 26.502,10.15 L24.388,5.95 L24.388,5.95 Z" id="形状" fill="#B6B5CA" filter="url(#filter-2)"></path>
                <path d="M23.8217778,15.1837778 C23.7097778,15.1837778 23.5837778,15.1837778 23.4717778,15.1277778 L23.4157778,15.1277778 C23.3597778,15.1277778 23.3037778,15.1277778 23.2337778,15.0717778 C22.9957778,15.0157778 22.8277778,14.9597778 22.5897778,14.8897778 L22.5897778,22.1837778 L7.18977778,22.1837778 L7.18977778,14.8897778 C7.02177778,14.9457778 6.78377778,15.0017778 6.54577778,15.0577778 C6.48977778,15.0577778 6.43377778,15.0577778 6.37777778,15.1137778 L6.32177778,15.1137778 C6.20977778,15.1137778 6.08377778,15.1697778 5.97177778,15.1697778 L5.56577778,15.1697778 C5.27177778,15.1697778 5.03377778,15.1697778 4.80977778,15.1137778 L4.80977778,22.9957778 C4.80977778,23.6397778 5.32777778,24.1577778 5.97177778,24.1577778 L23.7657778,24.1577778 C24.4097778,24.1577778 24.9277778,23.6257778 24.9277778,22.9957778 L24.9277778,15.1137778 C24.6897778,15.1697778 24.3957778,15.1697778 24.1717778,15.1697778 L23.8217778,15.1697778 L23.8217778,15.1837778 Z" id="路径" fill="#416DFD"></path>
                <path d="M16.0097778,16.7097778 L15.6597778,16.7097778 C15.6037778,16.9477778 15.6037778,17.1157778 15.6037778,17.1157778 C15.5477778,16.8217778 15.3097778,16.6537778 14.9597778,16.6537778 C14.2037778,16.7097778 13.7977778,17.1857778 13.7277778,18.0537778 C13.7277778,18.7537778 14.0217778,19.1037778 14.5397778,19.1037778 C15.0017778,19.1037778 15.2957778,18.8657778 15.4777778,18.4597778 C15.4217778,18.8657778 15.5897778,19.1037778 16.0097778,19.1037778 C16.7657778,19.0477778 17.1717778,18.5717778 17.2277778,17.5917778 C17.1717778,16.3037778 16.4157778,15.6597778 15.0157778,15.6037778 C13.5597778,15.7157778 12.7477778,16.4717778 12.6777778,17.9417778 C12.7337778,19.3417778 13.4897778,20.0417778 15.0157778,20.0977778 C15.7717778,20.0977778 16.4157778,19.8597778 16.8777778,19.3977778 L16.7657778,19.2297778 C16.3597778,19.6357778 15.7717778,19.8177778 15.0717778,19.8177778 C13.7837778,19.7617778 13.1397778,19.1177778 13.0837778,17.9557778 C13.1397778,16.6677778 13.8397778,15.9677778 15.0717778,15.9117778 C16.2337778,15.9677778 16.8777778,16.5557778 16.8777778,17.6057778 C16.8217778,18.3617778 16.5837778,18.7677778 16.1217778,18.8237778 C15.8837778,18.8797778 15.7717778,18.6557778 15.8277778,18.2357778 C15.8277778,18.1097778 15.8837778,17.5777778 16.0097778,16.7097778 L16.0097778,16.7097778 Z M15.5337778,17.7597778 C15.5337778,17.8717778 15.5337778,17.9417778 15.4777778,17.9977778 C15.4217778,18.2357778 15.3657778,18.4597778 15.1837778,18.5857778 C15.0717778,18.7677778 14.8897778,18.8237778 14.6517778,18.8237778 C14.2457778,18.8237778 14.0637778,18.5857778 14.0637778,18.0677778 C14.0637778,17.7177778 14.1757778,17.4237778 14.3017778,17.2557778 C14.4697778,17.0737778 14.6517778,16.9617778 14.9457778,16.9617778 C15.3517778,17.0177778 15.5337778,17.1997778 15.5337778,17.6057778 L15.5337778,17.7597778 L15.5337778,17.7597778 Z M25.1657778,6.72777778 C24.8157778,5.62177778 23.8777778,4.86577778 22.7157778,4.86577778 L7.13377778,4.86577778 C5.97177778,4.86577778 5.03377778,5.62177778 4.73977778,6.72777778 L4.68377778,6.72777778 L2.52777778,10.9277778 C2.52777778,12.6777778 3.92777778,14.0217778 5.62177778,14.0217778 C7.31577778,14.0217778 8.71577778,12.6217778 8.71577778,10.9277778 C8.71577778,12.6777778 10.1157778,14.0217778 11.8097778,14.0217778 C13.5037778,14.0217778 14.9037778,12.6217778 14.9037778,10.9277778 C14.9037778,12.6777778 16.3037778,14.0217778 17.9977778,14.0217778 C19.6917778,14.0217778 21.0917778,12.6217778 21.0917778,10.9277778 C21.0917778,12.6777778 22.4917778,14.0217778 24.1857778,14.0217778 C25.8797778,14.0217778 27.2797778,12.6217778 27.2797778,10.9277778 L25.1657778,6.72777778 L25.1657778,6.72777778 Z" id="形状" fill="#416DFD"></path>
            </g>
        </g>
    </g>
</svg>