<?xml version="1.0" encoding="UTF-8"?>
<svg width="36px" height="36px" viewBox="0 0 36 36" version="1.1" xmlns="http://www.w3.org/2000/svg" xmlns:xlink="http://www.w3.org/1999/xlink">
    <title>矩形</title>
    <g id="修改" stroke="none" stroke-width="1" fill="none" fill-rule="evenodd">
        <g id="管理员后台" transform="translate(-924.000000, -233.000000)" fill-rule="nonzero">
            <g id="认证" transform="translate(924.000000, 233.000000)">
                <rect id="矩形" fill="#000000" opacity="0" x="0" y="0" width="36" height="36"></rect>
                <path d="M17.9824219,2.84765625 C18.7596562,2.84765625 19.5369258,3.14416406 20.1297656,3.73710937 L22.8699844,6.47743359 L26.6524453,6.47743359 C28.32975,6.47743359 29.6892422,7.83706641 29.6892422,9.51423047 L29.6892422,13.2966914 L32.2979766,15.9054258 C33.4840078,17.0913516 33.4840078,19.0141523 32.2979766,20.2001133 L29.689207,22.8088828 L29.689207,26.722793 C29.689207,28.399957 28.3297148,29.7595898 26.6524102,29.7595898 L22.7385703,29.7595898 L20.1298008,32.3683242 C19.5368906,32.9613047 18.7596562,33.2578125 17.9824219,33.2578125 C17.2051172,33.2578125 16.4278828,32.9613047 15.835043,32.3683594 L13.2262734,29.7595898 L9.44388281,29.7595898 C7.76678906,29.7595898 6.40708594,28.399957 6.40708594,26.722793 L6.40708594,22.9404375 L3.66686719,20.2001133 C2.48083594,19.0141875 2.48083594,17.0913867 3.66686719,15.9054258 L6.40705078,13.1651016 L6.40705078,9.51426563 C6.40705078,7.83713672 7.76678906,6.47746875 9.44384766,6.47746875 L13.0948242,6.47746875 L15.8350078,3.73714453 C16.427918,3.14419922 17.2051172,2.84765625 17.9823516,2.84765625 L17.9824219,2.84765625 Z M23.6101289,14.9138789 C23.1996094,14.5033594 22.5340664,14.5033594 22.1235469,14.9138789 L17.1057656,19.931625 L14.94225,17.8423594 C14.5288125,17.4430898 13.8724453,17.4504727 13.4680781,17.8558945 L13.4558789,17.8683047 L13.4555273,17.8686562 C13.0522852,18.2862422 13.0638867,18.9517148 13.4815078,19.3549922 L16.3326094,22.1082891 C16.4660684,22.2375693 16.6315466,22.3289785 16.8120352,22.3731211 C17.1784336,22.4963438 17.5992891,22.4120039 17.8911914,22.1201016 L23.6104805,16.4008125 C24.021,15.990293 24.021,15.3247148 23.6104805,14.9142305 L23.6101289,14.9138789 Z" id="形状" fill="#B6B5CA"></path>
            </g>
        </g>
    </g>
</svg>