<?xml version="1.0" encoding="UTF-8"?>
<svg width="28px" height="28px" viewBox="0 0 28 28" version="1.1" xmlns="http://www.w3.org/2000/svg" xmlns:xlink="http://www.w3.org/1999/xlink">
    <title>矩形</title>
    <defs>
        <filter x="-12.7%" y="-12.7%" width="125.4%" height="125.4%" filterUnits="objectBoundingBox" id="filter-1">
            <feGaussianBlur stdDeviation="1" in="SourceGraphic"></feGaussianBlur>
        </filter>
    </defs>
    <g id="修改" stroke="none" stroke-width="1" fill="none" fill-rule="evenodd">
        <g id="蓝色图标" transform="translate(-890.000000, -163.000000)" fill-rule="nonzero">
            <g id="认证备份" transform="translate(890.000000, 163.000000)">
                <rect id="矩形" fill="#000000" opacity="0" x="0" y="0" width="28" height="28"></rect>
                <path d="M13.9863281,2.21484375 C14.5908437,2.21484375 15.1953867,2.44546094 15.6564844,2.90664062 L17.7877656,5.03800391 L20.7296797,5.03800391 C22.03425,5.03800391 23.0916328,6.09549609 23.0916328,7.39995703 L23.0916328,10.3418711 L25.1206484,12.3708867 C26.0431172,13.2932734 26.0431172,14.7887852 25.1206484,15.7111992 L23.0916055,17.7402422 L23.0916055,20.7843945 C23.0916055,22.0888555 22.0342227,23.1463477 20.7296523,23.1463477 L17.6855547,23.1463477 L15.6565117,25.1753633 C15.1953594,25.6365703 14.5908437,25.8671875 13.9863281,25.8671875 C13.3817578,25.8671875 12.7772422,25.6365703 12.3161445,25.1753906 L10.2871016,23.1463477 L7.34524219,23.1463477 C6.04083594,23.1463477 4.98328906,22.0888555 4.98328906,20.7843945 L4.98328906,17.8425625 L2.85200781,15.7111992 C1.92953906,14.7888125 1.92953906,13.2933008 2.85200781,12.3708867 L4.98326172,10.2395234 L4.98326172,7.39998437 C4.98326172,6.09555078 6.04083594,5.03803125 7.34521484,5.03803125 L10.1848633,5.03803125 L12.3161172,2.90666797 C12.7772695,2.44548828 13.3817578,2.21484375 13.9862734,2.21484375 L13.9863281,2.21484375 Z M18.3634336,11.5996836 C18.0441406,11.2803906 17.5264961,11.2803906 17.2072031,11.5996836 L13.3044844,15.502375 L11.62175,13.8773906 C11.3001875,13.5668477 10.7896797,13.5725898 10.4751719,13.887918 L10.4656836,13.8975703 L10.4654102,13.8978437 C10.1517773,14.2226328 10.1608008,14.7402227 10.4856172,15.0538828 L12.7031406,17.1953359 C12.8069421,17.2958872 12.9356474,17.3669833 13.0760273,17.4013164 C13.3610039,17.4971563 13.6883359,17.4315586 13.9153711,17.2045234 L18.363707,12.7561875 C18.683,12.4368945 18.683,11.9192227 18.363707,11.599957 L18.3634336,11.5996836 Z" id="形状" fill="#B6B5CA" filter="url(#filter-1)"></path>
                <path d="M14.7641059,2.99262153 C15.3686215,2.99262153 15.9731645,3.22323872 16.4342622,3.6844184 L18.5655434,5.81578168 L21.5074575,5.81578168 C22.8120278,5.81578168 23.8694106,6.87327387 23.8694106,8.17773481 L23.8694106,11.1196489 L25.8984262,13.1486645 C26.820895,14.0710512 26.820895,15.5665629 25.8984262,16.488977 L23.8693832,18.51802 L23.8693832,21.5621723 C23.8693832,22.8666332 22.8120004,23.9241254 21.5074301,23.9241254 L18.4633325,23.9241254 L16.4342895,25.9531411 C15.9731372,26.4143481 15.3686215,26.6449653 14.7641059,26.6449653 C14.1595356,26.6449653 13.55502,26.4143481 13.0939223,25.9531684 L11.0648793,23.9241254 L8.12301997,23.9241254 C6.81861372,23.9241254 5.76106684,22.8666332 5.76106684,21.5621723 L5.76106684,18.6203403 L3.62978559,16.488977 C2.70731684,15.5665903 2.70731684,14.0710786 3.62978559,13.1486645 L5.7610395,11.0173012 L5.7610395,8.17776215 C5.7610395,6.87332856 6.81861372,5.81580903 8.12299262,5.81580903 L10.9626411,5.81580903 L13.093895,3.68444575 C13.5550473,3.22326606 14.1595356,2.99262153 14.7640512,2.99262153 L14.7641059,2.99262153 Z M19.1412114,12.3774614 C18.8219184,12.0581684 18.3042739,12.0581684 17.9849809,12.3774614 L14.0822622,16.2801528 L12.3995278,14.6551684 C12.0779653,14.3446254 11.5674575,14.3503676 11.2529497,14.6656957 L11.2434614,14.6753481 L11.2431879,14.6756215 C10.9295551,15.0004106 10.9385786,15.5180004 11.263395,15.8316606 L13.4809184,17.9731137 C13.5847199,18.073665 13.7134251,18.1447611 13.8538051,18.1790942 C14.1387817,18.274934 14.4661137,18.2093364 14.6931489,17.9823012 L19.1414848,13.5339653 C19.4607778,13.2146723 19.4607778,12.6970004 19.1414848,12.3777348 L19.1412114,12.3774614 Z" id="形状" fill="#416DFD"></path>
            </g>
        </g>
    </g>
</svg>