<?xml version="1.0" encoding="UTF-8"?>
<svg width="36px" height="36px" viewBox="0 0 36 36" version="1.1" xmlns="http://www.w3.org/2000/svg" xmlns:xlink="http://www.w3.org/1999/xlink">
    <title>矩形</title>
    <g id="修改" stroke="none" stroke-width="1" fill="none" fill-rule="evenodd">
        <g id="管理员后台" transform="translate(-1799.000000, -233.000000)" fill-rule="nonzero">
            <g id="企业建站" transform="translate(1799.000000, 233.000000)">
                <rect id="矩形" fill="#000000" opacity="0" x="0" y="0" width="36" height="36"></rect>
                <path d="M29.628,18.522 C29.484,18.522 29.322,18.522 29.178,18.45 L29.106,18.45 C29.034,18.45 28.962,18.45 28.872,18.378 C28.566,18.306 28.35,18.234 28.044,18.144 L28.044,27.522 L8.244,27.522 L8.244,18.144 C8.028,18.216 7.722,18.288 7.416,18.36 C7.344,18.36 7.272,18.36 7.2,18.432 L7.128,18.432 C6.984,18.432 6.822,18.504 6.678,18.504 L6.156,18.504 C5.778,18.504 5.472,18.504 5.184,18.432 L5.184,28.566 C5.184,29.394 5.85,30.06 6.678,30.06 L29.556,30.06 C30.384,30.06 31.05,29.376 31.05,28.566 L31.05,18.432 C30.744,18.504 30.366,18.504 30.078,18.504 L29.628,18.504 L29.628,18.522 Z" id="路径" fill="#B6B5CA"></path>
                <path d="M19.584,20.484 L19.134,20.484 C19.062,20.79 19.062,21.006 19.062,21.006 C18.99,20.628 18.684,20.412 18.234,20.412 C17.262,20.484 16.74,21.096 16.65,22.212 C16.65,23.112 17.028,23.562 17.694,23.562 C18.288,23.562 18.666,23.256 18.9,22.734 C18.828,23.256 19.044,23.562 19.584,23.562 C20.556,23.49 21.078,22.878 21.15,21.618 C21.078,19.962 20.106,19.134 18.306,19.062 C16.434,19.206 15.39,20.178 15.3,22.068 C15.372,23.868 16.344,24.768 18.306,24.84 C19.278,24.84 20.106,24.534 20.7,23.94 L20.556,23.724 C20.034,24.246 19.278,24.48 18.378,24.48 C16.722,24.408 15.894,23.58 15.822,22.086 C15.894,20.43 16.794,19.53 18.378,19.458 C19.872,19.53 20.7,20.286 20.7,21.636 C20.628,22.608 20.322,23.13 19.728,23.202 C19.422,23.274 19.278,22.986 19.35,22.446 C19.35,22.284 19.422,21.6 19.584,20.484 L19.584,20.484 Z M18.972,21.834 C18.972,21.978 18.972,22.068 18.9,22.14 C18.828,22.446 18.756,22.734 18.522,22.896 C18.378,23.13 18.144,23.202 17.838,23.202 C17.316,23.202 17.082,22.896 17.082,22.23 C17.082,21.78 17.226,21.402 17.388,21.186 C17.604,20.952 17.838,20.808 18.216,20.808 C18.738,20.88 18.972,21.114 18.972,21.636 L18.972,21.834 L18.972,21.834 Z M31.356,7.65 C30.906,6.228 29.7,5.256 28.206,5.256 L8.172,5.256 C6.678,5.256 5.472,6.228 5.094,7.65 L5.022,7.65 L2.25,13.05 C2.25,15.3 4.05,17.028 6.228,17.028 C8.406,17.028 10.206,15.228 10.206,13.05 C10.206,15.3 12.006,17.028 14.184,17.028 C16.362,17.028 18.162,15.228 18.162,13.05 C18.162,15.3 19.962,17.028 22.14,17.028 C24.318,17.028 26.118,15.228 26.118,13.05 C26.118,15.3 27.918,17.028 30.096,17.028 C32.274,17.028 34.074,15.228 34.074,13.05 L31.356,7.65 L31.356,7.65 Z" id="形状" fill="#B6B5CA"></path>
            </g>
        </g>
    </g>
</svg>