<?xml version="1.0" encoding="UTF-8"?>
<svg width="28px" height="28px" viewBox="0 0 28 28" version="1.1" xmlns="http://www.w3.org/2000/svg" xmlns:xlink="http://www.w3.org/1999/xlink">
    <title>矩形</title>
    <defs>
        <filter x="-12.9%" y="-12.9%" width="125.7%" height="125.7%" filterUnits="objectBoundingBox" id="filter-1">
            <feGaussianBlur stdDeviation="1" in="SourceGraphic"></feGaussianBlur>
        </filter>
    </defs>
    <g id="修改" stroke="none" stroke-width="1" fill="none" fill-rule="evenodd">
        <g id="蓝色图标" transform="translate(-482.000000, -163.000000)" fill-rule="nonzero">
            <g id="企业信息备份" transform="translate(482.000000, 163.000000)">
                <rect id="矩形" fill="#000000" opacity="0" x="0" y="0" width="28" height="28"></rect>
                <path d="M16.7222222,20.2222222 L19.0555556,20.2222222 L19.0555556,11.4722222 C19.0555556,11.1500561 19.3167228,10.8888889 19.6388889,10.8888889 L21.9722222,10.8888889 C22.2943883,10.8888889 22.5555556,11.1500561 22.5555556,11.4722222 L22.5555556,20.2222222 L24.8888889,20.2222222 L24.8888889,24.8888889 L1.55555556,24.8888889 L1.55555556,20.2222222 L3.88888889,20.2222222 L3.88888889,2.72222222 C3.88888889,2.07789001 4.41122335,1.55555556 5.05555556,1.55555556 L15.5555556,1.55555556 C15.8649748,1.55555556 16.161721,1.67847187 16.3805135,1.89726431 C16.5993059,2.11605675 16.7222222,2.41280298 16.7222222,2.72222222 L16.7222222,20.2222222 L16.7222222,20.2222222 Z M6.04273504,6.04273504 L6.04273504,17.7094017 L9.63247863,17.7094017 L9.63247863,6.04273504 L6.04273504,6.04273504 Z M12.3247863,10.5299145 L12.3247863,17.7094017 L15.017094,17.7094017 L15.017094,10.5299145 L12.3247863,10.5299145 Z" id="形状" fill="#B6B5CA" filter="url(#filter-1)"></path>
                <path d="M17.5,21 L19.8333333,21 L19.8333333,12.25 C19.8333333,11.9278339 20.0945006,11.6666667 20.4166667,11.6666667 L22.75,11.6666667 C23.0721661,11.6666667 23.3333333,11.9278339 23.3333333,12.25 L23.3333333,21 L25.6666667,21 L25.6666667,25.6666667 L2.33333333,25.6666667 L2.33333333,21 L4.66666667,21 L4.66666667,3.5 C4.66666667,2.85566779 5.18900113,2.33333333 5.83333333,2.33333333 L16.3333333,2.33333333 C16.6427526,2.33333333 16.9394988,2.45624965 17.1582912,2.67504209 C17.3770837,2.89383453 17.5,3.19058076 17.5,3.5 L17.5,21 L17.5,21 Z M6.82051282,6.82051282 L6.82051282,18.4871795 L10.4102564,18.4871795 L10.4102564,6.82051282 L6.82051282,6.82051282 Z M13.1025641,11.3076923 L13.1025641,18.4871795 L15.7948718,18.4871795 L15.7948718,11.3076923 L13.1025641,11.3076923 Z" id="形状" fill="#416DFD"></path>
            </g>
        </g>
    </g>
</svg>