<?xml version="1.0" encoding="UTF-8"?>
<svg width="36px" height="36px" viewBox="0 0 36 36" version="1.1" xmlns="http://www.w3.org/2000/svg" xmlns:xlink="http://www.w3.org/1999/xlink">
    <title>矩形</title>
    <g id="修改" stroke="none" stroke-width="1" fill="none" fill-rule="evenodd">
        <g id="管理员后台" transform="translate(-1361.000000, -233.000000)" fill-rule="nonzero">
            <g id="专家" transform="translate(1361.000000, 233.000000)">
                <rect id="矩形" fill="#000000" opacity="0" x="0" y="0" width="36" height="36"></rect>
                <path d="M16,7.5 C16,9.43299664 18.0147186,11 20.5,11 C22.9852814,11 25,9.43299664 25,7.5 C25,6.24957047 24.1423049,5.09412589 22.75,4.46891109 C21.3576952,3.8436963 19.6423048,3.8436963 18.25,4.46891109 C16.8576951,5.09412589 16,6.24957047 16,7.5 L16,7.5 Z M27.8357898,7.40090753 C27.8716103,7.922032 27.8006327,8.4288136 27.6407671,8.90797189 C28.0334659,8.98181114 28.4447384,9.01368419 28.8686143,8.99456036 C31.2785382,8.88937927 33.1259475,7.23835494 32.993279,5.30844135 C32.8626005,3.37905899 30.8009315,1.89961794 28.391671,2.00533025 C26.9634943,2.06854514 25.737637,2.67413322 25,3.55807932 C26.6099326,4.36659253 27.7243483,5.76794459 27.8357898,7.40090753 Z M32.3153499,11 L27.5722348,11 C27.4090293,11.2830979 27.2194131,11.5537891 27,11.8047425 C29.093228,12.4256405 30.5959368,14.0920834 30.5959368,16.0450078 L30.5959368,21.3635265 C30.5959368,23.071137 29.4683973,24.5751652 27.7306998,25.3381761 L27.7306998,30.908776 C27.7306998,31.2268382 27.6900677,31.5375691 27.6148984,31.8358934 C27.9860045,31.9407863 28.3828442,32 28.7952596,32 L29.4501129,32 C31.4851016,32 33.134763,30.6256781 33.134763,28.9310382 L33.134763,22.3757989 C34.7749436,22.0656319 36,20.8463935 36,19.3863527 L36,14.0683979 C35.9993228,12.373758 34.3503386,11 32.3153499,11 Z M10.9628457,8.9789044 C11.4754358,9.02405609 11.9751774,8.99484029 12.4505743,8.90931768 C12.1996891,8.2856932 12.1029868,7.61266745 12.2010416,6.92264343 C12.4154098,5.41563945 13.491308,4.14608024 15,3.38221992 C14.2872428,2.64757541 13.2106683,2.13178377 11.9494803,2.02182614 C9.50284305,1.80775402 7.30032858,3.19258284 7.02780376,5.11338875 C6.75527894,7.03472585 8.51688478,8.76483228 10.9628457,8.9789044 Z M12.2700324,25.7922821 C10.5311113,25.0298351 9.40433376,23.525243 9.40433376,21.8181965 L9.40433376,16.4996777 C9.40433376,14.5467533 10.9069295,12.8803104 13,12.2594124 C12.9261907,12.1753854 12.8584757,12.0879746 12.7914378,12 L7.68437288,12 C5.65021443,12 4,13.373758 4,15.0683979 L4,20.3863527 C4,21.8463935 5.22564141,23.0656319 6.86569859,23.3763629 L6.86569859,29.9316021 C6.86569859,31.626242 8.51523587,33 10.5500715,33 L11.2048755,33 C11.6795576,33 12.1312166,32.9227402 12.5469867,32.7862667 C12.3682191,32.3390622 12.2693552,31.8608411 12.2693552,31.3634459 L12.2693552,25.7922821 L12.2700324,25.7922821 Z M27,21.3859023 L27,16.0676692 C27,14.3731203 25.4409984,13 23.5178457,13 L20.3486437,18.1456767 L17.4821543,13 C15.5590016,13 14,14.3731203 14,16.0676692 L14,21.3859023 C14,22.8458647 15.1583715,24.0644737 16.7077733,24.375188 L16.7077733,30.931203 C16.7077733,32.6257519 18.267415,34 20.1899276,34 L20.8087924,34 C22.7319451,34 24.2909467,32.6263158 24.2909467,30.931203 L24.2909467,24.3746241 C25.8409885,24.0644737 27,22.8458647 27,21.3859023 Z M26,18.9356568 L24.5823056,18.9356568 L24.5823056,20 L23.4184093,20 L23.4184093,18.9356568 L22,18.9356568 L22,18.0632708 L23.4184093,18.0632708 L23.4184093,17 L24.5823056,17 L24.5823056,18.0632708 L26,18.0632708 L26,18.9356568 Z" id="形状" fill="#B6B5CA"></path>
            </g>
        </g>
    </g>
</svg>