<?xml version="1.0" encoding="UTF-8"?>
<svg width="28px" height="28px" viewBox="0 0 28 28" version="1.1" xmlns="http://www.w3.org/2000/svg" xmlns:xlink="http://www.w3.org/1999/xlink">
    <title>矩形</title>
    <defs>
        <filter x="-12.9%" y="-12.9%" width="125.7%" height="125.7%" filterUnits="objectBoundingBox" id="filter-1">
            <feGaussianBlur stdDeviation="1" in="SourceGraphic"></feGaussianBlur>
        </filter>
    </defs>
    <g id="修改" stroke="none" stroke-width="1" fill="none" fill-rule="evenodd">
        <g id="蓝色图标" transform="translate(-346.000000, -237.000000)" fill-rule="nonzero">
            <g id="专家备份-3" transform="translate(346.000000, 237.000000)">
                <rect id="矩形" fill="#000000" opacity="0" x="0" y="0" width="28" height="28"></rect>
                <path d="M10.8888889,6.61111114 C10.8888889,8.11455294 12.2817808,9.33333333 14,9.33333333 C15.7182192,9.33333333 17.1111111,8.11455294 17.1111111,6.61111114 C17.1111111,5.63855481 16.5181367,4.73987569 15.5555556,4.25359752 C14.5929744,3.76731935 13.4070256,3.76731935 12.4444444,4.25359752 C11.4818633,4.73987569 10.8888889,5.63855481 10.8888889,6.61111114 L10.8888889,6.61111114 Z M19.3167254,6.53403919 C19.3445858,6.93935822 19.289381,7.33352169 19.1650411,7.70620036 C19.4704735,7.76363088 19.7903521,7.78842104 20.1200334,7.77354695 C21.9944186,7.69173943 23.4312925,6.40760939 23.3281059,4.9065655 C23.226467,3.40593477 21.6229467,2.2552584 19.7490774,2.33747908 C18.6382733,2.38664622 17.6848288,2.85765917 17.1111111,3.54517281 C18.3632809,4.17401641 19.2300487,5.2639569 19.3167254,6.53403919 Z M23.1192542,8.55555556 L19.8400635,8.55555556 C19.7272302,8.76525771 19.5961374,8.96576973 19.4444444,9.15166109 C20.8916144,9.61158554 21.9305242,10.8459877 21.9305242,12.2925984 L21.9305242,16.2322419 C21.9305242,17.4971385 21.1509907,18.6112334 19.9496196,19.1764267 L19.9496196,23.302797 C19.9496196,23.5383986 19.9215283,23.7685697 19.8695594,23.9895507 C20.1261266,24.0672491 20.4004849,24.1111111 20.6856116,24.1111111 L21.1383496,24.1111111 C22.5452554,24.1111111 23.6857621,23.0930949 23.6857621,21.8378061 L23.6857621,16.9820733 C24.8197141,16.7523199 25.6666667,15.8491803 25.6666667,14.7676686 L25.6666667,10.8284429 C25.6661985,9.57315407 24.52616,8.55555556 23.1192542,8.55555556 Z M7.74888002,7.76137009 C8.14756121,7.79648807 8.53624908,7.77376467 8.90600222,7.70724709 C8.71086934,7.22220582 8.63565639,6.69874135 8.71192127,6.162056 C8.87865206,4.9899418 9.71546179,4.00250685 10.8888889,3.40839327 C10.3345222,2.83700309 9.49718647,2.43583182 8.51626242,2.35030922 C6.61332237,2.18380868 4.90025556,3.26089776 4.68829181,4.75485791 C4.47632806,6.24923122 5.84646594,7.59486955 7.74888002,7.76137009 Z M8.05088656,19.5498386 C6.84866953,18.985063 6.06966285,17.8705504 6.06966285,16.6060715 L6.06966285,12.666428 C6.06966285,11.2198173 7.10849447,9.98541514 8.55555556,9.52549069 C8.50452687,9.46324841 8.45771157,9.39849974 8.41136442,9.33333333 L4.88055409,9.33333333 C3.47422232,9.33333333 2.33333333,10.3509318 2.33333333,11.6062206 L2.33333333,15.5454464 C2.33333333,16.6269581 3.18069036,17.5300977 4.31455705,17.7602688 L4.31455705,22.6160016 C4.31455705,23.8712904 5.45497789,24.8888889 6.86177781,24.8888889 L7.31448181,24.8888889 C7.6426571,24.8888889 7.95491519,24.8316594 8.24236116,24.7305679 C8.11876876,24.3993054 8.05041841,24.0450675 8.05041841,23.6766266 L8.05041841,19.5498386 L8.05088656,19.5498386 Z M18.6666667,16.3228906 L18.6666667,12.3834586 C18.6666667,11.1282373 17.5473834,10.1111111 16.1666585,10.1111111 L13.891334,13.9227235 L11.8333333,10.1111111 C10.4526166,10.1111111 9.33333333,11.1282373 9.33333333,12.3834586 L9.33333333,16.3228906 C9.33333333,17.4043442 10.1649847,18.3070175 11.2773757,18.5371763 L11.2773757,23.3934837 C11.2773757,24.6487051 12.3971184,25.6666667 13.7773839,25.6666667 L14.2216971,25.6666667 C15.6024221,25.6666667 16.7217053,24.6491228 16.7217053,23.3934837 L16.7217053,18.5367586 C17.8345559,18.3070175 18.6666667,17.4043442 18.6666667,16.3228906 Z M18.6666667,14.7277331 L17.5640155,14.7277331 L17.5640155,15.5555556 L16.6587628,15.5555556 L16.6587628,14.7277331 L15.5555556,14.7277331 L15.5555556,14.0492106 L16.6587628,14.0492106 L16.6587628,13.2222222 L17.5640155,13.2222222 L17.5640155,14.0492106 L18.6666667,14.0492106 L18.6666667,14.7277331 Z" id="形状" fill="#B6B5CA" filter="url(#filter-1)"></path>
                <path d="M11.6666667,7.38888892 C11.6666667,8.89233072 13.0595586,10.1111111 14.7777778,10.1111111 C16.495997,10.1111111 17.8888889,8.89233072 17.8888889,7.38888892 C17.8888889,6.41633259 17.2959145,5.51765347 16.3333334,5.0313753 C15.3707522,4.54509712 14.1848033,4.54509712 13.2222222,5.0313753 C12.2596411,5.51765347 11.6666667,6.41633259 11.6666667,7.38888892 L11.6666667,7.38888892 Z M20.0945032,7.31181696 C20.1223636,7.717136 20.0671587,8.11129947 19.9428189,8.48397814 C20.2482513,8.54140866 20.5681299,8.56619882 20.8978112,8.55132472 C22.7721964,8.46951721 24.2090703,7.18538717 24.1058836,5.68434328 C24.0042448,4.18371255 22.4007245,3.03303618 20.5268552,3.11525686 C19.4160511,3.164424 18.4626066,3.63543695 17.8888889,4.32295059 C19.1410587,4.95179419 20.0078264,6.04173468 20.0945032,7.31181696 Z M23.897032,9.33333333 L20.6178413,9.33333333 C20.5050079,9.54303549 20.3739152,9.74354751 20.2222222,9.92943886 C21.6693922,10.3893633 22.708302,11.6237654 22.708302,13.0703761 L22.708302,17.0100196 C22.708302,18.2749163 21.9287685,19.3890112 20.7273974,19.9542045 L20.7273974,24.0805748 C20.7273974,24.3161764 20.6993061,24.5463475 20.6473372,24.7673285 C20.9039044,24.8450269 21.1782627,24.8888889 21.4633893,24.8888889 L21.9161274,24.8888889 C23.3230332,24.8888889 24.4635398,23.8708726 24.4635398,22.6155838 L24.4635398,17.759851 C25.5974918,17.5300977 26.4444444,16.6269581 26.4444444,15.5454464 L26.4444444,11.6062206 C26.4439763,10.3509318 25.3039378,9.33333333 23.897032,9.33333333 Z M8.5266578,8.53914787 C8.92533899,8.57426585 9.31402686,8.55154245 9.68377999,8.48502486 C9.48864711,7.9999836 9.41343417,7.47651913 9.48969904,6.93983378 C9.65642983,5.76771958 10.4932396,4.78028463 11.6666667,4.18617105 C11.1122999,3.61478087 10.2749642,3.2136096 9.2940402,3.12808699 C7.39110015,2.96158646 5.67803334,4.03867554 5.46606959,5.53263569 C5.25410584,7.027009 6.62424371,8.37264733 8.5266578,8.53914787 Z M8.82866434,20.3276164 C7.6264473,19.7628408 6.84744062,18.6483282 6.84744062,17.3838492 L6.84744062,13.4442057 C6.84744062,11.997595 7.88627225,10.7631929 9.33333333,10.3032685 C9.28230465,10.2410262 9.23548935,10.1762775 9.18914219,10.1111111 L5.65833187,10.1111111 C4.2520001,10.1111111 3.11111111,11.1287096 3.11111111,12.3839984 L3.11111111,16.3232242 C3.11111111,17.4047359 3.95846814,18.3078755 5.09233483,18.5380466 L5.09233483,23.3937794 C5.09233483,24.6490682 6.23275567,25.6666667 7.63955559,25.6666667 L8.09225959,25.6666667 C8.42043488,25.6666667 8.73269297,25.6094372 9.02013894,25.5083457 C8.89654654,25.1770831 8.82819619,24.8228452 8.82819619,24.4544044 L8.82819619,20.3276164 L8.82866434,20.3276164 Z M19.4444444,17.1006683 L19.4444444,13.1612364 C19.4444444,11.906015 18.3251612,10.8888889 16.9444362,10.8888889 L14.6691117,14.7005013 L12.6111111,10.8888889 C11.2303943,10.8888889 10.1111111,11.906015 10.1111111,13.1612364 L10.1111111,17.1006683 C10.1111111,18.182122 10.9427624,19.0847953 12.0551535,19.3149541 L12.0551535,24.1712615 C12.0551535,25.4264829 13.1748962,26.4444444 14.5551617,26.4444444 L14.9994749,26.4444444 C16.3801999,26.4444444 17.4994831,25.4269006 17.4994831,24.1712615 L17.4994831,19.3145363 C18.6123336,19.0847953 19.4444444,18.182122 19.4444444,17.1006683 Z M19.4444444,15.5055109 L18.3417933,15.5055109 L18.3417933,16.3333333 L17.4365406,16.3333333 L17.4365406,15.5055109 L16.3333333,15.5055109 L16.3333333,14.8269884 L17.4365406,14.8269884 L17.4365406,14 L18.3417933,14 L18.3417933,14.8269884 L19.4444444,14.8269884 L19.4444444,15.5055109 Z" id="形状" fill="#416DFD"></path>
            </g>
        </g>
    </g>
</svg>