<?xml version="1.0" encoding="UTF-8"?>
<svg width="36px" height="36px" viewBox="0 0 36 36" version="1.1" xmlns="http://www.w3.org/2000/svg" xmlns:xlink="http://www.w3.org/1999/xlink">
    <title>矩形</title>
    <g id="修改" stroke="none" stroke-width="1" fill="none" fill-rule="evenodd">
        <g id="管理员后台" transform="translate(-1653.000000, -233.000000)" fill-rule="nonzero">
            <g id="发布需求" transform="translate(1653.000000, 233.000000)">
                <rect id="矩形" fill="#000000" opacity="0" x="0" y="0" width="36" height="36"></rect>
                <path d="M2.42859376,0 L30.5688281,0 C31.2344141,0.0413839336 31.8806641,0.322633934 32.3275391,0.787901801 C32.7262891,1.19089287 32.95875,1.72566967 33,2.27169643 L33,33.7270982 C32.9566016,34.3297768 32.6742969,34.9159821 32.2029297,35.3314286 C31.7667969,35.7275893 31.1764063,35.9598214 30.5722656,36 L2.43160157,36 C1.76601564,35.9586161 1.11976562,35.6781696 0.673320334,35.2129018 C0.273710937,34.8095089 0.041679709,34.2751339 0,33.7287054 L0,2.27370537 C0.042109375,1.69875 0.299062511,1.13745537 0.73390625,0.726830367 C1.17648439,0.297321434 1.79437499,0.0409821328 2.42859376,0 M6.7424405,6.0109623 C6.42098908,6.05689933 6.13639745,6.33651595 6.04124782,6.69652235 C5.94824122,7.02057805 6.0159603,7.39706187 6.20968834,7.65370995 C6.36998545,7.87241008 6.61471711,8.00073414 6.86159179,7.99823756 C11.2761911,7.99973552 15.6903619,7.99823756 20.1049612,7.99923623 C20.3959819,8.01271773 20.6882884,7.84694505 20.8511571,7.56383317 C21.0513142,7.23228777 21.0495998,6.75693951 20.8460138,6.42789065 C20.6831451,6.15027127 20.3942675,5.9879938 20.1071042,6.0014753 C16.8925901,6.00197463 13.6780761,6.0014753 10.4639906,6.0014753 C9.22361673,6.00796638 7.98238569,5.98899243 6.7424405,6.0109623 M6.72875597,11.0104991 C6.41394607,11.0554404 6.13439492,11.3335776 6.04079142,11.6931084 C5.94634844,12.02917 6.01938436,12.4211585 6.22380093,12.6783229 C6.38036637,12.8830558 6.61164671,13.0004027 6.84376652,12.9984053 C9.93603906,13.0004027 13.0287313,12.9984053 16.1210038,12.999404 C16.3661358,13.009391 16.6137862,12.8935422 16.7787466,12.6758262 C17.0054097,12.3916969 17.064594,11.941784 16.9252381,11.5872466 C16.7959562,11.238202 16.4853438,10.9980154 16.1642377,11.0025095 C14.1351831,11.0005122 12.1061285,11.0020102 10.0766541,11.0015108 C8.9609679,11.007503 7.84402246,10.9895264 6.72875597,11.0104991 M27.2674592,11.0218185 C26.708374,11.0832966 26.1775798,11.3180312 25.7779125,11.6709315 C24.8514926,12.493301 23.9259708,13.3168681 23,14.1396368 C24.8227525,15.7596248 26.6441578,17.3812096 28.4678084,19 C29.3933301,18.1776305 30.3188519,17.3552611 31.2434755,16.5324924 C31.7122988,16.1157187 31.9889225,15.5352696 31.999251,14.9460379 C32.0163154,14.3292608 31.7410389,13.7120845 31.2524568,13.2741528 C30.647118,12.7356205 30.0417791,12.1966891 29.4355422,11.6593544 C28.8742117,11.1651344 28.0497294,10.9228148 27.2674592,11.0218185 M21.8569104,15 C18.7189758,17.9510276 15.5721782,20.8945342 12.4321334,23.8435826 C11.9607046,25.4617987 11.5057358,27.0847649 11.0389495,28.7045643 C10.9013615,29.151078 11.1393972,29.6629061 11.5779061,29.8762668 C11.8248048,30.0033331 12.1253037,30.0338132 12.3958371,29.9617694 C14.1220177,29.5231727 15.8519967,29.0980347 17.5764891,28.6550836 C20.7194883,25.7111812 23.8612213,22.764508 27,19.8162513 C25.2831045,18.2134731 23.5776043,16.5992155 21.8569104,15 M5.78841094,16.0104984 C5.462149,16.0539391 5.17042174,16.3100893 5.05772962,16.6491264 C4.95639759,16.9402288 4.99002346,17.2832604 5.14633835,17.5439045 C5.30992374,17.8260192 5.60937584,18.0022786 5.91428082,17.998284 C8.2912672,18.0002813 10.6682536,17.998284 13.04524,17.9992826 C13.3224263,18.0107669 13.6023391,17.8839401 13.7818286,17.6492606 C14.0099393,17.3651486 14.0649221,16.9322397 13.9195129,16.5892082 C13.780011,16.2381875 13.4428434,15.9975162 13.0938612,16.0025094 C11.5029934,16.0005121 9.91212562,16.00201 8.32125787,16.0015107 C7.47697556,16.0075025 6.63223886,15.9895271 5.78841094,16.0104984 L5.78841094,16.0104984 Z M27.2912122,13.1970358 C27.5479129,12.9322773 28.0154473,12.934975 28.2702208,13.201275 C28.7847785,13.7146058 29.2993361,14.2279366 29.8115812,14.7431943 C30.0586459,14.9936936 30.0640421,15.4345723 29.8200608,15.6889254 C29.3868302,16.128648 28.9474326,16.5625897 28.511504,17 C27.6739506,16.1637178 26.8383243,15.3255088 26,14.4899974 C26.427449,14.0560556 26.8602942,13.6271238 27.2912122,13.1970358 L27.2912122,13.1970358 Z M14.0387451,25.4713376 C16.7438196,22.9757166 19.4623392,20.491242 22.1730519,18 C23.1155125,18.8646497 24.0579731,19.7296975 25,20.5951433 C22.7008819,22.7062102 20.4008964,24.8160828 18.1013445,26.9267516 C17.6871476,27.3017516 17.2837935,27.6882962 16.8626572,28.0561306 C15.9843863,28.281051 15.1009108,28.4904458 14.220905,28.709793 C13.8132138,28.803742 13.4111609,28.9211783 13,29 C13.353477,27.8256369 13.680931,26.6441083 14.0387451,25.4713376 Z" id="形状" fill="#B6B5CA"></path>
            </g>
        </g>
    </g>
</svg>