<?xml version="1.0" encoding="UTF-8"?>
<svg width="36px" height="36px" viewBox="0 0 36 36" version="1.1" xmlns="http://www.w3.org/2000/svg" xmlns:xlink="http://www.w3.org/1999/xlink">
    <title>矩形</title>
    <g id="修改" stroke="none" stroke-width="1" fill="none" fill-rule="evenodd">
        <g id="管理员后台" transform="translate(-637.000000, -342.000000)" fill-rule="nonzero">
            <g id="校企合作实习基地" transform="translate(637.000000, 342.000000)">
                <rect id="矩形" fill="#000000" opacity="0" x="0" y="0" width="36" height="36"></rect>
                <path d="M3.73710938,14.9132813 L5.36835938,15.7886719 C5.36835938,15.7886719 6.11015625,16.2351562 6.50390625,15.4054687 L10.5574219,6.59882812 C10.5574219,6.59882812 10.940625,5.84648437 10.3148438,5.49140625 L8.53242188,4.584375 C8.53242188,4.584375 7.98046875,4.26445312 7.61835938,4.93945312 C7.6078125,5.21015625 3.45585938,13.9113281 3.45585938,13.9113281 C3.45585938,13.9113281 3.19921875,14.625 3.73710938,14.9132812 L3.73710938,14.9132813 Z M28.4097656,15.8132813 L30.0761719,15.0152344 C30.0761719,15.0152344 30.8742187,14.6777344 30.4875,13.8445313 L26.3285156,5.090625 C26.3285156,5.090625 25.9945312,4.3171875 25.3441406,4.60546875 L23.5617187,5.50546875 C23.5617187,5.50546875 22.978125,5.76210938 23.2628906,6.47226563 C23.4632812,6.6515625 27.4851562,15.4195313 27.4851562,15.4195313 C27.4851562,15.4195313 27.8578125,16.0769531 28.4097656,15.8132813 Z" id="形状" fill="#B6B5CA"></path>
                <path d="M18.9175781,15.0679688 L20.9179687,12.8425781 L25.5585937,17.1 C26.5570312,17.5253906 26.6167969,18.6890625 26.1421875,19.265625 C25.6675781,19.8421875 24.8589844,19.5820312 24.046875,18.9105469 L18.9175781,15.0679688 Z M17.0472656,17.1351563 L18.6785156,15.3632812 L23.4527344,19.6523438 C24.4265625,20.1375 24.609375,21.1816406 24.2261719,21.6457031 C23.8429688,22.1097656 23.0625,21.7898438 22.2363281,21.1078125 L17.0472656,17.1351563 L17.0472656,17.1351563 Z M15.3421875,19.2445313 L16.621875,17.8488281 L21.3539062,21.5472656 C22.2679687,21.99375 22.4226562,22.9851563 22.0570312,23.428125 C21.6914062,23.8710938 20.9566406,23.5792969 20.1867187,22.9429688 L15.3421875,19.2445312 L15.3421875,19.2445313 Z M13.7566406,21.0550781 L14.8816406,19.8105469 L18.4957031,22.6054688 C19.209375,22.921875 19.2761719,23.7410156 18.9492187,24.1347656 C18.6222656,24.5285156 18.0457031,24.3316406 17.4585937,23.8464844 L13.7566406,21.0550781 L13.7566406,21.0550781 Z" id="形状" fill="#B6B5CA"></path>
                <polygon id="路径" fill="#B6B5CA" points="9.7734375 8.28632813 12.4910156 8.28632813 18.0351562 10.29375 22.5808594 14.4246094 15.3632812 22.2117188 8.56054688 17.1738281 7.17539062 13.9535156"></polygon>
                <path d="M6.61289062,15.1769531 L7.17539062,13.9535156 L9.20039062,16.6148438 C9.20039062,16.6148438 10.4554687,16.3160156 10.8984375,17.1351563 C10.8984375,17.1351563 11.3132812,17.634375 11.1304688,18.5730469 C11.1304688,18.5730469 11.390625,18.7699219 11.4082031,18.8929688 C11.4082031,18.8929688 12.2730469,18.675 12.7933594,19.3148438 C12.7933594,19.3148438 13.2714844,19.7121094 13.2152344,20.4855469 C13.2152344,20.4855469 13.5597656,20.6402344 13.6300781,20.8511719 C13.6300781,20.8511719 14.4808594,20.6296875 14.8921875,21.15 C14.8921875,21.15 15.3984375,21.6386719 15.3597656,22.2152344 L16.1507812,22.8164062 C16.1507812,22.8164062 16.8855469,22.8796875 17.0050781,23.4773437 L17.7152344,24.0222656 C17.7152344,24.0222656 18.8472656,24.4898437 18.9105469,23.3085938 L16.2527344,21.1992188 C16.2527344,21.1992188 15.9398437,20.3484375 16.9136719,20.4820312 L20.8757812,23.3894531 C20.8757812,23.3894531 21.5226562,23.6777344 21.9164062,23.0378906 C21.9164062,23.0378906 22.2960937,22.4859375 21.7546875,21.8882812 L17.5429688,18.7171875 C17.5429688,18.7171875 17.1703125,17.83125 18.1265625,17.8980469 L23.1257812,21.5824219 C23.1257812,21.5824219 23.8359375,21.8777344 24.1347656,21.3257813 C24.1347656,21.3257813 24.5390625,20.7773438 24.1347656,20.2078125 L18.6152344,16.0136719 C18.6152344,16.0136719 18.28125,15.0082031 19.3148437,15.2683594 L25.003125,19.490625 C25.003125,19.490625 25.8644531,19.771875 26.2476563,19.040625 C26.2476563,19.040625 26.7328125,18.253125 26.0824219,17.60625 L18.0351562,10.29375 C18.0351562,10.29375 16.5375,9.5484375 15.6480469,11.1058594 C15.6480469,11.1058594 15.4898438,13.6441406 12.7828125,14.1046875 C12.7828125,14.1046875 10.9371094,13.9570313 11.3660156,12.6949219 C11.3660156,12.6949219 11.9074219,11.9460938 11.8617188,10.3746094 C11.8617188,10.3746094 11.9214844,9.24609375 12.6738281,8.2828125 L9.7734375,8.2828125 L10.4097656,6.90820312 L14.7867188,6.90820312 C14.7867188,6.90820312 16.5832031,5.84648438 17.9402344,5.94492187 C17.9402344,5.94492187 19.7085937,6.04335937 20.1832031,6.32460937 C20.1832031,6.32460937 22.5246094,7.10507813 23.5722656,6.92226562 L27.4921875,15.384375 L26.8699219,16.8609375 C26.8699219,16.8609375 28.0160156,18.0878906 27.16875,19.575 C26.9332031,20.0742188 26.3285156,20.5558594 25.340625,20.6050781 C25.340625,20.6050781 25.4917969,21.6105469 24.7992187,22.1730469 C24.7992187,22.1730469 24.2894531,22.9007813 23.0554687,22.7003906 C23.0554687,22.7003906 23.1257812,23.5863281 22.3066406,24.1769531 C22.3066406,24.1769531 21.3328125,25.0488281 19.8316406,23.9871094 C19.8316406,23.9871094 19.5925781,24.9855469 18.39375,25.1894531 C18.39375,25.1894531 17.5183594,25.3335938 17.0085938,24.8167969 C17.0085938,24.8167969 16.0910156,26.6167969 14.7867188,25.6042969 C14.7867188,25.6042969 13.9605469,24.890625 14.540625,23.8816406 C14.540625,23.8816406 13.4261719,25.7132813 12.1078125,24.3351563 C12.1078125,24.3351563 11.3730469,23.7621094 12.0515625,22.5597656 C12.0515625,22.5597656 11.0039062,23.8042969 9.84726563,22.6757813 C9.84726563,22.6757813 9.05976563,22.0042969 9.6890625,20.75625 C9.6890625,20.75625 8.61679688,22.0816406 7.36523438,20.8195313 C7.36523438,20.8195313 6.84140625,20.3167969 7.14375,19.1953125 L8.353125,17.4726562 L6.71484375,15.2929687 L6.61289062,15.1769531 Z" id="路径" fill="#B6B5CA"></path>
                <path d="M21.2765625,23.6039062 C21.0832031,23.6039062 20.8863281,23.7585937 20.8441406,23.9449219 L19.1109375,31.1484375 C19.0652344,31.3347656 19.1882812,31.4894531 19.3816406,31.4894531 L32.2523437,31.4894531 C32.4457031,31.4894531 32.5652344,31.3347656 32.5195312,31.1484375 L30.7652344,23.9484375 C30.7195312,23.7621094 30.5226562,23.6074219 30.3292969,23.6074219 L21.2765625,23.6074219 L21.2765625,23.6039062 Z" id="路径" fill="#B6B5CA"></path>
                <path d="M25.8152344,17.971875 C24.13125,17.971875 22.7636719,19.3605469 22.7636719,21.0726563 C22.7636719,22.7847656 25.8152344,26.1105469 25.8152344,26.1105469 C25.8152344,26.1105469 28.8667969,22.7847656 28.8667969,21.0726563 C28.8667969,19.3605469 27.5027344,17.971875 25.8152344,17.971875 L25.8152344,17.971875 Z" id="路径" fill="#B6B5CA"></path>
                <path d="M25.8152344,21.8460938 C25.1824219,21.8460938 24.6691406,21.3257813 24.6691406,20.6824219 C24.6691406,20.0390625 25.1824219,19.51875 25.8152344,19.51875 C26.4480469,19.51875 26.9613281,20.0390625 26.9613281,20.6824219 C26.9613281,21.3257813 26.4480469,21.8460938 25.8152344,21.8460938 Z" id="路径" fill="#B6B5CA"></path>
            </g>
        </g>
    </g>
</svg>