<?xml version="1.0" encoding="UTF-8"?>
<svg width="28px" height="28px" viewBox="0 0 28 28" version="1.1" xmlns="http://www.w3.org/2000/svg" xmlns:xlink="http://www.w3.org/1999/xlink">
    <title>矩形</title>
    <defs>
        <filter x="-12.9%" y="-12.1%" width="125.7%" height="124.1%" filterUnits="objectBoundingBox" id="filter-1">
            <feGaussianBlur stdDeviation="1" in="SourceGraphic"></feGaussianBlur>
        </filter>
    </defs>
    <g id="修改" stroke="none" stroke-width="1" fill="none" fill-rule="evenodd">
        <g id="蓝色图标" transform="translate(-482.000000, -237.000000)" fill-rule="nonzero">
            <g id="院校备份-2" transform="translate(482.000000, 237.000000)">
                <rect id="矩形" fill="#B6B5CA" opacity="0" x="0" y="0" width="28" height="28"></rect>
                <path d="M25.4439051,9.81660713 L14.9226745,1.77906084 C14.7813748,1.63604184 14.5887467,1.55555556 14.3877585,1.55555556 C14.1867704,1.55555556 13.9941423,1.63604184 13.8528426,1.77906084 L3.3316119,9.81660713 C3.03761085,10.1135064 3.03761085,10.5919896 3.3316119,10.8888889 L25.4439051,10.8888889 C25.5864971,10.7469516 25.6666667,10.554 25.6666667,10.352748 C25.6666667,10.151496 25.5864971,9.95854444 25.4439051,9.81660713 L25.4439051,9.81660713 Z M13.9850271,8.55555556 C13.1279153,8.54728251 12.4389897,7.84721442 12.444477,6.99006659 C12.4499642,6.13291877 13.1477963,5.44172864 14.0049435,5.44444444 C14.8620906,5.44717629 15.5555158,6.14278754 15.5555556,6.99995292 C15.5537952,7.4145743 15.3872857,7.8114892 15.0927053,8.10326579 C14.7981249,8.39504238 14.3996396,8.55774484 13.9850271,8.55555556 L13.9850271,8.55555556 Z M6.12229581,12.4444444 L7.87770419,12.4444444 C8.25207116,12.4444444 8.55555556,12.7032694 8.55555556,13.0225463 L8.55555556,20.4218982 C8.55555556,20.5752203 8.48413928,20.7222628 8.35701749,20.8306779 C8.2298957,20.939093 8.05748155,21 7.87770419,21 L6.12229581,21 C5.94251845,21 5.7701043,20.939093 5.64298251,20.8306779 C5.51586072,20.7222628 5.44444444,20.5752203 5.44444444,20.4218982 L5.44444444,13.0225463 C5.44444444,12.7032694 5.74792884,12.4444444 6.12229581,12.4444444 Z M13.1234592,12.4444444 L14.8765439,12.4444444 C15.056629,12.4444444 15.2293383,12.5055742 15.3566776,12.6143859 C15.484017,12.7231975 15.5555556,12.8707778 15.5555556,13.0246607 L15.5555556,20.419781 C15.5555556,20.573664 15.484017,20.7212442 15.3566776,20.8300559 C15.2293383,20.9388676 15.056629,21 14.8765439,21 L13.1234592,21 C12.9432065,21.0004662 12.7701782,20.939487 12.6427197,20.8305736 C12.5152612,20.7216601 12.4438989,20.5738072 12.4444444,20.419781 L12.4444444,13.0352101 C12.4444444,12.7141917 12.7477868,12.4534112 13.1234592,12.4514774 L13.1234592,12.4444444 Z M20.1213129,12.4444444 L21.8745472,12.4444444 C22.2506577,12.4444444 22.5555556,12.7032694 22.5555556,13.0225463 L22.5555556,20.4218982 C22.5555556,20.5752203 22.4838067,20.7222628 22.3560928,20.8306779 C22.228379,20.939093 22.0551618,21 21.8745472,21 L20.1254528,21 C19.9448382,21 19.771621,20.939093 19.6439072,20.8306779 C19.5161933,20.7222628 19.4444444,20.5752203 19.4444444,20.4218982 L19.4444444,13.0225463 C19.4444444,12.8692241 19.5161933,12.7221817 19.6439072,12.6137665 C19.771621,12.5053514 19.9448382,12.4444444 20.1254528,12.4444444 L20.1213129,12.4444444 Z M2.62922048,24.8888889 L25.3707795,24.8888889 C25.5337813,24.8900256 25.6656757,25.0413306 25.6666667,25.2283207 L25.6666667,26.1050126 C25.6656757,26.2920028 25.5337813,26.4433077 25.3707795,26.4444444 L2.62922048,26.4444444 C2.46621874,26.4433077 2.33432425,26.2920028 2.33333333,26.1050126 L2.33333333,25.2283207 C2.33333333,25.0408577 2.46580652,24.8888889 2.62922048,24.8888889 L2.62922048,24.8888889 Z M4.18737162,21.7777778 L24.5904062,21.7777778 C24.7548378,21.7789145 24.8878893,21.9302195 24.8888889,22.1172096 L24.8888889,22.9939015 C24.8878893,23.1808917 24.7548378,23.3321966 24.5904062,23.3333333 L4.18737162,23.3333333 C4.02293999,23.3321966 3.8898885,23.1808917 3.88888889,22.9939015 L3.88888889,22.1172096 C3.88888889,21.9297466 4.02252416,21.7777778 4.18737162,21.7777778 L4.18737162,21.7777778 Z" id="形状" fill="#B6B5CA" filter="url(#filter-1)"></path>
                <path d="M26.2216829,10.5943849 L15.7004522,2.55683861 C15.5591525,2.41381962 15.3665244,2.33333333 15.1655363,2.33333333 C14.9645482,2.33333333 14.7719201,2.41381962 14.6306204,2.55683861 L4.10938968,10.5943849 C3.81538863,10.8912842 3.81538863,11.3697674 4.10938968,11.6666667 L26.2216829,11.6666667 C26.3642748,11.5247294 26.4444444,11.3317778 26.4444444,11.1305258 C26.4444444,10.9292738 26.3642748,10.7363222 26.2216829,10.5943849 L26.2216829,10.5943849 Z M14.7628049,9.33333333 C13.905693,9.32506029 13.2167675,8.6249922 13.2222548,7.76784437 C13.227742,6.91069655 13.925574,6.21950642 14.7827212,6.22222222 C15.6398684,6.22495407 16.3332936,6.92056531 16.3333333,7.7777307 C16.331573,8.19235208 16.1650634,8.58926697 15.8704831,8.88104357 C15.5759027,9.17282016 15.1774174,9.33552262 14.7628049,9.33333333 L14.7628049,9.33333333 Z M6.90007358,13.2222222 L8.65548197,13.2222222 C9.02984894,13.2222222 9.33333333,13.4810472 9.33333333,13.800324 L9.33333333,21.199676 C9.33333333,21.3529981 9.26191706,21.5000406 9.13479527,21.6084557 C9.00767348,21.7168708 8.83525933,21.7777778 8.65548197,21.7777778 L6.90007358,21.7777778 C6.72029623,21.7777778 6.54788208,21.7168708 6.42076029,21.6084557 C6.2936385,21.5000406 6.22222222,21.3529981 6.22222222,21.199676 L6.22222222,13.800324 C6.22222222,13.4810472 6.52570661,13.2222222 6.90007358,13.2222222 Z M13.901237,13.2222222 L15.6543217,13.2222222 C15.8344068,13.2222222 16.007116,13.283352 16.1344554,13.3921636 C16.2617948,13.5009753 16.3333333,13.6485556 16.3333333,13.8024385 L16.3333333,21.1975588 C16.3333333,21.3514417 16.2617948,21.499022 16.1344554,21.6078337 C16.007116,21.7166453 15.8344068,21.7777778 15.6543217,21.7777778 L13.901237,21.7777778 C13.7209843,21.778244 13.547956,21.7172648 13.4204975,21.6083513 C13.2930389,21.4994379 13.2216766,21.351585 13.2222222,21.1975588 L13.2222222,13.8129879 C13.2222222,13.4919695 13.5255645,13.231189 13.901237,13.2292551 L13.901237,13.2222222 Z M20.8990907,13.2222222 L22.652325,13.2222222 C23.0284355,13.2222222 23.3333333,13.4810472 23.3333333,13.800324 L23.3333333,21.199676 C23.3333333,21.3529981 23.2615844,21.5000406 23.1338706,21.6084557 C23.0061568,21.7168708 22.8329396,21.7777778 22.652325,21.7777778 L20.9032306,21.7777778 C20.7226159,21.7777778 20.5493988,21.7168708 20.421685,21.6084557 C20.2939711,21.5000406 20.2222222,21.3529981 20.2222222,21.199676 L20.2222222,13.800324 C20.2222222,13.6470019 20.2939711,13.4999594 20.421685,13.3915443 C20.5493988,13.2831292 20.7226159,13.2222222 20.9032306,13.2222222 L20.8990907,13.2222222 Z M3.40699825,25.6666667 L26.1485573,25.6666667 C26.311559,25.6678034 26.4434535,25.8191083 26.4444444,26.0060985 L26.4444444,26.8827904 C26.4434535,27.0697805 26.311559,27.2210855 26.1485573,27.2222222 L3.40699825,27.2222222 C3.24399651,27.2210855 3.11210203,27.0697805 3.11111111,26.8827904 L3.11111111,26.0060985 C3.11111111,25.8186355 3.2435843,25.6666667 3.40699825,25.6666667 L3.40699825,25.6666667 Z M4.9651494,22.5555556 L25.3681839,22.5555556 C25.5326156,22.5566923 25.6656671,22.7079972 25.6666667,22.8949874 L25.6666667,23.7716793 C25.6656671,23.9586694 25.5326156,24.1099744 25.3681839,24.1111111 L4.9651494,24.1111111 C4.80071777,24.1099744 4.66766628,23.9586694 4.66666667,23.7716793 L4.66666667,22.8949874 C4.66666667,22.7075244 4.80030194,22.5555556 4.9651494,22.5555556 L4.9651494,22.5555556 Z" id="形状" fill="#416DFD"></path>
            </g>
        </g>
    </g>
</svg>