<?xml version="1.0" encoding="UTF-8"?>
<svg width="36px" height="36px" viewBox="0 0 36 36" version="1.1" xmlns="http://www.w3.org/2000/svg" xmlns:xlink="http://www.w3.org/1999/xlink">
    <title>矩形</title>
    <g id="修改" stroke="none" stroke-width="1" fill="none" fill-rule="evenodd">
        <g id="管理员后台" transform="translate(-1507.000000, -233.000000)" fill="#B6B5CA" fill-rule="nonzero">
            <g id="院校" transform="translate(1507.000000, 233.000000)">
                <rect id="矩形" opacity="0" x="0" y="0" width="36" height="36"></rect>
                <path d="M33.5700037,11.6373547 L18.7520463,0.32397409 C18.5530417,0.122665346 18.2817469,0.0093755505 17.998678,0.0093755505 C17.715609,0.0093755505 17.4443143,0.122665346 17.2453097,0.32397409 L2.42735224,11.6373547 C2.01328518,12.0552602 2.01328518,12.7287571 2.42735224,13.1466626 L33.5700037,13.1466626 C33.7708283,12.9468764 33.883738,12.6752842 33.883738,12.3920086 C33.883738,12.1087331 33.7708283,11.8371409 33.5700037,11.6373547 L33.5700037,11.6373547 Z M17.998678,10.2617849 C16.6740211,10.2489992 15.6092944,9.1670692 15.6177749,7.84237814 C15.6262553,6.51768707 16.704747,5.44947765 18.0294585,5.45367483 C19.35417,5.4578968 20.425851,6.5329389 20.4259124,7.85765711 C20.4231918,8.4984395 20.1658531,9.11185716 19.7105824,9.56278737 C19.2553117,10.0137176 18.639457,10.2651684 17.998678,10.2617849 L17.998678,10.2617849 Z M7.50551745,15.378484 L9.69619932,15.378484 C10.1633948,15.378484 10.5421316,15.7572208 10.5421316,16.2244163 L10.5421316,27.0518359 C10.5421316,27.2761911 10.4530069,27.4913572 10.2943638,27.6500003 C10.1357207,27.8086434 9.92055453,27.8977682 9.69619932,27.8977682 L7.50551745,27.8977682 C7.28116224,27.8977682 7.06599605,27.8086434 6.90735296,27.6500003 C6.74870988,27.4913572 6.65958512,27.2761911 6.65958512,27.0518359 L6.65958512,16.2244163 C6.65958512,15.7572208 7.03832192,15.378484 7.50551745,15.378484 Z M16.903337,15.378484 L19.0940189,15.378484 C19.3190561,15.378484 19.5348763,15.4678797 19.6940016,15.6270049 C19.8531268,15.7861302 19.9425225,16.0019504 19.9425225,16.2269876 L19.9425225,27.041551 C19.9425225,27.2665881 19.8531268,27.4824083 19.6940016,27.6415336 C19.5348763,27.8006589 19.3190561,27.8900584 19.0940189,27.8900584 L16.903337,27.8900584 C16.6780904,27.8907402 16.4618716,27.8015647 16.3025974,27.6422906 C16.1433232,27.4830164 16.0541478,27.2667976 16.0548296,27.041551 L16.0548296,16.2424149 C16.0548296,15.7729602 16.4338909,15.3915969 16.903337,15.3887689 L16.903337,15.378484 Z M26.3140128,15.378484 L28.4918385,15.378484 C28.959034,15.378484 29.3377708,15.7572208 29.3377708,16.2244163 L29.3377708,27.0518359 C29.3377708,27.2761911 29.2486461,27.4913572 29.090003,27.6500003 C28.9313599,27.8086434 28.7161937,27.8977682 28.4918385,27.8977682 L26.3191552,27.8977682 C26.0948,27.8977682 25.8796338,27.8086434 25.7209907,27.6500003 C25.5623476,27.4913572 25.4732229,27.2761911 25.4732229,27.0518359 L25.4732229,16.2244163 C25.4732229,16.0000611 25.5623476,15.7848949 25.7209907,15.6262518 C25.8796338,15.4676088 26.0948,15.378484 26.3191552,15.378484 L26.3140128,15.378484 Z M1.89253789,34.0764167 L34.1048181,34.0764167 C34.3357019,34.0778203 34.5225238,34.2646423 34.5239274,34.4955261 L34.5239274,35.5780109 C34.5225238,35.8088947 34.3357019,35.9957167 34.1048181,35.9971202 L1.89253789,35.9971202 C1.66165409,35.9957167 1.47483215,35.8088947 1.47342857,35.5780109 L1.47342857,34.4955261 C1.47342857,34.2640584 1.6610702,34.0764167 1.89253789,34.0764167 L1.89253789,34.0764167 Z M3.67696656,29.7850458 L32.3255318,29.7850458 C32.5564156,29.7864494 32.7432376,29.9732713 32.7446411,30.2041551 L32.7446411,31.2866399 C32.7432376,31.5175237 32.5564156,31.7043457 32.3255318,31.7057492 L3.67696656,31.7057492 C3.44608275,31.7043457 3.25926082,31.5175237 3.25785723,31.2866399 L3.25785723,30.2041551 C3.25785723,29.9726874 3.44549887,29.7850458 3.67696656,29.7850458 L3.67696656,29.7850458 Z" id="形状"></path>
            </g>
        </g>
    </g>
</svg>