<?xml version="1.0" encoding="UTF-8"?>
<svg width="36px" height="36px" viewBox="0 0 36 36" version="1.1" xmlns="http://www.w3.org/2000/svg" xmlns:xlink="http://www.w3.org/1999/xlink">
    <title>矩形</title>
    <g id="修改" stroke="none" stroke-width="1" fill="none" fill-rule="evenodd">
        <g id="管理员后台" transform="translate(-778.000000, -233.000000)" fill-rule="nonzero">
            <g id="认证用户" transform="translate(778.000000, 233.000000)">
                <rect id="矩形" fill="#000000" opacity="0" x="0" y="0" width="36" height="36"></rect>
                <path d="M20.3875526,15.0368893 C19.4238632,15.4277168 18.5404813,15.9488202 17.7374069,16.6001994 C16.9343324,17.2515786 16.2399092,17.996012 15.6541372,18.8334995 C15.0683653,19.670987 14.6148644,20.5875706 14.2936346,21.5832502 C13.9724048,22.5789299 13.8117899,23.6257893 13.8117899,24.7238285 C13.8117899,25.6915919 13.939337,26.6174809 14.1944313,27.5014955 C14.4495255,28.3855101 14.8038231,29.218345 15.2573239,30 L14.4920412,30 C13.944061,30 13.3063254,29.9813892 12.5788344,29.9441675 C11.8513434,29.9069458 11.1002326,29.8557661 10.325502,29.7906281 C9.5507713,29.7254902 8.78076462,29.6510468 8.0154819,29.5672981 C7.25019918,29.4835493 6.55577597,29.3951479 5.93221227,29.3020937 C5.30864857,29.2090395 4.77956421,29.1159853 4.34495921,29.0229312 C3.91035421,28.929877 3.6363641,28.8368228 3.52298888,28.7437687 C3.31513431,28.594882 3.15924339,28.1342638 3.05531612,27.3619142 C2.95138886,26.5895646 2.99390456,25.5985377 3.18286324,24.3888335 C3.25844672,23.9235626 3.41433764,23.5420405 3.650536,23.2442672 C3.88673436,22.9464938 4.17489637,22.6905949 4.51502203,22.4765703 C4.8551477,22.2625457 5.23306509,22.0903954 5.64877422,21.9601196 C6.06448335,21.8298438 6.48964041,21.7042206 6.92424542,21.5832502 C7.35885042,21.4622798 7.77928352,21.332004 8.18554472,21.1924227 C8.59180592,21.0528414 8.96499934,20.8806912 9.30512499,20.675972 C9.70193824,20.4340312 10.0089961,20.1967431 10.2262986,19.9641076 C10.4436011,19.7314722 10.599492,19.5034895 10.6939714,19.2801595 C10.7884507,19.0568295 10.8356904,18.824194 10.8356904,18.5822532 C10.8356904,18.3403123 10.8262424,18.0704552 10.8073466,17.7726819 C10.7695548,17.3446327 10.6183879,17.004985 10.3538457,16.7537387 C10.0893035,16.5024925 9.79641755,16.2465935 9.47518778,15.9860418 C9.32402081,15.855766 9.18702576,15.6743104 9.06420262,15.4416749 C8.94137947,15.2090395 8.83272822,14.9717514 8.73824886,14.7298105 C8.64376952,14.450648 8.54929018,14.1621801 8.45481082,13.8644067 C8.32253973,13.8271851 8.19026863,13.7620472 8.05799754,13.668993 C7.94462233,13.5759388 7.82179918,13.445663 7.68952809,13.2781655 C7.557257,13.1106679 7.44388178,12.8687271 7.34940244,12.5523429 C7.2549231,12.2359588 7.21713136,11.9474908 7.23602722,11.6869391 C7.25492307,11.4263875 7.31161068,11.193752 7.40609004,10.9890329 C7.48167352,10.7843137 7.60449667,10.5888999 7.7745595,10.4027916 C7.7745595,9.69557991 7.81235124,8.98836822 7.88793472,8.28115652 C7.96351821,7.68560983 8.0957893,7.04353605 8.28474799,6.35493518 C8.47370669,5.6663343 8.76659267,5.05217677 9.16340592,4.51246258 C9.54132331,3.99135923 9.94758451,3.56796276 10.3821895,3.24227316 C10.8167945,2.91658356 11.2702954,2.66068459 11.7426921,2.47457625 C12.2150889,2.28846791 12.6827616,2.16284478 13.1457104,2.09770687 C13.6086592,2.03256896 14.0574362,2 14.4920412,2 C15.0400214,2 15.5832776,2.06048521 16.1218099,2.18145562 C16.6603422,2.30242603 17.1658067,2.46527083 17.6382035,2.66999001 C18.1106002,2.8747092 18.5310333,3.10734462 18.8995028,3.36789629 C19.2679722,3.62844795 19.5561342,3.88899963 19.7639888,4.14955131 C20.2552814,4.745098 20.6143029,5.40112991 20.8410534,6.11764704 C21.0678038,6.83416416 21.2284187,7.51811232 21.322898,8.16949151 C21.4173774,8.91392489 21.464617,9.66766367 21.464617,10.4307079 C21.5968881,10.523762 21.7008154,10.6447324 21.7763989,10.7936191 C21.8519824,10.923895 21.913394,11.0913925 21.9606336,11.2961116 C22.0078733,11.5008308 22.0125972,11.7520771 21.9748055,12.0498504 C21.9370138,12.4592888 21.8567063,12.7803257 21.7338832,13.0129611 C21.61106,13.2455965 21.474065,13.4270522 21.322898,13.557328 C21.1528352,13.7062147 20.9733244,13.8085743 20.7843657,13.8644068 C20.746574,13.9760718 20.7087823,14.0970422 20.6709905,14.227318 L20.5292715,14.6181456 C20.4914798,14.7484214 20.4442401,14.8880027 20.3875525,15.0368893 L20.3875526,15.0368893 Z M24.0142631,16 C25.2503962,16 26.4152139,16.2377179 27.5087163,16.7131537 C28.6022187,17.1885895 29.5530903,17.8351822 30.3613312,18.6529318 C31.1695721,19.4706815 31.8114105,20.4263074 32.2868463,21.5198098 C32.7622821,22.6133122 33,23.7781299 33,25.0142631 C33,26.2503962 32.7622821,27.415214 32.2868463,28.5087163 C31.8114105,29.6022187 31.1695721,30.5578447 30.3613312,31.3755943 C29.5530903,32.1933439 28.6022187,32.8351822 27.5087163,33.3011093 C26.415214,33.7670364 25.2503962,34 24.0142631,34 C22.7591125,34 21.584786,33.7670364 20.4912837,33.3011093 C19.3977813,32.8351822 18.4469097,32.1933439 17.6386688,31.3755943 C16.8304279,30.5578447 16.1885895,29.6022187 15.7131537,28.5087163 C15.2377179,27.415214 15,26.2503962 15,25.0142631 C15,23.7781299 15.2377179,22.6133122 15.7131537,21.5198098 C16.1885895,20.4263074 16.8304279,19.4706815 17.6386688,18.6529318 C18.4469097,17.8351822 19.3977813,17.1885895 20.4912837,16.7131537 C21.584786,16.2377179 22.7591125,16 24.0142631,16 Z M28.9447508,23.7295797 C29.0521798,23.3679466 29.0029415,23.0379565 28.7970361,22.7396092 C28.5911306,22.4412619 28.3180821,22.2288025 27.9778905,22.1022309 C27.6376989,21.9756593 27.2975073,21.9666185 26.9573157,22.0751084 C26.6171241,22.1835983 26.3664566,22.463864 26.2053132,22.9159053 C26.1157891,23.2232934 26.0307412,23.5080795 25.9501695,23.7702635 C25.8695978,24.0324474 25.7890261,24.3081927 25.7084544,24.5974991 C25.6278827,24.8868056 25.5294062,25.1987141 25.4130249,25.5332247 C25.2966435,25.8677353 25.1489287,26.2519705 24.9698805,26.6859301 C24.7908323,27.1560531 24.5356886,27.3775534 24.2044494,27.3504309 C23.8732102,27.3233084 23.6180665,27.1289307 23.4390183,26.7672976 C23.2420653,26.4056645 23.0585409,26.0169089 22.8884451,25.6010309 C22.7183493,25.1851528 22.5527297,24.7783156 22.3915863,24.3805193 C22.2304429,23.9827229 22.0872043,23.6210898 21.9618706,23.29562 C21.8365368,22.9701502 21.7291079,22.7079662 21.6395838,22.5090681 C21.4963452,22.2197616 21.2591063,22.0570267 20.9278672,22.0208634 C20.596628,21.9847001 20.2743412,22.0344247 19.9610068,22.1700371 C19.6476724,22.3056495 19.3880525,22.5181089 19.1821471,22.8074154 C18.9762417,23.0967218 18.9449082,23.4131508 19.0881468,23.7567022 C19.2134806,24.1183353 19.3567191,24.5251725 19.5178625,24.9772138 C19.6790059,25.4292552 19.8491017,25.8903373 20.0281499,26.3604603 C20.2071981,26.8305833 20.3772939,27.2916655 20.5384373,27.7437069 C20.6995807,28.1957482 20.8428193,28.5845038 20.968153,28.9099735 C21.2367253,29.5970764 21.64406,30.1124035 22.190157,30.4559549 C22.7362541,30.7995064 23.3092084,30.9803229 23.9090199,30.9984046 C24.5088314,31.0164862 25.0817857,30.8808738 25.6278827,30.5915674 C26.1739797,30.3022609 26.572362,29.8683012 26.8230295,29.2896883 C27.0199826,28.8195653 27.2214118,28.3268402 27.4273172,27.8115131 C27.6332227,27.2961859 27.8301757,26.79442 28.0181763,26.3062154 C28.206177,25.8180107 28.380749,25.3478877 28.5418923,24.8958464 C28.7030357,24.443805 28.8373219,24.0550495 28.9447508,23.7295797 L28.9447508,23.7295797 Z" id="形状" fill="#B6B5CA"></path>
            </g>
        </g>
    </g>
</svg>