<?xml version="1.0" encoding="UTF-8"?>
<svg width="36px" height="36px" viewBox="0 0 36 36" version="1.1" xmlns="http://www.w3.org/2000/svg" xmlns:xlink="http://www.w3.org/1999/xlink">
    <title>矩形</title>
    <g id="修改" stroke="none" stroke-width="1" fill="none" fill-rule="evenodd">
        <g id="管理员后台" transform="translate(-1215.000000, -233.000000)" fill-rule="nonzero">
            <g id="专家咨询" transform="translate(1215.000000, 233.000000)">
                <rect id="矩形" fill="#000000" opacity="0" x="0" y="0" width="36" height="36"></rect>
                <path d="M8.02844958,13.3734946 C8.02844958,12.637027 8.42818201,11.9665565 9.05515446,11.6410708 L17.3190412,6.85178132 L17.4015375,6.80828323 C17.8965158,6.57054369 18.4664907,6.5720436 19.0372157,6.85478116 L27.3048522,11.6748193 C27.9573235,11.9928053 28.3735553,12.6767753 28.3735553,13.4267423 L28.3885546,23.0210705 C28.3885546,23.760538 27.9850723,24.4355084 27.3888485,24.738495 L18.8752228,29.494786 C18.4068427,29.7353041 17.8560249,29.7561726 17.3707889,29.5517835 L17.2590438,29.4977858 L3.48889915,21.9576173 C2.82817818,21.645631 2.39844705,20.9556613 2.39844705,20.1884451 L2.43219558,9.82990041 C2.43219558,9.07693351 2.85067719,8.39221362 3.43190166,8.1124759 L17.3107915,0.177824672 C17.8065197,-0.0636646992 18.3787446,-0.0636646992 18.9494695,0.217572926 L32.5763705,8.07497754 C33.2288418,8.39221358 33.6465734,9.07693351 33.6465734,9.82990041 L33.6465734,25.7337013 C33.6465734,26.4784186 33.2370914,27.1563887 32.6521172,27.4481259 L18.870723,35.3077804 C18.3977344,35.5465038 17.842999,35.5621727 17.3572895,35.3505285 L17.2567939,35.3010307 L8.90441107,30.7037328 L5.37956603,33.8550943 C4.63859859,34.590062 3.46715009,34.5600633 2.76218107,33.7875973 C2.43117575,33.4210777 2.24879451,32.9442658 2.25068871,32.450406 L2.25068871,26.512917 C2.25068871,25.8049482 2.79892944,25.2319733 3.47539971,25.2319733 C4.15186998,25.2319733 4.70009588,25.8049481 4.70009588,26.512917 L4.70009588,31.0952156 L7.54997063,28.5468276 C8.07013863,28.0216796 8.85924368,27.8695163 9.53738325,28.1635945 L9.63712888,28.2123423 L18.0660084,32.8516384 L31.1979311,25.3624676 L31.1979311,10.2011341 L18.0937571,2.64671617 L4.88008796,10.2011341 L4.84858937,19.8104617 L8.02844958,21.5511351 L8.02844958,13.3734946 Z M11.0770656,19.4819761 L12.7487421,19.4819761 L15.3331285,22.7720815 C15.5798301,23.0937073 15.9477834,23.2999138 16.3508907,23.3424506 C16.7539979,23.3849875 17.1568867,23.260122 17.4652848,22.9970716 C17.709774,22.7908306 17.8852663,22.511093 17.9692626,22.1953568 L19.5891914,16.0853754 L21.623852,19.4827261 L24.9777045,19.4827261 C25.5829279,19.4827261 26.0734064,18.9727485 26.0734064,18.3457761 C26.0734064,17.7173037 25.5829279,17.208826 24.9784545,17.208826 L22.8417984,17.208826 L20.6346454,13.523488 C20.4373738,13.1904745 20.1206683,12.9451015 19.7489344,12.8372682 C18.9419698,12.6070283 18.1080065,13.0997566 17.8860163,13.9367199 L16.2038402,20.281441 L13.7889464,17.208826 L11.0778156,17.208826 C10.4725922,17.208826 9.98211371,17.7173037 9.98211371,18.3457761 C9.98211371,18.9734985 10.4725922,19.4819761 11.0770656,19.4819761 L11.0770656,19.4819761 Z" id="形状" fill="#B6B5CA"></path>
            </g>
        </g>
    </g>
</svg>