<?xml version="1.0" encoding="UTF-8"?>
<svg width="28px" height="28px" viewBox="0 0 28 28" version="1.1" xmlns="http://www.w3.org/2000/svg" xmlns:xlink="http://www.w3.org/1999/xlink">
    <title>矩形</title>
    <defs>
        <filter x="-13.8%" y="-12.1%" width="127.6%" height="124.1%" filterUnits="objectBoundingBox" id="filter-1">
            <feGaussianBlur stdDeviation="1" in="SourceGraphic"></feGaussianBlur>
        </filter>
    </defs>
    <g id="修改" stroke="none" stroke-width="1" fill="none" fill-rule="evenodd">
        <g id="蓝色图标" transform="translate(-1157.000000, -163.000000)" fill-rule="nonzero">
            <g id="专家咨询备份" transform="translate(1157.000000, 163.000000)">
                <rect id="矩形" fill="#000000" opacity="0" x="0" y="0" width="28" height="28"></rect>
                <path d="M7.11885905,10.9313729 C7.11885905,10.4150004 7.39613373,9.94490158 7.83103362,9.71668806 L13.5632845,6.35868923 L13.6205082,6.32819065 C13.9638502,6.16150014 14.3592137,6.1625518 14.7550975,6.36079256 L20.4899495,9.74035075 C20.9425366,9.9633059 21.2312561,10.4428698 21.2312561,10.9687074 L21.2416604,17.6957476 C21.2416604,18.2142235 20.9617846,18.6874773 20.5482135,18.8999157 L14.642731,22.2347777 C14.3178388,22.4034164 13.9357637,22.4180483 13.5991794,22.2747413 L13.5216673,22.236881 L3.96999666,16.9501099 C3.51168709,16.7313615 3.21360379,16.2475909 3.21360379,15.7096591 L3.23701348,8.44679029 C3.23701348,7.91884936 3.52729355,7.43875964 3.93046031,7.24262221 L13.5575621,1.67926052 C13.9014244,1.50994082 14.2983485,1.50994082 14.6942323,1.70712991 L24.1465419,7.21633033 C24.5991291,7.43875962 24.8888889,7.91884936 24.8888889,8.44679029 L24.8888889,19.5977022 C24.8888889,20.1198589 24.6048514,20.5952161 24.1990836,20.7997669 L14.6396097,26.3105448 C14.3115209,26.4779251 13.9267282,26.4889114 13.5898155,26.3405176 L13.5201067,26.3058123 L7.72647036,23.0824279 L5.28145909,25.2919974 C4.7674865,25.8073183 3.95491041,25.7862848 3.46590815,25.244672 C3.23630608,24.9876877 3.1097972,24.6533722 3.11111111,24.3071036 L3.11111111,20.1440474 C3.11111111,19.6476568 3.49139868,19.2459168 3.96063277,19.2459168 C4.42986685,19.2459168 4.81014413,19.6476567 4.81014413,20.1440474 L4.81014413,23.3569151 L6.78696178,21.570119 C7.14777669,21.2019127 7.69513997,21.0952237 8.16553196,21.3014159 L8.23472059,21.3355954 L14.0814188,24.5884267 L23.1903864,19.3374126 L23.1903864,8.70707988 L14.1006668,3.41031787 L4.93499577,8.70707988 L4.91314675,15.4446369 L7.11885905,16.6651059 L7.11885905,10.9313729 Z M9.29650342,15.0421996 L10.4277177,15.0421996 L12.1765577,17.4631804 C12.3434993,17.6998445 12.5924913,17.8515789 12.8652718,17.882879 C13.1380522,17.9141792 13.4106848,17.8222986 13.6193761,17.6287364 C13.7848206,17.4769767 13.9035753,17.2711354 13.9604151,17.0388051 L15.056612,12.5428556 L16.4334555,15.0427514 L18.7029891,15.0427514 C19.1125404,15.0427514 19.4444444,14.6674911 19.4444444,14.2061417 C19.4444444,13.7436886 19.1125404,13.369532 18.7034966,13.369532 L17.2576332,13.369532 L15.764065,10.6577245 C15.6305723,10.4126808 15.4162595,10.2321264 15.1647092,10.1527786 C14.6186407,9.98335966 14.0543023,10.3459273 13.9040828,10.9617957 L12.7657635,15.6304753 L11.1316182,13.369532 L9.29701094,13.369532 C8.88745961,13.369532 8.55555556,13.7436886 8.55555556,14.2061417 C8.55555556,14.668043 8.88745961,15.0421996 9.29650342,15.0421996 L9.29650342,15.0421996 Z" id="形状" fill="#B6B5CA" filter="url(#filter-1)"></path>
                <path d="M7.89663682,11.7091507 C7.89663682,11.1927782 8.17391151,10.7226794 8.6088114,10.4944658 L14.3410623,7.13646701 L14.398286,7.10596842 C14.741628,6.93927792 15.1369915,6.94032957 15.5328752,7.13857034 L21.2677272,10.5181285 C21.7203144,10.7410837 22.0090338,11.2206476 22.0090338,11.7464851 L22.0194382,18.4735254 C22.0194382,18.9920013 21.7395624,19.4652551 21.3259913,19.6776935 L15.4205088,23.0125555 C15.0956166,23.1811942 14.7135415,23.1958261 14.3769571,23.0525191 L14.2994451,23.0146588 L4.74777444,17.7278877 C4.28946487,17.5091393 3.99138157,17.0253687 3.99138157,16.4874368 L4.01479126,9.22456807 C4.01479126,8.69662714 4.30507133,8.21653742 4.70823809,8.02039999 L14.3353399,2.4570383 C14.6792021,2.2877186 15.0761263,2.2877186 15.4720101,2.48490769 L24.9243196,7.99410811 C25.3769068,8.2165374 25.6666667,8.69662714 25.6666667,9.22456807 L25.6666667,20.37548 C25.6666667,20.8976367 25.3826292,21.3729939 24.9768614,21.5775447 L15.4173875,27.0883226 C15.0892987,27.2557029 14.704506,27.2666891 14.3675933,27.1182953 L14.2978844,27.0835901 L8.50424814,23.8602056 L6.05923687,26.0697752 C5.54526428,26.585096 4.73268819,26.5640625 4.24368593,26.0224498 C4.01408386,25.7654655 3.88757497,25.43115 3.88888889,25.0848814 L3.88888889,20.9218252 C3.88888889,20.4254345 4.26917646,20.0236946 4.73841055,20.0236946 C5.20764463,20.0236946 5.58792191,20.4254345 5.58792191,20.9218252 L5.58792191,24.1346929 L7.56473956,22.3478968 C7.92555447,21.9796904 8.47291775,21.8730015 8.94330974,22.0791937 L9.01249837,22.1133732 L14.8591966,25.3662045 L23.9681642,20.1151903 L23.9681642,9.48485766 L14.8784446,4.18809565 L5.71277355,9.48485766 L5.69092453,16.2224147 L7.89663682,17.4428837 L7.89663682,11.7091507 Z M10.0742812,15.8199774 L11.2054955,15.8199774 L12.9543355,18.2409581 C13.1212771,18.4776223 13.3702691,18.6293567 13.6430495,18.6606568 C13.91583,18.691957 14.1884626,18.6000764 14.3971539,18.4065142 C14.5625984,18.2547545 14.6813531,18.0489132 14.7381929,17.8165829 L15.8343897,13.3206334 L17.2112333,15.8205292 L19.4807668,15.8205292 C19.8903182,15.8205292 20.2222222,15.4452689 20.2222222,14.9839195 C20.2222222,14.5214664 19.8903182,14.1473098 19.4812743,14.1473098 L18.035411,14.1473098 L16.5418427,11.4355023 C16.4083501,11.1904586 16.1940373,11.0099041 15.942487,10.9305564 C15.3964185,10.7611374 14.8320801,11.1237051 14.6818605,11.7395735 L13.5435413,16.4082531 L11.909396,14.1473098 L10.0747887,14.1473098 C9.66523739,14.1473098 9.33333333,14.5214664 9.33333333,14.9839195 C9.33333333,15.4458208 9.66523739,15.8199774 10.0742812,15.8199774 L10.0742812,15.8199774 Z" id="形状" fill="#416DFD"></path>
            </g>
        </g>
    </g>
</svg>