<?xml version="1.0" encoding="UTF-8"?>
<svg width="36px" height="36px" viewBox="0 0 36 36" version="1.1" xmlns="http://www.w3.org/2000/svg" xmlns:xlink="http://www.w3.org/1999/xlink">
    <title>矩形</title>
    <g id="修改" stroke="none" stroke-width="1" fill="none" fill-rule="evenodd">
        <g id="管理员后台" transform="translate(-1215.000000, -342.000000)" fill-rule="nonzero">
            <g id="咨询" transform="translate(1215.000000, 342.000000)">
                <rect id="矩形" fill="#000000" opacity="0" x="0" y="0" width="36" height="36"></rect>
                <path d="M31.0615563,19.7605024 C31.0688953,19.4633439 31.0697587,19.1610408 31.0635709,18.8580542 C31.1444081,14.7590294 29.9245832,11.3036441 27.5352631,8.86478569 C26.3956278,7.70176621 25.0096315,6.80910346 23.4213803,6.20097177 C23.1749474,3.98674501 20.7702658,2.24354689 17.8493702,2.24354689 C14.9286544,2.24354689 12.5240807,3.98674501 12.2775399,6.20097177 C10.6894686,6.80906749 9.30358023,7.70176624 8.16412479,8.86478569 C5.77412114,11.303752 4.55372058,14.752158 4.63513338,18.8388792 C4.62797423,19.2250774 4.63034862,19.5876396 4.6423285,19.9419634 C4.02304437,20.5653127 3.53791329,21.5066865 3.89241693,22.8277108 C4.15593826,23.8095211 4.88217786,24.5449705 5.77332967,24.8669882 C6.22619061,25.1461589 6.75809002,25.3088046 7.32711621,25.3125821 C8.4634418,30.28031 12.5880093,33.6527715 17.9739896,33.6527715 C23.3501126,33.6527715 27.4757234,30.2718557 28.6054295,25.3012498 C28.6401819,25.3088047 28.6764094,25.3131577 28.7133923,25.3131577 C29.4229392,25.3131577 30.0756087,25.0652858 30.5904197,24.6526815 C31.2632715,24.2708724 31.7895947,23.6319096 32.0053404,22.8277468 C32.3962154,21.3715981 31.7666062,20.3764408 31.0615563,19.7605024 L31.0615563,19.7605024 L31.0615563,19.7605024 M13.1497325,13.8340965 C13.2353544,13.9772434 15.2880147,17.3617927 19.1552128,18.8288421 C20.2222133,19.2336756 21.3153322,19.4651786 22.3725834,19.6889109 C24.4930937,20.1381383 26.4964314,20.5624347 27.8612381,22.3343773 C27.8754484,22.3527968 27.8913137,22.3698852 27.9076106,22.3858943 C27.9054161,22.4752578 27.9054161,22.4754376 27.9054161,22.4754376 C27.9054161,23.1360217 27.8555899,23.774373 27.7593911,24.387865 C26.0048247,27.1911923 23.0936065,29.0282868 19.4871597,29.4240185 C19.2184219,29.0691551 18.6709091,28.8246289 18.0349323,28.8246289 C17.1330957,28.8246289 16.401172,29.3128898 16.401172,29.9135745 C16.401172,30.5156983 17.1330958,31.002808 18.0349323,31.002808 C18.8434121,31.002808 19.5094286,30.6094507 19.6390127,30.0948916 C20.8021042,29.9612422 21.9111962,29.6834026 22.9508913,29.2634593 C24.4360363,28.6637459 25.744865,27.7900063 26.8404302,26.6664161 C27.0158832,26.4868978 27.1842491,26.3008679 27.3470747,26.1100173 C26.041268,30.0871208 22.5505187,32.6437275 17.9932366,32.6441232 L17.9932366,32.6441232 C17.9850341,32.6436915 17.9626573,32.6436915 17.9545268,32.6436915 C12.1070514,32.6436915 8.02302838,28.4623544 8.02302838,22.46594 L8.01205583,21.8953309 C8.00486072,21.6508046 8.04270705,20.9639583 8.08346742,20.3052809 C11.2712301,19.1775175 12.5948447,15.9373024 12.6527655,15.7916731 L13.1497325,13.8340965 L13.1497325,13.8340965 M15.2522909,22.920348 C15.2522909,23.9643961 14.4057849,24.8109382 13.3617367,24.8109382 C12.3176886,24.8109382 11.4712545,23.9643961 11.4712545,22.920348 C11.4712545,21.8763358 12.3177246,21.0299017 13.3617367,21.0299017 C14.4058209,21.0299017 15.2522909,21.8764078 15.2522909,22.920348 L15.2522909,22.920348 M24.0556662,22.920348 C24.0556662,23.9478114 23.2228669,24.7807906 22.1953675,24.7807906 C21.168048,24.7807906 20.3352487,23.9477754 20.3352487,22.920348 C20.3352487,21.8929925 21.16812,21.0600853 22.1953675,21.0600853 C23.2228669,21.0600853 24.0556662,21.8930285 24.0556662,22.920348 L24.0556662,22.920348" id="形状" fill="#B6B5CA"></path>
            </g>
        </g>
    </g>
</svg>