<?xml version="1.0" encoding="UTF-8"?>
<svg width="28px" height="28px" viewBox="0 0 28 28" version="1.1" xmlns="http://www.w3.org/2000/svg" xmlns:xlink="http://www.w3.org/1999/xlink">
    <title>矩形</title>
    <defs>
        <filter x="-13.6%" y="-12.3%" width="127.2%" height="124.6%" filterUnits="objectBoundingBox" id="filter-1">
            <feGaussianBlur stdDeviation="1" in="SourceGraphic"></feGaussianBlur>
        </filter>
    </defs>
    <g id="修改" stroke="none" stroke-width="1" fill="none" fill-rule="evenodd">
        <g id="蓝色图标" transform="translate(-754.000000, -310.000000)" fill-rule="nonzero">
            <g id="咨询备份-2" transform="translate(754.000000, 310.000000)">
                <rect id="矩形" fill="#000000" opacity="0" x="0" y="0" width="28" height="28"></rect>
                <path d="M24.1589882,15.3692796 C24.1646963,15.1381563 24.1653679,14.9030317 24.1605552,14.6673755 C24.2234285,11.4792451 23.2746758,8.7917232 21.4163158,6.89483331 C20.5299327,5.99026261 19.4519356,5.29596936 18.2166292,4.82297804 C18.0249591,3.10080168 16.1546512,1.74498092 13.8828435,1.74498092 C11.6111757,1.74498092 9.74095166,3.10080168 9.54919768,4.82297804 C8.31403111,5.29594138 7.23611796,5.99026263 6.34987484,6.89483331 C4.49098311,8.79180714 3.54178267,11.4739007 3.60510374,14.6524616 C3.59953552,14.952838 3.60138226,15.2348308 3.61069994,15.5104159 C3.12903451,15.9952432 2.75171034,16.7274228 3.02743539,17.7548862 C3.23239643,18.5185164 3.79724945,19.0905326 4.49036752,19.3409908 C4.8425927,19.5581236 5.25629223,19.6846258 5.69886816,19.6875638 C6.58267695,23.5513522 9.79067392,26.1743778 13.9797697,26.1743778 C18.1611987,26.1743778 21.3700071,23.5447767 22.2486674,19.6787498 C22.2756971,19.6846258 22.3038739,19.6880115 22.3326385,19.6880115 C22.8845083,19.6880115 23.3921401,19.4952223 23.7925486,19.1743079 C24.3158778,18.8773452 24.7252403,18.3803741 24.8930425,17.7549142 C25.1970564,16.6223541 24.7073604,15.8483428 24.1589882,15.3692796 L24.1589882,15.3692796 L24.1589882,15.3692796 M10.2275697,10.7598528 C10.2941646,10.8711893 11.8906781,13.5036165 14.8984988,14.6446549 C15.7283882,14.9595255 16.5785917,15.1395834 17.4008982,15.3135974 C19.050184,15.6629965 20.6083355,15.9930048 21.6698518,17.3711823 C21.6809043,17.3855086 21.693244,17.3987996 21.7059194,17.4112512 C21.7042125,17.480756 21.7042125,17.4808959 21.7042125,17.4808959 C21.7042125,17.9946836 21.6654588,18.491179 21.5906375,18.9683394 C20.2259748,21.1487052 17.9616939,22.5775564 15.1566798,22.8853477 C14.9476615,22.6093428 14.5218182,22.4191558 14.0271696,22.4191558 C13.3257411,22.4191558 12.7564671,22.7989143 12.7564671,23.2661135 C12.7564671,23.734432 13.3257412,24.1132951 14.0271696,24.1132951 C14.6559872,24.1132951 15.174,23.8073506 15.2747877,23.4071379 C16.1794143,23.3031884 17.0420415,23.0870909 17.8506932,22.7604683 C19.005806,22.2940246 20.0237839,21.6144493 20.8758901,20.7405458 C21.0123536,20.6009205 21.1433048,20.4562306 21.269947,20.3077912 C20.2543196,23.401094 17.5392923,25.3895658 13.9947396,25.3898736 L13.9947396,25.3898736 C13.9883599,25.3895378 13.9709557,25.3895378 13.964632,25.3895378 C9.41659556,25.3895378 6.24013318,22.1373868 6.24013318,17.4735089 L6.23159898,17.0297018 C6.22600278,16.8395147 6.25543882,16.3053009 6.28714133,15.7929963 C8.76651232,14.915847 9.79599034,12.3956797 9.8410398,12.2824124 L10.2275697,10.7598528 L10.2275697,10.7598528 M11.8628929,17.8269373 C11.8628929,18.6389748 11.2044993,19.2973963 10.3924619,19.2973963 C9.58042446,19.2973963 8.92208682,18.6389748 8.92208682,17.8269373 C8.92208682,17.0149279 9.58045246,16.3565902 10.3924619,16.3565902 C11.2045273,16.3565902 11.8628929,17.0149838 11.8628929,17.8269373 L11.8628929,17.8269373 M18.7099626,17.8269373 C18.7099626,18.6260755 18.0622298,19.2739483 17.2630636,19.2739483 C16.4640374,19.2739483 15.8163045,18.6260475 15.8163045,17.8269373 C15.8163045,17.0278831 16.4640933,16.3800663 17.2630636,16.3800663 C18.0622298,16.3800663 18.7099626,17.0279111 18.7099626,17.8269373 L18.7099626,17.8269373" id="形状" fill="#B6B5CA" filter="url(#filter-1)"></path>
                <path d="M24.936766,16.1470574 C24.9424741,15.9159341 24.9431457,15.6808095 24.9383329,15.4451533 C25.0012063,12.2570228 24.0524536,9.56950098 22.1940935,7.67261109 C21.3077105,6.76804038 20.2297134,6.07374713 18.9944069,5.60075582 C18.8027369,3.87857945 16.932429,2.5227587 14.6606212,2.5227587 C12.3889534,2.5227587 10.5187294,3.87857945 10.3269755,5.60075582 C9.09180889,6.07371916 8.01389573,6.76804041 7.12765261,7.67261109 C5.26876089,9.56958492 4.31956045,12.2516785 4.38288152,15.4302394 C4.37731329,15.7306158 4.37916004,16.0126086 4.38847772,16.2881937 C3.90681229,16.773021 3.52948811,17.5052006 3.80521316,18.532664 C4.0101742,19.2962942 4.57502723,19.8683104 5.2681453,20.1187686 C5.62037048,20.3359014 6.03407001,20.4624036 6.47664594,20.4653416 C7.36045473,24.32913 10.5684517,26.9521556 14.7575475,26.9521556 C18.9389765,26.9521556 22.1477849,24.3225544 23.0264452,20.4565276 C23.0534748,20.4624036 23.0816517,20.4657893 23.1104162,20.4657893 C23.6622861,20.4657893 24.1699179,20.273 24.5703264,19.9520856 C25.0936556,19.655123 25.5030181,19.1581519 25.6708203,18.532692 C25.9748342,17.4001318 25.4851382,16.6261206 24.936766,16.1470574 L24.936766,16.1470574 L24.936766,16.1470574 M11.0053475,11.5376306 C11.0719423,11.6489671 12.6684559,14.2813943 15.6762766,15.4224327 C16.5061659,15.7373032 17.3563695,15.9173612 18.178676,16.0913752 C19.8279617,16.4407743 21.3861133,16.7707825 22.4476296,18.1489601 C22.4586821,18.1632864 22.4710217,18.1765774 22.4836972,18.1890289 C22.4819903,18.2585338 22.4819903,18.2586737 22.4819903,18.2586737 C22.4819903,18.7724614 22.4432366,19.2689568 22.3684153,19.7461172 C21.0037525,21.9264829 18.7394717,23.3553342 15.9344575,23.6631255 C15.7254393,23.3871206 15.299596,23.1969336 14.8049473,23.1969336 C14.1035189,23.1969336 13.5342449,23.5766921 13.5342449,24.0438913 C13.5342449,24.5122098 14.1035189,24.8910729 14.8049473,24.8910729 C15.433765,24.8910729 15.9517778,24.5851284 16.0525655,24.1849157 C16.9571921,24.0809661 17.8198193,23.8648687 18.628471,23.5382461 C19.7835838,23.0718024 20.8015616,22.3922271 21.6536679,21.5183236 C21.7901314,21.3786983 21.9210826,21.2340084 22.0477247,21.085569 C21.0320973,24.1788718 18.3170701,26.1673436 14.7725173,26.1676514 L14.7725173,26.1676514 C14.7661377,26.1673156 14.7487335,26.1673156 14.7424098,26.1673156 C10.1943733,26.1673156 7.01791096,22.9151645 7.01791096,18.2512867 L7.00937676,17.8074796 C7.00378056,17.6172925 7.0332166,17.0830787 7.06491911,16.570774 C9.54429009,15.6936247 10.5737681,13.1734574 10.6188176,13.0601902 L11.0053475,11.5376306 L11.0053475,11.5376306 M12.6406707,18.6047151 C12.6406707,19.4167525 11.9822771,20.0751741 11.1702397,20.0751741 C10.3582022,20.0751741 9.6998646,19.4167525 9.6998646,18.6047151 C9.6998646,17.7927056 10.3582302,17.134368 11.1702397,17.134368 C11.9823051,17.134368 12.6406707,17.7927616 12.6406707,18.6047151 L12.6406707,18.6047151 M19.4877404,18.6047151 C19.4877404,19.4038533 18.8400076,20.051726 18.0408414,20.051726 C17.2418151,20.051726 16.5940823,19.4038253 16.5940823,18.6047151 C16.5940823,17.8056609 17.2418711,17.1578441 18.0408414,17.1578441 C18.8400076,17.1578441 19.4877404,17.8056889 19.4877404,18.6047151 L19.4877404,18.6047151" id="形状" fill="#416DFD"></path>
            </g>
        </g>
    </g>
</svg>