<?xml version="1.0" encoding="UTF-8"?>
<svg width="36px" height="36px" viewBox="0 0 36 36" version="1.1" xmlns="http://www.w3.org/2000/svg" xmlns:xlink="http://www.w3.org/1999/xlink">
    <title>矩形</title>
    <g id="修改" stroke="none" stroke-width="1" fill="none" fill-rule="evenodd">
        <g id="管理员后台" transform="translate(-1084.000000, -342.000000)" fill-rule="nonzero">
            <g id="资讯" transform="translate(1084.000000, 342.000000)">
                <rect id="矩形" fill="#000000" opacity="0" x="0" y="0" width="36" height="36"></rect>
                <path d="M24.75,3.75000001 C25.9926407,3.75000001 27,4.75735932 27,6.00000001 L27,10.5 L29.25,10.5 C30.4926407,10.5 31.5,11.5073593 31.5,12.75 L31.5,30 C31.5,31.2426407 30.4926407,32.25 29.25,32.25 L6.75,32.25 C5.50735931,32.25 4.5,31.2426407 4.5,30 L4.5,6.00000001 C4.5,4.75735932 5.50735931,3.75000001 6.75,3.75000001 L24.75,3.75000001 Z M27,26.25 L27,28.875 C27.0000278,29.4544664 27.4402099,29.9391212 28.017,29.99475 L28.125,30 C28.7044664,30 29.1891212,29.5597901 29.24475,28.983 L29.25,28.875 L29.25,13.5 C29.25,13.0857864 28.9142136,12.75 28.5,12.75 L27,12.75 L27,26.25 Z M21.375,24 L10.125,24 C9.52491295,24.0002973 9.03069527,24.4715423 9.00185708,25.0709361 C8.97301889,25.6703299 9.41971322,26.1868444 10.017,26.24475 L10.125,26.25 L21.375,26.25 C21.9963203,26.25 22.5,25.7463204 22.5,25.125 C22.5,24.5036797 21.9963203,24 21.375,24 Z M21.375,18 L10.125,18 C9.52491281,18.0002971 9.03069492,18.4715422 9.00185672,19.0709361 C8.97301852,19.67033 9.41971307,20.1868446 10.017,20.24475 L10.125,20.25 L21.375,20.25 C21.9963203,20.25 22.5,19.7463203 22.5,19.125 C22.5,18.5036797 21.9963203,18 21.375,18 Z M16.5,9.74999999 L9.74999999,9.74999999 C9.36976886,9.75005014 9.04973701,10.0346303 9.00524999,10.41225 L9,10.5 L9,13.5 C9,13.8802311 9.28463032,14.200263 9.66224999,14.24475 L9.74999999,14.25 L16.5,14.25 C16.8802311,14.2499498 17.2002629,13.9653697 17.24475,13.58775 L17.25,13.5 L17.25,10.5 C17.25,10.3010876 17.1709824,10.1103222 17.0303301,9.9696699 C16.8896778,9.82901761 16.6989124,9.74999999 16.5,9.74999999 L16.5,9.74999999 Z" id="形状" fill="#B6B5CA"></path>
            </g>
        </g>
    </g>
</svg>