<?xml version="1.0" encoding="UTF-8"?>
<svg width="28px" height="28px" viewBox="0 0 28 28" version="1.1" xmlns="http://www.w3.org/2000/svg" xmlns:xlink="http://www.w3.org/1999/xlink">
    <title>矩形</title>
    <defs>
        <filter x="-14.3%" y="-13.5%" width="128.6%" height="127.1%" filterUnits="objectBoundingBox" id="filter-1">
            <feGaussianBlur stdDeviation="1" in="SourceGraphic"></feGaussianBlur>
        </filter>
    </defs>
    <g id="修改" stroke="none" stroke-width="1" fill="none" fill-rule="evenodd">
        <g id="蓝色图标" transform="translate(-616.000000, -310.000000)" fill-rule="nonzero">
            <g id="资讯备份" transform="translate(616.000000, 310.000000)">
                <rect id="矩形" fill="#000000" opacity="0" x="0" y="0" width="28" height="28"></rect>
                <path d="M19.25,2.91666668 C20.2164983,2.91666668 21,3.70016836 21,4.66666668 L21,8.16666668 L22.75,8.16666668 C23.7164983,8.16666668 24.5,8.95016836 24.5,9.91666668 L24.5,23.3333333 C24.5,24.2998316 23.7164983,25.0833333 22.75,25.0833333 L5.25,25.0833333 C4.28350169,25.0833333 3.5,24.2998316 3.5,23.3333333 L3.5,4.66666668 C3.5,3.70016836 4.28350169,2.91666668 5.25,2.91666668 L19.25,2.91666668 Z M21,20.4166667 L21,22.4583333 C21.0000216,22.9090294 21.3423855,23.2859832 21.791,23.32925 L21.875,23.3333333 C22.3256961,23.3333333 22.7026498,22.9909478 22.7459167,22.5423333 L22.75,22.4583333 L22.75,10.5 C22.75,10.1778339 22.4888328,9.91666668 22.1666667,9.91666668 L21,9.91666668 L21,20.4166667 Z M16.625,18.6666667 L7.875,18.6666667 C7.40826563,18.6668979 7.0238741,19.0334218 7.0014444,19.499617 C6.97901469,19.9658121 7.32644362,20.3675456 7.791,20.4125833 L7.875,20.4166667 L16.625,20.4166667 C17.1082492,20.4166667 17.5,20.0249158 17.5,19.5416667 C17.5,19.0584175 17.1082492,18.6666667 16.625,18.6666667 Z M16.625,14 L7.875,14 C7.40826552,14.000231 7.02387383,14.366755 7.00144412,14.8329503 C6.97901441,15.2991456 7.3264435,15.7008791 7.791,15.7459167 L7.875,15.75 L16.625,15.75 C17.1082492,15.75 17.5,15.3582492 17.5,14.875 C17.5,14.3917508 17.1082492,14 16.625,14 Z M12.8333333,7.58333332 L7.58333332,7.58333332 C7.287598,7.58337233 7.03868434,7.80471248 7.00408332,8.09841668 L7,8.16666668 L7,10.5 C7,10.7957353 7.22137914,11.044649 7.51508332,11.07925 L7.58333332,11.0833333 L12.8333333,11.0833333 C13.1290686,11.0832943 13.3779823,10.8619542 13.4125833,10.56825 L13.4166667,10.5 L13.4166667,8.16666668 C13.4166667,8.01195705 13.3552085,7.86358392 13.2458123,7.7541877 C13.1364161,7.64479147 12.988043,7.58333332 12.8333333,7.58333332 L12.8333333,7.58333332 Z" id="形状" fill="#B6B5CA" filter="url(#filter-1)"></path>
                <path d="M20.0277778,3.69444445 C20.9942761,3.69444445 21.7777778,4.47794614 21.7777778,5.44444445 L21.7777778,8.94444445 L23.5277778,8.94444445 C24.4942761,8.94444445 25.2777778,9.72794614 25.2777778,10.6944445 L25.2777778,24.1111111 C25.2777778,25.0776094 24.4942761,25.8611111 23.5277778,25.8611111 L6.02777778,25.8611111 C5.06127947,25.8611111 4.27777778,25.0776094 4.27777778,24.1111111 L4.27777778,5.44444445 C4.27777778,4.47794614 5.06127947,3.69444445 6.02777778,3.69444445 L20.0277778,3.69444445 Z M21.7777778,21.1944445 L21.7777778,23.2361111 C21.7777994,23.6868072 22.1201633,24.063761 22.5687778,24.1070278 L22.6527778,24.1111111 C23.1034739,24.1111111 23.4804276,23.7687256 23.5236945,23.3201111 L23.5277778,23.2361111 L23.5277778,11.2777778 C23.5277778,10.9556117 23.2666106,10.6944445 22.9444445,10.6944445 L21.7777778,10.6944445 L21.7777778,21.1944445 Z M17.4027778,19.4444445 L8.65277778,19.4444445 C8.18604341,19.4446757 7.80165188,19.8111996 7.77922218,20.2773948 C7.75679247,20.7435899 8.1042214,21.1453234 8.56877778,21.1903611 L8.65277778,21.1944445 L17.4027778,21.1944445 C17.8860269,21.1944445 18.2777778,20.8026936 18.2777778,20.3194445 C18.2777778,19.8361953 17.8860269,19.4444445 17.4027778,19.4444445 Z M17.4027778,14.7777778 L8.65277778,14.7777778 C8.1860433,14.7780088 7.8016516,15.1445328 7.7792219,15.6107281 C7.75679219,16.0769234 8.10422127,16.4786569 8.56877778,16.5236945 L8.65277778,16.5277778 L17.4027778,16.5277778 C17.8860269,16.5277778 18.2777778,16.1360269 18.2777778,15.6527778 C18.2777778,15.1695286 17.8860269,14.7777778 17.4027778,14.7777778 Z M13.6111111,8.3611111 L8.3611111,8.3611111 C8.06537578,8.36115011 7.81646212,8.58249026 7.7818611,8.87619445 L7.77777778,8.94444445 L7.77777778,11.2777778 C7.77777778,11.5735131 7.99915692,11.8224267 8.2928611,11.8570278 L8.3611111,11.8611111 L13.6111111,11.8611111 C13.9068464,11.8610721 14.1557601,11.639732 14.1903611,11.3460278 L14.1944445,11.2777778 L14.1944445,8.94444445 C14.1944445,8.78973483 14.1329863,8.6413617 14.0235901,8.53196548 C13.9141939,8.42256925 13.7658207,8.3611111 13.6111111,8.3611111 L13.6111111,8.3611111 Z" id="形状" fill="#416DFD"></path>
            </g>
        </g>
    </g>
</svg>