<?xml version="1.0" encoding="UTF-8"?>
<svg width="32px" height="32px" viewBox="0 0 32 32" version="1.1" xmlns="http://www.w3.org/2000/svg" xmlns:xlink="http://www.w3.org/1999/xlink">
    <!-- Generator: Sketch 63.1 (92452) - https://sketch.com -->
    <title>矩形</title>
    <desc>Created with Sketch.</desc>
    <g id="技联在线新" stroke="none" stroke-width="1" fill="none" fill-rule="evenodd">
        <g id="3-1-产学研活动" transform="translate(-592.000000, -600.000000)" fill-rule="nonzero">
            <g id="企业" transform="translate(592.000000, 600.000000)">
                <rect id="矩形" fill="#000000" opacity="0" x="0" y="0" width="32" height="32"></rect>
                <path d="M25.994,27.162 L25.994,5.349 L22.936,3.308 L11.789,8.283 L11.789,12.133 L5.629,14.278 L5.629,27.162 L5,27.162 L5,28.693 L7.011,28.693 L7.011,15.171 L15.182,12.493 L15.182,28.693 L20.839,28.693 L20.839,27.035 L19.582,27.035 L19.582,12.237 L16.616,10.451 L13.296,11.607 L13.296,9.175 L21.342,5.603 L21.342,28.692 L27,28.692 L27,27.161 L25.994,27.161 L25.994,27.162 Z M8.017,18.615 L13.925,16.702 L13.925,14.151 L8.017,16.192 L8.017,18.615 L8.017,18.615 Z M8.017,21.932 L13.925,20.656 L13.925,18.105 L8.017,19.636 L8.017,21.932 L8.017,21.932 Z M8.017,25.376 L13.925,24.61 L13.925,22.059 L8.017,22.952 L8.017,25.376 Z M8.017,28.692 L13.925,28.564 L13.925,26.013 L8.017,26.269 L8.017,28.692 L8.017,28.692 Z" id="形状" fill="#16BF74"></path>
            </g>
        </g>
    </g>
</svg>