<?xml version="1.0" encoding="UTF-8"?>
<svg width="16px" height="16px" viewBox="0 0 16 16" version="1.1" xmlns="http://www.w3.org/2000/svg" xmlns:xlink="http://www.w3.org/1999/xlink">
    <title>矩形</title>
    <g id="修改" stroke="none" stroke-width="1" fill="none" fill-rule="evenodd">
        <g id="企业用户后台" transform="translate(-1177.000000, -211.000000)" fill-rule="nonzero">
            <g id="详情" transform="translate(1177.000000, 211.000000)">
                <rect id="矩形" fill="#000000" opacity="0" x="0" y="0" width="16" height="16"></rect>
                <path d="M7.97337167,15.631803 C6.94969834,15.631803 5.95650211,15.4312457 5.02133434,15.0357007 C4.11822386,14.6537202 3.30723302,14.1069475 2.61085981,13.4105743 C1.91448659,12.7142011 1.36772958,11.9031946 0.985749062,11.0000997 C0.590219719,10.064932 0.389646703,9.07173575 0.389646703,8.04807806 C0.389646703,7.02442037 0.590204062,6.0312085 0.985749062,5.09605641 C1.36772956,4.19296156 1.91448658,3.38195508 2.61085981,2.68558186 C3.30724867,1.98920864 4.11823952,1.44243597 5.02133434,1.06045547 C5.95648645,0.664926125 6.94969833,0.464368766 7.97337167,0.464368766 C8.99702936,0.464368766 9.99022559,0.664926125 10.9253933,1.06047112 C11.8284882,1.44245162 12.6394947,1.9892243 13.3358679,2.6855975 C14.0322411,3.38197072 14.5790138,4.1929772 14.9609943,5.09607205 C15.3565236,6.03122416 15.5570966,7.02443603 15.5570966,8.04809372 C15.5570966,9.07175141 15.3565393,10.0649476 14.9609943,11.0001154 C14.5790138,11.9032259 14.0322411,12.7142324 13.3358679,13.4105899 C12.639479,14.1069631 11.8284725,14.6537358 10.9253933,15.0357163 C9.99022558,15.4312457 8.99701369,15.631803 7.97337167,15.631803 Z M7.97337167,1.09018158 C4.13676358,1.09018158 1.01545953,4.21148561 1.01545953,8.04809372 C1.01545953,11.8847018 4.13676356,15.0060058 7.97337167,15.0060058 C11.8099798,15.0060058 14.9312838,11.8847018 14.9312838,8.04809372 C14.9312838,4.21148562 11.8099641,1.09018158 7.97337167,1.09018158 Z" id="形状" fill="#007AFF"></path>
                <path d="M4.16118592,8.7351123 L3.6918263,8.7351123 C3.51900808,8.7351123 3.37891989,8.51127909 3.37891989,8.23514981 C3.37891989,7.95902054 3.51900809,7.7351873 3.6918263,7.7351873 L4.16118592,7.7351873 C4.33400414,7.7351873 4.47409233,7.95902051 4.47409233,8.23514981 C4.47409233,8.51127911 4.33400412,8.7351123 4.16118592,8.7351123 Z M11.7854948,8.7351873 C11.6129426,8.7351873 11.4725884,8.51070413 11.4725884,8.23522481 C11.4725884,7.95949548 11.6129426,7.73526229 11.7854948,7.73526229 C11.9580627,7.73526229 12.0984012,7.95949548 12.0984012,8.23522481 C12.0984012,8.51070415 11.9580627,8.7351873 11.7854948,8.7351873 Z M9.87944108,8.7351873 L8.92648459,8.7351873 C8.7539167,8.7351873 8.61357819,8.51070413 8.61357819,8.23522481 C8.61357819,7.95949548 8.75391672,7.73526229 8.92648459,7.73526229 L9.87944108,7.73526229 C10.0519933,7.73526229 10.1923475,7.95949548 10.1923475,8.23522481 C10.1923475,8.51070415 10.0519933,8.7351873 9.87944108,8.7351873 L9.87944108,8.7351873 Z M7.02039955,8.7351873 L6.06728661,8.7351873 C5.89471872,8.7351873 5.7543802,8.51070413 5.7543802,8.23522481 C5.7543802,7.95949548 5.89471873,7.73526229 6.06728661,7.73526229 L7.02039955,7.73526229 C7.19281098,7.73526229 7.3331495,7.95949548 7.3331495,8.23522481 C7.3331495,8.51070415 7.19281097,8.7351873 7.02039955,8.7351873 Z" id="形状" fill="#007AFF"></path>
                <path d="M12.2549014,8.36100013 L11.7855418,8.36100013 C11.6127235,8.36100013 11.4726354,8.22091192 11.4726354,8.04809372 C11.4726354,7.87527552 11.6127236,7.7351873 11.7855418,7.7351873 L12.2549014,7.7351873 C12.4277196,7.7351873 12.5678078,7.8752755 12.5678078,8.04809372 C12.5678078,8.22091194 12.4277196,8.36100013 12.2549014,8.36100013 Z" id="路径" fill="#007AFF"></path>
            </g>
        </g>
    </g>
</svg>