<?xml version="1.0" encoding="UTF-8"?>
<svg width="32px" height="32px" viewBox="0 0 32 32" version="1.1" xmlns="http://www.w3.org/2000/svg" xmlns:xlink="http://www.w3.org/1999/xlink">
    <title>矩形</title>
    <g id="技联在线新" stroke="none" stroke-width="1" fill="none" fill-rule="evenodd">
        <g id="积分" transform="translate(-320.000000, -465.000000)" fill="#000000" fill-rule="nonzero">
            <g transform="translate(320.000000, 465.000000)">
                <rect id="矩形" opacity="0" x="0" y="0" width="32" height="32"></rect>
                <path d="M24.4053125,4.52265625 C24.8487893,4.52265625 25.2606683,4.7522051 25.4939375,5.129375 L30.05925,12.5106875 C30.3609375,12.9984375 30.301375,13.62725 29.9135,14.0497187 L16.9855,28.1296875 C16.481125,28.679 15.6157812,28.6825312 15.1069062,28.1373437 L1.965625,14.057375 C1.5703125,13.6338437 1.50875,12.9975937 1.8155625,12.5061562 L6.4235625,5.12484375 C6.65739725,4.7502583 7.06779494,4.52265625 7.509375,4.52265625 L24.4053125,4.52265625 Z M23.6919375,7.08265625 L8.219125,7.08265625 L4.50725,13.0286875 L16.035,25.3798437 L27.3719375,13.032625 L23.6919375,7.08265625 Z M19.7973437,12.544 C20.50425,12.544 21.0773437,13.1170625 21.0773437,13.824 C21.0773437,14.5309375 20.50425,15.104 19.7973437,15.104 L11.9466563,15.104 C11.23975,15.104 10.6666563,14.5309375 10.6666563,13.824 C10.6666563,13.1170625 11.23975,12.544 11.9466563,12.544 L19.7973437,12.544 Z" id="形状"></path>
            </g>
        </g>
    </g>
</svg>