<?xml version="1.0" encoding="UTF-8"?>
<svg width="48px" height="48px" viewBox="0 0 48 48" version="1.1" xmlns="http://www.w3.org/2000/svg" xmlns:xlink="http://www.w3.org/1999/xlink">
    <title>矩形</title>
    <g id="技联在线3" stroke="none" stroke-width="1" fill="none" fill-rule="evenodd">
        <g id="8-转移联盟" transform="translate(-404.000000, -434.000000)" fill-rule="nonzero">
            <g id="简介" transform="translate(404.000000, 434.000000)">
                <rect id="矩形" fill="#000000" opacity="0" x="0" y="0" width="48" height="48"></rect>
                <path d="M42.5476191,48 L5.45238094,48 C3.57142856,48 2.04761906,46.4761905 2.04761906,44.6190476 L2.04761906,3.38095237 C2.04761906,1.5238095 3.57142861,0 5.45238094,0 L33.7619047,0 C34.4285714,0 34.9523809,0.523809516 34.952381,1.19047617 C34.952381,1.85714283 34.4285715,2.38095234 33.7619047,2.38095239 L5.45238094,2.38095239 C4.88095237,2.38095239 4.42857141,2.83333336 4.42857141,3.38095237 L4.42857141,44.6190476 C4.42857141,45.1666667 4.88095237,45.6190476 5.45238094,45.6190476 L42.5476191,45.6190476 C43.1190476,45.6190476 43.5714286,45.1666666 43.5714286,44.6190476 L43.5714286,13.0238095 C43.5714286,12.3571429 44.0952381,11.8333334 44.7619048,11.8333333 C45.4285714,11.8333333 45.9523809,12.3571428 45.9523809,13.0238095 L45.9523809,44.5952381 C45.9523809,46.4761905 44.4285714,48 42.5476191,48 Z" id="路径" fill="#FFFFFF"></path>
                <path d="M35.9285714,22.2619048 C35.2619048,22.2619048 34.7380952,21.7380953 34.7380952,21.0714286 L34.7380952,11.0714286 C34.7380952,10.9523809 34.6666666,10.9047619 34.6666667,10.9047619 L24.4047619,10.9047619 C23.7380953,10.9047619 23.2142857,10.3809524 23.2142857,9.7142857 C23.2142857,9.047619 23.7380952,8.52380953 24.4047619,8.52380953 L34.6666667,8.52380953 C36.0238095,8.52380953 37.1190476,9.66666666 37.1190476,11.0714286 L37.1190476,21.0714286 C37.1190476,21.7380953 36.5952381,22.2619048 35.9285714,22.2619048 L35.9285714,22.2619048 Z M24.047619,21.9285714 L14.2857143,21.9285714 C13.6190476,21.9285714 13.0952381,21.4047619 13.0952381,20.7380952 C13.0952381,20.0714285 13.6190476,19.547619 14.2857143,19.547619 L24.047619,19.547619 C24.7142857,19.547619 25.2380952,20.0714286 25.2380952,20.7380952 C25.2380952,21.4047619 24.6904762,21.9285714 24.047619,21.9285714 Z M35.2142857,39.452381 L13.5714286,39.452381 C12.9047619,39.452381 12.3809524,38.9285715 12.3809524,38.2619047 C12.3809524,37.595238 12.9047619,37.0714286 13.5714286,37.0714286 L35.2142857,37.0714286 C35.8809524,37.0714286 36.4047619,37.5952381 36.4047619,38.2619047 C36.4047619,38.9285714 35.8571429,39.452381 35.2142857,39.452381 Z" id="形状" fill="#FFFFFF"></path>
            </g>
        </g>
    </g>
</svg>