<?xml version="1.0" encoding="UTF-8"?>
<svg width="48px" height="48px" viewBox="0 0 48 48" version="1.1" xmlns="http://www.w3.org/2000/svg" xmlns:xlink="http://www.w3.org/1999/xlink">
    <!-- Generator: Sketch 63.1 (92452) - https://sketch.com -->
    <title>矩形</title>
    <desc>Created with Sketch.</desc>
    <g id="技联在线3" stroke="none" stroke-width="1" fill="none" fill-rule="evenodd">
        <g id="1首页" transform="translate(-1011.000000, -4528.000000)" fill-rule="nonzero">
            <g id="web__快速对接备份-3" transform="translate(1011.000000, 4528.000000)">
                <g id="分组">
                    <rect id="矩形" fill="#000000" opacity="0" x="0" y="0" width="48" height="48"></rect>
                    <path d="M29.5789219,3.035625 L29.5789219,11.1707813 L11.0174531,11.1707813 L11.0174531,17.9346094 L29.5789219,17.9346094 L29.5789219,25.7819531 L43.7781563,15.0535781 L43.7781563,13.9221094 L29.5789219,3.035625 Z M31.5922969,21.7408594 L31.5922969,15.9212812 L13.0307813,15.9212812 L13.0307813,13.1840156 L31.5923437,13.1840156 L31.5923437,7.11515625 L41.1989063,14.478375 L31.5923437,21.7408594 L31.5922969,21.7408594 Z M10.6962656,11.1707812 L4.03776562,11.1707812 L4.03776562,17.9346094 L10.6962656,17.9346094 L10.6962656,11.1707812 Z M8.6829375,15.9212812 L6.05109375,15.9212812 L6.05109375,13.1840156 L8.68289063,13.1840156 L8.68289063,15.9212812 L8.6829375,15.9212812 Z M37.12425,36.7021875 L43.7781562,36.7021875 L43.7781562,29.938125 L37.12425,29.938125 L37.12425,36.7021875 L37.12425,36.7021875 Z M39.1377656,31.9515469 L41.7646406,31.9515469 L41.7646406,34.6887656 L39.1377656,34.6887656 L39.1377656,31.9515469 Z M18.2368594,22.0907812 L4.03776562,32.81925 L4.03776562,33.950625 L18.2368594,44.83725 L18.2368594,36.7021875 L36.7984219,36.7021875 L36.7984219,29.938125 L18.2368594,29.938125 L18.2368594,22.0907812 Z M34.7848594,31.9515469 L34.7848594,34.6887656 L16.2234844,34.6887656 L16.2234844,40.7576719 L6.61678125,33.3945 L16.2234375,26.13675 L16.2234375,31.956375 L34.7848594,31.956375 L34.7848594,31.9515469 L34.7848594,31.9515469 Z" id="形状" fill="#0091FF"></path>
                </g>
            </g>
        </g>
    </g>
</svg>