<?xml version="1.0" encoding="UTF-8"?>
<svg width="60px" height="60px" viewBox="0 0 60 60" version="1.1" xmlns="http://www.w3.org/2000/svg" xmlns:xlink="http://www.w3.org/1999/xlink">
    <title>矩形</title>
    <g id="修改" stroke="none" stroke-width="1" fill="none" fill-rule="evenodd">
        <g id="后台图标" transform="translate(-831.000000, -485.000000)" fill-rule="nonzero">
            <g id="发布需求" transform="translate(831.000000, 485.000000)">
                <rect id="矩形" fill="#000000" opacity="0" x="0" y="0" width="60" height="60"></rect>
                <path d="M4.04765627,0 L50.9480469,0 C52.0573568,0.0689732227 53.1344401,0.537723223 53.8792318,1.31316967 C54.5438151,1.98482145 54.93125,2.87611611 55,3.78616072 L55,56.2118303 C54.9276693,57.2162946 54.4571615,58.1933036 53.6715495,58.8857143 C52.9446615,59.5459822 51.9606771,59.9330357 50.953776,60 L4.05266929,60 C2.9433594,59.9310268 1.86627603,59.4636161 1.12220056,58.6881697 C0.456184896,58.0158482 0.0694661816,57.1252232 0,56.2145089 L0,3.78950895 C0.0701822916,2.83125 0.498437518,1.89575895 1.22317708,1.21138395 C1.96080732,0.495535723 2.99062498,0.0683035547 4.04765627,0 M11.2374008,10.0182705 C10.7016485,10.0948322 10.2273291,10.5608599 10.0687464,11.1608706 C9.91373536,11.7009634 10.0266005,12.3284364 10.3494806,12.7561833 C10.6166424,13.1206835 11.0245285,13.3345569 11.4359863,13.3303959 C18.7936519,13.3328925 26.1506031,13.3303959 33.5082687,13.3320604 C33.9933031,13.3545295 34.4804806,13.0782417 34.7519285,12.6063886 C35.0855236,12.0538129 35.0826663,11.2615659 34.7433564,10.7131511 C34.4719086,10.2504521 33.9904458,9.97998967 33.5118404,10.0024588 C28.1543169,10.0032911 22.7967935,10.0024588 17.4399843,10.0024588 C15.3726945,10.0132773 13.3039761,9.98165404 11.2374008,10.0182705 M11.2145933,18.3508318 C10.6899101,18.4257341 10.2239915,18.889296 10.0679857,19.4885141 C9.91058074,20.0486166 10.0323073,20.7019308 10.3730016,21.1305382 C10.633944,21.4717597 11.0194112,21.6673379 11.4062775,21.6640089 C16.5600651,21.6673379 21.7145522,21.6640089 26.8683397,21.6656734 C27.276893,21.6823183 27.6896437,21.4892369 27.9645777,21.126377 C28.3423496,20.6528282 28.44099,19.9029733 28.2087302,19.3120776 C27.9932603,18.7303367 27.475573,18.3300257 26.9403962,18.3375159 C23.5586385,18.3341869 20.1768808,18.3366836 16.7944235,18.3358513 C14.9349465,18.3458383 13.0733708,18.3158774 11.2145933,18.3508318 M45.4457653,18.3696975 C44.5139566,18.472161 43.6292997,18.8633853 42.9631874,19.4515525 C41.4191543,20.8221683 39.876618,22.1947801 38.3333333,23.5660613 C41.3712541,26.2660413 44.4069296,28.9686827 47.4463473,31.6666667 C48.9888836,30.2960509 50.5314198,28.9254351 52.0724592,27.554154 C52.8538313,26.8595312 53.3148708,25.892116 53.3320849,24.9100631 C53.3605257,23.8821013 52.9017315,22.8534741 52.0874281,22.1235879 C51.07853,21.2260342 50.0696319,20.3278151 49.059237,19.4322574 C48.1236861,18.6085573 46.749549,18.2046913 45.4457653,18.3696975 M36.428184,25 C31.198293,29.9183794 25.9536303,34.8242236 20.7202223,39.7393043 C19.9345077,42.4363311 19.1762263,45.1412748 18.3982491,47.8409406 C18.1689358,48.58513 18.5656619,49.4381768 19.2965102,49.793778 C19.708008,50.0055552 20.2088395,50.0563554 20.6597286,49.9362823 C23.5366962,49.2052878 26.4199945,48.4967245 29.2941485,47.7584727 C34.5324804,42.8519687 39.7687022,37.9408466 45,33.0270854 C42.1385075,30.3557886 39.2960072,27.6653592 36.428184,25 M9.64735156,26.6841641 C9.10358167,26.7565652 8.61736957,27.1834822 8.42954937,27.7485439 C8.26066265,28.2337147 8.31670577,28.805434 8.57723059,29.2398408 C8.8498729,29.7100321 9.34895973,30.0037976 9.8571347,29.99714 C13.8187787,30.0004688 17.7804226,29.99714 21.7420666,29.9988044 C22.2040439,30.0179449 22.6705651,29.8065669 22.9697143,29.4154343 C23.3498988,28.9419143 23.4415369,28.2203995 23.1991882,27.6486803 C22.966685,27.0636458 22.4047389,26.6625269 21.823102,26.6708489 C19.1716556,26.6675202 16.5202094,26.6700167 13.8687631,26.6691845 C12.4616259,26.6791709 11.0537314,26.6492118 9.64735156,26.6841641 L9.64735156,26.6841641 Z M45.4853536,21.9950597 C45.9131881,21.5537956 46.6924122,21.5582917 47.1170346,22.002125 C47.9746308,22.8576764 48.8322269,23.7132277 49.6859686,24.5719905 C50.0977432,24.9894893 50.1067368,25.7242871 49.7001013,26.148209 C48.9780504,26.8810799 48.2457211,27.6043162 47.5191733,28.3333333 C46.1232509,26.9395297 44.7305405,25.5425146 43.3333333,24.1499956 C44.0457484,23.4267593 44.7671569,22.711873 45.4853536,21.9950597 L45.4853536,21.9950597 Z M23.3979086,42.4522293 C27.906366,38.292861 32.437232,34.1520701 36.9550865,30 C38.5258542,31.4410828 40.0966218,32.8828291 41.6666667,34.3252388 C37.8348032,37.8436836 34.0014939,41.360138 30.1689075,44.8779193 C29.4785793,45.5029193 28.8063226,46.1471603 28.1044287,46.7602176 C26.6406438,47.1350849 25.1681847,47.4840764 23.7015084,47.849655 C23.0220231,48.0062367 22.3519349,48.2019639 21.6666667,48.3333333 C22.2557949,46.3760616 22.8015517,44.4068471 23.3979086,42.4522293 Z" id="形状" fill="#FFFFFF"></path>
            </g>
        </g>
    </g>
</svg>