<?xml version="1.0" encoding="UTF-8"?>
<svg width="60px" height="60px" viewBox="0 0 60 60" version="1.1" xmlns="http://www.w3.org/2000/svg" xmlns:xlink="http://www.w3.org/1999/xlink">
    <title>矩形</title>
    <g id="修改" stroke="none" stroke-width="1" fill="none" fill-rule="evenodd">
        <g id="后台图标" transform="translate(-493.000000, -487.000000)" fill-rule="nonzero">
            <g id="服务管理" transform="translate(493.000000, 487.000000)">
                <rect id="矩形" fill="#000000" opacity="0" x="0" y="0" width="60" height="60"></rect>
                <path d="M50.4316406,20.5019531 C51.2109375,20.5898438 51.9609375,20.7890625 52.7402344,21.1054688 C53.5195312,21.421875 54.1816406,21.8847656 54.7265625,22.4589844 C55.3007812,23.0332031 55.7050781,23.7832031 55.9921875,24.6796875 C56.2792969,25.5761719 56.3085937,26.6132813 56.109375,27.8496094 L56.109375,27.9082031 C56.0214844,28.2539063 55.8808594,29.0332031 55.6171875,30.2695313 C55.3886719,31.5351563 55.0957031,33.0058594 54.7792969,34.6523438 C54.4628906,36.2929688 54.0878906,37.9980469 53.6835937,39.7558594 C53.2792969,41.5136719 52.9042969,43.0136719 52.5292969,44.2558594 C52.3300781,44.9765625 52.0371094,45.7265625 51.6621094,46.5058594 C51.2871094,47.2851562 50.7949219,47.9765625 50.1914062,48.5800781 C49.5878906,49.2128906 48.8671875,49.734375 48,50.1386719 C47.1621094,50.5429688 46.1542969,50.7421875 44.9707031,50.7421875 L11.484375,50.7421875 C10.6464844,50.7421875 9.75585938,50.5664062 8.859375,50.1972656 C7.96289062,49.8222656 7.1015625,49.3300781 6.3515625,48.6386719 C5.6015625,47.9472656 4.96875,47.1679688 4.4765625,46.21875 C3.984375,45.2695312 3.75585938,44.203125 3.75585938,43.0488281 L3.75585938,17.0976562 C3.75585938,14.6484375 4.41796875,12.7148438 5.7421875,11.3320312 C7.06640625,9.94921875 8.94726562,9.2578125 11.3671875,9.2578125 L41.1152344,9.2578125 C42.0117187,9.2578125 42.9316406,9.43359375 43.8515625,9.77929688 C44.8007812,10.125 45.6679687,10.5878906 46.4179687,11.1914062 C47.1972656,11.7949219 47.8007812,12.4863281 48.2929687,13.2949219 C48.7851562,14.1035156 49.0136719,14.9648438 49.0136719,15.890625 C49.0136719,16.265625 48.7265625,16.5527344 48.3515625,16.5527344 L45.8789062,16.5527344 C44.2617187,16.5527344 42.3925781,16.5527344 40.2304687,16.5234375 C38.0683594,16.4941406 35.7597656,16.4941406 33.3398437,16.4941406 C30.9199219,16.4941406 28.6113281,16.4941406 26.5078125,16.4648438 C24.4042969,16.4355469 22.5585937,16.4355469 21.0292969,16.4355469 L18.234375,16.4355469 C17.1972656,16.4355469 16.359375,16.78125 15.7851562,17.4433594 C15.2109375,18.1054688 14.7480469,19.0019531 14.4316406,20.0683594 C14.1152344,21.2519531 13.7402344,22.4882812 13.3359375,23.7890625 C12.9316406,25.0898438 12.5566406,26.3261719 12.2402344,27.4511719 C11.8359375,28.7753906 11.4316406,30.046875 11.0273438,31.2832031 C11.0273438,31.3125 11.0273438,31.3125 10.9980469,31.3417969 C10.9101562,31.6582031 10.8808594,31.9160156 10.8808594,32.0917969 C10.8808594,32.7832031 11.109375,33.3574219 11.5722656,33.8203125 C12.0351562,34.2832031 12.609375,34.5117188 13.3007812,34.5117188 C14.5429688,34.5117188 15.4042969,33.7324219 15.8378906,32.1503906 L18.9199219,20.90625 C19.0078125,20.6191406 19.265625,20.4140625 19.5820312,20.4140625 C24.6269531,20.4433594 29.2382812,20.4726562 33.4746094,20.4726562 L50.4316406,20.5019531 Z" id="路径" fill="#FFFFFF"></path>
            </g>
        </g>
    </g>
</svg>