<?xml version="1.0" encoding="UTF-8"?>
<svg width="60px" height="60px" viewBox="0 0 60 60" version="1.1" xmlns="http://www.w3.org/2000/svg" xmlns:xlink="http://www.w3.org/1999/xlink">
    <title>矩形</title>
    <g id="修改" stroke="none" stroke-width="1" fill="none" fill-rule="evenodd">
        <g id="后台图标" transform="translate(-490.000000, -96.000000)" fill-rule="nonzero">
            <g id="找成果" transform="translate(490.000000, 96.000000)">
                <rect id="矩形" fill="#000000" opacity="0" x="0" y="0" width="60" height="60"></rect>
                <path d="M11.0683594,6.29296875 C12.1699219,4.95117187 13.8691406,4.11914062 15.609375,4.08984375 L44.2441406,4.08984375 C45.8320312,4.06640625 47.4082031,4.71679688 48.5390625,5.83007812 C49.546875,6.81445312 50.1972656,8.16210937 50.3378906,9.5625 C50.3789062,9.9140625 50.3613281,10.2714844 50.3671875,10.6289062 L50.3671875,15.8027344 C50.9296875,16.21875 51.4921875,16.6347656 52.0078125,17.109375 C53.0273437,18.0351562 53.9179687,19.1074219 54.5800781,20.3085937 C55.3945312,21.7734375 55.8574219,23.4433594 55.828125,25.1191406 C55.828125,26.9179687 55.2597656,28.6933594 54.3164062,30.2226562 C53.0449219,32.2851562 51.140625,33.9023437 49.0429687,35.0859375 C47.6777344,35.859375 46.21875,36.4511719 44.7128906,36.890625 C44.5488281,36.9550781 44.3320312,36.9492187 44.2207031,37.1015625 C42.6738281,39.1113281 40.8164062,40.8925781 38.6601562,42.234375 C36.46875,43.6113281 33.9609375,44.5019531 31.3769531,44.7304687 C31.3710937,47.5488281 31.3710937,50.3671875 31.3769531,53.1855469 C33.0117187,53.1796875 34.6523437,53.1855469 36.2871094,53.1855469 C36.65625,53.1914062 37.0429687,53.1503906 37.3828125,53.3203125 C37.875,53.5429687 38.1914062,54.0820312 38.1503906,54.6210937 C38.1328125,55.3007812 37.5292969,55.8984375 36.84375,55.8984375 L23.4140625,55.8984375 C23.0390625,55.921875 22.640625,55.8339844 22.3535156,55.5761719 C21.8671875,55.171875 21.7382812,54.4101562 22.0605469,53.8652344 C22.3007812,53.4375 22.78125,53.1679687 23.2675781,53.1796875 L28.6523437,53.1796875 C28.6816406,52.4765625 28.6582031,51.7675781 28.6640625,51.0644531 C28.6582031,48.9492187 28.6699219,46.8398437 28.6582031,44.7246094 C26.5546875,44.5371094 24.4980469,43.9160156 22.6230469,42.9433594 C20.0566406,41.6132812 17.8476562,39.65625 16.0546875,37.4003906 C15.9433594,37.2714844 15.8613281,37.0957031 15.6796875,37.0605469 C13.8574219,36.5859375 12.09375,35.8828125 10.4648437,34.9335937 C9.0234375,34.0839844 7.6875,33.0351562 6.5859375,31.7636719 C5.80078125,30.8496094 5.13867188,29.8183594 4.67578125,28.7050781 C4.04882813,27.2109375 3.80859375,25.5527344 4.00195313,23.9414062 C4.20703125,22.1425781 4.95703125,20.4257812 6.04101562,18.984375 C7.03125,17.6542969 8.29101562,16.5410156 9.66796875,15.6210937 C9.6796875,13.7519531 9.66796875,11.8828125 9.67382812,10.0136719 C9.69726562,8.66601562 10.2011719,7.3359375 11.0683594,6.29296875 M27.8847656,11.7070312 C27.5859375,12.0761719 27.4277344,12.5390625 27.2167969,12.9609375 C26.7128906,14.0332031 26.2089844,15.0996094 25.7109375,16.171875 C25.6816406,16.2246094 25.6640625,16.3007812 25.5878906,16.3007812 C24.2226562,16.5117187 22.8574219,16.7167969 21.4863281,16.9277344 C20.9296875,17.0097656 20.3964844,17.2617187 19.9921875,17.6542969 C19.4648437,18.1523437 19.1484375,18.8730469 19.1542969,19.6054687 C19.1425781,20.3144531 19.4238281,21.0234375 19.9277344,21.5214844 C20.9648437,22.5878906 22.0019531,23.6484375 23.0390625,24.7148437 C22.7988281,26.1503906 22.5703125,27.5917969 22.3359375,29.0273437 C22.2773437,29.34375 22.2363281,29.671875 22.2832031,29.9941406 C22.3710937,30.8203125 22.8632812,31.5878906 23.578125,32.015625 C24.2226562,32.4140625 25.0371094,32.5136719 25.7578125,32.296875 C26.1855469,32.1738281 26.5605469,31.9160156 26.953125,31.7109375 C27.9726562,31.1425781 28.9921875,30.5859375 30.0117187,30.0175781 C31.2714844,30.703125 32.5253906,31.4121094 33.7851562,32.0976562 C34.6347656,32.5546875 35.7304687,32.5019531 36.5390625,31.96875 C37.2363281,31.5175781 37.7050781,30.7324219 37.7636719,29.9003906 C37.7988281,29.5546875 37.7285156,29.2148437 37.6757812,28.8808594 C37.4589844,27.5566406 37.2480469,26.2324219 37.0253906,24.9082031 C37.0195312,24.8378906 36.9902344,24.7675781 37.0136719,24.703125 C38.0566406,23.6308594 39.1054687,22.5644531 40.1484375,21.4921875 C40.7929687,20.8242187 41.0332031,19.8105469 40.7871094,18.9199219 C40.5644531,18.0644531 39.890625,17.34375 39.0527344,17.0625 C38.7832031,16.9628906 38.4960937,16.9335937 38.2148437,16.8867187 C36.9375,16.6933594 35.6601562,16.4941406 34.3769531,16.3007812 C33.7382812,14.9296875 33.09375,13.5644531 32.4550781,12.1992187 C32.0214844,11.3027344 31.0546875,10.6933594 30.0585937,10.6933594 C29.2265625,10.6582031 28.4003906,11.0507812 27.8847656,11.7070312 M7.31835937,22.1015625 C6.70898437,23.3847656 6.4921875,24.8613281 6.76171875,26.2617187 C7.00195312,27.5625 7.63476562,28.7695312 8.46679687,29.7890625 C9.15820312,30.6328125 9.984375,31.3652344 10.8808594,31.9863281 C11.5253906,32.4257812 12.1933594,32.8417969 12.9082031,33.1582031 C12.7675781,32.8183594 12.5683594,32.5078125 12.421875,32.1679687 C10.5,28.21875 9.46875,23.8710937 9.2109375,19.4941406 C8.42578125,20.2382812 7.78125,21.1289062 7.31835937,22.1015625 M50.5546875,19.4941406 C50.3144531,23.5546875 49.40625,27.5917969 47.7421875,31.3125 C47.4726562,31.9394531 47.1503906,32.5429687 46.8574219,33.1582031 C47.3613281,32.9472656 47.8300781,32.6601562 48.2988281,32.3789062 C49.921875,31.3652344 51.3867187,30.0117187 52.2832031,28.3066406 C53.0390625,26.8945312 53.3144531,25.21875 52.9628906,23.6484375 C52.6289062,22.0546875 51.7207031,20.6132812 50.5546875,19.4941406 L50.5546875,19.4941406 Z M30.0175781,13.4296875 C30.8613281,15.2050781 31.6933594,16.9804688 32.5195312,18.7617188 C34.3886719,19.0546875 36.2636719,19.3300781 38.1328125,19.6230469 C36.8847656,20.9238281 35.6132812,22.2070312 34.359375,23.5019531 C34.2714844,23.6015625 34.1425781,23.6835938 34.0839844,23.8066406 C34.3945312,25.7578125 34.7226562,27.703125 35.0332031,29.6542969 C33.3515625,28.7460938 31.6933594,27.8027344 30.0117187,26.8945312 C28.3417969,27.8203125 26.671875,28.7460938 25.0019531,29.6601562 C25.3066406,27.6972656 25.6464844,25.7402344 25.9511719,23.7773438 C24.984375,22.8105469 24.0410156,21.8203125 23.0800781,20.8476562 C22.6933594,20.4316406 22.2773437,20.0449219 21.8964844,19.6230469 C23.765625,19.3417969 25.6347656,19.0488281 27.4980469,18.7675781 C28.3476562,16.9921875 29.1738281,15.2050781 30.0175781,13.4296875 Z" id="形状" fill="#FFFFFF"></path>
            </g>
        </g>
    </g>
</svg>