<?xml version="1.0" encoding="UTF-8"?>
<svg width="28px" height="28px" viewBox="0 0 28 28" version="1.1" xmlns="http://www.w3.org/2000/svg" xmlns:xlink="http://www.w3.org/1999/xlink">
    <!-- Generator: Sketch 63.1 (92452) - https://sketch.com -->
    <title>矩形</title>
    <desc>Created with Sketch.</desc>
    <g id="技联在线3" stroke="none" stroke-width="1" fill="none" fill-rule="evenodd">
        <g id="1首页" transform="translate(-90.000000, -4085.000000)" fill-rule="nonzero">
            <g id="科技-copy-2" transform="translate(90.000000, 4085.000000)">
                <g id="分组">
                    <rect id="矩形" fill="#000000" opacity="0" x="0" y="0" width="28" height="28"></rect>
                    <path d="M16.1875,3.784375 C16.1875,3.14453125 15.6679688,2.62773438 15.0308594,2.62773438 C14.3910156,2.62773438 13.8742188,3.14726563 13.8742188,3.784375 C13.8742188,4.42421875 14.39375,4.94101563 15.0308594,4.94101563 C15.6707031,4.94101563 16.1875,4.42421875 16.1875,3.784375 L16.1875,3.784375 Z M13.6609375,5.03125 C11.2847656,6.33554687 9.16835937,8.04453125 7.39648437,10.0679687 C7.53046875,10.2375 7.634375,10.4289062 7.7,10.6367188 C12.5808594,10.9101562 17.0679688,12.64375 20.7347656,15.4136719 C20.7730469,15.3917969 20.8140625,15.3671875 20.8550781,15.3453125 C20.0046875,11.6210938 18.2410156,8.24414062 15.8128906,5.46054688 C15.5777344,5.56992188 15.3097656,5.63554688 15.0308594,5.63554688 C14.4894531,5.63554688 14.0027344,5.403125 13.6609375,5.03125 L13.6609375,5.03125 Z M15.0308594,1.93867188 C15.5941406,1.93867188 16.0945313,2.19023438 16.4308594,2.58125 C16.7617188,2.46367188 17.0980469,2.34609375 17.434375,2.2421875 C16.3433594,1.925 15.1921875,1.75 14,1.75 C13.8441406,1.75 13.6882813,1.75546875 13.5351563,1.76367188 C13.7183594,1.90859375 13.8933594,2.05898437 14.0710938,2.209375 C14.35,2.03984375 14.678125,1.93867187 15.0308594,1.93867187 L15.0308594,1.93867188 Z M4.7359375,11.1972656 C4.7359375,11.8617187 5.27460937,12.4003906 5.94179687,12.4003906 C6.60898437,12.4003906 7.14765625,11.8617187 7.14493224,11.1972656 C7.14493224,10.5300781 6.60898437,9.99140625 5.94179687,9.99140625 C5.27460937,9.99140625 4.7359375,10.5300781 4.7359375,11.1972656 L4.7359375,11.1972656 Z M5.94179687,9.3515625 C6.13046875,9.3515625 6.3109375,9.38164063 6.48320313,9.43359375 C8.36992187,7.25429688 10.6449219,5.41953125 13.1988281,4.03320313 C13.1878906,3.95117188 13.1796875,3.871875 13.1796875,3.78984375 C13.1796875,3.51914063 13.2371094,3.26757813 13.3410156,3.03515625 C12.8871094,2.65234375 12.4222656,2.27773438 11.9382812,1.93046875 C7.15859375,2.74257813 3.3140625,6.3328125 2.12734375,10.9757813 C2.79726563,10.8554688 3.47539063,10.7652344 4.16171875,10.6996094 C4.38320312,9.91757812 5.096875,9.3515625 5.94179687,9.3515625 Z M4.19453125,11.790625 C3.4125,11.8644531 2.646875,11.9765625 1.8921875,12.1242188 C1.79921875,12.7367187 1.75,13.3628906 1.75,14 C1.75,14.9980469 1.87304688,15.96875 2.1,16.8984375 C2.69882813,15.246875 3.47265625,13.6773438 4.40507813,12.2199219 C4.31757813,12.0886719 4.24648438,11.94375 4.19453125,11.790625 Z M22.4601563,18.6703125 C22.5066406,19.2582031 22.5339844,19.8460937 22.5339844,20.4476562 C22.5339844,21.2789062 22.4847656,22.0992187 22.4,22.903125 C23.14375,22.1976562 23.8027344,21.4019531 24.3523438,20.5351562 C23.821875,19.8460937 23.2585938,19.1898437 22.6542969,18.5691406 C22.5941406,18.6046875 22.5285156,18.6402344 22.4601563,18.6703125 Z M19.1625,2.89570313 C18.3832031,3.08984375 17.6175781,3.31953125 16.8710937,3.59023438 C16.8792969,3.653125 16.8820312,3.71875 16.8820312,3.78710938 C16.8820312,4.12890625 16.7863281,4.44335938 16.6277344,4.71679688 C19.1925781,7.65078125 21.0492187,11.2164063 21.940625,15.1511719 C22.8511719,15.2632813 23.559375,16.0398438 23.559375,16.9832031 C23.559375,17.2539062 23.4964844,17.5136719 23.3898438,17.7488281 C23.9339844,18.309375 24.4535156,18.8945312 24.9402344,19.5015625 C25.7769531,17.8472656 26.25,15.9796875 26.25,14.0027344 C26.25,9.0890625 23.3460938,4.85078125 19.1625,2.89570313 L19.1625,2.89570313 Z M19.8625,16.9832031 C19.8625,16.7234375 19.9171875,16.4773437 20.0128906,16.253125 C16.5402344,13.6445312 12.3101563,12.0011719 7.71367187,11.725 C7.48671875,12.4878906 6.78125,13.0484375 5.94179687,13.0484375 C5.70390625,13.0484375 5.4796875,13.0019531 5.271875,12.9226562 C4.15625,14.6890625 3.27578125,16.6195312 2.67695312,18.6703125 C4.5171875,23.1136719 8.89765625,26.25 14,26.25 C16.6742187,26.25 19.1515625,25.3859375 21.1640625,23.9257812 C21.3390625,22.7910156 21.4375,21.6289062 21.4375,20.4421875 C21.4375,19.8871094 21.415625,19.3375 21.3746094,18.7960937 C20.51875,18.6429687 19.8625,17.8882812 19.8625,16.9832031 Z M22.9058594,16.9804688 C22.9058594,16.3214844 22.3699219,15.7855469 21.7109375,15.7855469 C21.0519531,15.7855469 20.5160156,16.3214844 20.5160156,16.9804688 C20.5160156,17.6394531 21.0519531,18.1753906 21.7109375,18.1753906 C22.3699219,18.1753906 22.9058594,17.6421875 22.9058594,16.9804688 Z" id="形状" fill="#70CF97"></path>
                </g>
            </g>
        </g>
    </g>
</svg>