<?xml version="1.0" encoding="UTF-8"?>
<svg width="60px" height="60px" viewBox="0 0 60 60" version="1.1" xmlns="http://www.w3.org/2000/svg" xmlns:xlink="http://www.w3.org/1999/xlink">
    <title>矩形</title>
    <g id="修改" stroke="none" stroke-width="1" fill="none" fill-rule="evenodd">
        <g id="企业用户后台" transform="translate(-1058.000000, -457.000000)" fill-rule="nonzero">
            <g id="关注" transform="translate(1058.000000, 457.000000)">
                <rect id="矩形" fill="#000000" opacity="0" x="0" y="0" width="60" height="60"></rect>
                <path d="M53.5964272,27.9047619 C54.6276589,26.7619047 55.0859841,25.1619048 54.5130776,23.6761905 C54.0547524,22.1904762 52.7943581,21.1619048 51.4193824,21.0476191 L40.3049958,19.3333333 C39.8466706,19.2190476 39.5029267,18.9904762 39.2737641,18.5333333 L34.2321867,8.01904762 C33.5446989,6.64761903 32.1697232,5.73333334 30.6801663,5.73333334 C29.1906093,5.73333334 27.8156336,6.53333334 27.1281458,8.01904762 L22.2011497,18.5333333 C21.9719871,18.9904762 21.6282432,19.3333333 21.169918,19.3333333 L10.0555314,21.0476191 C8.56597446,21.2761905 7.42016139,22.3047619 6.96183619,23.6761905 C6.50351098,25.1619047 6.84725486,26.7619047 7.8784866,27.9047619 L16.0137593,36.1333333 C16.3575032,36.4761905 16.4720845,36.9333333 16.3575031,37.5047619 L14.409621,49.047619 C14.1804584,50.6476191 14.7533649,52.1333333 16.1283405,53.047619 C17.3887349,53.847619 18.8782918,53.9619047 20.2532675,53.2761904 L30.2218411,47.7904762 C30.565585,47.5619048 31.0239102,47.5619048 31.3676541,47.7904762 L41.3362276,53.2761904 C41.9091341,53.6190476 42.5966219,53.7333333 43.1695284,53.7333333 C43.9715976,53.7333333 44.7736667,53.5047619 45.4611545,53.047619 C46.7215489,52.1333333 47.4090367,50.647619 47.0652928,49.047619 L45.1174107,37.3904762 C45.0028293,36.9333333 45.231992,36.3619048 45.5757359,36.0190476 L53.5964272,27.9047619 Z" id="路径" fill="#FFFFFF"></path>
            </g>
        </g>
    </g>
</svg>