<?xml version="1.0" encoding="UTF-8"?>
<svg width="60px" height="60px" viewBox="0 0 60 60" version="1.1" xmlns="http://www.w3.org/2000/svg" xmlns:xlink="http://www.w3.org/1999/xlink">
    <title>矩形</title>
    <g id="修改" stroke="none" stroke-width="1" fill="none" fill-rule="evenodd">
        <g id="后台图标" transform="translate(-1294.000000, -96.000000)" fill-rule="nonzero">
            <g id="视频会议备份" transform="translate(1294.000000, 96.000000)">
                <rect id="矩形" fill="#000000" opacity="0" x="0" y="0" width="60" height="60"></rect>
                <path d="M29.3996571,15.3311255 C29.3996571,15.907585 29.8669698,16.3748978 30.4434294,16.3748978 C31.0198889,16.3748978 31.4872017,15.907585 31.4872017,15.3311255 C31.4872017,14.7546659 31.0198889,14.2873531 30.4434294,14.2873531 C29.8669698,14.2873531 29.3996571,14.7546659 29.3996571,15.3311255 Z M48.8818881,26.1159534 C48.8818881,15.740468 40.4710307,7.32961055 30.0955453,7.32961055 C19.7200598,7.32961055 11.3091424,15.7405279 11.3091424,26.1159534 C11.3091424,33.3393159 15.3891362,39.6005108 21.3652244,42.744839 L18.9134867,44.3944406 C18.7678454,44.4924141 18.6673536,44.6255239 18.5895863,44.769846 C18.5378414,44.8519304 18.508881,44.9432485 18.4814197,45.0366652 C18.4791412,45.0461987 18.4736249,45.054593 18.4718262,45.0643064 C18.4272763,45.2339314 18.4093485,45.411591 18.4580955,45.5930879 L19.5386229,49.6255938 C19.6293414,49.9641243 19.8832692,50.2013235 20.1881026,50.3153662 C20.3420182,50.4050654 20.5112834,50.4702412 20.702254,50.4702412 L39.4885968,50.4702412 C39.530988,50.4702412 39.5669037,50.4509943 39.6079159,50.4460776 C40.1063579,50.4392422 40.5618091,50.1450817 40.6970774,49.674161 L41.8811546,45.5559131 C41.8902085,45.5247343 41.8816943,45.4946946 41.8874504,45.4635158 C41.8948254,45.4273003 41.8911079,45.3916845 41.8947054,45.3551692 C41.9015408,45.2659497 41.9111343,45.1781692 41.8945256,45.0925473 C41.8541729,44.8155951 41.7142278,44.5560311 41.4737309,44.3875453 L39.0062238,42.6577181 C44.8858973,39.4835901 48.8818881,33.2680842 48.8818881,26.1159534 Z M30.0954853,9.41679539 C39.3180724,9.41679539 46.7945233,16.8934262 46.7945233,26.1160133 L37.7273508,26.1160133 C37.6093508,21.9917096 34.2480898,18.6797351 30.0955452,18.6797351 C25.9428207,18.6797351 22.5817396,21.9917696 22.4637396,26.1160133 L13.3965671,26.1160133 C13.3965671,16.8934263 20.8728982,9.41679539 30.0954853,9.41679539 Z M35.6618712,26.333426 C35.6618712,29.4077216 33.1697209,31.9013109 30.0954853,31.9013109 C27.0212496,31.9013109 24.5290993,29.4077815 24.5290993,26.333426 C24.5290993,23.2591303 27.0212496,20.7671599 30.0954853,20.7671599 C33.1697209,20.7671599 35.6618712,23.2591303 35.6618712,26.333426 Z M30.0954853,42.8165504 C21.1078189,42.8165504 13.7991942,35.7110079 13.4315834,26.8117816 L22.4899418,26.8117816 C22.7415912,30.8131087 26.0322801,33.9889155 30.0954853,33.9889155 C34.1585705,33.9889155 37.4493193,30.8131686 37.7010287,26.8117816 L46.7593871,26.8117816 C46.3917763,35.7110079 39.0832116,42.8165504 30.0954853,42.8165504 Z M30.0954853,19.3118865 C26.2376409,19.3118865 23.1102213,22.4393061 23.1102213,26.2971505 C23.1102213,30.1549949 26.2376409,33.2826543 30.0954853,33.2826543 C33.9533296,33.2826543 37.0807492,30.1549949 37.0807492,26.2971505 C37.0807492,22.4393061 33.9533296,19.3118865 30.0954853,19.3118865 Z M28.120964,28.9764939 C27.2134193,28.3487196 26.6167039,27.3031485 26.6167039,26.1159534 C26.6167039,25.8774351 26.6409874,25.6449128 26.6867364,25.4201851 L27.4108055,25.4201851 C27.3528248,25.6437136 27.3123523,25.8741973 27.3123523,26.1159534 C27.3123523,27.0452633 27.7721805,27.862749 28.4721459,28.3682064 L28.120964,28.9764939 Z M30.4434294,29.5950346 L29.7476012,29.5950346 C29.5555513,29.5950346 29.399777,29.4390803 29.399777,29.2469706 C29.399777,29.0550407 29.5555514,28.8991464 29.7476012,28.8991464 L30.4434294,28.8991464 C30.6354792,28.8991464 30.7912535,29.0550407 30.7912535,29.2469706 C30.7912535,29.4391403 30.6354792,29.5950346 30.4434294,29.5950346 Z" id="形状" fill="#FFFFFF"></path>
            </g>
        </g>
    </g>
</svg>