<?xml version="1.0" encoding="UTF-8"?>
<svg width="60px" height="60px" viewBox="0 0 60 60" version="1.1" xmlns="http://www.w3.org/2000/svg" xmlns:xlink="http://www.w3.org/1999/xlink">
    <title>矩形</title>
    <g id="修改" stroke="none" stroke-width="1" fill="none" fill-rule="evenodd">
        <g id="企业用户后台" transform="translate(-338.000000, -460.000000)" fill-rule="nonzero">
            <g id="会员" transform="translate(338.000000, 460.000000)">
                <rect id="矩形" fill="#000000" opacity="0" x="0" y="0" width="60" height="60"></rect>
                <path d="M44.765625,7.04289295 C45.4980469,7.03710938 46.2246094,7.37109375 46.6992188,7.99804688 L46.6992188,7.99804688 L57.6503906,22.5292969 C57.8320313,22.7636719 57.9550781,23.0214844 58.0371094,23.2910156 C58.3066406,24.0878906 58.1425781,24.9960938 57.5449219,25.6640625 L57.5449219,25.6640625 L32.296875,53.5253906 C32.1679688,53.8183594 31.9746094,54.09375 31.7167969,54.328125 C30.8847656,55.078125 29.671875,55.1425781 28.7753906,54.5449219 C28.640625,54.4628906 28.5117188,54.3691406 28.3886719,54.2578125 C28.2246094,54.1113281 28.0898438,53.953125 27.9785156,53.7773438 L27.9785156,53.7773438 L2.5546875,25.7285156 C1.95117188,25.0605469 1.79296875,24.1523438 2.05664063,23.3554688 C2.13867188,23.0917969 2.26757813,22.828125 2.44335938,22.59375 L2.44335938,22.59375 L13.2304688,8.27929688 C13.640625,7.54101563 14.4257813,7.04289295 15.328125,7.04289295 L15.328125,7.04289295 Z M44.2089844,24.796875 C43.2304687,23.90625 41.7128906,23.9765625 40.8222656,24.9609375 L40.8222656,24.9609375 L30.4507505,36.4078191 L20.0800781,24.9609375 C19.1894531,23.9765625 17.671875,23.90625 16.6933594,24.796875 C15.7089844,25.6875 15.6386719,27.2050781 16.5292969,28.1835938 L28.5868271,41.4874779 C28.6630852,41.5811692 28.747437,41.6703001 28.8398437,41.7539063 C29.2024056,42.0839027 29.6389736,42.2811707 30.0902351,42.3489888 C30.0951852,42.348691 30.1001964,42.3494425 30.1052096,42.3501781 C30.1494017,42.3575473 30.1937109,42.3626628 30.2380988,42.3665429 C30.2507359,42.3670601 30.2633946,42.3681032 30.2760603,42.3690461 C30.3093628,42.3719399 30.3427068,42.3736275 30.3760629,42.3746226 C30.4011717,42.3752283 30.426495,42.3756605 30.4518228,42.3756933 C30.4771459,42.3756491 30.5021633,42.3752174 30.5271675,42.3743972 C30.5599025,42.3736344 30.5929861,42.3719632 30.6260368,42.3696078 C30.6394428,42.3681331 30.6527851,42.3670351 30.6661185,42.3658263 C30.7090351,42.3626315 30.7517919,42.3577046 30.7944273,42.351623 C30.8021997,42.3495996 30.810203,42.3483997 30.8182008,42.3471594 C30.8655812,42.3408624 30.9126054,42.3322264 30.9594006,42.3221685 C30.9619533,42.3203875 30.964964,42.3197298 30.9679735,42.3190662 C31.1736588,42.2752685 31.3744034,42.2029344 31.5648778,42.1028918 C31.5682506,42.0997134 31.5726022,42.0974191 31.576948,42.0951107 C31.6187663,42.0742097 31.6591029,42.0511664 31.6989022,42.0268408 C31.7080496,42.0200915 31.7177688,42.0140795 31.7274528,42.0079926 C31.8088763,41.9577296 31.8876304,41.9011738 31.9635726,41.8391957 C31.9807881,41.824721 31.9981906,41.8101625 32.0154257,41.7953225 L32.0625,41.7539063 L32.0625,41.7539063 L32.0853604,41.7326924 C32.1339594,41.6874353 32.1810785,41.6398163 32.2265625,41.5898438 L32.1447505,41.6728191 L32.1857092,41.6342781 C32.1932024,41.6264691 32.2006327,41.6186206 32.2080002,41.6107332 L32.2265625,41.5898438 L44.3730469,28.1835938 C45.2636719,27.2050781 45.1933594,25.6875 44.2089844,24.796875 Z" id="路径-2" fill="#FFFFFF"></path>
            </g>
        </g>
    </g>
</svg>