<?xml version="1.0" encoding="UTF-8"?>
<svg width="60px" height="60px" viewBox="0 0 60 60" version="1.1" xmlns="http://www.w3.org/2000/svg" xmlns:xlink="http://www.w3.org/1999/xlink">
    <title>矩形</title>
    <g id="修改" stroke="none" stroke-width="1" fill="none" fill-rule="evenodd">
        <g id="后台图标" transform="translate(-1294.000000, -755.000000)" fill-rule="nonzero">
            <g id="活动" transform="translate(1294.000000, 755.000000)">
                <rect id="矩形" fill="#000000" opacity="0" x="0" y="0" width="60" height="60"></rect>
                <path d="M54.0202075,21.4457766 L47.2612151,0.669271172 C47.2022187,0.49049064 47.0558251,0.354343138 46.8732409,0.308451238 C46.6906567,0.262559338 46.4972872,0.313308595 46.3607706,0.442947598 C35.0203422,11.109255 21.67695,4.17567023 10.6695406,11.6491985 L7.06937895,12.8179981 C6.22034236,13.0939234 5.75569854,14.0058412 6.03152367,14.8549104 L20.2575778,58.5935606 C20.5341849,59.4419494 21.4458915,59.905762 22.2944901,59.6297993 L24.5108447,58.908797 C25.3598813,58.6328717 25.8245251,57.7209538 25.5487,56.8718847 L17.9118954,33.3843459 C28.730163,24.1810588 49.6747945,28.6040684 53.96201,21.917823 C54.0515573,21.7772856 54.0729391,21.6038553 54.0202075,21.4457766 Z" id="路径" fill="#FFFFFF"></path>
            </g>
        </g>
    </g>
</svg>