<?xml version="1.0" encoding="UTF-8"?>
<svg width="28px" height="28px" viewBox="0 0 28 28" version="1.1" xmlns="http://www.w3.org/2000/svg" xmlns:xlink="http://www.w3.org/1999/xlink">
    <title>矩形</title>
    <g id="技联在线3" stroke="none" stroke-width="1" fill="none" fill-rule="evenodd">
        <g id="画板备份" transform="translate(-1251.000000, -794.000000)" fill-rule="nonzero">
            <g id="ios" transform="translate(1251.000000, 794.000000)">
                <rect id="矩形" fill="#000000" opacity="0" x="0" y="0" width="28" height="28"></rect>
                <path d="M21.359625,14.1516758 C21.3965391,17.9935273 24.8932852,19.2720391 24.934,19.2897578 C24.9022266,19.3776953 24.3736719,21.112 23.0888164,22.9036992 C21.9785508,24.4520664 20.8286094,25.9917109 19.0139688,26.0234297 C17.2286406,26.0552852 16.6569648,25.0149375 14.6170664,25.0149375 C12.5782617,25.0149375 11.9403594,25.9917383 10.2530859,26.0553125 C8.50352344,26.1189961 7.16901172,24.3845547 6.04955859,22.8425039 C3.76001172,19.6870625 2.01288281,13.9274297 4.36105469,10.0398047 C5.52622656,8.10799609 7.61077734,6.88687891 9.87106641,6.853875 C11.5914805,6.82453516 13.2162188,7.96039453 14.2654805,7.96039453 C15.3185703,7.96039453 17.2910391,6.59536719 19.3653906,6.79522266 C20.232625,6.82967578 22.6711953,7.12884375 24.2361328,9.31153125 C24.1113633,9.38916016 21.3264844,10.9326055 21.359543,14.1516484 L21.359543,14.1516484 L21.359625,14.1516758 Z M14.0553984,6.50622656 C13.8542031,5.0456875 14.608043,3.52769922 15.4689336,2.57397656 C16.4303672,1.50048828 18.0525625,0.702105469 19.3922422,0.651164063 C19.5641523,2.13847266 18.9351641,3.63217969 18.0068164,4.70815625 C17.0759531,5.78046875 15.5503633,6.61702344 14.0554531,6.50622656 L14.0554531,6.50622656 L14.0553984,6.50622656 Z" id="形状" fill="#FFFFFF"></path>
            </g>
        </g>
    </g>
</svg>