<?xml version="1.0" encoding="UTF-8"?>
<svg width="28px" height="29px" viewBox="0 0 28 29" version="1.1" xmlns="http://www.w3.org/2000/svg" xmlns:xlink="http://www.w3.org/1999/xlink">
    <title>矩形</title>
    <g id="技联在线3" stroke="none" stroke-width="1" fill="none" fill-rule="evenodd">
        <g id="热搜备份-2" transform="translate(-932.000000, -562.000000)" fill-rule="nonzero">
            <g id="密码备份-4" transform="translate(932.000000, 562.421222)">
                <rect id="矩形" fill="#000000" opacity="0" x="0" y="0" width="28" height="28"></rect>
                <path d="M24.8035156,11.8152344 L22.3699219,9.34882813 L20.059375,11.6921875 L19.2910156,11.6921875 L16.9449219,9.3625 L14.634375,11.6566406 C13.7894531,8.94414063 11.3148438,6.98085938 8.39453125,6.98085938 C4.77695313,6.98085938 1.84296875,9.996875 1.84296875,13.715625 C1.84296875,17.434375 4.77695313,20.4503906 8.39453125,20.4503906 C11.3285156,20.4503906 13.8113281,18.4679688 14.6453125,15.7363281 L24.128125,15.7363281 C25.2082031,15.7363281 26.0832031,14.8503906 26.0832031,13.7566406 L26.0832031,13.671875 C26.0832031,12.81875 25.55,12.0941406 24.8035156,11.8152344 Z M8.39453125,16.4035156 C6.94804688,16.4035156 5.775,15.1976563 5.775,13.7101563 C5.775,12.2226562 6.94804688,11.0167969 8.39453125,11.0167969 C9.84101563,11.0167969 11.0140625,12.2226562 11.0140625,13.7101563 C11.0140625,15.1976563 9.84101563,16.4035156 8.39453125,16.4035156 Z" id="形状" fill="#999999"></path>
            </g>
        </g>
    </g>
</svg>