<?xml version="1.0" encoding="UTF-8"?>
<svg width="36px" height="36px" viewBox="0 0 36 36" version="1.1" xmlns="http://www.w3.org/2000/svg" xmlns:xlink="http://www.w3.org/1999/xlink">
    <title>矩形</title>
    <g id="技联在线3" stroke="none" stroke-width="1" fill="none" fill-rule="evenodd">
        <g id="热搜备份-2" transform="translate(-1137.000000, -439.000000)" fill-rule="nonzero">
            <g id="手机号码备份-5" transform="translate(1137.000000, 439.000000)">
                <rect id="矩形" fill="#000000" opacity="0" x="0" y="0" width="36" height="36"></rect>
                <path d="M18.09375,30.5862857 L18.1008611,29.4434286 L18.0866389,29.4445714 L18.09375,30.5862857 Z M25.7777778,2 L10.2222222,2 C8.99555556,2 8,3.024 8,4.28571429 L8,31.7142857 C8,32.976 8.99555556,34 10.2222222,34 L25.7777778,34 C27.0044444,34 28,32.976 28,31.7142857 L28,4.28571429 C28,3.024 27.0044444,2 25.7777778,2 Z M18,31.7291429 C16.7744444,31.7291429 15.7777778,30.704 15.7777778,29.4434286 C15.7777778,28.1828571 16.7744444,27.1577143 18,27.1577143 C19.2255556,27.1577143 20.2222222,28.1828571 20.2222222,29.4434286 C20.2222222,30.704 19.2255556,31.7291429 18,31.7291429 Z M24.6666667,24.8571429 L11.3333333,24.8571429 L11.3333333,5.42857143 L24.6666667,5.42857143 L24.6666667,24.8571429 Z" id="形状" fill="#999999"></path>
            </g>
        </g>
    </g>
</svg>