<?xml version="1.0" encoding="UTF-8"?>
<svg width="60px" height="60px" viewBox="0 0 60 60" version="1.1" xmlns="http://www.w3.org/2000/svg" xmlns:xlink="http://www.w3.org/1999/xlink">
    <title>矩形</title>
    <g id="修改" stroke="none" stroke-width="1" fill="none" fill-rule="evenodd">
        <g id="管理员后台" transform="translate(-1597.000000, -575.000000)" fill-rule="nonzero">
            <g id="首页轮播图" transform="translate(1597.000000, 575.000000)">
                <rect id="矩形" fill="#000000" opacity="0" x="0" y="0" width="60" height="60"></rect>
                <path d="M12,47.9931973 C12,47.9931973 14.4598771,32.8231293 19.3528207,32.8231293 C24.252467,32.8231293 23.6693353,37.0612245 27.349097,37.0612245 C31.0355613,37.0612245 32.5570657,24 37.5036306,24 C42.4501955,24 48,48 48,48 L12,48 L12,47.9931973 Z M19.5,18 C21.9880775,18 24,20.0089286 24,22.5 C24,24.9910714 21.9880775,27 19.5,27 C17.0119225,27 15,24.9910714 15,22.5 C15,20.0089286 17.0119225,18 19.5,18 Z M47.9909047,9 L12.0023935,9 C10.347056,9 9,10.3466263 9,12.0014356 L9,47.9985644 C9,49.6600734 10.347056,51 12.0023935,51 L47.9976065,51 C49.652944,51 51,49.6600734 51,47.9985644 L51,12.0014356 C50.9932982,10.3466263 49.652944,9 47.9909047,9 Z M54,18 L57.0234637,18 C58.6726257,18 60,19.3605138 60,20.9891092 L60,39.0108908 C60,40.6662943 58.6324022,42 57.0234637,42 L54,42 L54,18 Z M6,18 L2.97653631,18 C1.36759777,18 0,19.3404077 0,20.9891092 L0,39.0108908 C0,40.6461882 1.33407821,42 2.97653631,42 L6,42 L6,18 Z" id="形状" fill="#FFFFFF"></path>
            </g>
        </g>
    </g>
</svg>