<?xml version="1.0" encoding="UTF-8"?>
<svg width="48px" height="48px" viewBox="0 0 48 48" version="1.1" xmlns="http://www.w3.org/2000/svg" xmlns:xlink="http://www.w3.org/1999/xlink">
    <!-- Generator: Sketch 63.1 (92452) - https://sketch.com -->
    <title>矩形</title>
    <desc>Created with Sketch.</desc>
    <g id="技联在线3" stroke="none" stroke-width="1" fill="none" fill-rule="evenodd">
        <g id="1首页" transform="translate(-1424.000000, -975.000000)">
            <g id="客户经理备份-3" transform="translate(1424.000000, 975.000000)">
                <rect id="矩形" fill="#000000" fill-rule="nonzero" opacity="0" x="0" y="0" width="48" height="48"></rect>
                <circle id="椭圆形" fill="#13BE74" cx="21.5" cy="15.5" r="9.5"></circle>
                <path d="M0.5,45.5 L38.5,45.5 C36.4342757,33.5 30.1009423,27.5 19.5,27.5 C8.89905766,27.5 2.56572433,33.5 0.5,45.5 Z" id="路径-3" fill="#13BE74"></path>
                <path d="M47.9678571,43.0696429 C47.925,38.2428571 45.8946429,33.6785714 42.3910714,30.55 C39.8357143,28.2678571 35.9464286,25.675 30.6375,24.4214286 C34.2428571,22.1875 36.6589286,18.2071429 36.6589286,13.6589286 C36.6589286,6.67857143 30.9803571,1 24,1 C17.0196429,1 11.3410714,6.67857143 11.3410714,13.6589286 C11.3410714,18.2017857 13.7517857,22.1767857 17.3517857,24.4160714 C16.725,24.6357143 16.3339286,25.2785714 16.4839286,25.9428571 C16.6446429,26.6607143 17.3625,27.1107143 18.075,26.9553571 C19.3232143,26.6767857 20.6303571,26.4946429 21.9642857,26.4035714 L19.35,41.65 L21.6696429,43.9696429 L2.68928571,43.9696429 L2.7,42.9785714 C2.73214286,38.9232143 4.41964286,35.0982143 7.31785714,32.4892857 C9.09642857,30.8875 11.0892857,29.575 13.2321429,28.5839286 C13.9017857,28.2732143 14.1910714,27.4857143 13.8803571,26.8160714 C13.5696429,26.1464286 12.7821429,25.8571429 12.1125,26.1678571 C9.72857143,27.2714286 7.51071429,28.7285714 5.53392857,30.5125 C2.07857143,33.6196429 0.075,38.1571429 0.0321428571,42.9625 L0,46.6321429 L48,46.6321429 L47.9678571,43.0696429 Z M14.0035714,13.6589286 C14.0035714,8.14642857 18.4875,3.6625 24,3.6625 C29.5125,3.6625 33.9964286,8.14642857 33.9964286,13.6589286 C33.9964286,19.0910714 29.6357143,23.5160714 24.2357143,23.6446429 C24.1553571,23.6339286 24.0857143,23.6017857 24.0053571,23.6017857 C23.925,23.6017857 23.85,23.6339286 23.7696429,23.6446429 C18.3642857,23.5160714 14.0035714,19.0910714 14.0035714,13.6589286 L14.0035714,13.6589286 Z M25.7946429,40.7392857 L24,42.5339286 L22.2053571,40.7392857 L24,30.2821429 L25.7946429,40.7392857 Z M26.3303571,43.9696429 L28.65,41.65 L26.0357143,26.4035714 C32.9142857,26.9178571 37.7196429,29.95 40.6125,32.5375 C43.5589286,35.1678571 45.2625,39.0142857 45.3,43.0910714 L45.3053571,43.9696429 L26.3303571,43.9696429 Z" id="形状" fill="#FFFFFF" fill-rule="nonzero"></path>
            </g>
        </g>
    </g>
</svg>