<?xml version="1.0" encoding="UTF-8"?>
<svg width="36px" height="36px" viewBox="0 0 36 36" version="1.1" xmlns="http://www.w3.org/2000/svg" xmlns:xlink="http://www.w3.org/1999/xlink">
    <title>矩形</title>
    <g id="技联在线3" stroke="none" stroke-width="1" fill="none" fill-rule="evenodd">
        <g id="文档下载" transform="translate(-438.000000, -799.000000)" fill-rule="nonzero">
            <g id="zhi_bo" transform="translate(438.000000, 799.000000)">
                <rect id="矩形" fill="#000000" opacity="0" x="0" y="0" width="36" height="36"></rect>
                <path d="M31.9324219,35.9929687 L4.22226563,35.9929687 C2.15859375,35.9929687 0.478125,34.3125 0.478125,32.2488281 L0.478125,11.2359375 C0.478125,9.17226563 2.15859375,7.49179688 4.22226563,7.49179688 L31.9324219,7.49179688 C33.9960937,7.49179688 35.6765625,9.17226563 35.6765625,11.2359375 L35.6765625,32.2488281 C35.6765625,34.3125 33.9960937,35.9929687 31.9324219,35.9929687 L31.9324219,35.9929687 Z M4.22226562,9.60117187 C3.32226562,9.60117187 2.5875,10.3359375 2.5875,11.2359375 L2.5875,32.2488281 C2.5875,33.1488281 3.32226562,33.8835937 4.22226562,33.8835937 L31.9324219,33.8835937 C32.8324219,33.8835937 33.5671875,33.1488281 33.5671875,32.2488281 L33.5671875,11.2359375 C33.5671875,10.3359375 32.8324219,9.60117187 31.9324219,9.60117187 L4.22226562,9.60117187 Z M12.9023437,9.5203125 L8.31796875,1.61015625 C8.0296875,1.10390625 8.20898438,0.460546875 8.71523437,0.172265625 C9.22148437,-0.116015625 9.86484375,0.06328125 10.153125,0.56953125 L14.7375,8.47617187 L12.9023438,9.5203125 L12.9023437,9.5203125 Z M22.4472656,9.5203125 L20.6121094,8.4796875 L25.1964844,0.56953125 C25.4847656,0.06328125 26.128125,-0.116015625 26.634375,0.172265625 C27.140625,0.460546875 27.3199219,1.10390625 27.0316406,1.61015625 L22.4472656,9.5203125 L22.4472656,9.5203125 Z M14.0449219,28.7753906 C13.6195312,28.7753906 13.1941406,28.6558594 12.8179687,28.4238281 C12.1289062,27.9949219 11.7175781,27.2566406 11.7175781,26.4445312 L11.7175781,16.4742188 C11.7175781,15.6726563 12.121875,14.9378906 12.796875,14.5089844 C13.471875,14.0800781 14.3085937,14.0238281 15.0328125,14.3648438 L15.0714844,14.3824219 L24.215625,19.1109375 C25.0453125,19.5398437 25.5621094,20.3871094 25.5621094,21.31875 C25.5621094,22.2292969 25.0664062,23.0625 24.2683594,23.5019531 L15.0996094,28.5222656 L15.0785156,28.5328125 C14.7515625,28.6945312 14.4,28.7753906 14.0449219,28.7753906 L14.0449219,28.7753906 Z M14.0484375,16.2527344 C13.9992187,16.2527344 13.9605469,16.2703125 13.9324219,16.2878906 C13.8867187,16.3160156 13.8304687,16.3722656 13.8304687,16.4742187 L13.8304687,26.4445312 C13.8304687,26.5464844 13.8867188,26.6027344 13.9359375,26.6308594 C13.9816406,26.6589844 14.0519531,26.6835937 14.1363281,26.6484375 L23.259375,21.6527344 C23.3789062,21.5859375 23.45625,21.459375 23.45625,21.3222656 C23.45625,21.1816406 23.3789062,21.0515625 23.2523437,20.9882812 L14.1292969,16.2667969 C14.1011719,16.25625 14.0730469,16.2527344 14.0484375,16.2527344 Z" id="形状" fill="#4B8BF4"></path>
            </g>
        </g>
    </g>
</svg>