<?xml version="1.0" encoding="UTF-8"?>
<svg width="36px" height="36px" viewBox="0 0 36 36" version="1.1" xmlns="http://www.w3.org/2000/svg" xmlns:xlink="http://www.w3.org/1999/xlink">
    <title>矩形</title>
    <g id="技联在线3" stroke="none" stroke-width="1" fill="none" fill-rule="evenodd">
        <g id="文档下载" transform="translate(-904.000000, -1237.000000)" fill-rule="nonzero">
            <g id="数据分析线性" transform="translate(903.000000, 1237.000000)">
                <rect id="矩形" fill="#000000" opacity="0" x="1" y="0" width="36" height="36"></rect>
                <path d="M36.6170212,1 L1.38297875,1 C1.28140647,1 1.18399432,1.0395088 1.11217187,1.10983495 C1.04034942,1.1801611 1,1.27554383 1,1.37500003 L1,30.625 C1,30.7244562 1.04034943,30.8198389 1.11217188,30.8901651 C1.18399433,30.9604912 1.28140648,31 1.38297875,31 L36.6170212,31 C36.7185935,31 36.8160057,30.9604912 36.8878281,30.8901651 C36.9596506,30.8198389 37,30.7244562 37,30.625 L37,1.37500003 C37,1.27554383 36.9596506,1.1801611 36.8878281,1.10983495 C36.8160057,1.0395088 36.7185935,1 36.6170212,1 L36.6170212,1 Z M35,28.6285714 C35,28.8337058 34.8294418,29 34.6190476,29 L3.38095237,29 C3.17055818,29 3,28.8337058 3,28.6285714 L3,3.37142856 C3,3.16629423 3.17055818,3 3.38095237,3 L34.6190476,3 C34.8294418,3 35,3.16629423 35,3.37142856 L35,28.6285714 Z M37.62,35 L0.380000029,35 C0.279217752,35 0.182563251,34.9578573 0.111299419,34.8828427 C0.0400355868,34.8078282 0,34.7060866 0,34.6 L0,33.4 C0,33.2939134 0.0400356039,33.1921718 0.111299434,33.1171573 C0.182563265,33.0421427 0.27921776,33 0.380000029,33 L37.62,33 C37.7207822,33 37.8174367,33.0421427 37.8887006,33.1171573 C37.9599644,33.1921718 38,33.2939134 38,33.4 L38,34.6 C38,34.7060866 37.9599644,34.8078282 37.8887006,34.8828427 C37.8174367,34.9578573 37.7207822,35 37.62,35 L37.62,35 Z" id="形状" fill="#007AFF"></path>
                <path d="M15.6363636,20 L8.36363635,20 C8.16280554,20 8,19.8209139 8,19.6 L8,18.4 C8,18.1790861 8.16280554,18 8.36363635,18 L15.6363636,18 C15.732806,18 15.8252983,18.0421427 15.8934934,18.1171573 C15.9616884,18.1921718 16,18.2939134 16,18.4 L16,19.6 C16,19.8209139 15.8371945,20 15.6363636,20 Z M15.6190476,25 L8.38095237,25 C8.17055818,25 8,24.8209139 8,24.6 L8,23.4 C8,23.1790861 8.17055818,23 8.38095237,23 L15.6190476,23 C15.7200824,23 15.8169792,23.0421427 15.8884216,23.1171573 C15.9598641,23.1921718 16,23.2939134 16,23.4 L16,24.6 C16,24.7060866 15.9598641,24.8078282 15.8884216,24.8828427 C15.8169792,24.9578573 15.7200824,25 15.6190476,25 L15.6190476,25 Z M28.6363636,25 L21.3636364,25 C21.1628055,25 21,24.8209139 21,24.6 L21,23.4 C21,23.1790861 21.1628055,23 21.3636364,23 L28.6363636,23 C28.8371945,23 29,23.1790861 29,23.4 L29,24.6 C29,24.8209139 28.8371945,25 28.6363636,25 L28.6363636,25 Z M30,14.2488 L30,13.6572 L29.4523333,13 L24.3333333,13 C24.2449278,13 24.1601432,13.0421427 24.0976311,13.1171573 C24.0351189,13.1921718 24,13.2939134 24,13.4 L24,14.6 C24,14.7060866 24.0351189,14.8078281 24.0976311,14.8828427 C24.1601432,14.9578573 24.2449278,15 24.3333333,15 L29.374,15 L30,14.2488 L30,14.2488 Z" id="形状" fill="#007AFF"></path>
                <path d="M30.8749996,13.6242622 L26.6383691,9.99484327 C26.4712492,9.85171891 26.2003478,9.85171891 26.0332279,9.99484327 L25.1253021,10.7726413 C24.9582326,10.9158089 24.9582326,11.1478836 25.1253021,11.2910512 L28.1561438,13.8875 L25.1253021,16.4839488 C24.9582327,16.6271164 24.9582327,16.859191 25.1253021,17.0023586 L26.0332279,17.7801567 C26.2003478,17.9232811 26.4712492,17.9232811 26.6383691,17.7801567 L30.8749996,14.1507378 C30.9597365,14.0781458 31.001035,13.9826396 31,13.8875 C31.0014352,13.7889103 30.9563737,13.6939891 30.8749996,13.6242622 L30.8749996,13.6242622 Z" id="路径" fill="#007AFF"></path>
                <path d="M23.4830495,13.116016 L13.116016,23.4830496 C12.961328,23.6377843 12.961328,23.8886093 13.116016,24.0433441 L13.9566559,24.883984 C14.1113907,25.038672 14.3622157,25.038672 14.5169504,24.883984 L24.883984,14.5169504 C25.038672,14.3622157 25.038672,14.1113906 24.883984,13.9566559 L24.0433441,13.116016 C23.8886093,12.961328 23.6377843,12.961328 23.4830495,13.116016 L23.4830495,13.116016 Z M11,7 C8.79090907,7 7,9.01477275 7,11.5 C7,13.9852272 8.79090911,16 11,16 C13.2090908,16 15,13.9852273 15,11.5 C15,9.0147727 13.2090909,7 11,7 Z M11.5,14 C10.119375,14 9,12.880625 9,11.5 C9,10.119375 10.119375,9 11.5,9 C12.880625,9 14,10.119375 14,11.5 C14,12.880625 12.880625,14 11.5,14 Z" id="形状" fill="#007AFF"></path>
            </g>
        </g>
    </g>
</svg>