<?xml version="1.0" encoding="UTF-8"?>
<svg width="36px" height="36px" viewBox="0 0 36 36" version="1.1" xmlns="http://www.w3.org/2000/svg" xmlns:xlink="http://www.w3.org/1999/xlink">
    <title>矩形</title>
    <g id="技联在线3" stroke="none" stroke-width="1" fill="none" fill-rule="evenodd">
        <g id="文档下载" transform="translate(-882.000000, -803.000000)" fill-rule="nonzero">
            <g id="视屏向上" transform="translate(882.000000, 803.000000)">
                <rect id="矩形" fill="#000000" opacity="0" x="0" y="0" width="36" height="36"></rect>
                <path d="M18.525,7.72499999 C18.375,7.57500001 18.225,7.49999999 18,7.49999999 C17.775,7.49999999 17.625,7.57499998 17.475,7.72499999 L14.475,10.725 C14.325,10.875 14.25,11.025 14.25,11.25 C14.25,11.7 14.55,12 15,12 C15.225,12 15.375,11.925 15.525,11.775 L17.25,10.05 L17.25,18.75 C17.25,19.2 17.55,19.5 18,19.5 C18.45,19.5 18.75,19.2 18.75,18.75 L18.75,10.05 L20.475,11.775 C20.625,11.925 20.775,12 21,12 C21.45,12 21.75,11.7 21.75,11.25 C21.75,11.025 21.675,10.875 21.525,10.725 L18.525,7.72499999 Z M31.5,1.50000001 L4.50000001,1.50000001 C2.85000001,1.50000001 1.50000001,2.85000001 1.50000001,4.50000001 L1.50000001,27 C1.50000001,28.65 2.85000001,30 4.50000001,30 L15,30 L15,33 L12.75,33 C12.3,33 12,33.3 12,33.75 C12,34.2 12.3,34.5 12.75,34.5 L23.25,34.5 C23.7,34.5 24,34.2 24,33.75 C24,33.3 23.7,33 23.25,33 L21,33 L21,30 L31.5,30 C33.15,30 34.5,28.65 34.5,27 L34.5,4.50000001 C34.5,2.85000001 33.15,1.50000001 31.5,1.50000001 Z M19.5,33 L16.5,33 L16.5,30 L19.5,30 L19.5,33 Z M33,27 C33,27.825 32.325,28.5 31.5,28.5 L4.49999999,28.5 C3.67499999,28.5 2.99999999,27.825 2.99999999,27 L2.99999999,25.5 L33,25.5 L33,27 Z M33,24 L2.99999999,24 L2.99999999,4.49999999 C2.99999999,3.67499999 3.67499999,2.99999999 4.49999999,2.99999999 L31.5,2.99999999 C32.325,2.99999999 33,3.67499999 33,4.49999999 L33,24 Z" id="形状" fill="#4B8BF4"></path>
            </g>
        </g>
    </g>
</svg>