<?xml version="1.0" encoding="UTF-8"?>
<svg width="36px" height="36px" viewBox="0 0 36 36" version="1.1" xmlns="http://www.w3.org/2000/svg" xmlns:xlink="http://www.w3.org/1999/xlink">
    <title>矩形</title>
    <g id="技联在线3" stroke="none" stroke-width="1" fill="none" fill-rule="evenodd">
        <g id="文档下载" transform="translate(-1306.000000, -1242.000000)" fill-rule="nonzero">
            <g id="企业诊断" transform="translate(1306.000000, 1242.000000)">
                <rect id="矩形" fill="#000000" opacity="0" x="0" y="0" width="36" height="36"></rect>
                <path d="M24.291,25.36398 C24.0384435,25.1121118 24.0149061,24.7108912 24.23628,24.43122 C25.2176438,23.1930053 25.7504383,21.6587704 25.7477502,20.07882 C25.7477502,16.19622 22.59432,13.04856 18.70434,13.04856 C14.81436,13.04856 11.66094,16.19622 11.66094,20.079 C11.66094,23.9616 14.81436,27.10926 18.70434,27.10926 C19.99134,27.10926 21.22596,26.76492 22.30614,26.12196 C22.5832071,25.9570555 22.9368207,26.0009978 23.1651,26.2287 L23.6952,26.7579 L24.69132,25.76358 L24.291,25.36398 L24.291,25.36398 Z M26.1855,25.26642 C26.3176229,25.3981327 26.3918833,25.5770198 26.3918833,25.76358 C26.3918833,25.9501402 26.3176229,26.1290273 26.1855,26.26074 L24.19326,28.2492 C23.9179891,28.5237877 23.4724109,28.5237877 23.19714,28.2492 L22.54356,27.5967 C21.3545434,28.2024107 20.0387472,28.5172789 18.70434,28.5154282 C14.0364,28.5154282 10.25226,24.7383 10.25226,20.07882 C10.25226,15.4197 14.0364,11.64258 18.70434,11.64258 C23.37228,11.64258 27.1566082,15.4197 27.1566082,20.079 C27.1589485,21.7602156 26.6561348,23.4033589 25.71336,24.79536 L26.1855,25.26642 L26.1855,25.26642 Z M26.1,29.1582 L29.5362,32.58828 C29.8114709,32.8628677 30.2570491,32.8628677 30.53232,32.58828 C30.6644429,32.4565673 30.7387033,32.2776802 30.7387033,32.09112 C30.7387033,31.9045598 30.6644429,31.7256727 30.53232,31.59396 L27.09612,28.16406 L26.1,29.1582 Z M27.594,26.67276 L31.52844,30.59964 C32.35374,31.42332 32.35374,32.75874 31.52844,33.58242 C30.70332,34.4061 29.36538,34.4061 28.54026,33.58242 L24.60582,29.65536 C24.4737523,29.5236545 24.399527,29.344806 24.399527,29.15829 C24.399527,28.971774 24.4737523,28.7929255 24.60582,28.66122 L26.59806,26.67276 C26.8733309,26.3981723 27.3189091,26.3981723 27.59418,26.67276 L27.594,26.67276 Z M28.7019,10.74456 C28.8339677,10.8762655 28.908193,11.055114 28.908193,11.24163 C28.908193,11.428146 28.8339677,11.6069945 28.7019,11.7387 L19.63944,20.78424 C19.3641691,21.0588277 18.9185909,21.0588277 18.64332,20.78424 L16.41654,18.5616 L14.18976,20.78424 C13.9144891,21.0588277 13.4689109,21.0588277 13.19364,20.78424 C13.0615723,20.6525345 12.987347,20.473686 12.987347,20.28717 C12.987347,20.100654 13.0615723,19.9218055 13.19364,19.7901 L15.91848,17.0703 C16.1937509,16.7957123 16.6393291,16.7957123 16.9146,17.0703 L19.14138,19.29294 L27.70578,10.74456 C27.9810509,10.4699723 28.4266291,10.4699723 28.7019,10.74456 L28.7019,10.74456 Z M32.08698,22.8913202 C32.4756078,22.8916184 32.7909225,22.5768677 32.79132,22.18824 L32.79132,3.90906 C32.7908232,3.52050259 32.4755376,3.20586156 32.08698,3.20615979 L3.91302,3.20615979 C3.52446238,3.20586156 3.20917676,3.52050259 3.20868,3.90906 L3.20868,22.18806 C3.20907746,22.5766877 3.52439218,22.8913202 3.91302,22.8913202 L10.73322,22.8913202 C10.4139365,21.9879865 10.2512772,21.0369286 10.25226,20.079 C10.25226,15.4197 14.0364,11.6424 18.70434,11.6424 C23.37228,11.6424 27.1566,15.4197 27.1566,20.079 C27.1566,21.04956 26.9919,21.99762 26.67546,22.8913202 L32.08698,22.8913202 L32.08698,22.8913202 Z M24.98022,23.27436 C25.4864562,22.2854701 25.7495736,21.1901143 25.74774,20.07918 C25.74774,16.1964 22.59432,13.04874 18.70434,13.04874 C14.81436,13.04874 11.66094,16.1964 11.66094,20.07918 C11.659135,21.1900534 11.9222516,22.2853442 12.42846,23.27418 L12.95244,24.2973 L3.91302,24.2973 C2.74608,24.2973 1.8,23.35302 1.8,22.18824 L1.8,3.90906 C1.8,2.74428 2.74608,1.8 3.9132,1.8 L32.0868,1.8 C33.25392,1.8 34.2,2.74428 34.2,3.90906 L34.2,22.18806 C34.2,23.35284 33.25392,24.2973 32.0868,24.2973 L24.45642,24.2973 L24.98022,23.27418 L24.98022,23.27436 Z" id="形状" fill="#4B8BF4"></path>
            </g>
        </g>
    </g>
</svg>