<?xml version="1.0" encoding="UTF-8"?>
<svg width="36px" height="36px" viewBox="0 0 36 36" version="1.1" xmlns="http://www.w3.org/2000/svg" xmlns:xlink="http://www.w3.org/1999/xlink">
    <title>矩形</title>
    <g id="技联在线3" stroke="none" stroke-width="1" fill="none" fill-rule="evenodd">
        <g id="文档下载" transform="translate(-469.000000, -1237.000000)" fill-rule="nonzero">
            <g id="风险测评" transform="translate(469.000000, 1237.000000)">
                <rect id="矩形" fill="#000000" opacity="0" x="0" y="0" width="36" height="36"></rect>
                <path d="M12.09375,1.828125 L5.90625,1.828125 L5.90625,34.171875 L30.09375,34.171875 L30.09375,1.828125 L23.90625,1.828125 L22.1975508,5.24548828 C21.9950799,5.65043871 21.5811956,5.90624127 21.1284492,5.90625 L14.8715508,5.90625 C14.4188044,5.90624127 14.0049201,5.65043871 13.8024492,5.24548828 L12.09375,1.828125 Z M5.2734375,0 L30.7265625,0 C31.3867266,0 31.921875,0.535148437 31.921875,1.1953125 L31.921875,34.8046875 C31.921875,35.4648516 31.3867266,36 30.7265625,36 L5.2734375,36 C4.61327344,36 4.078125,35.4648516 4.078125,34.8046875 L4.078125,1.1953125 C4.078125,0.535148438 4.61327344,0 5.2734375,0 Z M18,4.46484375 C18.8542969,4.46484375 19.546875,3.77226563 19.546875,2.91796875 C19.546875,2.06367188 18.8542969,1.37109375 18,1.37109375 C17.1457031,1.37109375 16.453125,2.06367188 16.453125,2.91796875 C16.453125,3.77226563 17.1457031,4.46484375 18,4.46484375 Z" id="形状" fill="#4B8BF4"></path>
                <path d="M16.0617175,18.5251045 L9.08749829,11.5509264 L7.34396404,13.2944607 L16.0617175,22.0122141 L29.1383476,8.93558396 L27.3948134,7.19204971 L16.0617175,18.5251045 Z M6.234375,29.9301593 L30.234375,29.9301593 L30.234375,32.0671456 L6.234375,32.0671456 L6.234375,29.9301593 Z" id="形状" fill="#4B8BF4"></path>
            </g>
        </g>
    </g>
</svg>