<?xml version="1.0" encoding="UTF-8"?>
<svg width="36px" height="36px" viewBox="0 0 36 36" version="1.1" xmlns="http://www.w3.org/2000/svg" xmlns:xlink="http://www.w3.org/1999/xlink">
    <title>矩形</title>
    <g id="技联在线3" stroke="none" stroke-width="1" fill="none" fill-rule="evenodd">
        <g id="文档下载" transform="translate(-1338.000000, -797.000000)" fill-rule="nonzero">
            <g id="政策智配" transform="translate(1338.000000, 797.000000)">
                <rect id="矩形" fill="#000000" opacity="0" x="0" y="0" width="36" height="36"></rect>
                <path d="M3.84512358,0.57519102 C4.284,0.213977531 4.85312358,0.0206292305 5.4210337,0.0299325938 C12.7828314,0.0295280859 20.1446292,0.0299325938 27.506427,0.0295280859 C27.8441798,0.0289127645 28.1884045,0.0194157422 28.5164494,0.113258426 C29.3557753,0.333707871 30.0697079,1.04359549 30.236764,1.90071911 C30.237573,11.9807191 30.2371686,22.0607191 30.236764,32.1407191 C22.3689438,32.1415281 14.5011236,32.1407191 6.63330336,32.1411236 C6.43146068,32.1427415 6.22152809,32.1233258 6.03020225,32.2013933 C5.70215732,32.324764 5.46188766,32.654427 5.45501123,33.0063371 C5.45622472,33.2413483 5.42588766,33.4893034 5.52458426,33.7109663 C5.65847191,34.0365843 5.99743818,34.2635056 6.35015732,34.2602697 C14.6422922,34.2614831 22.9348315,34.2598652 31.2273708,34.2606742 C31.4211236,34.2614831 31.6241797,34.272 31.8053933,34.1898877 C32.1423371,34.0523596 32.3696629,33.6964045 32.3571236,33.333573 C32.3579326,22.9194607 32.3559101,12.5053483 32.3579326,2.09123596 C32.7737528,2.22633707 33.156,2.46943821 33.4452135,2.79829213 C33.8100674,3.20561796 34.022427,3.73793259 34.058427,4.28238204 L34.058427,33.6506966 C34.0337528,33.9730787 33.9617528,34.2934382 33.8189663,34.5850786 C33.5220674,35.2104269 32.9456629,35.6946067 32.2770337,35.8758202 C32.0278652,35.9470112 31.7677753,35.9676404 31.5097079,35.9654013 C22.8005393,35.964 14.0913708,35.966427 5.38220225,35.964 C4.38310114,35.9801798 3.42485395,35.3083146 3.09519102,34.3658427 C2.9083146,33.8942022 2.95523596,33.3804944 2.95038204,32.8849888 C2.95078655,30.5858427 2.94997753,28.2871011 2.95078651,25.9879551 C4.00247191,25.9855281 5.05415728,25.989573 6.10584268,25.9859326 C6.79550562,25.9782472 7.44188762,25.487191 7.63928089,24.8274607 C7.74161796,24.4828314 7.74121349,24.1086742 7.66395506,23.7595955 C7.52723596,23.2098876 7.08876404,22.7491685 6.54593259,22.5873708 C6.31375281,22.5113258 6.06701123,22.5105169 5.82552809,22.5141573 C4.86728089,22.5141573 3.9090337,22.5145618 2.95078651,22.5137528 C2.950382,20.8302472 2.94997753,19.1471461 2.95078651,17.4636405 C3.99074157,17.4628315 5.03069664,17.4636405 6.0706517,17.463236 C6.54957306,17.4648539 7.02080902,17.2395506 7.32741574,16.8730786 C7.59438204,16.56 7.72988766,16.1445843 7.71694383,15.7348314 C7.72988766,15.3525843 7.61905617,14.9658876 7.38808987,14.6592809 C7.0843146,14.2462921 6.57991009,13.9918652 6.06701123,13.9910562 C5.02826966,13.9882247 3.98952809,13.9914607 2.95078651,13.9898427 C2.94997753,12.5761348 2.950382,11.1624269 2.95078651,9.74871911 C3.98912358,9.74710114 5.02786515,9.74993259 6.06620225,9.74750562 C6.55887642,9.7483146 7.04305617,9.51330336 7.34966293,9.1290337 C7.59397753,8.82728089 7.72382025,8.43856179 7.71653932,8.0506517 C7.73676404,7.63644945 7.61339324,7.21294383 7.34844945,6.8909663 C7.04184272,6.50912361 6.55928089,6.27330336 6.06862923,6.27492136 C5.02948315,6.27451685 3.9903371,6.27573034 2.95078651,6.27451685 C2.94997753,4.99186515 2.950382,3.70880898 2.95078651,2.42575281 C2.95361796,1.71626966 3.29298877,1.02013485 3.84512358,0.57519102 M4.56957302,2.42777528 C4.56714605,3.17083145 4.56876404,3.91388762 4.56876404,4.65653932 C5.08166293,4.65815728 5.5949663,4.65613481 6.10786515,4.65775281 C6.74858426,4.66422472 7.38485392,4.86849438 7.91150562,5.23253932 C8.60278651,5.70539324 9.10193259,6.45128089 9.2669663,7.27280898 C9.36364046,7.78125843 9.36080898,8.31155055 9.25240451,8.81797753 C9.07564046,9.60107864 8.59712361,10.3089438 7.94022472,10.7692584 C7.40791012,11.1458427 6.76071911,11.3561798 6.10867417,11.3642697 C5.5953708,11.3691236 5.08206744,11.3646742 4.56876404,11.3666966 C4.56835954,11.701618 4.56795506,12.0365393 4.56876404,12.3718652 C5.10876404,12.3751011 5.64876404,12.3662022 6.18835954,12.3767191 C7.24004494,12.4086742 8.25006741,12.992764 8.81312358,13.8794157 C9.17757302,14.438427 9.35393256,15.1102922 9.33411234,15.7756854 C9.34382021,16.597618 9.02952809,17.4171236 8.47051685,18.0202247 C7.846382,18.7090786 6.91725843,19.1062921 5.98773034,19.081618 C5.51487642,19.0812135 5.041618,19.080809 4.56876404,19.081618 C4.56997753,19.6867415 4.56391012,20.2922697 4.572,20.8973933 C5.06993259,20.8949663 5.56826966,20.8961798 6.06620225,20.8965843 C6.72755055,20.8965843 7.38647191,21.1044944 7.9276854,21.4839101 C8.56193259,21.9235955 9.03276404,22.5934382 9.22651685,23.3409438 C9.358382,23.8518202 9.36525843,24.3926292 9.28152809,24.9124045 C9.13914605,25.7193708 8.67680898,26.4620225 8.01991013,26.9510562 C7.4730337,27.3636404 6.79388766,27.5966292 6.10867417,27.6043146 C5.5953708,27.607146 5.08206744,27.6039101 4.56916855,27.6059326 C4.56771042,28.8258877 4.56876404,30.0458427 4.56835954,31.2657977 C5.03474157,30.7969888 5.68880898,30.5199101 6.35137077,30.5231461 C13.7738427,30.5227416 21.1963146,30.5235506 28.6187865,30.5227416 C28.6195955,21.131191 28.6187865,11.739236 28.619191,2.34728089 C28.6143371,2.26274157 28.6317303,2.17415732 28.6086742,2.09204494 C28.4905618,1.85824719 28.2535281,1.68593259 27.9922247,1.65680898 C27.8166742,1.63941571 27.6403146,1.65074157 27.4643595,1.64750562 C20.1029663,1.6483146 12.741573,1.64629213 5.37977528,1.64871911 C4.95829213,1.63779775 4.57321349,2.00507864 4.56957302,2.42777528 L4.56957302,2.42777528 Z M2.87959549,6.96822472 C3.78080898,6.95528089 4.68242694,6.96620225 5.58404494,6.96256179 C5.90642698,6.9536629 6.23042698,7.10373034 6.42337077,7.36382021 C6.63411234,7.63402247 6.67132583,8.00453932 6.59528089,8.33056179 C6.48930336,8.76053932 6.07024719,9.08858426 5.62611234,9.08211234 C4.74755055,9.08292132 3.86939324,9.08170784 2.99083145,9.08251685 C2.74813481,9.08858426 2.50584268,9.00121349 2.32098877,8.84386515 C1.84611234,8.45271907 1.836,7.63361796 2.29429213,7.22588766 C2.45447191,7.07946068 2.66359549,6.98844945 2.87959549,6.96822472 L2.87959549,6.96822472 Z M13.1541573,7.13164046 C14.1896629,7.11505621 15.2259775,7.12921349 16.2618877,7.12435954 C19.1071011,7.12435954 21.9527191,7.12435954 24.7979326,7.12476404 C25.0523596,7.1203146 25.3059775,7.21820225 25.4924494,7.39132583 C25.9373933,7.79298877 25.9341573,8.58417975 25.4859775,8.98220225 C25.3003146,9.15249438 25.0487191,9.24512361 24.7975281,9.24391012 C20.9673708,9.24431463 17.1372135,9.24350562 13.3070562,9.2443146 C12.9753708,9.25321349 12.6448989,9.09141571 12.4547865,8.81919102 C12.2671011,8.56597753 12.2319101,8.23024719 12.2881348,7.9276854 C12.3690337,7.51348315 12.7346966,7.17694383 13.1541573,7.13164046 L13.1541573,7.13164046 Z M2.72669664,14.6689888 C2.89253932,14.6265169 3.06485395,14.6386517 3.23433707,14.6374382 C3.99033707,14.6370337 4.74633707,14.6378427 5.50233707,14.6370337 C5.66130336,14.6337977 5.82391009,14.6443146 5.97357302,14.7029663 C6.30808988,14.8255281 6.56373034,15.1373933 6.6163146,15.4901123 C6.64665166,15.7259326 6.63492132,15.9767191 6.52530336,16.1927191 C6.36269664,16.5312809 5.99824719,16.7622472 5.62125843,16.7569888 C4.73258426,16.7565843 3.84391012,16.7573933 2.95483145,16.7565843 C2.70647191,16.7557753 2.46256179,16.6526292 2.28175281,16.4839551 C1.84206741,16.0774382 1.84975281,15.2858427 2.30359549,14.8922697 C2.42413481,14.7854831 2.57056179,14.7082247 2.72669664,14.6689888 L2.72669664,14.6689888 Z M13.1642697,15.2720899 C17.028,15.2571236 20.8925393,15.2704719 24.7566742,15.2652135 C25.1203146,15.2462023 25.4851686,15.4375281 25.671236,15.7510112 C25.8253483,15.9945169 25.8451686,16.2978877 25.7982472,16.5761798 C25.7274607,16.9414382 25.4374382,17.2524944 25.0774382,17.3475506 C24.9075506,17.3977079 24.7283596,17.3835506 24.553618,17.3851686 C20.8051685,17.3851686 17.0563146,17.384764 13.3078652,17.3851686 C12.9733483,17.3948764 12.6392359,17.2298427 12.4495281,16.9531686 C12.2646742,16.6983371 12.2315056,16.3622023 12.2901573,16.0600449 C12.3742922,15.6462472 12.7435955,15.3125393 13.1642697,15.2720899 L13.1642697,15.2720899 Z M2.7570337,23.2264719 C2.83469664,23.2086742 2.91478651,23.2042247 2.99406741,23.2042247 C3.87060673,23.2050337 4.74755055,23.2042247 5.62408987,23.2046292 C5.88175281,23.2022023 6.13577528,23.3089888 6.32062923,23.4873708 C6.7546517,23.901573 6.73725846,24.696 6.27370787,25.0818877 C6.09330336,25.2355955 5.85829213,25.3221573 5.62125843,25.3233708 C4.74593259,25.3249887 3.87060673,25.3237753 2.99528089,25.3241798 C2.74570787,25.3270112 2.49573034,25.238427 2.30844945,25.0729888 C1.84206741,24.6745618 1.84085395,23.8582921 2.304,23.4570337 C2.43262923,23.3441798 2.58957302,23.2632809 2.7570337,23.2264719 L2.7570337,23.2264719 Z M13.0020674,23.4444944 C13.1675056,23.3951461 13.3418427,23.4076854 13.5121348,23.4068764 L24.7959101,23.4068764 C25.1344719,23.3987865 25.4669663,23.5779775 25.6518202,23.8611236 C25.8314157,24.1268764 25.8540674,24.4711011 25.7840899,24.7768989 C25.6744719,25.2141573 25.2436854,25.5389663 24.7930786,25.5260225 C20.9649438,25.526427 17.136809,25.5260225 13.3082697,25.526427 C12.9612135,25.5373483 12.6161798,25.3581573 12.4293034,25.0648989 C12.2642697,24.8185618 12.236764,24.5054831 12.2857079,24.2195056 C12.3548764,23.8538427 12.6432809,23.5427865 13.0020674,23.4444944 L13.0020674,23.4444944 Z" id="形状" fill="#4B8BF4"></path>
            </g>
        </g>
    </g>
</svg>