<?xml version="1.0" encoding="UTF-8"?>
<svg width="28px" height="28px" viewBox="0 0 28 28" version="1.1" xmlns="http://www.w3.org/2000/svg" xmlns:xlink="http://www.w3.org/1999/xlink">
    <!-- Generator: Sketch 63.1 (92452) - https://sketch.com -->
    <title>矩形</title>
    <desc>Created with Sketch.</desc>
    <g id="技联在线3" stroke="none" stroke-width="1" fill="none" fill-rule="evenodd">
        <g id="1首页" transform="translate(-90.000000, -3570.000000)" fill-rule="nonzero">
            <g id="角色-copy" transform="translate(90.000000, 3570.000000)">
                <g id="分组">
                    <rect id="矩形" fill="#000000" opacity="0" x="0" y="0" width="28" height="28"></rect>
                    <path d="M16.7968924,15.5538291 C16.7273666,16.1843679 17.0629843,16.7902233 17.6344062,17.0657048 C22.7814152,18.1737256 26.4501503,22.7335596 26.4307101,27.9984462 L1.56936738,27.9984462 C1.59305725,22.7266995 5.27489678,18.1786588 10.4261931,17.0579356 C10.9603484,16.7487034 11.2642049,16.1555756 11.2031076,15.5413984 C8.58179798,14.3806881 7.47391786,10.935849 7.47391786,7.74739178 C7.47391786,3.5054384 10.0004439,0.00155383594 14.0186459,0.00155383594 C18.036848,0.00155383594 20.5618202,3.5054384 20.5618202,7.74739178 C20.5431743,10.9405105 19.427525,14.3884573 16.7968924,15.5538291 Z" id="路径" fill="#DC4D41"></path>
                </g>
            </g>
        </g>
    </g>
</svg>