<?xml version="1.0" encoding="UTF-8"?>
<svg width="16px" height="16px" viewBox="0 0 16 16" version="1.1" xmlns="http://www.w3.org/2000/svg" xmlns:xlink="http://www.w3.org/1999/xlink">
<style type="text/css">
    <![CDATA[
     .normal {fill:#333};
    ]]>
  </style>
    <title>矩形</title>
    <g id="技联在线3" stroke="none" stroke-width="1" fill="none" fill-rule="evenodd">
        <g id="6-1产学研资讯" transform="translate(-338.000000, -417.000000)" fill-rule="nonzero">
            <g id="图片" transform="translate(338.000000, 417.000000)">
                <rect id="矩形" fill="#000000" opacity="0" x="0" y="0" width="16" height="16"></rect>
                <path class="normal" d="M9.3828125,11.9234375 L7.35625,9.390625 C7.0359375,8.990625 6.453125,8.9265625 6.0546875,9.2453125 C6.0015625,9.2875 5.953125,9.3375 5.909375,9.390625 L2.9265625,13.11875 L14.0453125,13.11875 L12.00625,10.4015625 C11.7,9.9921875 11.11875,9.909375 10.709375,10.215625 C10.6390625,10.26875 10.5765625,10.33125 10.5234375,10.4015625 L9.3828125,11.9234375 Z M2.9265625,2 L14.0453125,2 C14.55625,2 14.971875,2.4140625 14.971875,2.9265625 L14.971875,14.0453125 C14.971875,14.55625 14.5578125,14.971875 14.0453125,14.971875 L2.9265625,14.971875 C2.415625,14.971875 2,14.5578125 2,14.0453125 L2,2.9265625 C2,2.415625 2.415625,2 2.9265625,2 Z M11.265625,7.559375 C12.2890625,7.559375 13.11875,6.7296875 13.11875,5.70625 C13.11875,4.6828125 12.2890625,3.853125 11.265625,3.853125 C10.2421875,3.853125 9.4125,4.6828125 9.4125,5.70625 C9.4125,6.7296875 10.2421875,7.559375 11.265625,7.559375 Z" id="形状"  ></path>
            </g>
        </g>
    </g>
</svg>