<?xml version="1.0" encoding="UTF-8"?>
<svg width="48px" height="48px" viewBox="0 0 48 48" version="1.1" xmlns="http://www.w3.org/2000/svg" xmlns:xlink="http://www.w3.org/1999/xlink">
    <!-- Generator: Sketch 63.1 (92452) - https://sketch.com -->
    <title>矩形</title>
    <desc>Created with Sketch.</desc>
    <g id="技联在线3" stroke="none" stroke-width="1" fill="none" fill-rule="evenodd">
        <g id="1首页" transform="translate(-813.000000, -4528.000000)" fill-rule="nonzero">
            <g id="资源-49备份-3" transform="translate(813.000000, 4528.000000)">
                <g id="分组">
                    <rect id="矩形" fill="#000000" opacity="0" x="0" y="0" width="48" height="48"></rect>
                    <polygon id="路径" fill="#0091FF" points="40.1925 12 29.6925 12 29.6925 1.5 32.6925 1.5 32.6925 9 40.1925 9"></polygon>
                    <polygon id="路径" fill="#0091FF" points="41.6925 48 5.6925 48 5.6925 0 31.8075 0 41.6925 9.885 41.6925 27 38.6925 27 38.6925 11.115 30.5775 3 8.6925 3 8.6925 45 41.6925 45"></polygon>
                    <path d="M35.2575,43.065 L33.1275,40.935 L38.0775,36 L33.1275,31.065 L35.2575,28.935 L42.3075,36 L35.2575,43.065 L35.2575,43.065 Z M21.1275,43.065 L14.0775,36 L21.1275,28.935 L23.2575,31.065 L18.3075,36 L23.2575,40.935 L21.1275,43.065 L21.1275,43.065 Z M25.245,30.36 L28.155,29.6325 L31.1565,41.637 L28.2465,42.3645 L25.245,30.36 Z" id="形状" fill="#0091FF"></path>
                </g>
            </g>
        </g>
    </g>
</svg>