<?xml version="1.0" encoding="UTF-8"?>
<svg width="32px" height="32px" viewBox="0 0 32 32" version="1.1" xmlns="http://www.w3.org/2000/svg" xmlns:xlink="http://www.w3.org/1999/xlink">
    <title>QQ</title>
    <g id="技联在线3" stroke="none" stroke-width="1" fill="none" fill-rule="evenodd">
        <g id="画板备份" transform="translate(-1047.000000, -663.000000)" fill-rule="nonzero">
            <g id="QQ" transform="translate(1047.000000, 663.000000)">
                <rect id="矩形" fill="#000000" opacity="0" x="0" y="0" width="32" height="32"></rect>
                <path d="M16,0 C7.15636363,0 0,7.15636363 0,16 C0,24.8436364 7.15636363,32 16,32 C24.8436364,32 32,24.8436364 32,16 C32,7.15636363 24.8436364,0 16,0 Z M22.5745455,20.0436364 C22.3418182,20.3345455 21.7309091,19.9854546 21.2654545,19.0254545 C21.1490909,19.4618182 20.8581818,20.16 20.1890909,21.0327273 C21.2945454,21.2945455 21.5854545,22.3709091 21.2363636,22.9527273 C20.9745454,23.36 20.3927273,23.7090909 19.3745455,23.7090909 C17.5418182,23.7090909 16.7563637,23.2145454 16.3781818,22.8654545 C16.32,22.7781818 16.2036363,22.7490909 16.0581818,22.7490909 C15.9127273,22.7490909 15.8254545,22.7781818 15.7381818,22.8654545 C15.3890909,23.2145454 14.5745454,23.7090909 12.7418182,23.7090909 C11.7236364,23.7090909 11.1127273,23.36 10.88,22.9527273 C10.5018182,22.3709091 10.8218182,21.2945455 11.9272727,21.0327273 C11.2872727,20.16 10.9963636,19.4618182 10.8509091,19.0254545 C10.4145455,19.9854545 9.77454547,20.3636363 9.54181819,20.0436364 C9.36727272,19.7818182 9.28,19.2290909 9.30909091,18.8509091 C9.42545453,17.3963636 10.3854545,16.1745455 10.9672727,15.5345455 C10.88,15.36 10.7054545,14.2836364 11.4327273,13.5563636 L11.4327273,13.4981818 C11.4327273,10.6181818 13.4690909,8.55272728 16.0581818,8.55272728 C18.6181818,8.55272728 20.6836363,10.6181818 20.6836364,13.4981818 L20.6836364,13.5563636 C21.4109091,14.2836363 21.2363637,15.36 21.1490909,15.5345455 C21.7018182,16.1745455 22.6909091,17.3963637 22.8072727,18.8509091 C22.8363636,19.2290909 22.7781818,19.7818182 22.5745455,20.0436364 L22.5745455,20.0436364 Z" id="形状" fill="#007AFF"></path>
            </g>
        </g>
    </g>
</svg>