<?xml version="1.0" encoding="UTF-8"?>
<svg width="48px" height="48px" viewBox="0 0 48 48" version="1.1" xmlns="http://www.w3.org/2000/svg" xmlns:xlink="http://www.w3.org/1999/xlink">
    <title>矩形</title>
    <g id="技联在线3" stroke="none" stroke-width="1" fill="none" fill-rule="evenodd">
        <g id="1首页" transform="translate(-1862.000000, -439.000000)" fill-rule="nonzero">
            <g id="二维码" transform="translate(1862.000000, 439.000000)">
                <rect id="矩形" fill="#000000" opacity="0" x="0" y="0" width="48" height="48"></rect>
                <path d="M20.2265625,37.3359375 L13.1953125,37.3359375 C11.775,37.3359375 10.6171875,36.178125 10.6171875,34.7578125 L10.6171875,27.7265625 C10.6171875,26.30625 11.775,25.1484375 13.1953125,25.1484375 L20.2265625,25.1484375 C21.646875,25.1484375 22.8046875,26.30625 22.8046875,27.7265625 L22.8046875,34.7578125 C22.8046875,36.178125 21.646875,37.3359375 20.2265625,37.3359375 Z M13.1953125,26.5546875 C12.5484375,26.5546875 12.0234375,27.0796875 12.0234375,27.7265625 L12.0234375,34.7578125 C12.0234375,35.4046875 12.5484375,35.9296875 13.1953125,35.9296875 L20.2265625,35.9296875 C20.8734375,35.9296875 21.3984375,35.4046875 21.3984375,34.7578125 L21.3984375,27.7265625 C21.3984375,27.0796875 20.8734375,26.5546875 20.2265625,26.5546875 L13.1953125,26.5546875 Z M20.2265625,22.8046875 L13.1953125,22.8046875 C11.775,22.8046875 10.6171875,21.646875 10.6171875,20.2265625 L10.6171875,13.1953125 C10.6171875,11.775 11.775,10.6171875 13.1953125,10.6171875 L20.2265625,10.6171875 C21.646875,10.6171875 22.8046875,11.775 22.8046875,13.1953125 L22.8046875,20.2265625 C22.8046875,21.646875 21.646875,22.8046875 20.2265625,22.8046875 Z M13.1953125,12.0234375 C12.5484375,12.0234375 12.0234375,12.5484375 12.0234375,13.1953125 L12.0234375,20.2265625 C12.0234375,20.8734375 12.5484375,21.3984375 13.1953125,21.3984375 L20.2265625,21.3984375 C20.8734375,21.3984375 21.3984375,20.8734375 21.3984375,20.2265625 L21.3984375,13.1953125 C21.3984375,12.5484375 20.8734375,12.0234375 20.2265625,12.0234375 L13.1953125,12.0234375 Z M34.7578125,22.8046875 L27.7265625,22.8046875 C26.30625,22.8046875 25.1484375,21.646875 25.1484375,20.2265625 L25.1484375,13.1953125 C25.1484375,11.775 26.30625,10.6171875 27.7265625,10.6171875 L34.7578125,10.6171875 C36.178125,10.6171875 37.3359375,11.775 37.3359375,13.1953125 L37.3359375,20.2265625 C37.3359375,21.646875 36.178125,22.8046875 34.7578125,22.8046875 Z M27.7265625,12.0234375 C27.0796875,12.0234375 26.5546875,12.5484375 26.5546875,13.1953125 L26.5546875,20.2265625 C26.5546875,20.8734375 27.0796875,21.3984375 27.7265625,21.3984375 L34.7578125,21.3984375 C35.4046875,21.3984375 35.9296875,20.8734375 35.9296875,20.2265625 L35.9296875,13.1953125 C35.9296875,12.5484375 35.4046875,12.0234375 34.7578125,12.0234375 L27.7265625,12.0234375 Z M36.6328125,26.5546875 L25.8515625,26.5546875 C25.4625,26.5546875 25.1484375,26.240625 25.1484375,25.8515625 C25.1484375,25.4625 25.4625,25.1484375 25.8515625,25.1484375 L36.6328125,25.1484375 C37.021875,25.1484375 37.3359375,25.4625 37.3359375,25.8515625 C37.3359375,26.240625 37.021875,26.5546875 36.6328125,26.5546875 Z M25.6171875,35.9765625 L25.6171875,29.6015625 C25.6171875,29.2125 25.93125,28.8984375 26.3203125,28.8984375 C26.709375,28.8984375 27.0234375,29.2125 27.0234375,29.6015625 L27.0234375,35.9765625 C27.0234375,36.365625 26.709375,36.6796875 26.3203125,36.6796875 C25.93125,36.6796875 25.6171875,36.365625 25.6171875,35.9765625 Z M35.4609375,35.3203125 L35.4609375,29.6015625 C35.4609375,29.2125 35.775,28.8984375 36.1640625,28.8984375 C36.553125,28.8984375 36.8671875,29.2125 36.8671875,29.6015625 L36.8671875,35.3203125 C36.8671875,35.709375 36.553125,36.0234375 36.1640625,36.0234375 C35.775,36.0234375 35.4609375,35.709375 35.4609375,35.3203125 Z M30.5390625,34.1015625 L30.5390625,29.6015625 C30.5390625,29.2125 30.853125,28.8984375 31.2421875,28.8984375 C31.63125,28.8984375 31.9453125,29.2125 31.9453125,29.6015625 L31.9453125,34.1015625 C31.9453125,34.490625 31.63125,34.8046875 31.2421875,34.8046875 C30.853125,34.8046875 30.5390625,34.490625 30.5390625,34.1015625 Z" id="形状" fill="#FFFFFF"></path>
            </g>
        </g>
    </g>
</svg>