<?xml version="1.0" encoding="UTF-8"?>
<svg width="48px" height="48px" viewBox="0 0 48 48" version="1.1" xmlns="http://www.w3.org/2000/svg" xmlns:xlink="http://www.w3.org/1999/xlink">
    <!-- Generator: Sketch 63.1 (92452) - https://sketch.com -->
    <title>矩形</title>
    <desc>Created with Sketch.</desc>
    <g id="技联在线3" stroke="none" stroke-width="1" fill="none" fill-rule="evenodd">
        <g id="1首页" transform="translate(-405.000000, -4528.000000)" fill-rule="nonzero">
            <g id="劳动者个人信息卡备份-3" transform="translate(405.000000, 4528.000000)">
                <g id="分组">
                    <rect id="矩形" fill="#000000" opacity="0" x="0" y="0" width="48" height="48"></rect>
                    <path d="M4.43325,34.05075 C4.43325,34.6552947 4.92333031,35.145375 5.527875,35.145375 C6.13241969,35.145375 6.6225,34.6552947 6.6225,34.05075 C6.6225,30.1305 9.8115,26.9415 13.73175,26.9415 C17.652,26.9415 20.84175,30.13125 20.84175,34.05075 C20.84175,34.6552947 21.3318303,35.145375 21.936375,35.145375 C22.5409197,35.145375 23.031,34.6552947 23.031,34.05075 C23.031,30.255 20.74425,26.98575 17.47725,25.54275 C19.2615349,24.3116575 20.3274188,22.2827776 20.32875,20.115 C20.32875,16.4775 17.36925,13.518 13.73175,13.518 C10.09425,13.518 7.13475,16.4775 7.13475,20.115 C7.13569342,22.2828733 8.20166619,24.3119225 9.98625,25.54275 C6.72,26.98575 4.43325,30.2565 4.43325,34.05075 L4.43325,34.05075 Z M13.7325,15.70875 C16.1653907,15.7112304 18.1370196,17.6828593 18.1395,20.11575 C18.136608,22.5485914 16.1653409,24.520194 13.7325,24.5235 C11.2996591,24.520194 9.32839203,22.5485914 9.3255,20.11575 C9.3283929,17.6830304 11.2997804,15.7116429 13.7325,15.70875 L13.7325,15.70875 Z M26.8665,18.837 L42.5085,18.837 C43.1018869,18.8214664 43.574845,18.3359651 43.574845,17.742375 C43.574845,17.1487849 43.1018869,16.6632836 42.5085,16.64775 L26.8665,16.64775 C26.2619553,16.64775 25.771875,17.1378303 25.771875,17.742375 C25.771875,18.3469197 26.2619553,18.837 26.8665,18.837 Z M26.8665,25.563 L42.5085,25.563 C42.9064033,25.5734163 43.278621,25.3670901 43.4806404,25.024127 C43.6826599,24.6811639 43.6826599,24.2555861 43.4806404,23.912623 C43.278621,23.5696599 42.9064033,23.3633337 42.5085,23.37375 L26.8665,23.37375 C26.4685967,23.3633337 26.096379,23.5696599 25.8943596,23.912623 C25.6923401,24.2555861 25.6923401,24.6811639 25.8943596,25.024127 C26.096379,25.3670901 26.4685967,25.5734163 26.8665,25.563 L26.8665,25.563 Z M26.8665,32.2897506 L42.5085,32.2897506 C43.1132518,32.2903713 43.6040036,31.8006268 43.6046256,31.195875 C43.6052463,30.5911232 43.1155018,30.1003713 42.51075,30.0997494 L26.8665,30.0997494 C26.4752942,30.0993481 26.1135906,30.3076825 25.9176397,30.6462757 C25.7216887,30.9848689 25.7212598,31.4022806 25.9165147,31.7412757 C26.1117695,32.0802709 26.4730442,32.2893481 26.86425,32.2897506 L26.8665,32.2897506 Z M47.9895,44.95725 L0.048,44.95725 L0.048,3.70725 L47.9895,3.70725 L47.9895,44.95725 Z M2.298,42.27075 L45.7395,42.27075 L45.7395,6.393 L2.298,6.393 L2.298,42.27075 Z" id="形状" fill="#2E76E2"></path>
                </g>
            </g>
        </g>
    </g>
</svg>