<?xml version="1.0" encoding="UTF-8"?>
<svg width="32px" height="32px" viewBox="0 0 32 32" version="1.1" xmlns="http://www.w3.org/2000/svg" xmlns:xlink="http://www.w3.org/1999/xlink">
    <!-- Generator: Sketch 63.1 (92452) - https://sketch.com -->
    <title>矩形</title>
    <desc>Created with Sketch.</desc>
    <g id="技联在线新" stroke="none" stroke-width="1" fill="none" fill-rule="evenodd">
        <g id="3-1-产学研活动" transform="translate(-486.000000, -600.000000)" fill-rule="nonzero">
            <g id="实景酷-人数" transform="translate(486.000000, 600.000000)">
                <rect id="矩形" fill="#000000" opacity="0" x="0" y="0" width="32" height="32"></rect>
                <path d="M7.1875,10.328125 C7.1875,12.2997845 8.23936776,14.121673 9.94687497,15.1075028 C11.6543822,16.0933326 13.7581178,16.0933326 15.465625,15.1075028 C17.1731322,14.121673 18.225,12.2997845 18.225,10.328125 C18.225,7.28020354 15.7541715,4.809375 12.70625,4.809375 C9.65832854,4.809375 7.1875,7.28020354 7.1875,10.328125 Z" id="路径" fill="#FFDC00"></path>
                <path d="M15.35,16.159375 L11.0125,16.159375 C5.990625,16.159375 1.921875,20.228125 1.921875,25.25 C1.921875,26.765625 3.153125,27.996875 4.66875,27.996875 L21.175,27.996875 C22.365625,27.996875 23.33125,27.03125 23.33125,25.840625 L23.33125,24.140625 C23.33125,19.734375 19.75625,16.159375 15.35,16.159375 Z M18.93125,10.284375 C18.93125,11.74375 18.4,13.078125 17.51875,14.10625 C17.415625,14.225 17.421875,14.403125 17.53125,14.51875 C18.29375,15.309375 19.365625,15.8 20.55,15.8 C22.88125,15.8 24.76875,13.903125 24.753125,11.56875 C24.7375,9.2875 22.88125,7.421875 20.6,7.396875 C19.95625,7.390625 19.346875,7.525 18.8,7.778125 C18.60625,7.86875 18.509375,8.090625 18.58125,8.290625 C18.809375,8.909375 18.93125,9.58125 18.93125,10.284375 Z" id="形状" fill="#FFDC00"></path>
                <path d="M21.30625,16.484375 L20.09375,16.484375 C19.846875,16.484375 19.75625,16.809375 19.96875,16.9375 C22.384375,18.371875 24.003125,21.00625 24.003125,24.021875 L24.003125,25.775 C24.003125,26.246875 23.85625,26.684375 23.603125,27.046875 C23.490625,27.20625 23.603125,27.428125 23.8,27.428125 L26.6875,27.428125 C27.7875,27.428125 28.68125,26.534375 28.68125,25.434375 L28.68125,23.865625 C28.68125,19.7875 25.378125,16.484375 21.30625,16.484375 L21.30625,16.484375 Z" id="路径" fill="#FFDC00"></path>
            </g>
        </g>
    </g>
</svg>