<?xml version="1.0" encoding="UTF-8"?>
<svg width="48px" height="48px" viewBox="0 0 48 48" version="1.1" xmlns="http://www.w3.org/2000/svg" xmlns:xlink="http://www.w3.org/1999/xlink">
    <!-- Generator: Sketch 63.1 (92452) - https://sketch.com -->
    <title>矩形</title>
    <desc>Created with Sketch.</desc>
    <g id="技联在线3" stroke="none" stroke-width="1" fill="none" fill-rule="evenodd">
        <g id="1首页" transform="translate(-681.000000, -846.000000)" fill-rule="nonzero">
            <g id="需求管理备份" transform="translate(681.000000, 846.000000)">
                <rect id="矩形" fill="#000000" opacity="0" x="0" y="0" width="48" height="48"></rect>
                <path d="M21.435,0.522 C22.7507414,-0.173512843 24.3252586,-0.173512843 25.641,0.522 L44.676,10.584 C46.1501377,11.3635702 47.072309,12.8944234 47.072309,14.562 C47.072309,16.2295766 46.1501377,17.7604298 44.676,18.54 L43.689,19.062 L44.679,19.584 C46.0825258,20.3261725 46.9910943,21.7530222 47.0698877,23.3387385 C47.148681,24.9244548 46.3860375,26.4343461 45.063,27.312 L44.676,27.54 L43.689,28.062 L44.679,28.584 C46.0825258,29.3261725 46.9910943,30.7530222 47.0698877,32.3387385 C47.148681,33.9244548 46.3860375,35.4343461 45.063,36.312 L44.676,36.54 L25.641,46.602 C24.463481,47.2249486 23.0704692,47.2941598 21.837,46.791 L21.435,46.602 L2.397,36.54 C0.994509943,35.797994 0.0864366305,34.3722278 0.00704817775,32.7875358 C-0.072340275,31.2028439 0.688690588,29.6934604 2.01,28.815 L2.4,28.584 L3.384,28.062 L2.397,27.54 C0.994509943,26.797994 0.0864366305,25.3722278 0.00704817775,23.7875358 C-0.072340275,22.2028439 0.688690588,20.6934604 2.01,19.815 L2.4,19.584 L3.384,19.062 L2.397,18.54 C0.348981371,17.4565386 -0.54160932,14.995081 0.339,12.852 L0.522,12.462 C0.944320494,11.6602059 1.59888099,11.0045998 2.4,10.581 L21.435,0.522 Z M40.536,29.727 L25.641,37.602 C24.463481,38.2249486 23.0704692,38.2941598 21.837,37.791 L21.435,37.602 L6.591,29.76 L3.801,31.239 C3.35197206,31.4759702 3.05329546,31.9240015 3.00727393,32.4296327 C2.9612524,32.935264 3.17413333,33.4298562 3.573,33.744 L3.801,33.894 L22.836,43.953 C23.1838496,44.1369073 23.5900334,44.1767715 23.967,44.064 L24.237,43.953 L43.275,33.891 C43.7240279,33.6540298 44.0227045,33.2059985 44.0687261,32.7003673 C44.1147476,32.194736 43.9018667,31.7001438 43.503,31.386 L43.275,31.239 L40.536,29.73 L40.536,29.727 Z M40.479,20.757 L25.641,28.602 C24.3252586,29.2975128 22.7507414,29.2975128 21.435,28.602 L6.591,20.76 L3.801,22.239 C3.35197206,22.4759702 3.05329546,22.9240015 3.00727393,23.4296327 C2.9612524,23.935264 3.17413333,24.4298562 3.573,24.744 L3.801,24.894 L22.836,34.953 C23.1838496,35.1369073 23.5900334,35.1767715 23.967,35.064 L24.237,34.953 L43.275,24.891 C43.7240279,24.6540298 44.0227045,24.2059985 44.0687261,23.7003673 C44.1147476,23.194736 43.9018667,22.7001438 43.503,22.386 L43.275,22.239 L40.479,20.76 L40.479,20.757 Z M24.237,3.174 C23.798686,2.94251463 23.274314,2.94251463 22.836,3.174 L3.801,13.236 C3.30962075,13.4958567 3.00223035,14.0061411 3.00223035,14.562 C3.00223035,15.1178589 3.30962075,15.6281433 3.801,15.888 L22.836,25.95 C23.274314,26.1814854 23.798686,26.1814854 24.237,25.95 L43.275,15.888 C43.7663792,15.6281433 44.0737697,15.1178589 44.0737697,14.562 C44.0737697,14.0061411 43.7663792,13.4958567 43.275,13.236 L24.237,3.174 Z" id="形状" fill="#FFFFFF"></path>
            </g>
        </g>
    </g>
</svg>