<?xml version="1.0" encoding="UTF-8"?>
<svg width="27px" height="28px" viewBox="0 0 27 28" version="1.1" xmlns="http://www.w3.org/2000/svg" xmlns:xlink="http://www.w3.org/1999/xlink">
    <!-- Generator: Sketch 63.1 (92452) - https://sketch.com -->
    <title>矩形</title>
    <desc>Created with Sketch.</desc>
    <g id="技联在线3" stroke="none" stroke-width="1" fill="none" fill-rule="evenodd">
        <g id="1首页" transform="translate(-90.000000, -3837.000000)" fill-rule="nonzero">
            <g id="法规案例-copy-2" transform="translate(90.000000, 3837.000000)">
                <g id="分组" transform="translate(0.000000, 0.483558)">
                    <rect id="矩形" fill="#000000" opacity="0" x="0" y="0" width="26.8213283" height="26.5641026"></rect>
                    <path d="M25.6551836,18.4793756 C26.8756996,18.4789932 27.8901037,19.4106473 27.9816423,20.6160535 L27.9874732,20.7892976 L27.9874732,24.2541806 C27.9878593,25.4629914 27.0471838,26.467667 25.8301053,26.5583278 L25.6551836,26.5641027 L2.33228941,26.5641027 C1.11177349,26.5644851 0.0973693714,25.632831 0.00583073152,24.4274248 L-1.18902817e-07,24.2541806 L-1.18902817e-07,20.7892976 C-0.000386243485,19.5804869 0.940289257,18.5758113 2.1573677,18.4851505 L2.33228941,18.4793756 L25.6551836,18.4793756 Z M6.4137959,20.7892976 C5.44772999,20.7892976 4.66457883,21.5649381 4.66457883,22.5217391 C4.66457883,23.4785401 5.44772999,24.2541806 6.4137959,24.2541806 C7.37986182,24.2541806 8.16301298,23.4785401 8.16301298,22.5217391 C8.16301298,21.5649381 7.37986182,20.7892976 6.4137959,20.7892976 Z M25.6551836,9.23968773 C26.8756996,9.23930531 27.8901037,10.1709594 27.9816423,11.3763657 L27.9874732,11.5496098 L27.9874732,15.0144928 C27.9878593,16.2233035 27.0471838,17.2279792 25.8301053,17.3186399 L25.6551836,17.3244148 L2.33228941,17.3244148 C1.11177349,17.3247973 0.0973693714,16.3931432 0.00583073152,15.1877369 L-1.18902817e-07,15.0144928 L-1.18902817e-07,11.5496098 C-0.000386243485,10.340799 0.940289257,9.33612341 2.1573677,9.24546266 L2.33228941,9.23968773 L25.6551836,9.23968773 Z M6.4137959,11.5496098 C5.78886082,11.5496098 5.21139698,11.8798113 4.89892944,12.4158305 C4.58646189,12.9518498 4.58646189,13.6122528 4.89892944,14.148272 C5.21139698,14.6842913 5.78886082,15.0144928 6.4137959,15.0144928 C7.3798618,15.0144928 8.16301292,14.2388523 8.16301292,13.2820513 C8.16301292,12.3252503 7.3798618,11.5496098 6.4137959,11.5496098 L6.4137959,11.5496098 Z M25.6551836,-1.17760683e-07 C26.8756996,-0.000382539275 27.8901037,0.931271559 27.9816423,2.1366778 L27.9874732,2.30992196 L27.9874732,5.77480491 C27.9878593,6.98361567 27.0471838,7.9882913 25.8301053,8.07895206 L25.6551836,8.08472699 L2.33228941,8.08472699 C1.11177349,8.08510941 0.0973693714,7.15345531 0.00583073152,5.94804906 L-1.18902817e-07,5.77480491 L-1.18902817e-07,2.30992196 C-0.000386243485,1.1011112 0.940289257,0.0964355655 2.1573677,0.0057748128 L2.33228941,-1.17760683e-07 L25.6551836,-1.17760683e-07 Z M6.4137959,2.30992196 C5.78886083,2.30992196 5.211397,2.64012342 4.89892946,3.17614269 C4.58646192,3.71216195 4.58646192,4.37256492 4.89892946,4.90858418 C5.211397,5.44460344 5.78886083,5.77480491 6.4137959,5.77480491 C7.37986181,5.77480491 8.16301295,4.99916443 8.16301295,4.04236343 C8.16301295,3.08556244 7.37986181,2.30992196 6.4137959,2.30992196 Z" id="形状" fill="#FFCE44"></path>
                </g>
            </g>
        </g>
    </g>
</svg>