<?xml version="1.0" encoding="UTF-8"?>
<svg width="48px" height="48px" viewBox="0 0 48 48" version="1.1" xmlns="http://www.w3.org/2000/svg" xmlns:xlink="http://www.w3.org/1999/xlink">
    <!-- Generator: Sketch 63.1 (92452) - https://sketch.com -->
    <title>矩形</title>
    <desc>Created with Sketch.</desc>
    <g id="技联在线3" stroke="none" stroke-width="1" fill="none" fill-rule="evenodd">
        <g id="1首页" transform="translate(-609.000000, -4528.000000)" fill-rule="nonzero">
            <g id="认证备份-3" transform="translate(609.000000, 4528.000000)">
                <rect id="矩形" fill="#000000" opacity="0" x="0" y="0" width="48" height="48"></rect>
                <path d="M39.35625,8.71875 C38.2546875,8.71875 36.73125,8.6296875 34.63125,8.3625 C28.4203125,7.5703125 24,3.0140625 24,3.0140625 C24,3.0140625 19.5796875,7.5703125 13.36875,8.3578125 C11.26875,8.625 9.7453125,8.7140625 8.64375,8.7140625 C6.4875,8.7140625 5.9671875,8.3765625 5.9671875,8.3765625 L6.0234375,30.05625 C6.0234375,30.05625 7.81875,37.29375 14.428125,41.053125 C21.0375,44.8078125 24.0046875,44.9859375 24.0046875,44.9859375 C24.0046875,44.9859375 26.971875,44.8078125 33.58125,41.053125 C40.190625,37.2984375 41.9859375,30.05625 41.9859375,30.05625 L42.0421875,8.3765625 C42.0328125,8.3765625 41.5125,8.71875 39.35625,8.71875 Z M39.6375,29.728125 C39.4828125,30.234375 39.0515625,31.4953125 38.2125,33 C37.5609375,34.1671875 36.796875,35.2359375 35.94375,36.16875 C34.8984375,37.321875 33.7125,38.278125 32.41875,39.009375 C29.3578125,40.7484375 27.1828125,41.64375 25.89375,42.0890625 C24.9140625,42.4265625 24.290625,42.5625 24,42.6140625 C23.709375,42.5625 23.0859375,42.4265625 22.10625,42.0890625 C20.8171875,41.64375 18.6421875,40.7484375 15.58125,39.009375 C14.3109375,38.2875 13.1484375,37.3546875 12.1125,36.2296875 C11.26875,35.3109375 10.509375,34.265625 9.8578125,33.1171875 C8.9765625,31.5703125 8.521875,30.24375 8.3625,29.71875 L8.315625,11.053125 C8.4234375,11.053125 8.53125,11.0578125 8.64375,11.0578125 C10.021875,11.0578125 11.7140625,10.93125 13.6640625,10.6828125 C18.28125,10.096875 21.9796875,7.715625 24,6.121875 C26.0203125,7.715625 29.71875,10.096875 34.3359375,10.6828125 C36.2859375,10.93125 37.978125,11.0578125 39.35625,11.0578125 C39.46875,11.0578125 39.5765625,11.0578125 39.684375,11.053125 L39.6375,29.728125 L39.6375,29.728125 Z M33.309375,16.2140625 L34.96875,17.8734375 L22.70625,30.1359375 L21.046875,31.7953125 L19.3875,30.1359375 L13.0921875,23.840625 L14.7515625,22.18125 L21.046875,28.48125 L33.309375,16.2140625 Z" id="形状" fill="#0091FF"></path>
            </g>
        </g>
    </g>
</svg>