<?xml version="1.0" encoding="UTF-8"?>
<svg width="48px" height="48px" viewBox="0 0 48 48" version="1.1" xmlns="http://www.w3.org/2000/svg" xmlns:xlink="http://www.w3.org/1999/xlink">
    <!-- Generator: Sketch 63.1 (92452) - https://sketch.com -->
    <title>矩形</title>
    <desc>Created with Sketch.</desc>
    <g id="技联在线3" stroke="none" stroke-width="1" fill="none" fill-rule="evenodd">
        <g id="1首页" transform="translate(-1742.000000, -1882.000000)" fill-rule="nonzero">
            <g id="卓越院校备份-3" transform="translate(1742.000000, 1882.000000)">
                <rect id="矩形" fill="#000000" opacity="0" x="0" y="0" width="48" height="48"></rect>
                <path d="M16.65,22.9359375 C15.8109375,22.9359375 15.13125,23.615625 15.13125,24.4546875 L15.13125,36.7734375 C15.13125,37.6125 15.8109375,38.2921875 16.65,38.2921875 C17.4890625,38.2921875 18.16875,37.6125 18.16875,36.7734375 L18.16875,24.4546875 C18.16875,23.6203125 17.4890625,22.9359375 16.65,22.9359375 Z M23.7,22.9359375 C22.8609375,22.9359375 22.18125,23.615625 22.18125,24.4546875 L22.18125,36.7734375 C22.18125,37.6125 22.8609375,38.2921875 23.7,38.2921875 C24.5390625,38.2921875 25.2187739,37.6125 25.2187739,36.7734375 L25.2187739,24.4546875 C25.2234375,23.6203125 24.5390625,22.9359375 23.7,22.9359375 Z M30.7546875,22.9359375 C29.915625,22.9359375 29.2359375,23.7796875 29.2359375,24.8203125 L29.2359375,36.4125 C29.2359375,37.453125 29.915625,38.296875 30.7546875,38.296875 C31.59375,38.296875 32.2734375,37.453125 32.2734375,36.4125 L32.2734375,24.8203125 C32.2734375,23.7796875 31.59375,22.9359375 30.7546875,22.9359375 Z M42.421875,41.8453125 L39.5671875,41.8453125 L39.5671875,19.0828125 L42.4265625,19.0828125 C43.0875,19.0828125 43.66875,18.6609375 43.8703125,18.0375 C44.071875,17.41875 43.85625,16.734375 43.3265625,16.340625 L24.8765625,3.1125 C24.3375,2.71875 23.615625,2.71875 23.071875,3.1125 L4.621875,16.340625 C4.0921875,16.725 3.871875,17.409375 4.0734375,18.0375 C4.2796875,18.6609375 4.8609375,19.0828125 5.5171875,19.0828125 L7.8421875,19.0828125 L7.8421875,41.8453125 L5.5171875,41.8453125 C4.678125,41.8453125 3.9984375,42.525 3.9984375,43.3640625 C3.9984375,44.203125 4.678125,44.8828125 5.5171875,44.8828125 L42.421875,44.8828125 C43.2609375,44.8828125 43.940625,44.203125 43.940625,43.3640625 C43.940625,42.525 43.2609375,41.8453125 42.421875,41.8453125 Z M23.971875,6.225 L37.8,16.0453125 L10.14375,16.0453125 L23.971875,6.225 Z M33.140625,41.8453125 L10.884375,41.8453125 L10.884375,19.0828125 L36.525,19.0828125 L36.525,41.8453125 L33.140625,41.8453125 Z" id="形状" fill="#FFFFFF"></path>
            </g>
        </g>
    </g>
</svg>