<?xml version="1.0" encoding="UTF-8"?>
<svg width="24px" height="24px" viewBox="0 0 24 24" version="1.1" xmlns="http://www.w3.org/2000/svg" xmlns:xlink="http://www.w3.org/1999/xlink">
    <title>矩形</title>
    <g id="Page-1" stroke="none" stroke-width="1" fill="none" fill-rule="evenodd">
        <g id="画板-copy-3备份-5" transform="translate(-1524.000000, -602.000000)" fill-rule="nonzero">
            <g id="节点类_县---" transform="translate(1524.000000, 602.000000)">
                <rect id="矩形" fill="#000000" opacity="0" x="0" y="0" width="24" height="24"></rect>
                <path d="M19.5,21 L19.5,0 L3,0 L3,21 L1.5,21 L1.5,22.5 L3,22.5 L19.5,22.5 L21,22.5 L21,21 L19.5,21 Z M9,21 L9,18 L13.5,18 L13.5,21 L9,21 Z M15,21 L15,16.5 L7.5,16.5 L7.5,21 L4.5,21 L4.5,1.5 L18,1.5 L18,21 L15,21 Z M6.0315,3 L7.5315,3 L7.5315,4.5 L6.0315,4.5 L6.0315,3 Z M10.5,3 L12,3 L12,4.5 L10.5,4.5 L10.5,3 Z M15.015,3 L16.515,3 L16.515,4.5 L15.015,4.5 L15.015,3 Z M6.0315,7.5 L7.5315,7.5 L7.5315,9 L6.0315,9 L6.0315,7.5 Z M10.5,7.5 L12,7.5 L12,9 L10.5,9 L10.5,7.5 Z M15.015,7.5 L16.515,7.5 L16.515,9 L15.015,9 L15.015,7.5 Z M6.0315,12 L7.5315,12 L7.5315,13.5 L6.0315,13.5 L6.0315,12 Z M10.5,12 L12,12 L12,13.5 L10.5,13.5 L10.5,12 Z M15.015,12 L16.515,12 L16.515,13.5 L15.015,13.5 L15.015,12 Z" id="形状" fill="#24E2E8"></path>
            </g>
        </g>
    </g>
</svg>