<?xml version="1.0" encoding="UTF-8"?>
<svg width="24px" height="24px" viewBox="0 0 24 24" version="1.1" xmlns="http://www.w3.org/2000/svg" xmlns:xlink="http://www.w3.org/1999/xlink">
    <title>矩形</title>
    <g id="Page-1" stroke="none" stroke-width="1" fill="none" fill-rule="evenodd">
        <g id="画板-copy-3备份-5" transform="translate(-1334.000000, -482.000000)" fill-rule="nonzero">
            <g id="企业" transform="translate(1334.000000, 482.000000)">
                <rect id="矩形" fill="#000000" opacity="0" x="0" y="0" width="24" height="24"></rect>
                <path d="M21.75,19.5 L21,19.5 L21,9 C21,7.35 19.65,6 18,6 L13.5,6 L13.5,4.5 C13.5,2.85 12.15,1.5 10.5,1.5 L4.5,1.5 C2.85,1.5 1.5,2.85 1.5,4.5 L1.5,19.5 L0.75,19.5 C0.33,19.5 0,19.83 0,20.25 C0,20.67 0.33,21 0.75,21 L21.75,21 C22.17,21 22.5,20.67 22.5,20.25 C22.5,19.83 22.17,19.5 21.75,19.5 Z M12,6 L12,7.5 L12,19.5 L3,19.5 L3,4.5 C3,3.675 3.675,3 4.5,3 L10.5,3 C11.325,3 12,3.675 12,4.5 L12,6 Z M19.5,19.5 L13.5,19.5 L13.5,7.5 L18,7.5 C18.825,7.5 19.5,8.175 19.5,9 L19.5,19.5 Z M9.75,6 L5.25,6 C4.83,6 4.5,6.33 4.5,6.75 C4.5,7.17 4.83,7.5 5.25,7.5 L9.75,7.5 C10.17,7.5 10.5,7.17 10.5,6.75 C10.5,6.33 10.17,6 9.75,6 Z M9.75,10.5 L5.25,10.5 C4.83,10.5 4.5,10.83 4.5,11.25 C4.5,11.67 4.83,12 5.25,12 L9.75,12 C10.17,12 10.5,11.67 10.5,11.25 C10.5,10.83 10.17,10.5 9.75,10.5 Z M9.75,15 L5.25,15 C4.83,15 4.5,15.33 4.5,15.75 C4.5,16.17 4.83,16.5 5.25,16.5 L9.75,16.5 C10.17,16.5 10.5,16.17 10.5,15.75 C10.5,15.33 10.17,15 9.75,15 Z M17.25,10.5 L15.75,10.5 C15.33,10.5 15,10.83 15,11.25 C15,11.67 15.33,12 15.75,12 L17.25,12 C17.67,12 18,11.67 18,11.25 C18,10.83 17.67,10.5 17.25,10.5 Z M17.25,15 L15.75,15 C15.33,15 15,15.33 15,15.75 C15,16.17 15.33,16.5 15.75,16.5 L17.25,16.5 C17.67,16.5 18,16.17 18,15.75 C18,15.33 17.67,15 17.25,15 Z" id="形状" fill="#24E2E8"></path>
            </g>
        </g>
    </g>
</svg>