<?xml version="1.0" encoding="UTF-8"?>
<svg width="24px" height="24px" viewBox="0 0 24 24" version="1.1" xmlns="http://www.w3.org/2000/svg" xmlns:xlink="http://www.w3.org/1999/xlink">
    <title>矩形</title>
    <g id="Page-1" stroke="none" stroke-width="1" fill="none" fill-rule="evenodd">
        <g id="画板-copy-3备份-5" transform="translate(-1719.000000, -482.000000)" fill-rule="nonzero">
            <g id="企业" transform="translate(1719.000000, 482.000000)">
                <rect id="矩形" fill="#000000" opacity="0" x="0" y="0" width="24" height="24"></rect>
                <path d="M22.2675,9.71039062 L21.3142969,8.90367187 L19.0720313,7.00523437 L16.44375,4.78125 L14.3329687,2.99484375 L13.7552344,2.5059375 C13.7144531,2.47148437 13.6739062,2.435625 13.633125,2.40257812 C13.3647656,2.17710937 13.0860937,2.01164062 12.75,1.90359375 C12.2657812,1.74773437 11.6925,1.74890625 11.2108594,1.91414062 C10.8984666,2.02179513 10.6094746,2.18804705 10.359375,2.40398437 C10.2363281,2.50734375 10.1139844,2.61164062 9.99140625,2.71546875 L8.14804688,4.27570312 L5.5528125,6.47132812 L3.135,8.51765625 L1.78898438,9.65625 L1.72570313,9.7096875 C1.51054688,9.89179687 1.4765625,10.2452344 1.57851563,10.486875 C1.68836724,10.7497159 1.94405043,10.9220141 2.22890625,10.9251562 L20.9711719,10.9251562 C21.2245312,10.9251562 21.478125,10.9282031 21.7314844,10.9251562 L21.7642969,10.9251562 C22.1367187,10.9251562 22.4932031,10.5970312 22.4758594,10.2135937 C22.4585156,9.83015625 22.1632031,9.50203125 21.7642969,9.50203125 L3.0234375,9.50203125 C2.77007813,9.50203125 2.51625,9.49734375 2.26289063,9.50203125 L2.22890625,9.50203125 L2.73210938,10.7165625 L3.62671875,9.95953125 L5.74453125,8.16703125 L8.2884375,6.0140625 L10.4378906,4.1953125 C10.75125,3.93 11.068125,3.6684375 11.3782031,3.3984375 C11.420625,3.36164062 11.4653906,3.35742187 11.3135156,3.44695312 C11.3322656,3.43570312 11.3505469,3.42023437 11.3685937,3.40804687 C11.4524028,3.35220585 11.5409447,3.30381759 11.6332031,3.2634375 L11.4632812,3.33515625 C11.6185885,3.26987892 11.7819001,3.22558302 11.9489062,3.2034375 L11.7597656,3.22875 C11.9164863,3.21023545 12.0748418,3.21023545 12.2315625,3.22875 L12.0424219,3.2034375 C12.209504,3.22558181 12.3728931,3.26987738 12.5282812,3.33515625 L12.358125,3.2634375 C12.4504838,3.30376507 12.5391081,3.35215547 12.6229687,3.40804687 C12.6399321,3.42277996 12.6583015,3.43581127 12.6778125,3.44695312 C12.6735937,3.44554687 12.5327344,3.328125 12.613125,3.3984375 C12.6213281,3.40570312 12.6297656,3.4125 12.6382031,3.41953125 L12.7753125,3.53554687 L13.36125,4.03195312 L15.4003125,5.75789062 L17.9397656,7.90710937 L20.1588281,9.78539062 C20.5202344,10.0900781 20.8797656,10.3994531 21.2432813,10.7029687 L21.2585156,10.7158594 C21.4052344,10.8400781 21.5632031,10.9244531 21.7614844,10.9244531 C21.9360938,10.9244531 22.1446875,10.846875 22.2646875,10.7158594 C22.5105469,10.453125 22.5703125,9.96703125 22.2675,9.71039062 L22.2675,9.71039062 Z M2.52492188,22.2100781 L20.7255469,22.2100781 C20.9730469,22.2100781 21.2207812,22.2135937 21.4682813,22.2100781 L21.4999219,22.2100781 C21.8721094,22.2100781 22.2288281,21.8819531 22.2114844,21.4985156 C22.1941406,21.1150781 21.8988281,20.7869531 21.4999219,20.7869531 L3.29929688,20.7869531 C3.05179688,20.7869531 2.8040625,20.7836719 2.5565625,20.7869531 L2.52492188,20.7869531 C2.15273438,20.7869531 1.79625,21.1150781 1.81335938,21.4985156 C1.83046875,21.8819531 2.12601563,22.2100781 2.52492188,22.2100781 Z" id="形状" fill="#24E2E8"></path>
                <path d="M14.34375,20.7855469 C14.34375,20.5003125 14.3475,20.2148438 14.3475,19.9296094 L14.3475,10.9251563 L15.774375,10.9265625 C15.774375,11.184375 15.770625,11.4403125 15.770625,11.6967188 L15.770625,20.7869531" id="路径" fill="#24E2E8"></path>
                <path d="M20.3257031,21.2685937 L20.3257031,11.6967188 C20.3257031,11.2570313 20.3341406,10.8161719 20.3257031,10.3764844 L20.3257031,10.3579687 C20.3257031,9.98578125 19.9975781,9.6290625 19.6141406,9.64640625 C19.2307031,9.66375 18.9025781,9.9590625 18.9025781,10.3579687 L18.9025781,19.9296094 C18.9025781,20.3695312 18.8939062,20.8103906 18.9025781,21.2500781 L18.9025781,21.2685937 C18.9025781,21.6407812 19.2307031,21.9972656 19.6141406,21.9801562 C19.9975781,21.9630469 20.3257031,21.6675 20.3257031,21.2685937 Z" id="路径" fill="#24E2E8"></path>
                <path d="M8.25,20.7869531 C8.25,20.50125 8.25375,20.2153125 8.25375,19.9296094 L8.25375,10.9265625 L9.6796875,10.9265625 C9.6796875,11.184375 9.6759375,11.4403125 9.6759375,11.6967187 L9.6759375,20.7855469" id="路径" fill="#24E2E8"></path>
                <path d="M5.14570312,21.2685937 L5.14570312,11.6967188 C5.14570312,11.2570313 5.15414062,10.8161719 5.14570312,10.3764844 L5.14570312,10.3579687 C5.14570312,9.98578125 4.81757812,9.6290625 4.43414062,9.64640625 C4.05070312,9.66375 3.72257812,9.9590625 3.72257812,10.3579687 L3.72257812,19.9296094 C3.72257812,20.3695312 3.71390625,20.8103906 3.72257812,21.2500781 L3.72257812,21.2685937 C3.72257812,21.6407812 4.05070312,21.9972656 4.43414062,21.9801562 C4.81757812,21.9630469 5.14570312,21.6675 5.14570312,21.2685937 Z" id="路径" fill="#24E2E8"></path>
            </g>
        </g>
    </g>
</svg>