<?xml version="1.0" encoding="UTF-8"?>
<svg width="24px" height="24px" viewBox="0 0 24 24" version="1.1" xmlns="http://www.w3.org/2000/svg" xmlns:xlink="http://www.w3.org/1999/xlink">
    <title>矩形</title>
    <g id="Page-1" stroke="none" stroke-width="1" fill="none" fill-rule="evenodd">
        <g id="画板-copy-3备份-5" transform="translate(-1719.000000, -602.000000)" fill-rule="nonzero">
            <g id="普通" transform="translate(1719.000000, 602.000000)">
                <rect id="矩形" fill="#000000" opacity="0" x="0" y="0" width="24" height="24"></rect>
                <path d="M16.659,13.9335 C16.1199148,14.1682018 15.6240307,14.4916927 15.192,14.8905 C12.6447354,13.8216996 9.7315919,14.0987034 7.43141547,15.6284353 C5.13123904,17.1581673 3.74932104,19.7375933 3.75,22.5 L2.25,22.5 C2.2498315,18.3633383 4.85886964,14.6764187 8.76,13.3005 C6.51822388,11.8622091 5.49297697,9.11820343 6.24239891,6.5623068 C6.99182086,4.00641018 9.33649839,2.2505099 12,2.2505099 C14.6635016,2.2505099 17.0081791,4.00641018 17.7576011,6.5623068 C18.507023,9.11820343 17.4817761,11.8622091 15.24,13.3005 C15.732,13.4745 16.206,13.686 16.659,13.9335 L16.659,13.9335 Z M12,12.75 C13.6076952,12.75 15.0932668,11.8923049 15.8971144,10.5 C16.700962,9.10769516 16.700962,7.39230484 15.8971144,5.99999998 C15.0932668,4.60769513 13.6076952,3.75 12,3.75 C9.51471863,3.75 7.5,5.76471863 7.5,8.25 C7.5,10.7352814 9.51471863,12.75 12,12.75 Z M18.75,22.5 C16.6789322,22.5 15,20.8210678 15,18.75 C15,16.6789322 16.6789322,15 18.75,15 C20.8210678,15 22.5,16.6789322 22.5,18.75 C22.5,20.8210678 20.8210678,22.5 18.75,22.5 Z M18.966,17.0595 L19.791,17.7795 L16.8405,17.7795 C16.7524602,17.7766756 16.6669451,17.809166 16.6029921,17.8697382 C16.5390391,17.9303104 16.5019566,18.0139367 16.5,18.102 C16.5023499,18.1898001 16.5396043,18.2730411 16.6035136,18.3332905 C16.667423,18.3935398 16.7527139,18.4258261 16.8405,18.423 L20.6595,18.423 C20.9685,18.423 21.117,18.063 20.8905,17.865 L19.4265,16.5855 C19.2865394,16.464689 19.0770194,16.472546 18.9465,16.6035 C18.8853575,16.6649504 18.8526874,16.7491629 18.856391,16.8357703 C18.8600946,16.9223777 18.8998347,17.0034936 18.966,17.0595 L18.966,17.0595 Z M18.534,20.4405 L17.709,19.7205 L20.6595,19.7205 C20.7475398,19.7233244 20.8330549,19.690834 20.8970079,19.6302618 C20.9609609,19.5696896 20.9980434,19.4860633 21,19.398 C20.9976501,19.3101999 20.9603957,19.2269589 20.8964864,19.1667095 C20.832577,19.1064602 20.7472861,19.0741739 20.6595,19.077 L16.8405,19.077 C16.5315,19.077 16.383,19.437 16.6095,19.635 L18.0735,20.9145 C18.2115,21.0345 18.4275,21.027 18.5535,20.8965 C18.6146425,20.8350496 18.6473126,20.7508371 18.643609,20.6642297 C18.6399054,20.5776223 18.6001653,20.4965064 18.534,20.4405 L18.534,20.4405 Z" id="形状" fill="#24E2E8"></path>
            </g>
        </g>
    </g>
</svg>