<?xml version="1.0" encoding="UTF-8"?>
<svg width="24px" height="24px" viewBox="0 0 24 24" version="1.1" xmlns="http://www.w3.org/2000/svg" xmlns:xlink="http://www.w3.org/1999/xlink">
    <title>矩形</title>
    <g id="Page-1" stroke="none" stroke-width="1" fill="none" fill-rule="evenodd">
        <g id="画板-copy-3备份-5" transform="translate(-1334.000000, -602.000000)" fill-rule="nonzero">
            <g id="采集第三方视频@1x" transform="translate(1334.000000, 602.000000)">
                <rect id="矩形" fill="#000000" opacity="0" x="0" y="0" width="24" height="24"></rect>
                <path d="M18.1875,4.3515 L23.4375,6.975 L23.4375,18.135 L12,23.85375 L0.5625,18.135 L0.5625,6.975 L5.8125,4.3515 L5.8125,5.8515 L2.178,7.66725 L12,11.8575 L21.822,7.66725 L18.1875,5.8515 L18.1875,4.3515 Z M1.6875,8.85 L1.6875,17.385 L11.43675,22.08225 L11.43675,13.11075 L1.6875,8.85 Z M22.3125,8.85 L12.56175,13.1115 L12.56175,22.08225 L22.3125,17.385 L22.3125,8.85 Z M12.5625,0 L12.56175,5.4885 L13.32675,4.725 L14.12175,5.52 L12.00075,7.6425 L11.99925,7.641 L11.99925,7.64175 L9.8775,5.52075 L10.6725,4.725 L11.43675,5.4885 L11.4375,0 L12.5625,0 Z" id="形状" fill="#24E2E8"></path>
            </g>
        </g>
    </g>
</svg>