<?xml version="1.0" encoding="UTF-8"?>
<svg width="20px" height="20px" viewBox="0 0 20 20" version="1.1" xmlns="http://www.w3.org/2000/svg" xmlns:xlink="http://www.w3.org/1999/xlink">
    <!-- Generator: Sketch 63.1 (92452) - https://sketch.com -->
    <title>矩形</title>
    <desc>Created with Sketch.</desc>
    <g id="技联在线3" stroke="none" stroke-width="1" fill="none" fill-rule="evenodd">
        <g id="1首页" transform="translate(-1280.000000, -453.000000)" fill-rule="nonzero">
            <g id="放大镜备份" transform="translate(1280.000000, 453.000000)">
                <rect id="矩形" fill="#000000" opacity="0" x="0" y="0" width="20" height="20"></rect>
                <path d="M15.2675781,14.21875 L15.0019531,14.484375 L13.0097656,12.4921875 C14.078125,11.2988281 14.734375,9.7265625 14.734375,7.99804687 C14.734375,4.27148438 11.7128906,1.25 7.98632812,1.25 C4.25976562,1.25 1.23828125,4.27148438 1.23828125,7.99804687 C1.23828125,11.7246094 4.25976562,14.7460937 7.98632812,14.7460937 C9.71484375,14.7460937 11.2851562,14.0898437 12.4804688,13.0214844 L14.4726562,15.0136719 L14.2070312,15.2792969 L17.6660156,18.7382812 L18.7265625,17.6777344 L15.2675781,14.21875 Z M1.98632813,7.99609375 C1.98632813,4.68945312 4.67773438,1.99804687 7.984375,1.99804687 C11.2910156,1.99804687 13.9824219,4.68945312 13.9824219,7.99609375 C13.9824219,11.3027344 11.2910156,13.9941417 7.984375,13.9941417 C4.67773438,13.9960938 1.98632813,11.3046875 1.98632813,7.99609375 Z" id="形状" fill="#FFFFFF"></path>
            </g>
        </g>
    </g>
</svg>