<?xml version="1.0" encoding="UTF-8"?>
<svg width="65px" height="64px" viewBox="0 0 65 64" version="1.1" xmlns="http://www.w3.org/2000/svg" xmlns:xlink="http://www.w3.org/1999/xlink">
    <!-- Generator: Sketch 63.1 (92452) - https://sketch.com -->
    <title>矩形</title>
    <desc>Created with Sketch.</desc>
    <g id="技联在线新" stroke="none" stroke-width="1" fill="none" fill-rule="evenodd">
        <g id="1-1-服务" transform="translate(-662.000000, -653.000000)" fill-rule="nonzero">
            <g id="客服，咨询" transform="translate(663.000000, 653.000000)">
                <rect id="矩形" fill="#000000" opacity="0" x="0" y="0" width="64" height="64"></rect>
                <path d="M56.7806537,56.192258 C56.884066,56.0174434 56.9468991,55.8220388 56.9645989,55.6202071 C56.979861,55.5624277 56.9916818,55.5038106 57,55.4446586 C57,55.3975603 56.9770697,55.3587265 56.9731474,55.3132213 C56.9692251,55.2677161 56.9846126,55.2266918 56.9770697,55.1818836 C56.043968,49.8032104 53.4688366,46.5927548 50.0912457,46.5927548 L49.5018971,46.5958416 C46.7181806,46.5913607 44.6787931,46.6232243 42.5702126,43.6584171 C42.0705107,42.957514 41.0918838,42.7897095 40.3832178,43.2834145 C39.6745517,43.7771195 39.5036152,44.7457881 40.001216,45.448155 C43.055168,49.7419726 46.6398354,49.7388858 49.5203017,49.705429 L50.0912457,49.7039354 C51.5965989,49.7039354 52.7645349,51.610772 53.4451017,53.8883215 L25.5714286,53.8883215 C24.7035525,53.8883215 24,54.5848945 24,55.4441608 C24,56.303427 24.7035525,57 25.5714286,57 L55.4301806,57 C55.5186027,56.9998092 55.6068502,56.9922145 55.6939794,56.9772972 C55.7501811,56.9593994 55.8052863,56.9382874 55.8590171,56.9140679 C56.0567144,56.8640664 56.2404643,56.7705332 56.3965714,56.6404393 C56.4766298,56.5788445 56.550187,56.5093865 56.6161189,56.4331269 C56.678363,56.3580431 56.7334436,56.2774086 56.7806537,56.192258 L56.7806537,56.192258 Z M21.1883737,43.662147 C19.1547068,46.6213882 16.9822234,46.6107295 14.2798032,46.5895116 L13.7090032,46.5880174 C10.4241077,46.5880174 7.92382737,49.801275 7.02048113,55.1847291 C7.01993852,55.2287189 7.02165582,55.2727076 7.02562614,55.3165188 C7.02196526,55.3607475 7,55.3987006 7,55.443527 C7.00811896,55.5024514 7.01974921,55.560831 7.03482781,55.61835 C7.04500798,55.7228003 7.06572794,55.8259352 7.09666695,55.9261581 C7.12768531,56.0186688 7.16786001,56.1078066 7.21658543,56.1922279 C7.30852273,56.3668772 7.43676044,56.5195306 7.59256743,56.6397948 C7.66722424,56.7019794 7.74790602,56.7564439 7.8333938,56.8023653 C7.92511433,56.8493851 8.02148509,56.8865791 8.1209211,56.9133356 C8.17557236,56.9386467 8.23175075,56.9604721 8.28912357,56.9786825 C8.37372998,56.9924909 8.4592792,56.9996184 8.54498923,57 L16.2758719,57 C17.1296923,57 17.8218506,56.3031433 17.8218506,55.443527 C17.8218506,54.5839107 17.1296923,53.887054 16.2758719,53.887054 L10.4890141,53.887054 C11.142827,51.6085767 12.2645397,49.7009634 13.7093,49.7009634 L14.2619935,49.7024576 C17.1560656,49.735928 20.7674717,49.7423034 23.7308036,45.4342849 C24.2098716,44.7275298 24.0325551,43.7639854 23.3337963,43.2769329 C22.6350375,42.7898803 21.6768211,42.9619296 21.1883737,43.662147 L21.1883737,43.662147 Z M17.75,35.5 L20.9166667,35.5 C21.1629682,35.4955002 21.4046587,35.4324203 21.621744,35.3159787 C23.8325333,41.1205547 28.1321067,45 32,45 C32.7086337,44.995929 33.412324,44.8816785 34.0858453,44.661344 C34.9126742,44.3887719 35.3645669,43.5000194 35.0976781,42.6713386 C34.8307893,41.8426578 33.9451603,41.3846737 33.1146667,41.6458667 C32.7550767,41.7657272 32.3790174,41.828871 32,41.8330293 C28.4932587,41.8330293 23.291616,35.658992 23.291616,27.1295627 C23.291616,20.075648 26.2217707,16.499696 32,16.499696 C34.9690667,16.499696 37.2107627,17.4614507 38.6610453,19.3587147 C39.0046653,19.8078299 39.5617833,20.0395104 40.1225385,19.9664845 C40.6832937,19.8934585 41.162494,19.5268203 41.3796292,19.0046791 C41.5967644,18.4825379 41.5188466,17.8842192 41.1752267,17.435104 C39.1237333,14.7511893 35.9505813,13.3333333 32,13.3333333 C25.7902933,13.3333333 21.767056,16.743504 20.5332213,22.8333333 L19.3333333,22.8333333 C19.3333333,14.1915253 23.358192,10.1666667 32,10.1666667 C40.641808,10.1666667 44.6666667,14.1915253 44.6666667,22.8333333 L43.0833333,22.8333333 C42.9381135,22.8416095 42.7948103,22.8705089 42.6577333,22.9191627 C42.4293511,22.8325669 42.1831344,22.8036432 41.9409013,22.8349547 C41.0732231,22.9415908 40.4562394,23.7313752 40.562768,24.5990667 C40.6620738,25.4391458 40.7106331,26.2844487 40.7081813,27.1303733 C40.7115844,29.2671285 40.372899,31.3906512 39.7049813,33.420336 C39.5728239,33.818938 39.6046989,34.253744 39.793573,34.6288117 C39.9824471,35.0038793 40.3127966,35.2883815 40.711728,35.4195413 C40.8717416,35.4732686 41.0394692,35.5004473 41.2082613,35.5 C41.2722252,35.4940359 41.3357288,35.4838808 41.3983627,35.4696 C41.4472872,35.4824443 41.4968801,35.492593 41.5469173,35.5 L44.6666667,35.5 C44.6661077,36.3742192 43.9575526,37.0827744 43.0833333,37.0833333 L36.75,37.0833333 L36.75,35.5 C36.75,34.6255491 36.0411175,33.9166667 35.1666667,33.9166667 C34.2922158,33.9166667 33.5833333,34.6255491 33.5833333,35.5 L33.5833333,38.6666667 C33.5831181,39.0866587 33.749864,39.4895108 34.0468433,39.7864901 C34.3438225,40.0834693 34.7466746,40.2502152 35.1666667,40.25 L43.0833333,40.25 C45.7054821,40.247096 47.8304293,38.1221487 47.8333333,35.5 L47.8333333,35.208464 C49.7257046,34.5416385 50.9937656,32.7562087 51,30.7497973 L51,27.5831307 C50.9933855,25.5557008 49.6982443,23.7568801 47.7776,23.1075413 C47.8048045,23.0180371 47.8234657,22.9261561 47.8333333,22.8331307 C47.8333333,12.4751413 42.358192,7 32,7 C21.641808,7 16.1666667,12.4751413 16.1666667,22.8333333 C16.1764664,22.9263692 16.1951289,23.0182566 16.2224,23.107744 C14.3017557,23.7570828 13.0066145,25.5559035 13,27.5833333 L13,30.75 C13.0028483,33.3721719 15.1278281,35.4971517 17.75,35.5 L17.75,35.5 Z M47,30.5 C46.9995089,31.3282077 46.377001,31.9994705 45.6089473,32 L43,32 C43.3455099,30.3833773 43.520756,28.729878 43.5224126,27.07088 C43.5224126,26.70608 43.5080792,26.353088 43.4938349,26 L45.6089473,26 C46.377001,26.0005295 46.9995089,26.6717923 47,27.5 L47,30.5 L47,30.5 Z M17,27.5 C17.0004917,26.6717923 17.6237348,26.0005295 18.3926956,26 L20.5130691,26 C20.4980057,26.353088 20.4816944,26.703776 20.4816944,27.07088 C20.4824069,28.7296486 20.6562674,30.3830728 21,32 L18.3926956,32 C17.6237348,31.9994705 17.0004917,31.3282077 17,30.5 L17,27.5 L17,27.5 Z" id="形状" fill="#0091FF"></path>
            </g>
        </g>
    </g>
</svg>