<?xml version="1.0" encoding="UTF-8"?>
<svg width="65px" height="64px" viewBox="0 0 65 64" version="1.1" xmlns="http://www.w3.org/2000/svg" xmlns:xlink="http://www.w3.org/1999/xlink">
    <!-- Generator: Sketch 63.1 (92452) - https://sketch.com -->
    <title>矩形</title>
    <desc>Created with Sketch.</desc>
    <g id="技联在线新" stroke="none" stroke-width="1" fill="none" fill-rule="evenodd">
        <g id="1-1-服务" transform="translate(-1387.000000, -516.000000)" fill-rule="nonzero">
            <g id="dc-icon-孵化器" transform="translate(1388.000000, 516.000000)">
                <rect id="矩形" fill="#000000" opacity="0" x="0" y="0" width="64" height="64"></rect>
                <path d="M16.1510791,15 L29.8489208,15 C30.5395683,15 31,14.6 31,14 C31,13.4000001 30.5395683,13 29.8489208,13 L16.1510791,13 C15.4604316,13 15,13.4 15,14 C15,14.6 15.4604317,15 16.1510791,15 Z M23,24 C23,23.4 22.5555555,23 21.8888889,23 L16.1111111,23 C15.4444444,23 15,23.4 15,24 C15,24.5999999 15.4444445,25 16.1111111,25 L22,25 C22.5555556,25 23,24.6 23,24 L23,24 Z" id="形状" fill="#0091FF"></path>
                <path d="M48.7102397,22.4195011 C48.7102397,22.3061225 48.7102397,22.3061225 48.7102397,22.4195011 L48.7102397,14.3696145 C48.7102397,13.6893424 48.2570806,13.2358276 47.577342,13.2358276 L42.1394335,13.2358276 L42.1394335,12.6689342 C42.1394335,9.49433101 39.6470588,7 36.4749455,7 L15.0631808,7 C11.8910675,7 9.39869278,9.49433107 9.39869283,12.6689342 L9.39869283,54.6190476 L7.13289763,54.6190476 C6.45315905,54.6190476 6,55.0725624 6,55.7528345 C6,56.4331066 6.45315905,56.8866214 7.13289763,56.8866213 L38.174292,56.8866213 C38.627451,56.8866213 38.9673203,57 39.4204793,57 C49.6165577,57 58,48.723356 58,38.4058957 C57.8867102,31.6031746 54.2614379,25.5941043 48.7102397,22.4195011 L48.7102397,22.4195011 Z M55,35.8113208 C52.7622378,33.4339623 50.6363637,32.4150943 48.7342657,32.754717 C45.9370629,33.2075472 44.9300699,36.3773585 44.8181818,36.6037736 C43.4755245,42.1509434 41.7972028,43.1698113 41.1258741,43.3962264 C40.1188811,43.6226415 39.3356643,42.7169811 39.2237762,42.7169811 C36.2027972,39.6603773 33.2937063,38.5283019 30.7202797,39.3207547 C27.5874126,40.2264151 25.7972028,43.735849 24.9020979,46 C23.6713287,43.7358491 23,41.1320755 23,38.3018868 C23,29.3584906 30.1608391,22 39.1118881,22 C47.1678322,22.1132075 53.7692307,28.1132076 55,35.8113208 L55,35.8113208 Z M46,15 L46,21 C44.7368421,20.4117647 43.368421,20.0588235 42,19.8235294 L42,15 L46,15 Z M12,55 L12,13.375 C12,11.4625 13.4618474,10 15.3734939,10 L36.626506,10 C38.5381526,10 40,11.4625 40,13.375 L40,20.4625 L39.5502008,20.4625 C29.4297189,20.4625 21.1084337,28.675 21.1084337,38.9125 C21.1084337,45.8875 24.9317269,51.85 30.5542169,55 L12,55 Z M41.1019608,55 L38.6,55 C33.9372549,54.6534818 29.8431373,52.2278545 27,48.7626726 C27.454902,46.9145756 29.1607843,42.5253451 31.8901961,41.7168026 C33.7098039,41.1392723 35.8705882,42.1788269 38.2588235,44.6044542 C38.9411765,45.2974906 40.5333333,46.4525513 42.3529412,45.875021 C44.7411765,45.2974906 46.4470588,42.409839 47.6980392,37.3275722 C47.6980392,37.3275722 48.3803922,35.2484631 49.8588235,35.017451 C50.7686275,34.9019449 52.7019608,35.2484631 56,39.5221874 C55.6588235,47.8386241 49.1764706,54.4224697 41.1019608,55 L41.1019608,55 Z" id="形状" fill="#0091FF"></path>
                <path d="M35,29 C32.8285715,29 31,30.8285714 31,33 C31,35.1714286 32.8285714,37 35,37 C37.1714286,37 39,35.1714286 39,33 C39,30.8285715 37.1714286,29 35,29 Z M35.5,35 C34.7,35 34,34.3 34,33.5 C34,32.7000001 34.7,32 35.5,32 C36.3,32 37,32.7 37,33.5 C37,34.3 36.3,35 35.5,35 Z" id="形状" fill="#0091FF"></path>
            </g>
        </g>
    </g>
</svg>