<?xml version="1.0" encoding="UTF-8"?>
<svg width="65px" height="64px" viewBox="0 0 65 64" version="1.1" xmlns="http://www.w3.org/2000/svg" xmlns:xlink="http://www.w3.org/1999/xlink">
    <!-- Generator: Sketch 63.1 (92452) - https://sketch.com -->
    <title>矩形</title>
    <desc>Created with Sketch.</desc>
    <g id="技联在线新" stroke="none" stroke-width="1" fill="none" fill-rule="evenodd">
        <g id="1-1-服务" transform="translate(-904.000000, -516.000000)" fill-rule="nonzero">
            <g id="宠物检验" transform="translate(905.000000, 516.000000)">
                <rect id="矩形" fill="#000000" opacity="0" x="0" y="0.984615385" width="64" height="63.0153846"></rect>
                <path d="M44.4211408,61.0461538 L20.5796176,61.0461538 C19.706691,61.0461538 19,60.3332812 19,59.4544285 L19,51.80711 C19,50.9282573 19.7074501,50.2153846 20.5796176,50.2153846 L44.4203818,50.2153846 C45.2933084,50.2153846 46,50.9282573 46,51.80711 L46,59.4544285 C46.0007585,60.3325163 45.2933084,61.0461538 44.4211408,61.0461538 Z M22,58.0923077 L43,58.0923077 L43,53.1692308 L22,53.1692308 L22,58.0923077 Z M28.2789978,33.4769231 C27.9873289,33.4769231 27.6910907,33.3944307 27.4268371,33.2216635 L18.7308385,27.5382467 C17.99367,27.0565221 17.7781549,26.0549396 18.2503082,25.3008343 L32.3859704,2.71580926 C32.6121471,2.35393211 32.9708314,2.09867253 33.3813002,2.00684134 C33.791769,1.91501015 34.2212762,1.9928332 34.5753912,2.22396763 L36.7929889,3.6738109 C37.5309189,4.15553553 37.7456726,5.15711809 37.2742807,5.91122336 C36.8028889,6.66377218 35.8205053,6.88478962 35.0856215,6.40228676 L34.2029993,5.82561802 L21.7747046,25.6829454 L27.7992291,29.6200131 L40.2267623,9.76346394 L39.3966862,9.22181557 C38.6595178,8.74009094 38.4440026,7.73850839 38.9153944,6.98440311 C39.3867862,6.2318543 40.3661237,6.01083686 41.1040537,6.49333972 L43.2691053,7.90816262 C43.6232203,8.13929706 43.8730046,8.50506535 43.9628661,8.92453155 C44.0534891,9.34399775 43.9765738,9.7829197 43.7503971,10.1455751 L29.6162579,32.7306001 C29.3139275,33.213103 28.8021742,33.4769231 28.2789978,33.4769231 Z M26.426465,45.2923077 L11.573535,45.2923077 C10.7039698,45.2923077 10,44.5592048 10,43.6554117 L10,39.0522807 C10,38.1484875 10.7047259,37.4153846 11.573535,37.4153846 L26.426465,37.4153846 C27.2960302,37.4153846 28,38.1484875 28,39.0522807 L28,43.6554117 C28,44.5584182 27.2960302,45.2923077 26.426465,45.2923077 Z M13,42.3384615 L25,42.3384615 L25,41.3538462 L13,41.3538462 L13,42.3384615 Z" id="形状" fill="#0091FF"></path>
                <path d="M31.6299925,51.2 C26.3338222,51.2 21.3171039,49.2794903 17.5034508,45.7915388 C16.849817,45.1940969 16.8300816,44.206856 17.4592436,43.586176 C18.0884056,42.9632472 19.1296411,42.9475053 19.7824855,43.5441976 C22.9803966,46.4684398 27.1879668,48.0793591 31.6299925,48.0793591 C41.0500553,48.0793591 48.7136746,40.8021116 48.7136746,31.8569741 C48.7136746,25.1884126 44.5021574,19.274712 37.983976,16.7934914 C37.1416726,16.4726568 36.7327568,15.5648749 37.0706254,14.7642878 C37.4084941,13.9637006 38.364473,13.5769 39.2067764,13.896985 C46.9785453,16.8564589 52,23.9050744 52,31.8569741 C51.9992106,42.5232241 42.8617576,51.2 31.6299925,51.2 L31.6299925,51.2 Z M55.3657154,62.0307692 L8.63428464,62.0307692 C7.731148,62.0307692 7,61.3693121 7,60.5538462 C7,59.7383802 7.73193334,59.0769231 8.63428464,59.0769231 L55.3657154,59.0769231 C56.268852,59.0769231 57,59.7383802 57,60.5538462 C57,61.3693121 56.2680667,62.0307692 55.3657154,62.0307692 Z M22.356288,34.4615385 C22.038138,34.4615385 21.7253544,34.3656478 21.4585684,34.180883 L17.6982656,31.5793627 C16.9745702,31.0788605 16.7829136,30.0794152 17.2674215,29.3387966 L19.240718,26.3240891 C19.7221594,25.5881481 20.6950084,25.3784361 21.4286699,25.85633 L25.2648687,28.3526045 C25.6259498,28.5872636 25.8789365,28.9599117 25.9663319,29.3863521 C26.0537274,29.8127925 25.9693985,30.2579433 25.7317442,30.6204566 L23.6825517,33.7404098 C23.4464308,34.1005843 23.0776835,34.3484967 22.6606387,34.4319137 C22.5602106,34.4521833 22.4582493,34.4615385 22.356288,34.4615385 L22.356288,34.4615385 Z M21,29.8442427 L21.8168151,30.5230769 L22,30.1887562 L21.1675947,29.5384615 L21,29.8442427 L21,29.8442427 Z M40.2003153,9.84615385 C39.8872375,9.84615385 39.5805099,9.7637329 39.3152968,9.60847409 C38.5351991,9.15105267 38.300529,8.19061717 38.7906931,7.46337691 L40.0417328,5.60528924 L38.4302783,4.64634859 L37.0246607,6.48649816 C36.4904459,7.18608386 35.4508495,7.35126381 34.6995849,6.85123942 C33.9499222,6.35270986 33.7753213,5.38106306 34.3095361,4.68222478 L36.6338109,1.63798059 C37.1488036,0.963807188 38.1403446,0.782931397 38.8876046,1.22914151 L43.2294012,3.81446944 C44.0022907,4.27413312 44.2313543,5.22933667 43.7443939,5.95358725 L41.6131412,9.11891358 C41.2967771,9.58904115 40.7545531,9.84615385 40.2003153,9.84615385 L40.2003153,9.84615385 Z" id="形状" fill="#0091FF"></path>
            </g>
        </g>
    </g>
</svg>