<?xml version="1.0" encoding="UTF-8"?>
<svg width="65px" height="64px" viewBox="0 0 65 64" version="1.1" xmlns="http://www.w3.org/2000/svg" xmlns:xlink="http://www.w3.org/1999/xlink">
    <!-- Generator: Sketch 63.1 (92452) - https://sketch.com -->
    <title>矩形</title>
    <desc>Created with Sketch.</desc>
    <g id="技联在线新" stroke="none" stroke-width="1" fill="none" fill-rule="evenodd">
        <g id="1-1-服务" transform="translate(-1145.000000, -654.000000)" fill-rule="nonzero">
            <g id="综合能源" transform="translate(1146.000000, 654.000000)">
                <rect id="矩形" fill="#000000" opacity="0" x="0" y="0" width="63.937561" height="63.937561"></rect>
                <path d="M56.5011025,47.648605 L56.4737678,47.5842139 L49.3826789,34.7887877 C48.9706274,34.0482546 48.0438299,33.7822433 47.3075161,34.1931704 C46.9540083,34.3895072 46.6926922,34.7201089 46.5815113,35.1116686 C46.4703304,35.5032282 46.5184727,35.9233875 46.7152632,36.2789812 L53.7357373,48.9502246 C54.0136405,49.610233 53.9498595,49.9505859 53.8997458,50.028775 C53.8746889,50.0701693 53.7790173,50.0977655 53.6719563,50.0977654 L32.4761382,50.0977654 L34.9180422,47.2254637 C35.1809612,46.9166473 35.310809,46.5146025 35.2787283,46.1086794 C35.2466476,45.7027563 35.0552963,45.3265843 34.7472,45.0637633 C34.1048939,44.5134703 33.1428749,44.5905512 32.5945888,45.2362394 L28.3645368,50.2173489 C28.1022041,50.5264228 27.9727367,50.9283227 28.0048024,51.3340564 C28.0368681,51.7397901 28.2278211,52.1158801 28.5353789,52.3790492 L33.4966354,56.6311597 C34.1371678,57.183065 35.0994448,57.1069108 35.6469688,56.4609833 C36.1936637,55.8170726 36.1184932,54.8466071 35.4761266,54.299283 L34.1549472,53.1655402 L53.6742341,53.1655402 C54.8268493,53.1655402 55.8701254,52.6159163 56.4623783,51.6983436 C56.8701215,51.0705306 57.4145386,49.7091194 56.5033804,47.648605 L56.5011025,47.648605 Z M41.7219812,26.5987095 L39.6941193,25.8449995 C38.9134353,25.5530815 38.0428579,25.9455114 37.7475525,26.7224529 C37.6073674,27.0953557 37.6219261,27.5085158 37.7880139,27.8707057 C37.9541016,28.2328956 38.2580573,28.5143241 38.6327661,28.6528504 L44.6847372,30.902731 C45.4660733,31.1961332 46.3382652,30.803431 46.6335622,30.0252775 L48.9030514,24.027096 C49.044573,23.6539588 49.030684,23.2399657 48.8644694,22.8770769 C48.6982548,22.514188 48.3934776,22.2324512 48.0178377,22.0944486 C47.2365451,21.8023845 46.365289,22.1946653 46.0690127,22.971902 L44.8947496,26.0767372 L35.1686902,8.75490685 C34.5951079,7.63896607 33.6715048,7 32.6304754,7 L32.6282173,7 C31.5329912,7 30.5551914,7.69296321 29.9409614,8.89439944 L24.1938471,19.0143621 C23.99732,19.361367 23.947831,19.7721387 24.0563501,20.1556247 C24.1648692,20.5391107 24.4224318,20.8636317 24.7719458,21.0572537 C25.4990856,21.4622322 26.4226887,21.2079956 26.8314226,20.485784 L32.5898279,10.3365729 L41.719723,26.5987095 L41.7219812,26.5987095 Z M22.198324,26.1014198 C21.9673158,25.2967111 21.139705,24.8307938 20.3434142,25.0571674 L14.1760631,26.8278563 C13.6630344,26.9766809 13.2673281,27.3915493 13.138003,27.9161844 C13.0086778,28.4408196 13.1653814,28.995517 13.549085,29.3713275 C13.9327886,29.747138 14.4851985,29.886967 14.9982273,29.7381424 L17.8702011,28.9163611 L7.24031347,47.9671574 L7.19102842,48.1419561 C6.81691014,49.4858636 6.99612846,50.7366964 7.69507999,51.665173 C8.33354534,52.5119255 9.34388871,53 10.4662435,53 L21.7592391,53 C22.5881239,53 23.2601927,52.3189658 23.2601926,51.485834 C23.2601926,50.6504321 22.5881239,49.971668 21.7592391,49.971668 L10.4662435,49.971668 C10.383355,49.971668 10.1794942,49.9580473 10.0854046,49.8354611 C10.0092368,49.7310359 9.96219196,49.4926739 10.0428402,49.115835 L20.3568555,30.6325673 L21.0670082,33.1455834 C21.3106639,33.9300724 22.125571,34.3761989 22.906626,34.1526949 C23.687681,33.9291909 24.1519368,33.1170236 23.9546637,32.3192619 L22.198324,26.0991497 L22.198324,26.1014198 Z" id="形状" fill="#0091FF"></path>
            </g>
        </g>
    </g>
</svg>