<?xml version="1.0" encoding="UTF-8"?>
<svg width="65px" height="64px" viewBox="0 0 65 64" version="1.1" xmlns="http://www.w3.org/2000/svg" xmlns:xlink="http://www.w3.org/1999/xlink">
    <!-- Generator: Sketch 63.1 (92452) - https://sketch.com -->
    <title>矩形</title>
    <desc>Created with Sketch.</desc>
    <g id="技联在线新" stroke="none" stroke-width="1" fill="none" fill-rule="evenodd">
        <g id="1-1-服务" transform="translate(-425.000000, -652.000000)" fill-rule="nonzero">
            <g id="知识产权" transform="translate(426.000000, 652.000000)">
                <rect id="矩形" fill="#000000" opacity="0" x="0" y="0.0624390244" width="63.937561" height="63.937561"></rect>
                <path d="M52.34175,7.00277763 L17.48275,7.00277763 C13.35775,7.06388537 10,10.2775957 10,14.1690462 L10,50.0114994 C10.0055,53.8696183 13.2725,56.9944447 17.30675,57 L52.34175,56.9416699 C53.24925,56.9305594 53.98625,56.2278207 54,55.3584245 L54,8.58602302 C53.989,7.71384926 53.25475,7.01111052 52.34175,7 L52.34175,7.00277763 Z M16.6724285,45 L51,45 L51,54 L16.9384286,54 C14.767,53.9969738 13.0027143,51.9179556 13,49.3547411 L13,49.1550101 C13.1058572,46.8338937 14.7018571,45.0696032 16.6724285,45 L16.6724285,45 Z M38.2808572,21.8045838 L43.3674286,24.7205469 L43.4298571,10 L51,10 L51,43.6686771 L17.0035714,43.6686771 C15.4238572,43.6686771 14.0884286,44.1133896 13,45 L13,13.8419783 C13.0027143,11.7197427 14.8755714,10.0028146 17.1881428,10 L33.1237143,10 L33.1237143,24.7796542 L38.2808572,21.8045838 L38.2808572,21.8045838 Z" id="形状" fill="#0091FF"></path>
            </g>
        </g>
    </g>
</svg>