<?xml version="1.0" encoding="UTF-8"?>
<svg width="65px" height="64px" viewBox="0 0 65 64" version="1.1" xmlns="http://www.w3.org/2000/svg" xmlns:xlink="http://www.w3.org/1999/xlink">
    <!-- Generator: Sketch 63.1 (92452) - https://sketch.com -->
    <title>矩形</title>
    <desc>Created with Sketch.</desc>
    <g id="技联在线新" stroke="none" stroke-width="1" fill="none" fill-rule="evenodd">
        <g id="1-1-服务" transform="translate(-1145.000000, -517.000000)" fill-rule="nonzero">
            <g id="工资标准维护" transform="translate(1146.000000, 517.000000)">
                <rect id="矩形" fill="#000000" opacity="0" x="0" y="0" width="64" height="64"></rect>
                <path d="M57.35,36.3664122 L49.2097656,10.4936387 L49.2097656,10.1119593 L33.6503906,10.1119593 L33.6503906,8 L30.0550781,8 L30.0550781,10.1119593 L14.4957031,10.1119593 L14.4957031,10.4936387 L6.30976562,36.5139949 L6,36.5139949 C6,41.216285 9.80351562,45.0229008 14.4957031,45.0229008 C19.1878906,45.0229008 22.9914063,41.2111959 22.9914063,36.5139949 L22.6816406,36.5139949 L15.6179688,14.0559796 L30.0550781,14.0559796 L30.0550781,53.2926209 L25.4847656,53.2926209 L25.4847656,56 L38.2207031,56 L38.2207031,53.2926209 L33.6503906,53.2926209 L33.6503906,14.0559796 L48.0925781,14.0559796 L41.0695313,36.3664122 L40.4296875,36.3664122 C40.4296875,41.2315522 44.3601562,45.1755725 49.2148438,45.1755725 C54.0695313,45.1755725 58,41.2315522 58,36.3664122 L57.35,36.3664122 Z M21,37 L7,37 L14.0024726,14 L14.0024726,14.3843583 L14.1162134,14.3843583 L21,37 L21,37 Z M42,37 L48.8780661,14.386858 L48.9975116,14.386858 L48.9975116,14 L56,37 L42,37 L42,37 Z" id="形状" fill="#0091FF"></path>
            </g>
        </g>
    </g>
</svg>