<?xml version="1.0" encoding="UTF-8"?>
<svg width="48px" height="48px" viewBox="0 0 48 48" version="1.1" xmlns="http://www.w3.org/2000/svg" xmlns:xlink="http://www.w3.org/1999/xlink">
    <!-- Generator: Sketch 63.1 (92452) - https://sketch.com -->
    <title>矩形</title>
    <desc>Created with Sketch.</desc>
    <g id="技联在线3" stroke="none" stroke-width="1" fill="none" fill-rule="evenodd">
        <g id="1首页" transform="translate(-935.000000, -844.000000)" fill-rule="nonzero">
            <g id="服务备份-3" transform="translate(935.000000, 844.000000)">
                <rect id="矩形" fill="#000000" opacity="0" x="0" y="0" width="48" height="48"></rect>
                <path d="M33.9,4.5 C41.406,4.5 47.5,10.52 47.5,17.952 C47.5,21.438 45.24,25.244 40.864,29.452 L25.054,45.068 C24.4697695,45.6449616 23.5302305,45.6449616 22.946,45.068 L7.14800002,29.466 C2.76,25.242 0.500000016,21.438 0.500000016,17.952 C0.500000016,10.518 6.594,4.5 14.1,4.5 C17.83,4.5 21.308,5.99799998 23.828,8.55200002 L23.998,8.73 L24.17,8.55 C24.2150188,8.5050152 24.2603532,8.46034743 24.306,8.41599998 L24.48,8.23400002 C24.5549442,8.15165023 24.63879,8.0778659 24.73,8.01399998 C27.1023688,5.874783 30.1499584,4.63550541 33.342,4.512 L33.9,4.5 Z M33.9,7.4999602 C30.402,7.4999602 27.196,9.18 25.22,11.948 C25.0925746,12.1288401 24.9265786,12.2791246 24.734,12.388 L18.008,19.684 C17.4760991,20.263755 16.586638,20.33401 15.9703155,19.8449486 C15.353993,19.3558872 15.2202845,18.4737315 15.664,17.824 L15.802,17.652 L21.974,10.952 C19.9517726,8.74494561 17.093397,7.4918198 14.1,7.4999602 C8.24000002,7.4999602 3.50000002,12.184 3.50000002,17.952 C3.50000002,20.442 5.36800003,23.592 9.24200002,27.318 L24,41.89 L39.264,26.824 C42.632,23.48 44.344,20.606 44.492,18.282 L44.502,17.952 C44.502,12.184 39.762,7.4999602 33.902,7.4999602 L33.9,7.4999602 Z" id="形状" fill="#FFFFFF"></path>
            </g>
        </g>
    </g>
</svg>