<?xml version="1.0" encoding="UTF-8"?>
<svg width="65px" height="64px" viewBox="0 0 65 64" version="1.1" xmlns="http://www.w3.org/2000/svg" xmlns:xlink="http://www.w3.org/1999/xlink">
    <!-- Generator: Sketch 63.1 (92452) - https://sketch.com -->
    <title>矩形</title>
    <desc>Created with Sketch.</desc>
    <g id="技联在线新" stroke="none" stroke-width="1" fill="none" fill-rule="evenodd">
        <g id="1-1-服务" transform="translate(-662.000000, -516.000000)" fill="#0091FF" fill-rule="nonzero">
            <g id="dc-icon-技术转移" transform="translate(663.000000, 516.000000)">
                <rect id="矩形" opacity="0" x="0" y="0" width="63.8130477" height="63.8130477"></rect>
                <path d="M59.7900512,26.0801152 C49.38575,-18.0341222 8.73961304,7.62982095 8.73961304,7.62982095 C47.7210618,-10.2655773 53.2700224,23.5830829 53.6861945,26.0801152 L48.9695779,26.0801152 L56.4606748,36.0682444 L63.9517717,26.0801152 L59.7900512,26.0801152 Z M10.1268532,37.7329325 L14.8434698,37.7329325 L7.49109693,27.7448033 L0,37.7329325 L4.0229965,37.7329325 C14.4272977,81.8471699 55.0734347,56.1832268 55.0734347,56.1832268 C16.0919859,74.078625 10.5430253,40.2299648 10.1268532,37.7329325 Z" id="形状"></path>
                <path d="M22.0571187,27.8835274 C24.692875,27.4673553 26.7737353,25.247771 26.7737353,22.4732907 C26.7737353,19.4213624 24.276703,16.9243301 21.2247745,16.9243301 C18.1728461,16.9243301 15.6758139,19.4213624 15.6758139,22.4732907 C15.6758139,24.831599 17.2017781,26.9124593 19.2826383,27.6060793 L19.2826383,36.3456924 C19.2826383,38.8427247 20.5311545,40.923585 22.4732907,42.1721011 C23.0281868,43.9755133 24.5541509,45.2240295 26.4962872,45.2240295 C28.4384235,45.2240295 30.1031117,43.8367893 30.5192837,42.0333771 C32.3226959,40.7848609 33.432488,38.7040007 33.4324881,36.3456924 L33.4324881,26.0801152 C33.4324881,24.970323 33.8486601,23.9992549 34.5422802,23.1669108 C35.2359003,24.415427 36.6231404,25.3864951 38.1491046,25.3864951 C39.3976208,25.3864951 40.5074129,24.831599 41.339757,23.9992549 C41.7559291,24.692875 41.8946531,25.3864951 41.8946531,26.0801152 L41.8946531,35.0971762 C39.8137928,35.9295204 38.4265526,37.8716566 38.4265526,40.2299648 C38.4265526,43.2818932 40.9235849,45.7789256 43.9755133,45.7789256 C47.0274417,45.7789256 49.524474,43.2818933 49.524474,40.2299648 C49.524474,37.4554845 47.4436137,35.0971762 44.6691334,34.6810042 L44.6691334,25.9413911 C44.6691334,23.8605309 43.6980653,22.0571187 42.3108251,20.6698785 C42.1721011,18.5890183 40.3686889,16.9243301 38.1491046,16.9243301 C36.3456924,16.9243301 34.6810042,18.1728462 34.2648321,19.8375344 C31.9065239,21.2247746 30.5192837,23.5830829 30.5192837,26.2188392 L30.5192837,36.4844164 C30.5192837,37.3167606 30.2418356,38.1491046 29.8256636,38.8427247 C29.1320435,37.7329325 27.8835274,37.0393125 26.3575632,37.0393125 C24.831599,37.0393124 23.5830829,37.8716566 22.8894628,38.9814487 C22.3345667,38.2878286 22.0571187,37.4554845 22.0571187,36.4844164 L22.0571187,27.8835274 L22.0571187,27.8835274 Z M46.6112696,40.3686889 C46.6112696,41.8946531 45.3627534,43.1431692 43.8367893,43.1431692 C42.3108251,43.1431692 41.062309,41.894653 41.062309,40.3686889 C41.062309,38.8427247 42.3108251,37.5942085 43.8367893,37.5942085 C45.3627534,37.5942085 46.6112696,38.8427247 46.6112696,40.3686889 Z M18.4502942,22.4732907 C18.4502942,20.9473265 19.6988104,19.6988104 21.2247745,19.6988104 C22.7507387,19.6988104 23.9992549,20.9473266 23.9992549,22.4732907 C23.9992549,23.9992549 22.7507387,25.247771 21.2247745,25.247771 C19.6988104,25.247771 18.4502942,23.9992549 18.4502942,22.4732907 Z" id="形状"></path>
            </g>
        </g>
    </g>
</svg>