<?xml version="1.0" encoding="UTF-8"?>
<svg width="65px" height="64px" viewBox="0 0 65 64" version="1.1" xmlns="http://www.w3.org/2000/svg" xmlns:xlink="http://www.w3.org/1999/xlink">
    <!-- Generator: Sketch 63.1 (92452) - https://sketch.com -->
    <title>矩形</title>
    <desc>Created with Sketch.</desc>
    <g id="技联在线新" stroke="none" stroke-width="1" fill="none" fill-rule="evenodd">
        <g id="1-1-服务" transform="translate(-904.000000, -652.000000)" fill-rule="nonzero">
            <g id="金融-银行" transform="translate(905.000000, 652.000000)">
                <rect id="矩形" fill="#000000" opacity="0" x="0" y="0" width="64" height="64"></rect>
                <path d="M40.3858764,30 L23.5889029,30 C22.7061791,30 22,29.3333333 22,28.5 C22,27.6666667 22.7061791,27 23.5889029,27 L40.4110971,27 C41.2938209,27 42,27.6666667 42,28.5 C42,29.3333333 41.2686003,30 40.3858764,30 L40.3858764,30 Z M40.3858764,37 L23.5889029,37 C22.7061791,37 22,36.3333333 22,35.5 C22,34.6666667 22.7061791,34 23.5889029,34 L40.4110971,34 C41.2938209,34 42,34.6666667 42,35.5 C42,36.3333333 41.2686003,37 40.3858764,37 Z" id="形状" fill="#0091FF"></path>
                <path d="M32.0145527,47 C30.9034416,47 30.0145527,46.3198381 30.0145527,45.4696356 L30.0145527,30.5303644 C30.0145527,29.6801619 30.9034416,29 32.0145527,29 C33.1256638,29 34.0145527,29.6801619 34.0145527,30.5303644 L34.0145527,45.4939271 C33.9828066,46.3198381 33.1256638,47 32.0145527,47 L32.0145527,47 Z" id="路径" fill="#0091FF"></path>
                <path d="M32.4978063,30 C32.1150311,30 31.732256,29.8571429 31.4451747,29.5714286 C30.871012,29 30.871012,28.047619 31.4451747,27.4761905 L38.4786675,20.4285714 C39.0528302,19.8571429 40.009768,19.8571429 40.5839307,20.4285714 C41.1580933,21 41.1580933,21.952381 40.5839307,22.5238095 L33.5265144,29.547619 C33.2633565,29.8571429 32.8805814,30 32.4978063,30 L32.4978063,30 Z" id="路径" fill="#0091FF"></path>
                <path d="M31.5348391,30 C31.1529775,30 30.7711159,29.8568019 30.4847197,29.5704057 L23.4441469,22.5298329 C22.8713546,21.9570406 22.8713546,21.0023866 23.4441469,20.4295943 C24.0169393,19.8568019 24.9715932,19.8568019 25.5443856,20.4295943 L32.5849584,27.4701671 C33.1577508,28.0429594 33.1577508,28.9976134 32.5849584,29.5704057 C32.2985622,29.8568019 31.9167006,30 31.5348391,30 Z" id="路径" fill="#0091FF"></path>
                <path d="M55.4054026,30 C54.6454913,30 53.9869016,29.4415011 53.8349194,28.6799117 C52.0364628,17.9668874 42.8415368,10.1732892 31.9748061,10.1732892 C22.1972816,10.1732892 13.7622669,16.4944812 10.8746042,25.5573951 L13.2809897,24.415011 C14.0662314,24.0342163 15.0034552,24.3896247 15.3834108,25.1766004 C15.7633664,25.9635762 15.4087412,26.9028698 14.6234996,27.2836645 L9.2534602,29.8476821 C8.72152233,30.1015453 8.08826297,30.0253863 7.63231623,29.6699779 C7.15593257,29.3203662 6.92000001,28.7292322 7.02438724,28.1467991 C8.01227185,22.307947 11.0265864,16.9514349 15.5607235,13.0673289 C20.1455212,9.15783664 25.9715074,7 32.0001365,7 C38.0287657,7 43.8547518,9.15783664 48.4395496,13.0673289 C52.9736866,16.9514349 55.9880012,22.307947 56.9758858,28.1467991 C57.127868,29.0099338 56.5452694,29.8222958 55.6840367,29.9746137 C55.5827152,30 55.5067241,30 55.4054026,30 Z M31.9883493,57 C25.9624968,57 20.1391939,54.842049 15.5565077,50.9323495 C11.024459,47.0480377 8.01153272,41.6912417 7.0241031,35.8520802 C6.87219085,34.9888998 7.45452114,34.1764947 8.31535722,34.0241687 C9.17619329,33.8718428 9.98639195,34.4557589 10.1383042,35.3189393 C11.9359325,46.0325314 21.1266235,53.8265426 31.9883493,53.8265426 C41.7107333,53.8265426 50.0912257,47.6065662 53.0281958,38.619335 L50.7748308,39.812555 C49.9899508,40.2187575 49.0531586,39.9141056 48.6480593,39.1524758 C48.24296,38.3654584 48.5467845,37.426115 49.3063457,37.0199125 L54.6739118,34.2018824 C55.2056047,33.9226181 55.8385724,33.9733934 56.3449466,34.3288206 C56.826002,34.6842479 57.0791891,35.2935517 56.9779143,35.8774678 C55.9904847,41.7166294 52.9775584,47.0734254 48.4455096,50.9577372 C43.8375048,54.842049 38.0142019,57 31.9883493,57 L31.9883493,57 Z" id="形状" fill="#0091FF"></path>
            </g>
        </g>
    </g>
</svg>