<?xml version="1.0" encoding="UTF-8"?>
<svg width="65px" height="64px" viewBox="0 0 65 64" version="1.1" xmlns="http://www.w3.org/2000/svg" xmlns:xlink="http://www.w3.org/1999/xlink">
    <!-- Generator: Sketch 63.1 (92452) - https://sketch.com -->
    <title>矩形</title>
    <desc>Created with Sketch.</desc>
    <g id="技联在线新" stroke="none" stroke-width="1" fill="none" fill-rule="evenodd">
        <g id="1-1-服务" transform="translate(-421.000000, -516.000000)" fill-rule="nonzero">
            <g id="284开发-线性" transform="translate(422.000000, 516.000000)">
                <rect id="矩形" fill="#000000" opacity="0" x="0" y="0" width="64" height="64"></rect>
                <path d="M54.85625,7.1 L9.14375,7.1 C6.3,7.1 3.9875,9.4125 3.9875,12.25625 L3.9875,53 C3.9875,55.84375 6.3,58.15625 9.14375,58.15625 L54.8625,58.15625 C57.70625,58.15625 60.01875,55.84375 60.01875,53 L60.01875,12.25625 C60.0125,9.4125 57.7,7.1 54.85625,7.1 L54.85625,7.1 Z M7.8375,22.625 L56.1625,22.625 L56.1625,52.99375 C56.1625,53.7125 55.575,54.3 54.85625,54.3 L9.14375,54.3 C8.425,54.3 7.84375,53.7125 7.8375,52.99375 L7.8375,22.625 Z M9.14375,10.95 L54.8625,10.95 C55.58125,10.95 56.16875,11.5375 56.16875,12.25625 L56.16875,18.775 L7.8375,18.775 L7.8375,12.25625 C7.8375,11.5375 8.425,10.95 9.14375,10.95 Z" id="形状" fill="#0091FF"></path>
                <path d="M39.45625,46.20625 C39.45625,46.7 39.64375,47.1625 39.99375,47.5125 L40,47.51875 C40.35,47.86875 40.8125,48.05625 41.30625,48.05625 C41.8,48.05625 42.2625,47.8625 42.6125,47.5125 L50.375,39.7625 C51.09375,39.04375 51.09375,37.86875 50.375,37.15 L42.6125,29.3875 C42.26875,29.05 41.8125,28.86875 41.325,28.86875 C40.81875,28.86875 40.34375,29.06875 39.99375,29.43125 C39.3,30.15 39.3,31.28125 40,32.00625 L46.44375,38.45 L40,44.9 C39.65,45.25 39.45625,45.7125 39.45625,46.20625 Z M28.375,51.08125 L28.3875,51.0875 C28.55625,51.1375 28.725,51.1625 28.9,51.1625 C29.71875,51.1625 30.44375,50.6125 30.675,49.825 L36.875,28.10625 C37.0125,27.63125 36.95625,27.1375 36.71875,26.70625 C36.48125,26.275 36.0875,25.9625 35.61875,25.825 L35.6125,25.825 C35.4375,25.775 35.2625,25.74375 35.08125,25.74375 C34.28125,25.74375 33.5625,26.28125 33.33125,27.04375 C33.325,27.05625 33.325,27.075 33.31875,27.0875 L27.1125,48.8 C26.975,49.275 27.03125,49.76875 27.26875,50.2 C27.5125,50.63125 27.90625,50.95 28.375,51.08125 L28.375,51.08125 Z M21.38125,47.51875 C21.73125,47.86875 22.19375,48.05625 22.6875,48.05625 C23.18125,48.05625 23.64375,47.8625 24,47.5125 C24.71875,46.79375 24.71875,45.61875 24,44.9 L17.55,38.45625 L24,32 C24.70625,31.26875 24.6875,30.09375 23.95625,29.3875 C23.6125,29.05 23.15625,28.86875 22.66875,28.86875 C22.18125,28.86875 21.73125,29.05625 21.38125,29.39375 L13.625,37.14375 C12.90625,37.8625 12.90625,39.0375 13.625,39.75625 L21.38125,47.51875 Z" id="形状" fill="#0091FF"></path>
            </g>
        </g>
    </g>
</svg>