<?xml version="1.0" encoding="UTF-8"?>
<svg width="65px" height="64px" viewBox="0 0 65 64" version="1.1" xmlns="http://www.w3.org/2000/svg" xmlns:xlink="http://www.w3.org/1999/xlink">
    <!-- Generator: Sketch 63.1 (92452) - https://sketch.com -->
    <title>矩形</title>
    <desc>Created with Sketch.</desc>
    <g id="技联在线新" stroke="none" stroke-width="1" fill="none" fill-rule="evenodd">
        <g id="1-1-服务" transform="translate(-1387.000000, -654.000000)" fill-rule="nonzero">
            <g id="其他服务" transform="translate(1388.000000, 654.000000)">
                <rect id="矩形" fill="#000000" opacity="0" x="0" y="0" width="64" height="64"></rect>
                <path d="M53.65,55.35625 L37.69375,55.35625 C35.49375,55.35625 33.70625,53.5625 33.70625,51.36875 L33.70625,37.69375 C33.70625,35.49375 35.5,33.70625 37.69375,33.70625 L51.3625,33.70625 C53.5625,33.70625 55.3500378,35.5 55.3500378,37.69375 L55.3500378,46.8125 C55.3500378,47.75625 54.58125,48.51875 53.64375,48.51875 C52.7,48.51875 51.9375,47.75 51.9375,46.8125 L51.9375,37.69375 C51.9375,37.38125 51.68125,37.125 51.36875,37.125 L37.69375,37.125 C37.38125,37.125 37.125,37.38125 37.125,37.69375 L37.125,51.3625 C37.125,51.675 37.38125,51.93125 37.69375,51.93125 L53.64375,51.93125 C54.5875,51.93125 55.3500378,52.7 55.3500378,53.6375 C55.35625,54.5875 54.5875,55.35625 53.65,55.35625 L53.65,55.35625 Z M26.30625,55.35625 L12.6375,55.35625 C10.4375,55.35625 8.65,53.5625 8.65,51.36875 L8.65,37.69375 C8.65,35.49375 10.44375,33.70625 12.6375,33.70625 L26.30625,33.70625 C28.50625,33.70625 30.29375,35.5 30.29375,37.69375 L30.29375,51.3625 C30.29375,53.5625 28.5,55.35625 26.30625,55.35625 L26.30625,55.35625 Z M12.6375,37.125 C12.325,37.125 12.06875,37.38125 12.06875,37.69375 L12.06875,51.3625 C12.06875,51.675 12.325,51.93125 12.6375,51.93125 L26.30625,51.93125 C26.61875,51.93125 26.875,51.675 26.875,51.3625 L26.875,37.69375 C26.875,37.38125 26.61875,37.125 26.30625,37.125 L12.6375,37.125 Z M51.3625,30.29375 L37.69375,30.29375 C35.49375,30.29375 33.70625,28.5 33.70625,26.30625 L33.70625,12.6375 C33.70625,10.4375 35.5,8.65 37.69375,8.65 L51.3625,8.65 C53.5625,8.65 55.3500163,10.44375 55.3500163,12.6375 L55.3500163,26.30625 C55.35625,28.5 53.5625,30.29375 51.3625,30.29375 Z M37.69375,12.0625 C37.38125,12.0625 37.125,12.31875 37.125,12.63125 L37.125,26.3 C37.125,26.6125 37.38125,26.86875 37.69375,26.86875 L51.3625,26.86875 C51.675,26.86875 51.93125,26.6125 51.93125,26.3 L51.93125,12.6375 C51.93125,12.325 51.675,12.06875 51.3625,12.06875 L37.69375,12.06875 L37.69375,12.0625 Z M28.58125,30.29375 L12.6375,30.29375 C10.4375,30.29375 8.65,28.5 8.65,26.30625 L8.65,12.6375 C8.65,10.4375 10.44375,8.65 12.6375,8.65 L26.30625,8.65 C28.50625,8.65 30.29375,10.44375 30.29375,12.6375 L30.29375,21.75 C30.29375,22.69375 29.525,23.45625 28.5875,23.45625 C27.64375,23.45625 26.88125,22.6875 26.88125,21.75 L26.88125,12.6375 C26.88125,12.325 26.625,12.06875 26.3125,12.06875 L12.6375,12.06875 C12.325,12.06875 12.06875,12.325 12.06875,12.6375 L12.06875,26.30625 C12.06875,26.61875 12.325,26.875 12.6375,26.875 L28.5875,26.875 C29.53125,26.875 30.29375,27.64375 30.29375,28.58125 C30.29375,29.525 29.525,30.29375 28.58125,30.29375 Z" id="形状" fill="#0091FF"></path>
            </g>
        </g>
    </g>
</svg>