<?xml version="1.0" encoding="UTF-8"?>
<svg width="59px" height="59px" viewBox="0 0 59 59" version="1.1" xmlns="http://www.w3.org/2000/svg" xmlns:xlink="http://www.w3.org/1999/xlink">
    <title>矩形</title>
    <g id="修改" stroke="none" stroke-width="1" fill="none" fill-rule="evenodd">
        <g id="后台图标" transform="translate(-991.000000, -96.000000)" fill-rule="nonzero">
            <g id="视频备份" transform="translate(991.000000, 96.000000)">
                <rect id="矩形" fill="#000000" opacity="0" x="0" y="0" width="58.7380497" height="58.7380497"></rect>
                <path d="M18.4982468,5 L26,13 L17.5017532,13 L10,5 L18.4982468,5 Z M40.4989563,5 L48,13 L39.5023796,13 L32,5 L40.4989563,5 L40.4989563,5 Z M29.4976204,5 L37,13 L28.5010436,13 L21,5 L29.4989563,5 L29.4976204,5 Z M50.8324305,5 C52.6281897,5 54.0051092,6.30033609 54,7.99908343 L54,13 L50.1932836,13 L43,5 L50.8324305,5 Z M7.59197123,5 L15,13 L4,13 L4,7.99908343 C4,6.30033609 5.41833432,5 7.26638704,5 L7.59197123,5 Z" id="形状" fill="#FFFFFF"></path>
                <path d="M54,15 L54,49.6479025 C54,51.5466048 52.5855263,53 50.7407895,53 L50.7407895,53 L7.25921053,53 C5.41447369,53 4,51.5466048 4,49.6479025 L4,49.6479025 L4,15 L54,15 Z M24.255462,23 C22.5193032,23 21,23.88367 21,25.7618067 L21,25.7618067 L21,41.2381933 C21,43.1149788 22.5193032,44 24.255462,44 C24.9060287,44 25.450139,43.8919058 25.9929351,43.5608673 L25.9929351,43.5608673 L38.3734164,36.2672114 C39.3734435,35.7283491 40,34.6634662 40,33.5027024 C40,32.3419385 39.3734435,31.2770556 38.3734164,30.7381933 L38.3734164,30.7381933 L25.9929351,23.4391327 C25.4501391,23.1080942 24.7995724,23 24.255462,23 Z" id="路径-5" fill="#FFFFFF"></path>
            </g>
        </g>
    </g>
</svg>