<?xml version="1.0" encoding="UTF-8"?>
<svg width="48px" height="48px" viewBox="0 0 48 48" version="1.1" xmlns="http://www.w3.org/2000/svg" xmlns:xlink="http://www.w3.org/1999/xlink">
    <title>矩形</title>
    <g id="技联在线3" stroke="none" stroke-width="1" fill="none" fill-rule="evenodd">
        <g id="1首页" transform="translate(-1680.000000, -837.000000)" fill-rule="nonzero">
            <g id="942菜单_会议" transform="translate(1680.000000, 837.000000)">
                <rect id="矩形" fill="#000000" opacity="0" x="0" y="0" width="48" height="48"></rect>
                <path d="M33,22 C33,20.345317 34.345317,19 36,19 C37.654683,19 39,20.345317 39,22 C39,23.654683 37.654683,25 36,25 C34.345317,25 33,23.654683 33,22 Z M11.7382318,26.27832 C12.1070409,26.0986818 12.3787994,25.7619647 12.4804193,25.3587272 C12.5832875,24.955924 12.5055696,24.5274108 12.2681962,24.1885925 L8.63558149,18.9876866 L8.63558149,12.4528071 C8.63558149,9.39535213 11.0690269,7 14.1743968,7 C17.2797666,7 19.713212,9.39525143 19.713212,12.4528071 L19.713212,19.0000727 L16.1981804,24.2078263 C15.9707862,24.5438026 15.8982455,24.9639179 15.9994561,25.3587272 C16.0995352,25.7538238 16.3617484,26.0855298 16.7200356,26.2672934 L27,31.4984093 L27,33.9130455 L1.7760087,33.9130455 C1.50954312,33.9130455 1.25009889,33.9436583 1,34 L1,31.5149241 L11.7382318,26.27832 Z M38,41.2289716 C38,41.6545332 37.6484239,42 37.2154532,42 L1.7844523,42 C1.35148152,42 1,41.6544867 1,41.2289716 L1,38.8790448 L1.04263533,38.8790448 L1.04263533,38.5214988 C1.14813651,38.2187275 1.44020271,38 1.7844523,38 L37.2155004,38 C37.6484712,38 38,38.3455133 38,38.769774 L38,41.2289716 L38,41.2289716 Z" id="形状" fill="#13BE74"></path>
                <path d="M44.1058826,33.4501496 L43.8679653,33.4501496 C44.4731388,29.8930383 43.6290825,26.4338169 41.6162545,24.096069 C42.2186921,23.2491986 42.5730734,22.2166675 42.5730734,21.1033426 C42.5730734,18.2361476 40.2233525,15.9033528 37.335354,15.9033528 C34.4473555,15.9033528 32.0976882,18.2361476 32.0976882,21.1033426 C32.0976882,23.9705377 34.4473555,26.3033325 37.335354,26.3033325 C38.0096763,26.3033325 38.6544936,26.1760436 39.247114,25.9446335 C40.6128179,27.4945219 41.5188346,30.2096094 40.8103938,33.4501496 L34.2641029,33.4501496 L34.2641029,29.9743114 C34.2641029,29.4092873 33.942928,28.8923561 33.4339944,28.6404413 L22.993747,23.4609029 L26.0943957,18.9831575 C26.2661364,18.7344845 26.3581736,18.4400895 26.3584382,18.1385772 L26.3584382,10.750071 C26.3584382,5.84279229 22.3997318,2 17.3453722,2 C12.2910127,2 8.33246718,5.84284555 8.33246718,10.750071 L8.33246718,18.1386837 C8.33229084,18.4487826 8.42972784,18.7511846 8.61115488,19.0036089 L11.7954368,23.4492924 L0.901993261,28.6287776 C0.380468542,28.8769603 0.048566982,29.4001352 0.0483881243,29.9743114 L0,40.1339336 C0,42.2657291 1.7468542,44 3.89411745,44 L44.1058826,44 C46.2531994,44 48,42.2656759 48,40.1339336 L48,37.3147781 C48,35.1844205 46.2531458,33.4501496 44.1058826,33.4501496 Z M34,21 C34,19.345317 35.345317,18 37,18 C38.654683,18 40,19.345317 40,21 C40,22.654683 38.654683,24 37,24 C35.345317,24 34,22.654683 34,21 Z M14.5642496,25.7063437 C14.9614287,25.5133989 15.2540917,25.1517399 15.3635285,24.7186329 C15.4743096,24.2859924 15.3906134,23.8257375 15.1349805,23.4618216 L11.2229339,17.8756634 L11.2229339,10.8567187 C11.2229339,7.57278562 13.8435674,5 17.1878119,5 C20.5320564,5 23.1526899,7.57267747 23.1526899,10.8567187 L23.1526899,17.888967 L19.3672712,23.4824801 C19.1223851,23.8433435 19.0442644,24.2945785 19.1532604,24.7186329 C19.2610379,25.1429959 19.5434214,25.4992727 19.9292691,25.6945003 L31,31.3131063 L31,33.9066044 L3.83570168,33.9066044 C3.54873874,33.9066044 3.26933727,33.9394849 3,34 L3,31.3308444 L14.5642496,25.7063437 Z M45,40.0362145 C45,40.5681665 44.6009137,41 44.1094333,41 L3.89045936,41 C3.39897902,41 3,40.5681084 3,40.0362145 L3,37.098806 L3.04839686,37.098806 L3.04839686,36.6518734 C3.16815496,36.2734094 3.49968957,36 3.89045936,36 L44.109487,36 C44.6009673,36 45,36.4318916 45,36.9622175 L45,40.0362145 L45,40.0362145 Z" id="形状" fill="#FFFFFF"></path>
            </g>
        </g>
    </g>
</svg>