<?xml version="1.0" encoding="UTF-8"?>
<svg width="48px" height="48px" viewBox="0 0 48 48" version="1.1" xmlns="http://www.w3.org/2000/svg" xmlns:xlink="http://www.w3.org/1999/xlink">
    <!-- Generator: Sketch 63.1 (92452) - https://sketch.com -->
    <title>矩形</title>
    <desc>Created with Sketch.</desc>
    <g id="技联在线3" stroke="none" stroke-width="1" fill="none" fill-rule="evenodd">
        <g id="1首页" transform="translate(-1219.000000, -4528.000000)" fill-rule="nonzero">
            <g id="合作洽谈备份-3" transform="translate(1219.000000, 4528.000000)">
                <g id="分组">
                    <rect id="矩形" fill="#000000" opacity="0" x="0" y="0" width="48" height="48"></rect>
                    <path d="M12.1875,17.0625 L11.90625,16.875 C11.2805016,16.4629116 10.4694984,16.4629116 9.84375,16.875 L9.375,17.34375 C8.81514333,18.0902256 8.88937737,19.1347778 9.54917479,19.7945752 C10.2089722,20.4543726 11.2535244,20.5286067 12,19.96875 L12.46875,19.5 C12.8808384,18.8742516 12.8808384,18.0632484 12.46875,17.4375 L12.1875,17.0625 Z M20.34375,19.96875 L20.8125,19.5 C21.2245884,18.8742516 21.2245884,18.0632484 20.8125,17.4375 L20.625,17.15625 L20.34375,16.96875 C19.7180016,16.5566616 18.9069984,16.5566616 18.28125,16.96875 L17.8125,17.4375 C17.2526433,18.1839756 17.3268774,19.2285278 17.9866748,19.8883252 C18.6464722,20.5481226 19.6910244,20.6223567 20.4375,20.0625 L20.34375,19.96875 Z M27.75,20.25 C28.1137575,20.2582952 28.4720703,20.1605735 28.78125,19.96875 L29.25,19.5 C29.6620884,18.8742516 29.6620884,18.0632484 29.25,17.4375 L29.0625,17.15625 L28.78125,16.96875 C28.1555016,16.5566616 27.3444984,16.5566616 26.71875,16.96875 L26.25,17.4375 C25.9241316,17.9987674 25.9116882,18.6886406 26.2171037,19.2612947 C26.5225192,19.8339487 27.1023565,20.2079389 27.75,20.25 Z" id="形状" fill="#0091FF"></path>
                    <path d="M35.8125,17.625 C35.8125,9.5625 28.3125,3.09375 19.03125,3.09375 C9.75,3.09375 2.25,9.5625 2.25,17.625 C2.34538717,21.946223 4.46258745,25.9723744 7.96875,28.5 L6.46875,35.53125 C6.37618165,35.9412103 6.56775893,36.3626803 6.9375,36.5625 L7.40625,36.75 L7.96875,36.5625 L14.15625,31.5 C15.7462266,31.9276852 17.3847761,32.1482592 19.03125,32.15625 C28.21875,32.15625 35.8125,25.59375 35.8125,17.625 Z M13.40625,29.8125 L8.8125,33.375 L9.9375,28.3125 C10.0058372,27.9536277 9.85948366,27.587744 9.5625,27.375 C6.2922643,25.196015 4.29611738,21.5539224 4.21875,17.625 C4.21875,10.59375 10.875,4.96875 19.125,4.96875 C27.375,4.96875 34.03125,10.6875 34.03125,17.625 C34.03125,24.5625 27.1875,30.28125 19.03125,30.28125 C17.4146226,30.2876259 15.8051248,30.0667145 14.25,29.625 C13.9549974,29.546388 13.6401931,29.6163445 13.40625,29.8125 L13.40625,29.8125 Z" id="形状" fill="#0091FF"></path>
                    <path d="M45.75,26.71875 C45.6707281,22.0802355 43.2784705,17.7882439 39.375,15.28125 C38.9348981,14.9964782 38.3472719,15.1223981 38.0625,15.5625 C37.7777282,16.0026019 37.9036481,16.5902282 38.34375,16.875 C41.7483191,19.0077897 43.8597431,22.7027818 43.96875,26.71875 C43.8913826,30.6476724 41.8952357,34.289765 38.625,36.46875 C38.3280163,36.681494 38.1816628,37.0473777 38.25,37.40625 L39.375,42.46875 L34.78125,38.8125 C34.5473069,38.6163445 34.2325026,38.546388 33.9375,38.625 C32.3823752,39.0667145 30.7728774,39.2876259 29.15625,39.28125 C24.7413414,39.3602412 20.4937578,37.5932464 17.4375,34.40625 C17.2030445,34.1550476 16.8523837,34.0480076 16.5176083,34.1254508 C16.1828329,34.2028941 15.9148031,34.4530552 15.8144833,34.7817009 C15.7141634,35.1103465 15.7967944,35.4675476 16.03125,35.71875 C19.4563067,39.2826068 24.2143298,41.2537878 29.15625,41.15625 C30.8027239,41.1482592 32.4412734,40.9276852 34.03125,40.5 L40.125,45.5625 L40.6875,45.75 L41.15625,45.5625 C41.5259911,45.3626803 41.7175683,44.9412103 41.625,44.53125 L40.125,37.5 C43.5698929,34.9725224 45.6476465,30.9901612 45.75,26.71875 L45.75,26.71875 Z" id="路径" fill="#0091FF"></path>
                </g>
            </g>
        </g>
    </g>
</svg>