<?xml version="1.0" encoding="UTF-8"?>
<svg width="48px" height="48px" viewBox="0 0 48 48" version="1.1" xmlns="http://www.w3.org/2000/svg" xmlns:xlink="http://www.w3.org/1999/xlink">
    <title>矩形</title>
    <g id="技联在线3" stroke="none" stroke-width="1" fill="none" fill-rule="evenodd">
        <g id="1首页" transform="translate(-1808.000000, -592.000000)">
            <g id="科技备份" transform="translate(1808.000000, 592.000000)">
                <rect id="矩形" fill="#000000" fill-rule="nonzero" opacity="0" x="0" y="0" width="48" height="48"></rect>
                <path d="M22.7024821,19.2893672 C17.3049029,19.2893672 12.2674894,20.1398567 8.51830002,21.6841448 C5.06165623,23.1079525 3.05846985,25.0092904 3.02155559,26.9010993 C2.98363456,28.8565458 5.023903,30.8828387 8.61931088,32.4596914 C12.5238758,34.172271 17.7612136,35.1740241 23.3658483,35.2800867 C23.6889321,35.2863841 24.0165462,35.2893672 24.3400495,35.2893672 L24.3419791,35.2893672 C29.7385097,35.2893672 34.7750003,34.4388776 38.5240638,32.8948381 C41.9802461,31.4711133 43.9837262,29.5696096 44.0205146,27.677635 C44.0585195,25.7218986 42.0182511,23.6956885 38.422969,22.1192087 C34.5180266,20.4062147 29.2808147,19.4047517 23.6763057,19.2986062 C23.3517487,19.2924872 23.0271402,19.2893672 22.7025241,19.2893672" id="路径" fill="#13BE74"></path>
                <path d="M16.1452734,23.7846559 C13.3919246,28.4498849 11.6151744,33.2516273 11.1423566,37.305242 C10.7064498,41.0425669 11.4571446,43.7750773 13.2019671,44.8030844 C15.0056027,45.865469 17.9353866,45.1689386 21.2394658,42.8916265 C24.8277809,40.418569 28.4332809,36.4192966 31.391128,31.6309513 C31.5618065,31.3550197 31.7317061,31.0734274 31.8967277,30.7938174 L31.897712,30.7921496 C34.6505259,26.1278271 36.4268053,21.3268823 36.8997907,17.2735073 C37.3355393,13.5366248 36.5848399,10.8037734 34.8397987,9.77578777 C33.0359355,8.71317794 30.1062288,9.409752 26.8025615,11.6871517 C23.2136675,14.1603173 19.6085021,18.1596336 16.6506419,22.9478266 C16.4793782,23.2251254 16.3109216,23.504069 16.1452948,23.7846197" id="路径" fill="#13BE74"></path>
                <path d="M17.4829978,32.3866541 C20.2353937,37.2201745 23.5967305,41.2672016 26.9477362,43.7821403 C30.0372837,46.1008306 32.8306945,46.8574469 34.6125606,45.8584692 C36.4542462,44.825677 37.3022218,41.8932219 36.9383336,37.813325 C36.5432853,33.3825359 34.80617,28.1460272 32.0470334,23.0692289 C31.8881516,22.7764726 31.7238708,22.4814676 31.5589063,22.1917711 L31.5579223,22.1900432 C28.8060612,17.3574618 25.445195,13.3112612 22.0944852,10.7962995 C19.0052502,8.47797724 16.2115352,7.7211884 14.4295788,8.72036922 C12.5875801,9.75324453 11.7396818,12.6856544 12.1038532,16.7652352 C12.498708,21.1965884 14.2360294,26.4328262 16.9950246,31.509557 C17.1548239,31.8035352 17.3174818,32.0959015 17.4829764,32.3866165" id="路径" fill="#13BE74"></path>
                <path d="M24.8646489,36.1578923 L24.8624017,36.1578923 C24.5033005,36.1578923 24.1391657,36.1541728 23.7801545,36.1471523 C17.51175,36.0225959 11.6232107,34.8347772 7.19867133,32.8024952 C2.49943537,30.643797 -0.0569691211,27.7352964 0.000963463139,24.6133437 C0.0572331261,21.5795428 2.58995223,18.8292135 7.13309829,16.869322 C11.3908062,15.0325455 17.0643342,14.0209376 23.1080646,14.0209376 C23.4663567,14.0209376 23.8304466,14.0245176 24.1899972,14.0314452 C30.4585365,14.1557226 36.3470758,15.3435413 40.7718848,17.3763348 C45.470896,19.5350329 48.0274803,22.4432081 47.969368,25.5649748 C47.9132781,28.5992406 45.3800196,31.3493375 40.8370983,33.3092755 C36.5802444,35.1461449 30.9070309,36.1578923 24.8646938,36.1578923 M23.1080646,16.1117086 C17.3250084,16.1117086 11.9278399,17.0661294 7.91089605,18.7991321 C4.20739043,20.3969314 2.06114324,22.530616 2.02159268,24.6536071 C1.98096346,26.8480124 4.16694099,29.1219217 8.01912077,30.8914684 C12.2025365,32.8133282 17.8139073,33.9374971 23.8188062,34.0565207 C24.1649635,34.0635878 24.5159747,34.0669353 24.8625814,34.0669353 L24.8646489,34.0669353 C30.6465814,34.0669353 36.0427612,33.1125145 40.0595702,31.3797908 C43.7625814,29.7820845 45.9091432,27.6482139 45.948559,25.5250368 C45.9892781,23.3303061 43.8033005,21.0564897 39.9512556,19.2873615 C35.7674354,17.3650368 30.1561994,16.2411933 24.1514354,16.1220767 C23.8036996,16.1152099 23.4559087,16.1117086 23.1081095,16.1117086 M34.0198848,46.7254707 C31.3602893,46.7254707 28.1310758,45.2218675 24.6808736,42.3776676 C21.2721994,39.5675475 17.946941,35.6977451 15.0655927,31.1872143 C11.6089635,25.7766602 9.214132,20.0855637 8.32280616,15.1631926 C7.3755702,9.93512592 8.24055897,6.10767919 10.758896,4.38597443 C11.6641545,3.767284 12.7380871,3.45317319 13.9501769,3.45317319 C16.6098174,3.45317319 19.8393904,4.95640449 23.2891432,7.80097637 C26.6980421,10.6113289 30.0231657,14.4809919 32.9044691,18.9917086 C36.3608286,24.4023557 38.7553455,30.0927547 39.6472556,35.0153584 C40.5942219,40.2438435 39.7290534,44.0709647 37.210896,45.792716 C36.3055477,46.4115924 35.2321095,46.7254707 34.0198848,46.7254707 M13.9502219,5.5439907 C13.1411432,5.5439907 12.4424017,5.74140256 11.8734129,6.13046106 C10.1030758,7.34078264 9.53305335,10.4929097 10.3092781,14.778272 C11.1523342,19.433026 13.4404241,24.851112 16.7519747,30.0342193 C19.5179522,34.3644479 22.6954803,38.0670128 25.940559,40.7425339 C28.9846039,43.2523518 31.8542668,44.6346532 34.0199298,44.6346532 C34.8289185,44.6346532 35.5277949,44.4371949 36.096559,44.0485548 C37.8668062,42.8381403 38.4372331,39.6860132 37.660514,35.4003719 C36.8176376,30.7458969 34.5296376,25.3279039 31.2183118,20.1445641 C28.4521095,15.814382 25.2748062,12.1115382 22.0295477,9.43620302 C18.9851432,6.92647811 16.1160196,5.5439907 13.9501769,5.5439907 M15.1121994,47.5184657 C14.13175,47.5184657 13.2284241,47.2913909 12.4212331,46.8315692 C9.77642414,45.3261062 8.61494099,41.5838822 9.15008706,36.2933282 C9.65395223,31.312654 11.5956601,25.4399535 14.6178623,19.7577838 C17.9164241,13.5563735 22.161368,8.287253 26.2642893,5.30152654 C26.7209185,4.96923673 27.3514803,5.08268113 27.672559,5.55482371 C27.9936826,6.02733824 27.8841095,6.6792716 27.4273455,7.01156141 C23.5673455,9.82061217 19.5440196,14.8338783 16.3889635,20.7660442 C13.4938174,26.2096087 11.6368286,31.8011623 11.1601095,36.5111972 C10.7215927,40.84747 11.5362893,43.941759 13.3953455,44.999721 C15.2543567,46.0578225 18.2168286,45.1138164 21.5232107,42.4094227 C25.1139073,39.4723286 28.6859522,34.8566292 31.5810084,29.4131112 C34.7360646,23.4811313 36.6761545,17.2822782 36.9036151,12.4055637 C36.9308062,11.828857 37.4041994,11.3837272 37.9618623,11.4116234 C38.5192556,11.4395196 38.9495477,11.9295622 38.9227612,12.5062689 C38.6809635,17.6901666 36.6505365,24.2198683 33.3520196,30.4211391 C30.3299972,36.1034483 26.574132,40.9434793 22.7767387,44.0497172 C19.9746713,46.341573 17.343705,47.5184657 15.1121994,47.5184657 M29.4519747,5.2567532 C29.4519747,6.63296397 29.9994803,8.00048043 30.9401095,8.97391709 C31.8807837,9.94698179 33.202941,10.5133204 34.5334578,10.5133204 C35.8638848,10.5133204 37.1857725,9.94698179 38.1264916,8.97391709 C39.0673455,8.00048043 39.6146713,6.63287098 39.6146713,5.2567532 C39.6146713,3.88044944 39.0673455,2.51265401 38.1264916,1.53958931 C37.1858174,0.566710577 35.8638848,0 34.5335028,0 C33.2029859,0 31.8807837,0.566710577 30.9401545,1.53949632 C29.9994803,2.51260752 29.4519747,3.88040294 29.4519747,5.25666021" id="形状" fill="#FFFFFF" fill-rule="nonzero"></path>
            </g>
        </g>
    </g>
</svg>