<?xml version="1.0" encoding="UTF-8"?>
<svg width="48px" height="48px" viewBox="0 0 48 48" version="1.1" xmlns="http://www.w3.org/2000/svg" xmlns:xlink="http://www.w3.org/1999/xlink">
    <!-- Generator: Sketch 63.1 (92452) - https://sketch.com -->
    <title>矩形</title>
    <desc>Created with Sketch.</desc>
    <g id="技联在线3" stroke="none" stroke-width="1" fill="none" fill-rule="evenodd">
        <g id="1首页" transform="translate(-1177.000000, -846.000000)" fill-rule="nonzero">
            <g id="联盟备份" transform="translate(1177.000000, 846.000000)">
                <rect id="矩形" fill="#000000" opacity="0" x="0" y="0" width="48" height="48"></rect>
                <path d="M23.7856702,48 L3,36 L3,12 L23.7856702,0 L44.570105,12 L44.570105,36 L23.7856702,48 Z M5.47066087,34.5744287 L23.7856702,45.1488573 L42.0994441,34.5744287 L42.0994441,13.4255713 L23.7856702,2.852378 L5.47066087,13.4255713 L5.47066087,34.5744287 Z M14.4638666,22.7757875 L5.06794315,22.7757875 L5.06794315,20.3051266 L13.7510809,20.3051266 L34.8455837,7.03273624 L36.1612106,9.12415073 L14.4638666,22.7757875 Z M12.1142681,40.553428 L10.7825818,38.4706609 L33.116121,24.1791229 L42.5182211,24.1791229 L42.5182211,26.6497838 L33.8400247,26.6497838 L12.1142681,40.553428 Z M21.7189623,34.3199506 L13.2112415,20.9326745 L26.9950586,12.1717109 L35.5027795,25.5577517 L21.7189623,34.3199506 L21.7189623,34.3199506 Z M16.6207536,21.6924027 L22.4786905,30.9079679 L32.0932674,24.7980235 L26.2353304,15.5824583 L16.6207536,21.6924027 Z" id="形状" fill="#FFFFFF"></path>
            </g>
        </g>
    </g>
</svg>