<?xml version="1.0" encoding="UTF-8"?>
<svg width="48px" height="48px" viewBox="0 0 48 48" version="1.1" xmlns="http://www.w3.org/2000/svg" xmlns:xlink="http://www.w3.org/1999/xlink">
    <!-- Generator: Sketch 63.1 (92452) - https://sketch.com -->
    <title>矩形</title>
    <desc>Created with Sketch.</desc>
    <g id="技联在线3" stroke="none" stroke-width="1" fill="none" fill-rule="evenodd">
        <g id="1首页" transform="translate(-1447.000000, -4528.000000)" fill-rule="nonzero">
            <g id="备案备份-3" transform="translate(1447.000000, 4528.000000)">
                <g id="分组">
                    <rect id="矩形" fill="#000000" opacity="0" x="0" y="0" width="48" height="48"></rect>
                    <path d="M36.628125,19.7296875 L36.628125,5.2171875 L11.8078125,5.2171875 L11.8078125,19.7296875 L6.253125,19.7296875 L6.253125,42.2625 L41.8125,42.2625 L41.8125,19.7296875 L36.628125,19.7296875 Z M13.4671875,6.8765625 L34.96875,6.8765625 L34.96875,19.6546875 L13.4671875,19.6546875 L13.4671875,6.8765625 Z M40.153125,40.603125 L7.9125,40.603125 L7.9125,21.3890625 L40.153125,21.3890625 L40.153125,40.603125 Z M37.8140625,22.8 L10.2515625,22.8 L10.2515625,23.578125 L37.8140625,23.578125 L37.8140625,22.8 L37.8140625,22.8 Z M16.396875,12.8296875 L31.528125,12.8296875 L31.528125,11.1703125 L16.396875,11.1703125 L16.396875,12.8296875 Z M14.6625,8.64375 L33.84375,8.64375 L33.84375,7.8796875 L14.6625,7.8796875 L14.6625,8.64375 Z M16.396875,16.9734375 L31.528125,16.9734375 L31.528125,15.3140625 L16.396875,15.3140625 L16.396875,16.9734375 Z M23.6765625,25.640625 C20.4046875,25.640625 17.7421875,28.303125 17.7421875,31.575 C17.7421875,34.846875 20.4046875,37.509375 23.6765625,37.509375 C26.9484375,37.509375 29.6109375,34.846875 29.6109375,31.575 C29.6109375,28.303125 26.9484375,25.640625 23.6765625,25.640625 Z M23.6765625,36 C21.2390625,36 19.25625,34.0171875 19.25625,31.5796875 C19.25625,29.1421875 21.2390625,27.159375 23.6765625,27.159375 C26.1140625,27.159375 28.096875,29.1421875 28.096875,31.5796875 C28.096875,34.0171875 26.1140625,36 23.6765625,36 L23.6765625,36 Z M23.6765625,28.021875 L23.6765625,28.7859375 C25.1765625,28.7859375 26.4,30.009375 26.4,31.509375 C26.4,33.009375 25.1765625,34.2328125 23.6765625,34.2328125 L23.6765625,34.996875 C25.5984375,34.996875 27.1640625,33.43125 27.1640625,31.509375 C27.1640625,29.5875 25.5984375,28.021875 23.6765625,28.021875 Z" id="形状" fill="#0091FF"></path>
                </g>
            </g>
        </g>
    </g>
</svg>