<?xml version="1.0" encoding="UTF-8"?>
<svg width="28px" height="28px" viewBox="0 0 28 28" version="1.1" xmlns="http://www.w3.org/2000/svg" xmlns:xlink="http://www.w3.org/1999/xlink">
    <title>矩形</title>
    <g id="技联在线3" stroke="none" stroke-width="1" fill="none" fill-rule="evenodd">
        <g id="热搜备份-2" transform="translate(-932.000000, -626.000000)" fill-rule="nonzero">
            <g id="锁备份" transform="translate(932.000000, 626.000000)">
                <rect id="矩形" fill="#000000" opacity="0" x="0" y="0" width="28" height="28"></rect>
                <path d="M21.0662809,12.3405066 L10.0869541,12.3405066 L10.0869541,7.77235588 C10.0869541,5.56463698 11.8831581,3.76843294 14.090877,3.76843294 C16.2985959,3.76843294 18.0944049,5.56463698 18.0944049,7.77235588 C18.0945043,8.42693764 18.6251755,8.95752829 19.2797573,8.95752829 C19.9343391,8.95752829 20.4650103,8.42693764 20.4651097,7.77235588 C20.4651097,4.25739081 17.605447,1.39772806 14.0906794,1.39772806 C10.5757144,1.39772806 7.71605163,4.25739081 7.71605166,7.77235588 L7.71605166,12.3405066 L7.11507798,12.3405066 C6.46042591,12.3405066 5.92972554,12.871207 5.92972554,13.525859 L5.92972554,25.5014746 C5.92972554,25.8158496 6.05461053,26.1173487 6.27690723,26.3396454 C6.49920393,26.5619421 6.80070296,26.6868271 7.11507798,26.6868271 L21.0662809,26.6868271 C21.720933,26.6868271 22.2516334,26.1561267 22.2516334,25.5014746 L22.2516334,13.525859 C22.2516334,12.871207 21.720933,12.3405066 21.0662809,12.3405066 L21.0662809,12.3405066 Z" id="路径" fill="#999999"></path>
            </g>
        </g>
    </g>
</svg>