<?xml version="1.0" encoding="UTF-8"?>
<svg width="16px" height="16px" viewBox="0 0 16 16" version="1.1" xmlns="http://www.w3.org/2000/svg" xmlns:xlink="http://www.w3.org/1999/xlink">
    <title>矩形</title>
    <g id="技联在线3" stroke="none" stroke-width="1" fill="none" fill-rule="evenodd">
        <g id="6-1产学研资讯" transform="translate(-338.000000, -539.000000)" fill-rule="nonzero">
            <g id="视频" transform="translate(338.000000, 539.000000)">
                <rect id="矩形" fill="#000000" opacity="0" x="0" y="0" width="16" height="16"></rect>
                <polygon id="路径" fill="#999999"   points="10.4333333 6.82 10.4333333 9.10666667 14.6666667 11.6333333 14.6666667 4.3"></polygon>
                <path d="M10.9533333,3.56666667 L2.11333333,3.56666667 C1.68666666,3.56666667 1.33333333,3.91333334 1.33333333,4.34666667 L1.33333333,11.5933333 C1.33333333,12.02 1.68,12.3733333 2.11333333,12.3733333 L10.96,12.3733333 C11.3866667,12.3733333 11.74,12.0266667 11.74,11.5933333 L11.74,4.34 C11.7333333,3.91333333 11.3866667,3.56666667 10.9533333,3.56666667 Z M4.70666667,10.7 L4.70666667,5.23333333 L9.16,7.96666667 L4.70666667,10.7 Z" id="形状" fill="#999"  ></path>
            </g>
        </g>
    </g>
</svg>