<?xml version="1.0" encoding="UTF-8"?>
<svg width="17px" height="17px" viewBox="0 0 17 17" version="1.1" xmlns="http://www.w3.org/2000/svg" xmlns:xlink="http://www.w3.org/1999/xlink">
    <!-- Generator: Sketch 63.1 (92452) - https://sketch.com -->
    <title>矩形</title>
    <desc>Created with Sketch.</desc>
    <g id="技联在线新" stroke="none" stroke-width="1" fill="none" fill-rule="evenodd">
        <g id="2-1-对接" transform="translate(-767.000000, -246.000000)" fill-rule="nonzero">
            <g id="喇叭备份-4" transform="translate(767.500000, 246.500000)">
                <rect id="矩形" fill="#000000" opacity="0" x="0" y="0" width="16" height="16"></rect>
                <path d="M9.35546875,1.916875 C9.45113954,2.01712 9.50451754,2.15036637 9.50451562,2.2889375 L9.50451562,5.1615625 C9.58809057,5.16263583 9.66983169,5.18621251 9.74114062,5.2298125 C10.7445,5.84114063 11.3641719,6.86298438 11.3641719,7.98571875 C11.3641719,9.07348438 10.7825469,10.067875 9.82998437,10.6857344 C9.73380687,10.7483226 9.61789975,10.7731789 9.50451562,10.7555313 L9.50451562,13.7110625 C9.50451562,14.0087188 9.2631875,14.25 8.96548437,14.25 C8.82689752,14.25 8.6936331,14.1966322 8.59335937,14.1009688 L5.64559375,11.288625 C5.5118991,11.1610733 5.33421761,11.089909 5.1494375,11.0899063 L3.10151562,11.0899063 C2.60534375,11.0899063 2.203125,10.6877656 2.203125,10.1916875 L2.203125,5.8083125 C2.203125,5.31223438 2.60534375,4.91009375 3.10151562,4.91009375 L5.1494375,4.91009375 C5.33421761,4.91009104 5.5118991,4.83892667 5.64559375,4.711375 L8.59335937,1.89903125 C8.80873437,1.6935625 9.1499375,1.70153125 9.35545312,1.916875 L9.35546875,1.916875 Z M12.3596094,12.8775781 C12.4849375,12.6521094 12.7693594,12.5709063 12.994875,12.6962031 L14.0847812,13.3018281 L14.0949375,13.3076094 C14.3127187,13.4357344 14.389625,13.7149063 14.2661875,13.9369844 C14.1408437,14.1624531 13.8564219,14.2436563 13.6309062,14.1183438 L12.5410156,13.51275 L12.5308594,13.5069375 C12.3130781,13.3788281 12.2361719,13.0996406 12.3596094,12.8775781 Z M9.50451562,6.19884375 L9.50451562,9.77251563 C10.0889844,9.32176563 10.4298281,8.67607813 10.4298281,7.98571875 C10.4298281,7.2946875 10.0880469,6.64879688 9.50451562,6.19884375 Z M14.0013281,7.43148414 C14.2543125,7.43123438 14.4624687,7.63307813 14.4686094,7.88728125 C14.4748437,8.14517188 14.2707969,8.35928125 14.0128594,8.36551563 L12.6834844,8.39760938 L12.6724375,8.39776583 C12.4194687,8.398 12.2113125,8.19615625 12.2051719,7.94195312 C12.1989219,7.6840625 12.4029844,7.46995312 12.6609062,7.46371875 L13.9903125,7.431625 L14.0013281,7.43148414 Z M13.9429844,2.03596875 C14.0664219,2.25804688 13.9895156,2.53721875 13.7717344,2.66534375 L13.7615781,2.671125 L12.6716719,3.27675 C12.4461562,3.4020625 12.1617344,3.32084375 12.0364062,3.095375 C11.9129687,2.8733125 11.989875,2.594125 12.2076562,2.466 L12.2178125,2.46021875 L13.3077031,1.85459375 C13.5332344,1.72928125 13.8176562,1.8105 13.9429844,2.03596875 Z" id="形状" fill="#DD5246"></path>
            </g>
        </g>
    </g>
</svg>