<?xml version="1.0" encoding="UTF-8"?>
<svg width="32px" height="32px" viewBox="0 0 32 32" version="1.1" xmlns="http://www.w3.org/2000/svg" xmlns:xlink="http://www.w3.org/1999/xlink">
    <title>微信</title>
    <g id="技联在线3" stroke="none" stroke-width="1" fill="none" fill-rule="evenodd">
        <g id="画板备份" transform="translate(-1171.000000, -663.000000)" fill-rule="nonzero">
            <g id="微信" transform="translate(1171.000000, 663.000000)">
                <rect id="矩形" fill="#000000" opacity="0" x="0" y="0" width="32" height="32"></rect>
                <path d="M9.97818181,12.0436364 C9.97818181,12.6220291 10.4470618,13.0909091 11.0254545,13.0909091 C11.6038473,13.0909091 12.0727273,12.6220291 12.0727273,12.0436364 C12.0727273,11.4652436 11.6038473,10.9963636 11.0254545,10.9963636 C10.4470618,10.9963636 9.97818181,11.4652436 9.97818181,12.0436364 Z" id="路径" fill="#50B674"></path>
                <path d="M14.6618182,12.0145455 C14.6618182,12.5929382 15.1306982,13.0618182 15.7090909,13.0618182 C16.2874837,13.0618182 16.7563636,12.5929382 16.7563636,12.0145455 C16.7563636,11.4361527 16.2874837,10.9672727 15.7090909,10.9672727 C15.1306982,10.9672727 14.6618182,11.4361527 14.6618182,12.0145455 Z" id="路径" fill="#50B674"></path>
                <path d="M17.28,16.6981818 C17.28,17.0998435 17.6056111,17.4254545 18.0072727,17.4254545 C18.4089344,17.4254545 18.7345455,17.0998435 18.7345455,16.6981818 C18.7345455,16.2965202 18.4089344,15.9709091 18.0072727,15.9709091 C17.6056111,15.9709091 17.28,16.2965202 17.28,16.6981818 Z" id="路径" fill="#50B674"></path>
                <path d="M20.9745455,16.7563636 C20.9745455,17.1580253 21.3001566,17.4836363 21.7018182,17.4836363 C22.1034798,17.4836363 22.4290909,17.1580253 22.4290909,16.7563636 C22.4290909,16.354702 22.1034798,16.0290909 21.7018182,16.0290909 C21.3001566,16.0290909 20.9745455,16.354702 20.9745455,16.7563636 Z" id="路径" fill="#50B674"></path>
                <path d="M16,0 C7.15636363,0 0,7.15636363 0,16 C0,24.8436364 7.15636363,32 16,32 C24.8436364,32 32,24.8436364 32,16 C32,7.15636363 24.8436364,0 16,0 Z M13.2654545,19.6945455 C12.4218182,19.6945455 11.7527272,19.52 10.9090909,19.3454545 L8.55272728,20.5090909 L9.22181819,18.5018182 C7.53454547,17.3381818 6.54545453,15.8254546 6.54545453,13.9636364 C6.54545453,10.7636364 9.57090906,8.26181819 13.2654545,8.26181819 C16.5527273,8.26181819 19.4618182,10.2690909 20.0436364,12.9745455 C19.84,12.9454546 19.6072727,12.9454546 19.4036364,12.9454545 C16.2036364,12.9454545 13.7018182,15.3309091 13.7018182,18.2690909 C13.7018182,18.7636364 13.7890909,19.2290909 13.9054545,19.6654545 C13.6727273,19.6654545 13.4690909,19.6945454 13.2654545,19.6945455 L13.2654545,19.6945455 Z M23.0981818,22.0509091 L23.5927273,23.7381818 L21.76,22.72 C21.0909091,22.8945455 20.4218182,23.0690909 19.7527273,23.0690909 C16.5527273,23.0690909 14.0509091,20.8872727 14.0509091,18.2109091 C14.0509091,15.5345455 16.5527273,13.3527273 19.7527273,13.3527273 C22.7781818,13.3527273 25.4545455,15.5345455 25.4545455,18.2109091 C25.4545455,19.6945455 24.4654546,21.0327273 23.0981818,22.0509091 L23.0981818,22.0509091 Z" id="形状" fill="#50B674"></path>
            </g>
        </g>
    </g>
</svg>