<?xml version="1.0" encoding="UTF-8"?>
<svg width="32px" height="32px" viewBox="0 0 32 32" version="1.1" xmlns="http://www.w3.org/2000/svg" xmlns:xlink="http://www.w3.org/1999/xlink">
    <title>微博</title>
    <g id="技联在线3" stroke="none" stroke-width="1" fill="none" fill-rule="evenodd">
        <g id="画板备份" transform="translate(-1295.000000, -663.000000)" fill-rule="nonzero">
            <g id="微博" transform="translate(1295.000000, 663.000000)">
                <rect id="矩形" fill="#000000" opacity="0" x="0" y="0" width="32" height="32"></rect>
                <path d="M14.0218182,15.0690909 C10.9963637,15.2145454 8.55272728,16.8436364 8.55272728,18.88 C8.55272728,20.9163636 10.9963637,22.4581818 14.0218182,22.3127273 C17.0472727,22.1672727 19.4909091,20.2472727 19.4909091,18.2109091 C19.4618182,16.2036364 17.0181818,14.9236364 14.0218182,15.0690909 Z M16.0581818,20.2181818 C15.1272727,21.44 13.2945454,22.0218182 11.52,21.0327273 C10.6763636,20.5672727 10.7054545,19.6654546 10.7054545,19.6654545 C10.7054545,19.6654545 10.3563636,16.7854545 13.3818182,16.4363636 C16.4363637,16.0581818 16.9890909,18.9963636 16.0581818,20.2181818 Z" id="形状" fill="#EA5D5C"></path>
                <path d="M14.0218182,18.2690909 C13.8181818,18.4145454 13.7890909,18.6763636 13.9054545,18.8509091 C13.9927272,19.0254546 14.2545454,19.0545455 14.4290909,18.9090909 C14.6036364,18.7636364 14.6909091,18.5018182 14.5745455,18.3272727 C14.4872727,18.1527272 14.2545455,18.1236363 14.0218182,18.2690909 Z M12.5963636,18.6763636 C12.0145454,18.7345454 11.6363636,19.2290909 11.6363636,19.7236364 C11.6363636,20.1890909 12.1018182,20.5381818 12.6545455,20.48 C13.2072727,20.4218182 13.6727273,19.9854545 13.6727273,19.4909091 C13.6727273,18.9963637 13.2363637,18.6181818 12.5963636,18.6763636 Z" id="形状" fill="#EA5D5C"></path>
                <path d="M16,0 C7.15636363,0 0,7.15636363 0,16 C0,24.8436364 7.15636363,32 16,32 C24.8436364,32 32,24.8436364 32,16 C32,7.15636363 24.8436364,0 16,0 Z M22.1672727,19.5781818 C20.9163636,22.2545455 16.8145455,23.5636364 13.7890909,23.3309091 C10.9090909,23.0981818 7.18545453,22.1381818 6.80727272,18.5890909 C6.80727272,18.5890909 6.60363634,16.9890909 8.14545453,14.9236364 C8.14545453,14.9236364 10.3563636,11.8109091 12.9163636,10.9090909 C15.5054545,10.0363636 15.7963636,11.52 15.7963636,12.4218182 C15.6509091,13.1781818 15.4181818,13.6145455 16.3781818,13.3236364 C16.3781818,13.3236364 18.9090909,12.1309091 19.9563636,13.1781818 C20.8,14.0218182 20.1018182,15.2145454 20.1018182,15.2145455 C20.1018182,15.2145455 19.7527273,15.5927273 20.48,15.7381818 C21.1490909,15.8545454 23.4181818,16.9018182 22.1672727,19.5781818 L22.1672727,19.5781818 Z M19.6654545,12.1890909 C19.4036363,12.1890909 19.1709091,11.9563636 19.1709091,11.6945455 C19.1709091,11.4036364 19.4036364,11.2 19.6654545,11.2 C19.6654545,11.2 22.7781818,10.6181818 22.4,13.9927273 L22.4,14.0509091 C22.3709091,14.2836364 22.1672727,14.4872727 21.9054545,14.4872727 C21.6145454,14.4872727 21.4109091,14.2545454 21.4109091,13.9927273 C21.4109091,13.9345455 21.9054546,11.6945455 19.6654545,12.1890909 L19.6654545,12.1890909 Z M24.9309091,15.4181818 C24.8436364,16 24.5527273,15.7672727 24.2327273,15.7672727 C23.8254546,15.7672727 23.5054546,15.2436363 23.5054545,14.8363636 C23.5054545,14.4872727 23.6509091,14.1381818 23.6509091,14.1381818 C23.68,13.9927273 24.0290909,13.0618182 23.4181818,11.6945455 C22.3127273,9.80363637 20.1018182,9.80363637 19.84,9.89090909 C19.5781818,10.0072727 19.1709091,10.0654546 19.1709091,10.0654545 C18.7636364,10.0654545 18.4436364,9.74545453 18.4436364,9.33818181 C18.4436364,8.98909091 18.6763637,8.72727272 18.9672727,8.64 C18.9672727,8.64 18.9672727,8.66909091 18.9963636,8.66909091 C19.0254545,8.66909091 19.0545454,8.69818181 19.0545455,8.69818181 C19.3745455,8.64 20.48,8.55272728 21.5272727,8.81454547 C23.4763636,9.28 26.0945454,11.4327273 24.9309091,15.4181818 L24.9309091,15.4181818 Z" id="形状" fill="#EA5D5C"></path>
            </g>
        </g>
    </g>
</svg>