<?xml version="1.0" encoding="UTF-8"?>
<svg width="60px" height="60px" viewBox="0 0 60 60" version="1.1" xmlns="http://www.w3.org/2000/svg" xmlns:xlink="http://www.w3.org/1999/xlink">
    <title>矩形</title>
    <g id="修改" stroke="none" stroke-width="1" fill="none" fill-rule="evenodd">
        <g id="管理员后台" transform="translate(-698.000000, -575.000000)" fill-rule="nonzero">
            <g id="委托客户信息管理" transform="translate(698.000000, 575.000000)">
                <rect id="矩形" fill="#000000" opacity="0" x="0" y="0" width="60" height="60"></rect>
                <path d="M54.0574219,43.9271484 C53.4585938,43.3271484 43.7109375,35.1966797 43.0822266,34.6289063 C42.7730478,34.2842685 42.344584,34.0698272 41.8833984,34.0289063 L26.334375,34.0289063 C26.334375,34.0289063 23.90625,34.3271484 23.90625,36.3667969 C23.8664063,37.7882813 24.8800781,39.0404297 26.334375,39.3667969 C27.8800781,39.6369141 30.5923828,40.2369141 33.0527344,40.5070313 C33.9673828,40.5070313 33.0527344,41.1070313 33.0527344,41.1070313 L29.8986328,43.1167969 L19.6482422,43.1167969 C19.6482422,43.1167969 15.3902344,40.2667969 12.3310547,37.8070313 C7.78945313,34.6271484 6.0234375,37.8070313 6.0234375,37.8070313 C6.0234375,37.8070313 5.39238281,38.9789063 6.0234375,39.5472656 C8.45214844,41.5869141 17.2851563,49.1472656 17.8822266,49.7167969 C18.3021389,50.0682439 18.8722605,50.1813404 19.3945313,50.0167969 L37.3734375,50.0167969 C38.2604442,50.0093791 39.121151,50.317813 39.8015625,50.8869141 C40.4707031,51.4517578 42.5455078,53.2271484 43.4607422,53.8869141 C44.9742188,55.0587891 45.6052734,53.8869141 45.6052734,53.8869141 L53.8054688,45.4570313 C54.083412,45.345497 54.2888543,45.1045732 54.3550781,44.8125 C54.4174979,44.5239456 54.329241,44.2234311 54.1207031,44.0144531 L54.0574219,43.9271484 Z M17.9666016,5.90273438 L27.1066406,5.90273438 C27.3484375,5.90273438 27.4693359,6.02363281 27.4693359,6.26542969 L27.4693359,9.19335938 C27.4693359,9.43515625 27.3484375,9.55605469 27.1066406,9.55605469 L17.9666016,9.55605469 C17.7248047,9.55605469 17.6039063,9.43515625 17.6039063,9.19335938 L17.6039063,6.26542969 C17.6039063,6.02363281 17.7248047,5.90273438 17.9666016,5.90273438 L17.9666016,5.90273438 Z M32.4246094,8.2921875 L28.6394531,8.2921875 L28.6394531,10.0248047 C28.6394531,10.4131299 28.3246533,10.7279297 27.9363281,10.7279297 L17.1363281,10.7279297 C16.7480029,10.7279297 16.4332031,10.4131299 16.4332031,10.0248047 L16.4332031,8.2921875 L12.6480469,8.2921875 C12.2597217,8.2921875 11.9449219,8.60698729 11.9449219,8.9953125 L11.9449219,31.2117188 C11.9449219,31.600044 12.2597217,31.9148438 12.6480469,31.9148438 L32.4246094,31.9148438 C32.8129346,31.9148438 33.1277344,31.600044 33.1277344,31.2117188 L33.1277344,8.9953125 C33.1277344,8.60698729 32.8129346,8.2921875 32.4246094,8.2921875 L32.4246094,8.2921875 Z M29.2013672,27.1289063 C29.2010447,27.3090201 29.0551139,27.4549509 28.875,27.4552734 L16.1982422,27.4552734 C16.0181283,27.4549509 15.8721975,27.3090201 15.871875,27.1289063 L15.871875,25.3880859 C15.8725178,25.2081052 16.0182615,25.0623615 16.1982422,25.0617188 L28.875,25.0617188 C29.0549807,25.0623615 29.2007244,25.2081052 29.2013672,25.3880859 L29.2013672,27.1289063 Z M29.2013672,21.9580078 C29.2007244,22.1379885 29.0549807,22.2837322 28.875,22.284375 L16.1982422,22.284375 C16.0182615,22.2837322 15.8725178,22.1379885 15.871875,21.9580078 L15.871875,20.2148438 C15.8725178,20.0348631 16.0182615,19.8891194 16.1982422,19.8884766 L28.875,19.8884766 C29.0549807,19.8891194 29.2007244,20.0348631 29.2013672,20.2148438 L29.2013672,21.9580078 Z M29.2013672,16.7865234 C29.2010447,16.9666373 29.0551139,17.1125681 28.875,17.1128906 L16.1982422,17.1128906 C16.0181283,17.1125681 15.8721975,16.9666373 15.871875,16.7865234 L15.871875,15.0457031 C15.8725178,14.8657224 16.0182615,14.7199787 16.1982422,14.7193359 L28.875,14.7193359 C29.0549807,14.7199787 29.2007244,14.8657224 29.2013672,15.0457031 L29.2013672,16.7865234 Z" id="形状" fill="#FFFFFF"></path>
            </g>
        </g>
    </g>
</svg>