<?xml version="1.0" encoding="UTF-8"?>
<svg width="48px" height="48px" viewBox="0 0 48 48" version="1.1" xmlns="http://www.w3.org/2000/svg" xmlns:xlink="http://www.w3.org/1999/xlink">
    <title>矩形</title>
    <g id="技联在线3" stroke="none" stroke-width="1" fill="none" fill-rule="evenodd">
        <g id="1首页" transform="translate(-1602.000000, -1005.000000)">
            <g id="ico_财务管理_工作量查询备份" transform="translate(1602.000000, 1005.000000)">
                <rect id="矩形" fill="#000000" fill-rule="nonzero" opacity="0" x="0" y="0" width="48" height="48"></rect>
                <rect id="矩形" fill="#13BE74" x="4" y="11" width="32" height="27" rx="2"></rect>
                <path d="M9.375,12.75 L38.625,12.75 C38.9345466,12.7070966 39.2463093,12.8117409 39.4672842,13.0327158 C39.6882591,13.2536907 39.7929034,13.5654534 39.75,13.875 C39.7929034,14.1845466 39.6882591,14.4963093 39.4672842,14.7172842 C39.2463093,14.9382591 38.9345466,15.0429034 38.625,15 L9.375,15 C9.06545338,15.0429034 8.75369067,14.9382591 8.53271577,14.7172842 C8.31174087,14.4963093 8.20709658,14.1845466 8.25,13.875 C8.20709658,13.5654534 8.31174087,13.2536907 8.53271577,13.0327158 C8.75369067,12.8117409 9.06545338,12.7070966 9.375,12.75 L9.375,12.75 Z" id="路径" fill="#FFFFFF" fill-rule="nonzero"></path>
                <path d="M9.375,21 L38.625,21 C38.9345466,20.9570966 39.2463093,21.0617409 39.4672842,21.2827158 C39.6882591,21.5036907 39.7929034,21.8154534 39.75,22.125 C39.7929034,22.4345466 39.6882591,22.7463093 39.4672842,22.9672842 C39.2463093,23.1882591 38.9345466,23.2929034 38.625,23.25 L9.375,23.25 C9.06545338,23.2929034 8.75369067,23.1882591 8.53271577,22.9672842 C8.31174087,22.7463093 8.20709658,22.4345466 8.25,22.125 C8.20709658,21.8154534 8.31174087,21.5036907 8.53271577,21.2827158 C8.75369067,21.0617409 9.06545338,20.9570966 9.375,21 Z M9.375,29.25 L22.875,29.25 C23.4963203,29.25 24,29.7536797 24,30.375 C24,30.9963203 23.4963203,31.5 22.875,31.5 L9.375,31.5 C8.75367966,31.5 8.25,30.9963203 8.25,30.375 C8.25,29.7536797 8.75367966,29.25 9.375,29.25 Z" id="形状" fill="#FFFFFF" fill-rule="nonzero"></path>
                <path d="M42.75,30.045 C40.2739547,27.2374283 36.3185617,26.2556726 32.817056,27.5795752 C29.3155504,28.9034778 26.9991432,32.2565712 26.9999998,36 L26.9999998,36.75 C27.3431023,40.6343915 30.1486838,43.8559477 33.9491101,44.7294327 C37.7495365,45.6029176 41.6801494,43.9295996 43.6847968,40.5848118 C45.6894441,37.240024 45.3120363,32.9847596 42.75,30.045 Z M36,43.5000958 C32.1339145,43.5193744 28.8865649,40.5967597 28.5,36.75 L28.5,36 C28.5,31.8578644 31.8578644,28.5 36,28.5 C40.1421356,28.5 43.5,31.8578644 43.5,36 C43.5,40.1421356 40.1421356,43.5000958 36,43.5000958 L36,43.5000958 Z" id="形状" fill="#FFFFFF" fill-rule="nonzero"></path>
                <path d="M33,31.875 C33.2068323,31.8442047 33.4160218,31.9132487 33.5638866,32.0611134 C33.7117513,32.2089782 33.7807953,32.4181677 33.75,32.625 L33.75,39.375 C33.75,39.7892136 33.4142136,40.125 33,40.125 C32.5857864,40.125 32.25,39.7892136 32.25,39.375 L32.25,32.625 C32.2192047,32.4181677 32.2882487,32.2089782 32.4361134,32.0611134 C32.5839782,31.9132487 32.7931677,31.8442047 33,31.875 L33,31.875 Z M36,35.625 C36.2068323,35.5942047 36.4160218,35.6632487 36.5638866,35.8111134 C36.7117513,35.9589782 36.7807953,36.1681677 36.75,36.375 L36.75,39.375 C36.75,39.7892136 36.4142136,40.125 36,40.125 C35.5857864,40.125 35.25,39.7892136 35.25,39.375 L35.25,36.375 C35.2192047,36.1681677 35.2882487,35.9589782 35.4361134,35.8111134 C35.5839782,35.6632487 35.7931677,35.5942047 36,35.625 L36,35.625 Z M39,35.625 C39.2068323,35.5942047 39.4160218,35.6632487 39.5638866,35.8111134 C39.7117513,35.9589782 39.7807953,36.1681677 39.75,36.375 L39.75,39.375 C39.75,39.7892136 39.4142136,40.125 39,40.125 C38.5857864,40.125 38.25,39.7892136 38.25,39.375 L38.25,36.375 C38.2192047,36.1681677 38.2882487,35.9589782 38.4361134,35.8111134 C38.5839782,35.6632487 38.7931677,35.5942047 39,35.625 L39,35.625 Z" id="形状" fill="#FFFFFF" fill-rule="nonzero"></path>
                <path d="M45,6 L45,25.875 C45,26.4963203 44.4963203,27 43.875,27 C43.2536797,27 42.75,26.4963203 42.75,25.875 L42.75,6 C42.75,5.58578644 42.4142136,5.25 42,5.25 L6,5.25 C5.58578644,5.25 5.25,5.58578644 5.25,6 L5.25,36 C5.25,36.4142136 5.58578644,36.75 6,36.75 L24.375,36.75 C24.9963203,36.75 25.5,37.2536797 25.5,37.875 C25.5,38.4963203 24.9963203,39 24.375,39 L6,39 C4.34314575,39 3,37.6568542 3,36 L3,6 C3,4.34314575 4.34314575,3 6,3 L42,3 C43.6568542,3 45,4.34314575 45,6 Z" id="路径" fill="#FFFFFF" fill-rule="nonzero"></path>
            </g>
        </g>
    </g>
</svg>