<?xml version="1.0" encoding="UTF-8"?>
<svg width="60px" height="60px" viewBox="0 0 60 60" version="1.1" xmlns="http://www.w3.org/2000/svg" xmlns:xlink="http://www.w3.org/1999/xlink">
    <title>矩形</title>
    <g id="修改" stroke="none" stroke-width="1" fill="none" fill-rule="evenodd">
        <g id="企业用户后台" transform="translate(-879.000000, -460.000000)" fill-rule="nonzero">
            <g id="校企合作实习基地备份" transform="translate(879.000000, 460.000000)">
                <rect id="矩形" fill="#000000" opacity="0" x="0" y="0" width="60" height="60"></rect>
                <path d="M6.22851563,24.8554687 L8.94726562,26.3144531 C8.94726562,26.3144531 10.1835938,27.0585937 10.8398438,25.6757812 L17.5957031,10.9980469 C17.5957031,10.9980469 18.234375,9.74414062 17.1914062,9.15234375 L14.2207031,7.640625 C14.2207031,7.640625 13.3007813,7.10742187 12.6972656,8.23242187 C12.6796875,8.68359375 5.75976563,23.1855469 5.75976563,23.1855469 C5.75976563,23.1855469 5.33203125,24.375 6.22851563,24.8554687 L6.22851563,24.8554687 Z M47.3496094,26.3554688 L50.1269531,25.0253906 C50.1269531,25.0253906 51.4570312,24.4628906 50.8125,23.0742188 L43.8808594,8.484375 C43.8808594,8.484375 43.3242187,7.1953125 42.2402344,7.67578125 L39.2695312,9.17578125 C39.2695312,9.17578125 38.296875,9.60351562 38.7714844,10.7871094 C39.1054687,11.0859375 45.8085937,25.6992188 45.8085937,25.6992188 C45.8085937,25.6992188 46.4296875,26.7949219 47.3496094,26.3554688 Z" id="形状" fill="#FFFFFF"></path>
                <path d="M31.5292969,25.1132812 L34.8632812,21.4042969 L42.5976562,28.5 C44.2617187,29.2089844 44.3613281,31.1484375 43.5703125,32.109375 C42.7792969,33.0703125 41.4316406,32.6367187 40.078125,31.5175781 L31.5292969,25.1132812 Z M28.4121094,28.5585937 L31.1308594,25.6054688 L39.0878906,32.7539062 C40.7109375,33.5625 41.015625,35.3027344 40.3769531,36.0761719 C39.7382812,36.8496094 38.4375,36.3164062 37.0605469,35.1796875 L28.4121094,28.5585938 L28.4121094,28.5585937 Z M25.5703125,32.0742188 L27.703125,29.7480469 L35.5898437,35.9121094 C37.1132812,36.65625 37.3710937,38.3085938 36.7617187,39.046875 C36.1523437,39.7851562 34.9277344,39.2988281 33.6445312,38.2382812 L25.5703125,32.0742187 L25.5703125,32.0742188 Z M22.9277344,35.0917969 L24.8027344,33.0175781 L30.8261719,37.6757812 C32.015625,38.203125 32.1269531,39.5683594 31.5820312,40.2246094 C31.0371094,40.8808594 30.0761719,40.5527344 29.0976562,39.7441406 L22.9277344,35.0917969 L22.9277344,35.0917969 Z" id="形状" fill="#FFFFFF"></path>
                <polygon id="路径" fill="#FFFFFF" points="16.2890625 13.8105469 20.8183594 13.8105469 30.0585938 17.15625 37.6347656 24.0410156 25.6054688 37.0195313 14.2675781 28.6230469 11.9589844 23.2558594"></polygon>
                <path d="M11.0214844,25.2949219 L11.9589844,23.2558594 L15.3339844,27.6914062 C15.3339844,27.6914062 17.4257812,27.1933594 18.1640625,28.5585938 C18.1640625,28.5585938 18.8554688,29.390625 18.5507812,30.9550781 C18.5507812,30.9550781 18.984375,31.2832031 19.0136719,31.4882812 C19.0136719,31.4882812 20.4550781,31.125 21.3222656,32.1914062 C21.3222656,32.1914062 22.1191406,32.8535156 22.0253906,34.1425781 C22.0253906,34.1425781 22.5996094,34.4003906 22.7167969,34.7519531 C22.7167969,34.7519531 24.1347656,34.3828125 24.8203125,35.25 C24.8203125,35.25 25.6640625,36.0644531 25.5996094,37.0253906 L26.9179688,38.0273437 C26.9179688,38.0273437 28.1425781,38.1328125 28.3417969,39.1289062 L29.5253906,40.0371094 C29.5253906,40.0371094 31.4121094,40.8164062 31.5175781,38.8476562 L27.0878906,35.3320312 C27.0878906,35.3320312 26.5664062,33.9140625 28.1894531,34.1367187 L34.7929688,38.9824219 C34.7929688,38.9824219 35.8710938,39.4628906 36.5273438,38.3964844 C36.5273438,38.3964844 37.1601562,37.4765625 36.2578125,36.4804688 L29.2382812,31.1953125 C29.2382812,31.1953125 28.6171875,29.71875 30.2109375,29.8300781 L38.5429688,35.9707031 C38.5429688,35.9707031 39.7265625,36.4628906 40.2246094,35.5429688 C40.2246094,35.5429688 40.8984375,34.6289062 40.2246094,33.6796875 L31.0253906,26.6894531 C31.0253906,26.6894531 30.46875,25.0136719 32.1914062,25.4472656 L41.671875,32.484375 C41.671875,32.484375 43.1074219,32.953125 43.7460938,31.734375 C43.7460938,31.734375 44.5546875,30.421875 43.4707031,29.34375 L30.0585938,17.15625 C30.0585938,17.15625 27.5625,15.9140625 26.0800781,18.5097656 C26.0800781,18.5097656 25.8164062,22.7402344 21.3046875,23.5078125 C21.3046875,23.5078125 18.2285156,23.2617188 18.9433594,21.1582031 C18.9433594,21.1582031 19.8457031,19.9101562 19.7695313,17.2910156 C19.7695313,17.2910156 19.8691406,15.4101562 21.1230469,13.8046875 L16.2890625,13.8046875 L17.3496094,11.5136719 L24.6445312,11.5136719 C24.6445312,11.5136719 27.6386719,9.74414063 29.9003906,9.90820312 C29.9003906,9.90820312 32.8476562,10.0722656 33.6386719,10.5410156 C33.6386719,10.5410156 37.5410156,11.8417969 39.2871094,11.5371094 L45.8203125,25.640625 L44.7832031,28.1015625 C44.7832031,28.1015625 46.6933594,30.1464844 45.28125,32.625 C44.8886719,33.4570313 43.8808594,34.2597656 42.234375,34.3417969 C42.234375,34.3417969 42.4863281,36.0175781 41.3320312,36.9550781 C41.3320312,36.9550781 40.4824219,38.1679688 38.4257812,37.8339844 C38.4257812,37.8339844 38.5429688,39.3105469 37.1777344,40.2949219 C37.1777344,40.2949219 35.5546875,41.7480469 33.0527344,39.9785156 C33.0527344,39.9785156 32.6542969,41.6425781 30.65625,41.9824219 C30.65625,41.9824219 29.1972656,42.2226563 28.3476563,41.3613281 C28.3476563,41.3613281 26.8183594,44.3613281 24.6445313,42.6738281 C24.6445313,42.6738281 23.2675781,41.484375 24.234375,39.8027344 C24.234375,39.8027344 22.3769531,42.8554688 20.1796875,40.5585938 C20.1796875,40.5585938 18.9550781,39.6035156 20.0859375,37.5996094 C20.0859375,37.5996094 18.3398438,39.6738281 16.4121094,37.7929688 C16.4121094,37.7929688 15.0996094,36.6738281 16.1484375,34.59375 C16.1484375,34.59375 14.3613281,36.8027344 12.2753906,34.6992188 C12.2753906,34.6992188 11.4023438,33.8613281 11.90625,31.9921875 L13.921875,29.1210937 L11.1914063,25.4882812 L11.0214844,25.2949219 Z" id="路径" fill="#FFFFFF"></path>
                <path d="M35.4609375,39.3398437 C35.1386719,39.3398437 34.8105469,39.5976562 34.7402344,39.9082031 L31.8515625,51.9140625 C31.7753906,52.2246094 31.9804688,52.4824219 32.3027344,52.4824219 L53.7539062,52.4824219 C54.0761719,52.4824219 54.2753906,52.2246094 54.1992188,51.9140625 L51.2753906,39.9140625 C51.1992188,39.6035156 50.8710938,39.3457031 50.5488281,39.3457031 L35.4609375,39.3457031 L35.4609375,39.3398437 Z" id="路径" fill="#FFFFFF"></path>
                <path d="M43.0253906,29.953125 C40.21875,29.953125 37.9394531,32.2675781 37.9394531,35.1210938 C37.9394531,37.9746094 43.0253906,43.5175781 43.0253906,43.5175781 C43.0253906,43.5175781 48.1113281,37.9746094 48.1113281,35.1210938 C48.1113281,32.2675781 45.8378906,29.953125 43.0253906,29.953125 L43.0253906,29.953125 Z" id="路径" fill="#FFFFFF"></path>
                <path d="M43.0253906,36.4101562 C41.9707031,36.4101562 41.1152344,35.5429688 41.1152344,34.4707031 C41.1152344,33.3984375 41.9707031,32.53125 43.0253906,32.53125 C44.0800781,32.53125 44.9355469,33.3984375 44.9355469,34.4707031 C44.9355469,35.5429688 44.0800781,36.4101562 43.0253906,36.4101562 Z" id="路径" fill="#FFFFFF"></path>
            </g>
        </g>
    </g>
</svg>