<?xml version="1.0" encoding="UTF-8"?>
<svg width="60px" height="60px" viewBox="0 0 60 60" version="1.1" xmlns="http://www.w3.org/2000/svg" xmlns:xlink="http://www.w3.org/1999/xlink">
    <title>矩形</title>
    <g id="修改" stroke="none" stroke-width="1" fill="none" fill-rule="evenodd">
        <g id="企业用户后台" transform="translate(-698.000000, -460.000000)" fill-rule="nonzero">
            <g id="发布需求" transform="translate(698.000000, 460.000000)">
                <rect id="矩形" fill="#000000" opacity="0" x="0" y="0" width="60" height="60"></rect>
                <path d="M11.3117188,6 L49.6847656,6 C50.5923828,6.05517858 51.4736328,6.43017858 52.0830078,7.05053573 C52.6267578,7.58785716 52.94375,8.30089289 53,9.02892858 L53,50.9694643 C52.9408203,51.7730357 52.5558594,52.5546428 51.9130859,53.1085714 C51.3183594,53.6367857 50.5132813,53.9464286 49.6894531,54 L11.3158203,54 C10.4082031,53.9448214 9.52695312,53.5708928 8.91816409,52.9505357 C8.37324219,52.4126786 8.05683597,51.7001786 8,50.9716072 L8,9.03160716 C8.05742187,8.265 8.40781251,7.51660716 9.00078125,6.96910716 C9.6042969,6.39642858 10.446875,6.05464284 11.3117188,6 M16.9899207,14.0164434 C16.5613188,14.085349 16.1818633,14.5047739 16.0549971,15.0447835 C15.9309883,15.5308671 16.0212804,16.0955928 16.2795845,16.4805649 C16.4933139,16.8086151 16.8196228,17.0011012 17.1487891,16.9973563 C23.0349215,16.9996033 28.9204825,16.9973563 34.8066149,16.9988543 C35.1946425,17.0190766 35.5843845,16.7704176 35.8015428,16.3457498 C36.0684189,15.8484317 36.066133,15.1354093 35.7946851,14.641836 C35.5775268,14.2254069 35.1923566,13.9819907 34.8094723,14.0022129 C30.5234535,14.0029619 26.2374348,14.0022129 21.9519874,14.0022129 C20.2981556,14.0119496 18.6431809,13.9834886 16.9899207,14.0164434 M16.9937581,20.0157487 C16.5644719,20.0831607 16.1832658,20.5003664 16.0556247,21.0396627 C15.9268388,21.543755 16.0264332,22.1317378 16.3051831,22.5174844 C16.5186814,22.8245837 16.8340637,23.0006041 17.1505907,22.997608 C21.367326,23.0006041 25.5846336,22.997608 29.8013688,22.999106 C30.1356397,23.0140865 30.4733448,22.8403132 30.6982908,22.5137393 C31.0073769,22.0875454 31.0880827,21.4126759 30.898052,20.8808699 C30.7217585,20.357303 30.2981961,19.9970231 29.8603241,20.0037643 C27.0934315,20.0007682 24.3265388,20.0030153 21.5590738,20.0022662 C20.0376835,20.0112545 18.5145761,19.9842896 16.9937581,20.0157487 M45.6899456,20.0300005 C44.9444986,20.1145329 44.2367731,20.4372929 43.7038833,20.9225308 C42.4686568,22.0532888 41.2346277,23.1856936 40,24.3170005 C42.4303366,26.5444841 44.858877,28.7741632 47.2904111,31 C48.5244402,29.869242 49.7584692,28.738484 50.9913007,27.607177 C51.6163984,27.0341132 51.98523,26.2359957 51.9990013,25.4258021 C52.0217539,24.5777336 51.6547185,23.7291161 51.0032758,23.12696 C50.1961574,22.3864782 49.3890389,21.6454475 48.5807229,20.9066124 C47.8322822,20.2270597 46.7329726,19.8938704 45.6899456,20.0300005 M37.9282518,26 C33.6135917,29.9347035 29.286745,33.8593789 24.9691834,37.7914434 C24.3209688,39.9490649 23.6953867,42.1130199 23.0535555,44.2727525 C22.8643721,44.868104 23.1916711,45.5505415 23.7946209,45.8350224 C24.1341066,46.0044442 24.5472926,46.0450843 24.9192761,45.9490259 C27.2927743,45.3642303 29.6714954,44.7973796 32.0426725,44.2067782 C36.3642964,40.281575 40.6841793,36.3526773 45,32.4216683 C42.6392687,30.2846308 40.294206,28.1322874 37.9282518,26 M16.0512146,27.0157477 C15.6161987,27.0809087 15.227229,27.465134 15.0769728,27.9736895 C14.9418635,28.4103432 14.9866979,28.9248906 15.1951178,29.3158567 C15.4132317,29.7390289 15.8125011,30.0034178 16.2190411,29.997426 C19.3883563,30.0004219 22.5576714,29.997426 25.7269866,29.9989239 C26.0965684,30.0161504 26.4697854,29.8259102 26.7091047,29.4738909 C27.0132524,29.0477228 27.0865628,28.3983596 26.8926839,27.8838122 C26.7066813,27.3572812 26.2571245,26.9962742 25.7918149,27.003764 C23.6706578,27.0007681 21.5495008,27.003015 19.4283438,27.0022661 C18.3026341,27.0112538 17.1763185,26.9842906 16.0512146,27.0157477 L16.0512146,27.0157477 Z M45.6140152,23.2462948 C45.9348911,22.9153467 46.5193091,22.9187188 46.837776,23.2515938 C47.4809731,23.8932573 48.1241702,24.5349208 48.7644765,25.1789929 C49.0733074,25.492117 49.0800526,26.0432153 48.775076,26.3611567 C48.2335378,26.9108099 47.6842908,27.4532372 47.13938,28 C46.0924382,26.9546473 45.0479054,25.906886 44,24.8624967 C44.5343113,24.3200695 45.0753677,23.7839047 45.6140152,23.2462948 L45.6140152,23.2462948 Z M27.3849935,40.1881876 C30.9917594,36.7850681 34.6164522,33.3971482 38.2307359,30 C39.48735,31.1790677 40.7439641,32.3586783 42,33.5388318 C38.9345092,36.4175593 35.8678618,39.2946584 32.8017927,42.1728431 C32.2495301,42.6842067 31.7117247,43.211313 31.1502096,43.7129053 C29.9791817,44.0196149 28.8012144,44.3051534 27.6278734,44.6042632 C27.0842851,44.7323755 26.5482146,44.8925159 26,45 C26.4713026,43.3985958 26.907908,41.7874204 27.3849935,40.1881876 Z" id="形状" fill="#FFFFFF"></path>
            </g>
        </g>
    </g>
</svg>