<?xml version="1.0" encoding="UTF-8"?>
<svg width="60px" height="60px" viewBox="0 0 60 60" version="1.1" xmlns="http://www.w3.org/2000/svg" xmlns:xlink="http://www.w3.org/1999/xlink">
    <title>矩形</title>
    <g id="修改" stroke="none" stroke-width="1" fill="none" fill-rule="evenodd">
        <g id="后台图标" transform="translate(-1465.000000, -96.000000)" fill-rule="nonzero">
            <g id="问号，注意，帮助，反馈备份" transform="translate(1465.000000, 96.000000)">
                <rect id="矩形" fill="#000000" opacity="0" x="0" y="0" width="60" height="60"></rect>
                <path d="M30,7.0000002 C42.7025492,7.0000002 53,17.2974509 53,30.0000002 C53,38.2171086 48.6162249,45.8100301 41.5,49.9185844 C34.3837753,54.0271388 25.6162247,54.0271388 18.5,49.9185844 C11.3837751,45.8100301 7,38.2171086 7,30.0000002 C7,17.2974509 17.2974508,7.0000002 30,7.0000002 Z M30,41.31 C28.8384,41.31 27.9,42.2724 27.9,43.458 C27.9,44.6424 28.8432,45.6 30,45.6 C31.1616,45.6 32.1,44.6376 32.1,43.458 C32.1,42.2724 31.1616,41.3148 30,41.31 Z M30,15.6 C25.0284,15.6 21,19.7544 21,24.8796 C21,25.9584 21.846,26.8356 22.8972,26.8356 C23.9424,26.8356 24.7932,25.9644 24.7932,24.8796 C24.7932,21.9108 27.126,19.506 30.006,19.506 C32.886,19.506 35.2176,21.9108 35.2176,24.8796 C35.2176,26.094 34.314,27.396 32.2344,28.7796 C29.6688,30.4884 28.1148,33.4236 28.1148,36.5748 L28.1148,36.9048 C28.1148,37.9836 28.9596,38.8608 30.006,38.8608 C31.0452,38.856 31.8912,37.9836 31.8972,36.9048 L31.8972,36.5748 C31.8972,34.7484 32.7948,33.0516 34.2804,32.0628 C37.3368,30.0288 39,27.6372 39,24.8796 C39,19.7544 34.9716,15.6 30,15.6 Z" id="路径-3" fill="#FFFFFF"></path>
            </g>
        </g>
    </g>
</svg>