<?xml version="1.0" encoding="UTF-8"?>
<svg width="60px" height="60px" viewBox="0 0 60 60" version="1.1" xmlns="http://www.w3.org/2000/svg" xmlns:xlink="http://www.w3.org/1999/xlink">
    <title>矩形</title>
    <g id="修改" stroke="none" stroke-width="1" fill="none" fill-rule="evenodd">
        <g id="后台图标" transform="translate(-1143.000000, -96.000000)" fill-rule="nonzero">
            <g id="在线用户监控备份" transform="translate(1143.000000, 96.000000)">
                <rect id="矩形" fill="#000000" opacity="0" x="0" y="0" width="60" height="60"></rect>
                <path d="M10.3457031,6 C7.95719401,6 6,7.92213499 6,10.2767503 L6,40.2300206 C6,42.5806315 7.953125,44.5067709 10.3457031,44.5067709 L28.8271484,44.5067709 L28.8271484,51.7187816 L16.172526,51.7187816 C15.0716826,51.7182065 14.1209772,52.4767275 13.8938802,53.5368009 C13.7896971,54.1582325 13.971901,54.7930623 14.3910484,55.2690202 C14.8101959,55.7449781 15.4228149,56.0127002 16.0626628,56 L45.831543,56 C46.9323865,56 47.8830918,55.2415904 48.1101888,54.181517 C48.214372,53.5600854 48.032168,52.9252557 47.6130206,52.4492977 C47.1938731,51.9733398 46.5812541,51.7056177 45.9414062,51.7187816 L33.1728516,51.7187816 L33.1728516,44.5067709 L51.6461589,44.5067709 C54.038737,44.5067709 56,42.5846359 56,40.2300206 L56,10.2767503 C56,7.92613944 54.038737,6 51.6461589,6 L10.3497721,6 L10.3457031,6 Z M44.8537494,27.156601 L37.6111794,27.156601 L35.0929177,34.4437177 C34.8710807,35.0850481 33.9960566,35.1932726 33.5564905,34.6561584 L25.6525175,23.9459407 L24.6665749,26.4070461 C24.5515482,26.8359358 24.1160903,27.0483765 23.6765242,27.0483765 L15.332985,27.0483765 C14.2200268,27.0508508 13.2579382,26.2911729 13.0283442,25.2286015 C12.9243776,24.6064856 13.1094734,23.9714877 13.5334192,23.4958691 C13.957365,23.0202504 14.5762069,22.7533221 15.2220665,22.767496 L21.3718834,22.767496 L23.8942532,16.5546078 C24.1160903,15.9132774 24.9911143,15.8090612 25.4306804,16.3421671 L33.1128164,26.6234951 L34.2096775,23.4088264 C34.3351606,22.9756137 34.7344186,22.672081 35.1956201,22.6592715 L44.6360204,22.6592715 C45.7328815,22.6592715 46.7188241,23.4088264 46.9365531,24.4790466 C47.2652006,26.0863809 46.279258,27.156601 44.8537494,27.156601 Z" id="形状" fill="#FFFFFF"></path>
            </g>
        </g>
    </g>
</svg>