<?xml version="1.0" encoding="UTF-8"?>
<svg width="60px" height="60px" viewBox="0 0 60 60" version="1.1" xmlns="http://www.w3.org/2000/svg" xmlns:xlink="http://www.w3.org/1999/xlink">
    <title>矩形</title>
    <g id="修改" stroke="none" stroke-width="1" fill="none" fill-rule="evenodd">
        <g id="企业用户后台" transform="translate(-518.000000, -460.000000)" fill-rule="nonzero">
            <g id="匹配设计师-4" transform="translate(518.000000, 460.000000)">
                <rect id="矩形" fill="#000000" opacity="0" x="0" y="0" width="60" height="60"></rect>
                <polygon id="路径" fill="#FFFFFF" points="38.3378906 10.6582031 53.484375 25.9453125 46.8867188 32.3613281 36.796875 22.0429688 30.3925781 28.4414062 25.4648438 23.4433594 38.0097656 10.6582031"></polygon>
                <path d="M29.8945312,52.4765625 C29.1738281,52.4765625 28.4707031,52.1894531 27.9433594,51.6621094 L11.2617187,34.9746094 L11.2675781,34.9628906 L4.125,27.8203125 C3.04101562,26.7363281 3.04101562,24.9667969 4.125,23.8769531 L19.6289062,8.3671875 C20.71875,7.28320313 22.4824219,7.28320313 23.5722656,8.3671875 L29.859375,14.6542969 L36.2109375,8.30273438 C37.2539062,7.25976563 39.1054688,7.25390625 40.1542969,8.296875 L55.7285156,23.8710937 C56.2558594,24.3984375 56.5429687,25.0957031 56.5429687,25.8457031 C56.5429687,26.5898437 56.25,27.2929687 55.7226562,27.8203125 L31.9101563,51.6621094 C31.3769531,52.1953125 30.6796875,52.5117188 29.9179688,52.4765625 L29.8945312,52.4765625 Z M15.8554688,34.8398438 L29.9296875,48.9140625 L52.9746094,25.8515625 L38.1914062,11.0625 L29.8476563,19.4003906 L28.6640625,18.1933594 L29.7421875,16.9101562 L28.5585938,18.09375 L21.6035156,11.1269531 L6.88476562,25.8457031 L15.8671875,34.828125 L15.8554688,34.8398438 Z" id="形状" fill="#FFFFFF"></path>
                <polygon id="路径" fill="#FFFFFF" points="35.7100195 25.2397266 38.0603906 22.8585938 48.2521875 32.9185547 45.9018164 35.2997461"></polygon>
                <path d="M30.3515625,31.5410156 C29.625,31.5410156 28.8984375,31.2597656 28.3535156,30.7089844 L23.0859375,25.3300781 C22.0195312,24.2460937 22.03125,22.4882812 23.1035156,21.4101562 L29.859375,14.6542969 L32.2265625,17.0214844 L25.8632812,23.3847656 L30.3574219,27.9726562 L36.9375,21.6855469 L39.2519531,24.1054687 L32.2792969,30.7617187 C31.7460937,31.2832031 31.0488281,31.5410156 30.3515625,31.5410156 L30.3515625,31.5410156 Z M34.8222656,47.4550781 C34.3945312,47.4550781 33.9667969,47.2910156 33.6386719,46.9628906 L24.7734375,38.0976562 C24.1171875,37.4472656 24.1171875,36.3867187 24.7734375,35.7304688 C25.4296875,35.0742188 26.484375,35.0742188 27.140625,35.7304688 L36.0058594,44.5957031 C36.6621094,45.2460938 36.6621094,46.3066406 36.0058594,46.9628906 C35.6777344,47.2910156 35.25,47.4550781 34.8222656,47.4550781 L34.8222656,47.4550781 Z M39.8613281,42.4160156 C39.4335938,42.4160156 39.0058594,42.2519531 38.6777344,41.9238281 L32.5546875,35.8007812 C31.8984375,35.1503906 31.8984375,34.0898437 32.5546875,33.4335937 C33.2050781,32.7773437 34.265625,32.7773437 34.921875,33.4335937 L41.0449219,39.5566406 C41.7011719,40.2070312 41.7011719,41.2675781 41.0449219,41.9238281 C40.7167969,42.2519531 40.2890625,42.4160156 39.8613281,42.4160156 Z" id="形状" fill="#FFFFFF"></path>
            </g>
        </g>
    </g>
</svg>