<?xml version="1.0" standalone="no"?><!DOCTYPE svg PUBLIC "-//W3C//DTD SVG 1.1//EN" "http://www.w3.org/Graphics/SVG/1.1/DTD/svg11.dtd" ><svg xmlns="http://www.w3.org/2000/svg"><metadata></metadata><defs><font id="Founder:FZZongYi-M05S	Regular" horiz-adv-x="256"><font-face font-family="FZZongYi-M05S" font-weight="400" font-stretch="normal" units-per-em="256" panose-1="3 0 5 9 0 0 0 0 0 0" ascent="229" descent="-62" x-height="0" bbox="6 -25 249 209" underline-thickness="12" underline-position="-50" unicode-range="U+0030-9ad8" /><missing-glyph horiz-adv-x="256"  /><glyph glyph-name="" unicode="0" d="M94 88 q0 66 -23 67 q-23 -1 -23 -67 q0 -65 23 -66 q23 1 23 66 ZM134 88 q-1 -89 -64 -90 q-59 1 -61 90 q2 92 61 93 q62 -1 64 -93 Z" /><glyph glyph-name="" unicode="2" d="M6 0 l0 36 q4 5 21 19 q66 56 65 77 q-2 22 -22 23 q-20 -2 -22 -27 l-39 0 q1 51 61 53 q59 -3 61 -50 q0 -31 -58 -79 q-21 -18 -28 -26 l87 0 l0 -26 l-126 0 Z" /><glyph glyph-name="" unicode="&#x4e0a;" d="M83 9 l0 198 l38 0 l0 -51 l124 0 l0 -32 l-124 0 l0 -115 l124 0 l0 -30 l-229 0 l0 30 l67 0 Z" /><glyph glyph-name="" unicode="&#x4ea7;" d="M112 196 l0 9 l53 0 l0 -9 l77 0 l0 -36 l-222 0 l0 36 l92 0 ZM144 143 l37 0 q6 0 8 5 l3 4 l53 0 l-17 -25 q-7 -12 -26 -11 l-58 0 l0 27 ZM61 117 q-16 -1 -22 10 l-16 24 l49 0 l3 -3 q2 -4 6 -4 l39 0 l0 -27 l-59 0 ZM27 16 l0 92 l214 0 l0 -36 l-173 0 l0 -70 q2 -28 -23 -26 l-26 0 l0 32 q9 -1 8 8 Z" /><glyph glyph-name="" unicode="&#x4ecb;" d="M21 147 l0 30 l12 0 q9 0 15 10 l10 18 l152 0 l11 -16 q10 -15 18 -14 l8 0 l0 -28 l-25 0 q-16 0 -25 12 l-11 17 l-101 0 l-12 -17 q-7 -12 -29 -12 l-23 0 ZM44 4 q2 0 3 4 l0 128 l36 0 l0 -130 q1 -29 -28 -28 l-33 0 l0 26 l22 0 ZM193 137 l35 0 l0 -160 l-35 0 l0 160 Z" /><glyph glyph-name="" unicode="&#x4f5c;" d="M23 160 q7 0 11 8 l18 40 l37 0 l-22 -58 l0 -170 l-36 0 l0 151 l-17 0 l0 29 l9 0 ZM76 131 l0 30 l6 0 q6 0 9 8 l14 38 l39 0 l-5 -18 l105 0 l0 -31 l-114 0 l0 -46 l114 0 l0 -31 l-114 0 l0 -45 l114 0 l0 -31 l-114 0 l0 -24 l-38 0 l0 150 l-16 0 Z" /><glyph glyph-name="" unicode="&#x5171;" d="M82 177 l95 0 l0 29 l39 0 l0 -29 l23 0 l0 -30 l-25 0 l0 -67 l28 0 l0 -31 l-225 0 l0 31 l29 0 l0 66 l-24 0 l0 31 l23 0 l0 28 l37 0 l0 -28 ZM177 146 l-95 0 l0 -66 l95 0 l0 66 ZM16 7 l11 0 q8 1 10 7 l8 26 l38 0 l-12 -40 q-7 -20 -27 -21 l-28 0 l0 28 ZM209 -20 q-21 0 -25 19 l-10 40 l38 0 l8 -25 q2 -7 9 -7 l13 0 l0 -27 l-33 0 Z" /><glyph glyph-name="" unicode="&#x51b5;" d="M56 108 q-15 -1 -20 19 l-16 76 l41 0 l9 -53 q1 -13 10 -12 l9 0 l0 -30 l-33 0 ZM97 78 l0 125 l141 0 l0 -97 q2 -30 -26 -28 l-7 0 l0 -65 q0 -9 8 -9 l29 0 l0 -27 l-46 0 q-29 0 -29 31 l0 70 l-70 0 ZM200 173 l-68 0 l0 -66 l58 0 q10 0 10 12 l0 54 ZM32 4 q8 -1 9 8 l9 72 l38 0 l-9 -82 q-1 -27 -32 -25 l-28 0 l0 27 l13 0 ZM112 4 q6 0 7 7 l6 61 l35 0 l-5 -70 q-3 -26 -31 -25 l-37 0 l0 27 l25 0 Z" /><glyph glyph-name="" unicode="&#x521b;" d="M19 143 l0 30 l10 0 q6 0 7 5 l11 26 l69 0 l9 -26 q1 -5 5 -5 l13 0 l0 -30 l-29 0 q-14 -1 -17 10 l-8 20 l-18 0 l-9 -20 q-3 -11 -18 -10 l-25 0 ZM207 204 l39 0 l0 -204 q1 -24 -23 -23 l-55 0 l0 30 l34 0 q6 0 5 5 l0 192 ZM155 29 l0 161 l36 0 l0 -161 l-36 0 ZM19 132 l121 0 l0 -78 q1 -23 -15 -22 l-51 0 l0 29 l29 0 q3 1 3 4 l0 35 l-53 0 l0 -88 q-1 -7 6 -6 l82 0 l0 -29 l-96 0 q-28 -3 -26 23 l0 132 Z" /><glyph glyph-name="" unicode="&#x529b;" d="M17 188 l52 0 l2 18 l39 0 l-2 -18 l137 0 l0 -176 q2 -32 -22 -29 l-66 0 l0 27 l47 0 q7 -1 6 7 l0 142 l-105 0 l-13 -154 q1 -25 -25 -22 l-49 0 l0 27 l28 0 q10 -1 10 12 l10 137 l-49 0 l0 29 Z" /><glyph glyph-name="" unicode="&#x52a8;" d="M131 156 l0 35 l26 0 l1 14 l36 0 l-1 -14 l52 0 l0 -191 q2 -24 -21 -23 l-35 0 l0 29 l15 0 q3 1 2 4 l0 146 l-16 0 l-16 -162 q-1 -17 -20 -16 l-28 0 l0 29 l10 0 q3 -1 3 3 l15 146 l-23 0 ZM22 168 l0 35 l100 0 l0 -35 l-100 0 ZM20 103 l0 35 l101 0 l0 -35 l-41 0 l-25 -97 l28 0 q3 0 3 3 l0 39 l34 0 l0 -50 q2 -24 -20 -21 l-82 0 l0 32 l27 94 l-25 0 Z" /><glyph glyph-name="" unicode="&#x5385;" d="M24 204 l219 0 l0 -32 l-182 0 l0 -174 q1 -23 -17 -22 l-28 0 l0 24 l3 0 q5 0 5 8 l0 196 ZM244 151 l0 -33 l-6 0 l0 -120 q1 -22 -19 -21 l-81 0 l0 27 l59 0 q5 0 5 7 l0 107 l-130 0 l0 33 l172 0 Z" /><glyph glyph-name="" unicode="&#x53d1;" d="M19 148 l0 21 l9 38 l33 0 l-7 -27 l15 0 l6 27 l37 0 l-6 -27 l101 0 q6 -1 5 6 l0 20 l34 0 l0 -38 q1 -21 -19 -20 l-127 0 l-5 -23 l151 0 l0 -32 l-56 -64 l15 -16 q6 -6 14 -6 l26 0 l0 -26 l-46 0 q-12 0 -17 5 l-17 16 l-18 -15 q-8 -6 -22 -6 l-41 0 l0 27 l23 0 q8 0 15 6 l18 16 l-47 51 l50 0 l22 -25 l35 38 l-111 0 l-19 -94 q-4 -20 -16 -19 l-36 0 l0 28 l13 0 q6 0 7 7 l26 132 l-45 0 Z" /><glyph glyph-name="" unicode="&#x5408;" d="M16 164 l10 0 q4 -1 10 6 l24 36 l144 0 l17 -34 q4 -8 12 -8 l8 0 l0 -29 l-22 0 q-19 -1 -25 13 l-15 29 l-97 0 l-19 -30 q-9 -13 -21 -12 l-26 0 l0 29 ZM241 92 l-226 0 l0 29 l226 0 l0 -29 ZM236 9 q1 -30 -30 -29 l-187 0 l0 97 l217 0 l0 -68 ZM199 49 l-144 0 l0 -41 l136 0 q9 0 8 8 l0 33 Z" /><glyph glyph-name="" unicode="&#x57fa;" d="M13 196 l9 0 l0 12 l38 0 l0 -12 l133 0 l0 12 l37 0 l0 -12 l12 0 l0 -25 l-12 0 l0 -77 l10 0 l0 -22 l-39 0 l6 -6 q4 -5 11 -5 l21 0 l0 -24 l-39 0 q-17 0 -36 17 l-19 18 l-35 0 l-18 -14 q-27 -23 -46 -22 l-30 0 l0 26 l22 0 q7 1 12 5 l7 5 l-42 0 l0 22 l7 0 l0 77 l-9 0 l0 25 ZM193 161 l0 10 l-133 0 l0 -10 l133 0 ZM193 138 l-133 0 l0 -10 l133 0 l0 10 ZM193 94 l0 10 l-133 0 l0 -10 l133 0 ZM21 32 l86 0 l0 19 l39 0 l0 -19 l88 0 l0 -24 l-88 0 l0 -8 l93 0 l0 -23 l-223 0 l0 23 l91 0 l0 8 l-86 0 l0 24 Z" /><glyph glyph-name="" unicode="&#x5b66;" d="M11 145 l0 43 l18 0 l-6 19 l44 0 l7 -19 l26 0 l-8 19 l47 0 l9 -19 l27 0 l8 19 l46 0 l-8 -19 l20 0 l-9 -41 l-39 0 l0 10 l-147 0 l0 -12 l-35 0 ZM17 138 l214 0 l0 -22 l-50 -35 l0 -5 l61 0 l0 -30 l-61 0 l0 -48 q-2 -17 -18 -19 l-131 0 l0 27 l104 0 q7 -1 6 7 l0 33 l-129 0 l0 30 l129 0 l0 16 l24 16 l-149 0 l0 30 Z" /><glyph glyph-name="" unicode="&#x5bf9;" d="M137 158 l0 34 l62 0 l0 13 l37 0 l0 -13 l7 0 l0 -34 l-7 0 l0 -158 q2 -24 -17 -21 l-51 0 l0 25 l28 0 q3 0 3 3 l0 151 l-62 0 ZM20 169 l0 32 l108 0 l0 -40 l-37 -96 l20 -58 q1 -4 6 -4 l13 0 l0 -24 l-29 0 q-17 -1 -19 9 l-12 36 l-16 -33 q-5 -11 -16 -10 l-25 0 l0 25 l8 0 q4 -1 5 3 l25 57 l-28 85 l36 0 l13 -38 l22 56 l-74 0 ZM144 61 l17 74 l33 0 l-19 -94 q-3 -13 -16 -13 l-30 0 l0 30 l11 0 q4 0 4 3 Z" /><glyph glyph-name="" unicode="&#x5c55;" d="M188 121 l0 10 l34 0 l0 -10 l17 0 l0 -27 l-17 0 l0 -16 l18 0 l0 -28 l-131 0 l0 -43 q1 -2 3 -3 l36 0 l0 -27 l-53 0 q-19 -2 -18 23 l0 50 l-12 0 l0 28 l19 0 l0 16 l-15 0 l0 27 l15 0 l0 9 l34 0 l0 -9 l70 0 ZM188 78 l0 16 l-70 0 l0 -16 l70 0 ZM17 8 q9 -1 8 6 l0 192 l215 0 l0 -43 q1 -28 -24 -27 l-160 0 l0 -130 q-1 -27 -29 -28 l-10 0 l0 30 ZM206 179 l-150 0 l0 -16 l147 0 q3 0 3 3 l0 13 ZM120 45 l42 0 l7 -7 l23 0 q6 0 9 6 l33 0 l-14 -23 q-5 -7 -12 -7 l-15 0 l3 -4 q4 -6 8 -6 l35 0 l0 -27 l-47 0 q-12 1 -22 12 l-50 56 Z" /><glyph glyph-name="" unicode="&#x5e74;" d="M26 177 q8 0 12 9 l11 19 l45 0 l-6 -9 l160 0 l0 -29 l-92 0 l0 -42 l91 0 l0 -32 l-91 0 l0 -66 l92 0 l0 -29 l-92 0 l0 -19 l-40 0 l0 19 l-97 0 l0 29 l10 0 l0 98 l87 0 l0 42 l-42 0 l-9 -10 q-8 -12 -19 -11 l-27 0 l0 31 l7 0 ZM116 93 l-50 0 l0 -66 l50 0 l0 66 Z" /><glyph glyph-name="" unicode="&#x60c5;" d="M61 166 l0 39 l35 0 l0 -39 l8 0 l0 -27 l-8 0 l0 -161 l-35 0 l0 161 l-9 0 l0 -152 l-35 0 l0 209 l36 0 l0 -30 l8 0 ZM109 170 l0 28 l46 0 l0 7 l37 0 l0 -7 l49 0 l0 -28 l-47 0 l0 -6 l47 0 l0 -26 l-48 0 l0 -8 l51 0 l0 -25 l-139 0 l0 25 l50 0 l0 8 l-46 0 l0 26 l46 0 l0 6 l-46 0 ZM107 -22 l0 118 l133 0 l0 -93 q2 -27 -23 -25 l-39 0 l0 22 l21 0 q4 0 4 4 l0 1 l-60 0 l0 -27 l-36 0 ZM203 71 l-60 0 l0 -7 l60 0 l0 7 ZM143 38 l0 -7 l60 0 l0 7 l-60 0 Z" /><glyph glyph-name="" unicode="&#x6240;" d="M26 195 l64 0 q9 -1 8 6 l0 4 l31 0 l0 -15 q1 -25 -23 -24 l-43 0 l0 -19 l63 0 l0 -72 q3 -32 -30 -29 l-34 0 l0 -43 q1 -27 -30 -26 l-15 0 l0 28 l3 0 q6 0 6 7 l0 183 ZM128 6 q10 -1 9 11 l0 178 l67 0 q9 0 8 7 l0 3 l32 0 l0 -14 q2 -26 -22 -24 l-50 0 l0 -23 l73 0 l0 -33 l-12 0 l0 -134 l-37 0 l0 134 l-24 0 l0 -103 q1 -31 -28 -30 l-31 0 l0 28 l15 0 ZM63 75 l19 0 q10 -1 9 9 l0 32 l-28 0 l0 -41 Z" /><glyph glyph-name="" unicode="&#x624b;" d="M196 198 q5 1 6 4 l0 4 l37 0 l0 -25 q-1 -15 -23 -15 l-35 0 l0 -31 l56 0 l0 -30 l-56 0 l0 -26 l56 0 l0 -29 l-56 0 l0 -42 q-2 -25 -28 -27 l-133 0 l0 27 l115 0 q8 -1 7 8 l0 33 l-131 0 l0 29 l131 0 l0 27 l-128 0 l0 30 l128 0 l0 31 l-126 0 l0 32 l180 0 Z" /><glyph glyph-name="" unicode="&#x63a5;" d="M101 199 l54 0 l0 10 l37 0 l0 -10 l52 0 l0 -29 l-143 0 l0 29 ZM113 163 l35 0 l14 -32 l28 0 l10 32 l35 0 l-8 -32 l16 0 l0 -29 l-143 0 l0 29 l23 0 l-10 32 ZM95 82 l13 0 l0 14 l35 0 l0 -14 l52 0 l0 14 l35 0 l0 -14 l13 0 l0 -28 l-14 0 l0 -21 q0 -9 -9 -17 q1 0 -1 -1 l-12 -9 q9 -2 14 -2 l21 0 l0 -26 l-31 0 q-9 0 -25 4 l-11 4 l-7 -3 q-3 -2 -20 -3 l-53 0 l0 25 l26 0 q1 0 8 1 q5 0 5 0 l2 1 l-22 10 q-7 2 -6 15 l0 22 l-13 0 l0 28 ZM195 46 l0 8 l-53 0 l0 -10 q0 -7 5 -8 l27 -14 l15 13 q6 5 6 11 ZM52 190 l0 19 l37 0 l0 -18 l7 0 l0 -29 l-7 0 l0 -12 l6 0 l0 -28 l-6 0 l0 -118 q-1 -24 -33 -24 l-34 0 l0 26 l24 0 q6 0 6 9 l0 36 l-6 -14 q-4 -10 -19 -10 l-13 0 l0 30 l3 0 q3 -2 8 12 l28 70 l0 22 l-37 0 l0 29 l36 0 Z" /><glyph glyph-name="" unicode="&#x643a;" d="M13 184 l38 0 l0 20 l32 0 l0 -20 l14 0 l0 -29 l-14 0 l0 -13 l8 0 l0 -31 l-8 0 l0 -110 q1 -25 -25 -24 l-34 0 l0 28 l17 0 q10 0 10 11 l0 29 l-8 -17 q-5 -13 -20 -11 l-12 0 l0 31 q7 0 8 4 l32 73 l0 30 l-38 0 l0 29 ZM143 160 l31 0 l0 9 l-31 0 l0 -9 ZM143 126 l31 0 l0 8 l-31 0 l0 -8 ZM174 93 l0 8 l-31 0 l0 -8 l31 0 ZM235 61 l0 -10 l-6 -17 l11 0 l0 -35 q1 -24 -20 -22 l-60 0 l0 23 l41 0 q7 0 6 7 l0 5 l-21 0 l0 8 l6 14 l-36 0 l-11 -40 q-2 -18 -25 -17 l-26 0 l0 23 l12 0 q6 0 8 6 l8 28 l-20 0 l0 27 l133 0 ZM102 186 l8 0 q6 0 10 6 l5 11 l31 0 l-4 -10 l19 0 l-2 10 l38 0 l3 -10 l30 0 l0 -24 l-32 0 l0 -9 l32 0 l0 -26 l-32 0 l0 -8 l32 0 l0 -25 l-32 0 l0 -8 l31 0 l0 -24 l-96 0 l0 -5 l-35 0 l0 93 l-6 0 l0 29 Z" /><glyph glyph-name="" unicode="&#x65b0;" d="M15 196 l41 0 l0 9 l37 0 l0 -9 l43 0 l0 -30 l-121 0 l0 30 ZM144 195 l61 0 q9 -1 7 10 l31 0 l0 -18 q2 -23 -21 -21 l-45 0 l0 -20 l67 0 l0 -28 l-8 0 l0 -141 l-36 0 l0 141 l-23 0 l0 -118 q0 -26 -28 -25 l-28 0 q-21 1 -23 21 l-1 58 l28 0 l1 -38 q1 -12 8 -12 l4 0 q6 -1 6 7 l0 184 ZM15 108 l0 29 l7 0 l-6 23 l40 0 l7 -23 l21 0 l12 23 l38 0 l-9 -23 l10 0 l0 -29 l-120 0 ZM54 53 l-2 -63 q-1 -15 -22 -15 l-12 0 l0 25 q7 -1 6 7 l1 46 l29 0 ZM92 -25 l-33 0 l0 85 l-44 0 l0 29 l44 0 l0 13 l33 0 l0 -13 l42 0 l0 -29 l-42 0 l0 -85 Z" /><glyph glyph-name="" unicode="&#x672c;" d="M114 173 l0 33 l37 0 l0 -33 l93 0 l0 -30 l-93 0 l0 -99 l23 0 l0 -29 l-23 0 l0 -36 l-37 0 l0 36 l-25 0 l0 29 l25 0 l0 99 l-94 0 l0 30 l94 0 ZM43 24 l14 104 l38 0 l-16 -111 q-2 -30 -27 -29 l-33 0 l0 28 l15 0 q8 -1 9 8 ZM214 -12 q-21 2 -28 26 l-20 114 l38 0 l21 -104 q0 -9 8 -8 l11 0 l0 -28 l-30 0 Z" /><glyph glyph-name="" unicode="&#x6821;" d="M58 182 l0 22 l32 0 l0 -22 l36 0 l0 -26 l-36 0 l0 -173 l-32 0 l0 173 l-36 0 l0 26 l36 0 ZM137 193 l37 0 l0 12 l32 0 l0 -12 l38 0 l0 -28 l-107 0 l0 28 ZM137 113 l0 26 l10 0 q3 0 3 2 l5 19 l31 0 l-8 -33 q-2 -15 -23 -14 l-18 0 ZM223 114 q-18 -1 -20 13 l-7 32 l30 0 l4 -17 q1 -2 4 -2 l11 0 l0 -26 l-22 0 ZM20 -10 l0 26 q6 0 5 5 l0 121 l26 0 l0 -131 q-1 -20 -18 -21 l-13 0 ZM136 8 l12 0 q5 0 8 5 l18 27 l-40 61 l39 0 l19 -31 l16 31 l36 0 l-31 -62 l20 -31 q2 -2 9 -2 l0 -26 l-16 0 q-13 0 -18 7 l-15 24 l-14 -21 q-5 -9 -20 -9 l-23 0 l0 27 ZM132 -14 l-15 0 q-21 0 -20 26 l0 130 l25 0 l0 -122 q-1 -13 10 -11 l0 -23 Z" /><glyph glyph-name="" unicode="&#x6c5f;" d="M66 140 q-25 0 -31 17 l-17 49 l44 0 l11 -30 q3 -6 13 -6 l11 0 l0 -30 l-31 0 ZM149 170 l-47 0 l0 33 l143 0 l0 -33 l-55 0 l0 -158 l55 -1 l0 -31 l-156 0 l0 31 l60 1 l0 158 ZM61 71 q-18 0 -25 16 l-18 45 l42 0 l10 -25 q5 -9 13 -9 l15 0 l0 -27 l-37 0 ZM36 11 q8 0 9 6 l13 43 l39 0 l-16 -63 q-4 -17 -28 -17 l-37 0 l0 31 l20 0 Z" /><glyph glyph-name="" unicode="&#x6d3b;" d="M136 6 l58 0 q3 0 3 3 l0 42 l-61 0 l0 -45 ZM90 141 l59 0 l0 28 l-48 0 l0 30 l99 0 q11 -1 9 6 l0 3 l30 0 l0 -8 q2 -34 -20 -31 l-34 0 l0 -28 l54 0 l0 -31 l-54 0 l0 -27 l50 0 l0 -81 q2 -27 -35 -25 l-103 0 l0 105 l51 0 l0 28 l-58 0 l0 31 ZM81 140 l-31 0 q-15 0 -18 7 l-19 56 l38 0 l10 -30 q2 -3 7 -4 l13 0 l0 -29 ZM46 64 q-14 0 -21 28 q-1 2 -1 3 l-9 35 l37 0 l9 -33 q1 -4 8 -5 l12 0 l0 -28 l-35 0 ZM31 6 q6 -1 10 14 l7 32 l36 0 l-9 -49 q-5 -23 -23 -23 l-34 0 l0 26 l13 0 Z" /><glyph glyph-name="" unicode="&#x7814;" d="M240 202 l0 -30 l-8 0 l0 -66 l8 0 l0 -31 l-8 0 l0 -100 l-37 0 l0 99 l-23 0 l0 -70 q2 -31 -29 -29 l-26 0 l0 25 q-1 -18 -24 -16 l-71 0 l0 121 l-9 0 l0 32 l1 0 q3 0 5 5 l11 30 l-16 0 l0 30 l104 0 l0 -29 l-48 0 l-9 -22 l56 0 l0 -148 l14 0 q5 0 5 7 l0 64 l-16 0 l0 31 l16 0 l0 67 l-15 0 l0 30 l119 0 ZM195 105 l0 67 l-23 0 l0 -67 l23 0 ZM82 120 l-25 0 l0 -106 l18 0 q7 0 7 8 l0 98 Z" /><glyph glyph-name="" unicode="&#x7ecd;" d="M18 138 l38 68 l35 0 l-39 -71 l13 0 l11 18 l37 0 l-54 -96 l43 0 l0 -29 l-85 0 l0 23 l32 55 l-31 0 l0 32 ZM135 121 l8 52 l-30 0 l0 33 l129 0 l0 -95 q2 -23 -17 -21 l-40 0 l0 26 l19 0 q3 1 3 4 l0 53 l-31 0 l-10 -68 q-1 -16 -18 -15 l-35 0 l0 26 l18 0 q3 0 4 4 q0 0 0 1 ZM115 -22 l0 99 l127 0 l0 -78 q1 -22 -20 -21 l-107 0 ZM208 48 l-59 0 l0 -43 l54 0 q6 0 5 8 l0 35 ZM17 -23 l0 27 l85 0 l0 -27 l-85 0 Z" /><glyph glyph-name="" unicode="&#x7f51;" d="M19 207 l215 0 l0 -207 q2 -28 -23 -25 l-38 0 l0 27 l20 0 q9 0 8 9 l0 164 l-150 0 l0 -197 l-32 0 l0 229 ZM75 71 l-23 89 l27 0 l10 -42 l11 41 l50 0 l11 -37 l11 37 l26 0 l-24 -79 l16 -66 l-26 0 l-4 19 l-10 -33 l-26 0 l24 80 l-22 72 l-25 -82 l20 -70 l-27 0 l-7 29 l-8 -29 l-25 0 l21 71 Z" /><glyph glyph-name="" unicode="&#x805a;" d="M26 182 l-8 0 l0 23 l116 0 l0 -23 l-4 0 l0 -78 l3 0 l0 -24 l-3 0 l0 -5 l-34 0 l0 5 l-81 0 l0 24 l11 0 l0 78 ZM139 181 l0 24 l104 0 l0 -24 l-36 -49 l16 -23 q0 0 1 -1 q3 -5 9 -5 l9 0 l0 -23 l-26 0 q-14 -1 -20 9 l-10 14 l-15 -16 q-4 -7 -13 -6 l-23 0 l0 21 l4 0 q4 1 8 6 l20 23 l-27 40 l39 0 l8 -10 l15 20 l-63 0 ZM59 171 l37 0 l0 11 l-37 0 l0 -11 ZM59 147 l0 -10 l37 0 l0 10 l-37 0 ZM59 113 l0 -9 l37 0 l0 9 l-37 0 ZM21 70 l175 0 q7 -1 6 5 l36 0 l0 -12 q4 -19 -26 -16 l-64 0 l0 -70 l-38 0 l0 55 l-25 -16 q-9 -7 -22 -6 l-48 0 l0 21 l38 0 q6 0 13 4 l17 9 l27 0 l0 3 l-89 0 l0 23 ZM149 37 l37 0 l4 -5 l3 0 q5 1 6 4 l5 4 l39 0 l-19 -24 q-5 -8 -14 -7 l-8 0 l2 -5 q3 -4 10 -4 l27 0 l0 -23 l-47 0 q-13 0 -19 12 l-26 48 ZM108 8 l-19 -24 q-5 -7 -27 -7 l-47 0 l0 23 l40 0 q9 0 13 5 l3 3 l37 0 Z" /><glyph glyph-name="" unicode="&#x8d62;" d="M107 200 l0 7 l43 0 l0 -7 l93 0 l0 -25 l-180 0 l0 -2 q0 -6 8 -6 l171 0 l0 -21 l-202 0 q-12 0 -12 14 l0 15 l-12 0 l0 25 l91 0 ZM20 95 l0 44 l222 0 l0 -27 q1 -18 -18 -17 l-204 0 ZM204 112 q6 0 5 5 l0 5 l-157 0 l0 -10 l152 0 ZM164 -1 l3 0 q6 -1 5 4 l0 85 l65 0 l0 -82 q0 -5 4 -5 l1 0 l0 -21 l-17 0 q-9 -1 -9 11 l0 9 l-6 0 q-14 -1 -13 11 l0 41 l14 0 l0 -30 q0 -4 5 -4 l0 49 l-23 0 l0 -77 q0 -11 -12 -11 l-17 0 l0 20 ZM17 -21 l0 20 l4 0 q4 -1 4 4 l0 85 l63 0 l0 -96 q0 -13 -17 -13 l-14 0 l0 19 l4 0 q4 0 3 2 l0 4 l-13 0 l0 -9 q2 -17 -19 -16 l-15 0 ZM113 4 l-18 0 l0 84 l66 0 l0 -83 l-18 0 l0 62 l-30 0 l0 -63 ZM51 67 l0 -14 l13 0 l0 14 l-13 0 ZM95 -4 l10 0 q6 -1 8 4 l7 11 l0 45 l16 0 l0 -45 l9 -12 q2 -4 8 -4 l8 0 l0 -15 l-18 0 q-7 -1 -10 5 l-4 7 l-5 -8 q-2 -4 -11 -4 l-18 0 l0 16 ZM51 36 l0 -16 l13 0 l0 16 l-13 0 Z" /><glyph glyph-name="" unicode="&#x8d70;" d="M21 155 l0 31 l90 0 l0 23 l39 0 l0 -23 l89 0 l0 -31 l-90 0 l0 -31 l94 0 l0 -30 l-94 0 l0 -26 l90 0 l0 -29 l-90 0 l0 -31 l93 0 l0 -29 l-149 0 q-23 -1 -32 12 q-6 -12 -20 -12 l-26 0 l0 27 l11 0 q8 0 8 9 l0 64 l38 0 l0 -48 q4 -23 22 -23 l17 0 l0 86 l-94 0 l0 30 l94 0 l0 31 l-90 0 Z" /><glyph glyph-name="" unicode="&#x8fdb;" d="M143 193 l50 0 l0 12 l36 0 l0 -12 l12 0 l0 -32 l-12 0 l0 -41 l12 0 l0 -32 l-12 0 l0 -68 l-36 0 l0 68 l-50 0 l0 -49 q1 -20 -15 -19 l-42 0 l0 28 l14 0 q6 0 6 8 l0 32 l-19 0 l0 32 l19 0 l0 41 l-19 0 l0 32 l19 0 l0 12 l37 0 l0 -12 ZM27 162 l0 41 l43 0 l0 -41 l-43 0 ZM143 161 l0 -41 l50 0 l0 41 l-50 0 ZM32 104 l-17 0 l0 33 l55 0 l0 -116 q14 -14 29 -14 l142 0 l0 -27 l-152 0 q-15 -1 -28 11 q-4 -13 -18 -12 l-28 0 l0 28 l8 0 q10 -1 9 10 l0 87 Z" /><glyph glyph-name="" unicode="&#x9547;" d="M23 169 l10 0 q5 -1 6 6 l5 31 l31 0 l-2 -18 l34 0 l0 -29 l-38 0 l-1 -7 q-2 -11 -17 -10 l-28 0 l0 27 ZM116 193 l48 0 l0 10 l34 0 l0 -10 l51 0 l0 -26 l-51 0 l0 -14 l44 0 l0 -121 l5 0 l0 -25 l-16 0 l1 -5 q2 -2 5 -2 l10 0 l0 -23 l-31 0 q-11 -1 -12 11 l-6 19 l-30 0 l-5 -21 q-2 -10 -17 -9 l-32 0 l0 23 l14 0 q4 0 4 1 l2 6 l-20 0 l0 26 l9 0 l0 120 l41 0 l0 14 l-48 0 l0 26 ZM211 118 l0 14 l-56 0 l0 -14 l56 0 ZM45 73 l0 24 l-20 0 l0 29 l81 0 l0 -29 l-27 0 l0 -24 l28 0 l0 -29 l-28 0 l0 -36 q0 -4 3 -4 l19 0 l0 -26 l-41 0 q-15 -1 -15 20 l0 46 l-21 0 l0 29 l21 0 ZM211 89 l0 14 l-56 0 l0 -14 l56 0 ZM211 74 l-56 0 l0 -14 l56 0 l0 14 ZM155 45 l0 -13 l56 0 l0 13 l-56 0 Z" /><glyph glyph-name="" unicode="&#x9662;" d="M106 151 l0 42 l49 0 l0 10 l36 0 l0 -10 l51 0 l0 -43 l-34 0 l0 14 l-70 0 l0 -13 l-32 0 ZM14 -23 l0 222 l86 0 l0 -83 q1 -14 -16 -21 q15 -8 15 -23 l0 -63 q3 -26 -22 -23 l-28 0 l0 -9 l-35 0 ZM59 107 q9 0 8 10 l0 54 l-18 0 l0 -64 l10 0 ZM243 113 l-137 0 l0 28 l137 0 l0 -28 ZM106 68 l0 31 l136 0 l0 -31 l-26 0 l0 -58 q0 -7 6 -7 l20 0 l0 -28 l-38 0 q-27 -4 -23 25 l0 68 l-75 0 ZM49 12 l9 0 q9 -1 8 9 l0 59 l-17 0 l0 -68 ZM102 3 l16 0 q9 -1 10 8 l9 53 l33 0 l-11 -75 q-1 -15 -17 -13 l-40 0 l0 27 Z" /><glyph glyph-name="" unicode="&#x9ad8;" d="M16 195 l97 0 l0 9 l35 0 l0 -9 l95 0 l0 -28 l-227 0 l0 28 ZM22 159 l219 0 l0 -36 q1 -29 -23 -28 l-196 0 l0 64 ZM195 122 q6 0 6 6 l0 4 l-142 0 l0 -10 l136 0 ZM245 86 l0 -77 q2 -33 -20 -29 l-27 0 l0 24 l4 0 q7 -1 6 7 l0 47 l-154 0 l0 -79 l-38 0 l0 107 l229 0 ZM102 25 l0 -12 l49 0 q9 0 8 7 l0 5 l-57 0 ZM174 -12 l-110 0 l0 62 l133 0 l0 -43 q3 -21 -23 -19 Z" /></font>
</defs>
</svg>
